G04 EAGLE Gerber RS-274X export*
G75*
%MOMM*%
%FSLAX34Y34*%
%LPD*%
%INFlex Layer 2*%
%IPPOS*%
%AMOC8*
5,1,8,0,0,1.08239X$1,22.5*%
G01*
%ADD10C,0.152400*%
%ADD11C,0.203200*%
%ADD12C,1.500000*%
%ADD13C,1.950000*%
%ADD14C,1.219200*%
%ADD15C,4.016000*%
%ADD16C,0.756400*%
%ADD17C,2.540000*%
%ADD18C,0.295000*%
%ADD19C,1.905000*%

G36*
X488970Y5084D02*
X488970Y5084D01*
X488989Y5082D01*
X489091Y5104D01*
X489193Y5120D01*
X489210Y5130D01*
X489230Y5134D01*
X489319Y5187D01*
X489410Y5236D01*
X489424Y5250D01*
X489441Y5260D01*
X489508Y5339D01*
X489580Y5414D01*
X489588Y5432D01*
X489601Y5447D01*
X489640Y5543D01*
X489683Y5637D01*
X489685Y5657D01*
X489693Y5675D01*
X489711Y5842D01*
X489711Y152908D01*
X489708Y152928D01*
X489710Y152947D01*
X489688Y153049D01*
X489672Y153151D01*
X489662Y153168D01*
X489658Y153188D01*
X489605Y153277D01*
X489556Y153368D01*
X489542Y153382D01*
X489532Y153399D01*
X489453Y153466D01*
X489378Y153538D01*
X489360Y153546D01*
X489345Y153559D01*
X489249Y153598D01*
X489155Y153641D01*
X489135Y153643D01*
X489117Y153651D01*
X488950Y153669D01*
X460645Y153669D01*
X455276Y155893D01*
X451168Y160001D01*
X448944Y165370D01*
X448944Y171180D01*
X451168Y176549D01*
X455276Y180657D01*
X460645Y182881D01*
X488950Y182881D01*
X488970Y182884D01*
X488989Y182882D01*
X489091Y182904D01*
X489193Y182920D01*
X489210Y182930D01*
X489230Y182934D01*
X489319Y182987D01*
X489410Y183036D01*
X489424Y183050D01*
X489441Y183060D01*
X489508Y183139D01*
X489580Y183214D01*
X489588Y183232D01*
X489601Y183247D01*
X489640Y183343D01*
X489683Y183437D01*
X489685Y183457D01*
X489693Y183475D01*
X489711Y183642D01*
X489711Y224458D01*
X489708Y224478D01*
X489710Y224497D01*
X489688Y224599D01*
X489672Y224701D01*
X489662Y224718D01*
X489658Y224738D01*
X489605Y224827D01*
X489556Y224918D01*
X489542Y224932D01*
X489532Y224949D01*
X489453Y225016D01*
X489378Y225088D01*
X489360Y225096D01*
X489345Y225109D01*
X489249Y225148D01*
X489155Y225191D01*
X489135Y225193D01*
X489117Y225201D01*
X488950Y225219D01*
X447618Y225219D01*
X447528Y225205D01*
X447437Y225197D01*
X447408Y225185D01*
X447376Y225180D01*
X447295Y225137D01*
X447211Y225101D01*
X447179Y225075D01*
X447158Y225064D01*
X447136Y225041D01*
X447080Y224996D01*
X446345Y224262D01*
X443088Y222912D01*
X439562Y222912D01*
X436305Y224262D01*
X433812Y226755D01*
X432462Y230012D01*
X432462Y233538D01*
X433812Y236795D01*
X436305Y239288D01*
X439562Y240638D01*
X443088Y240638D01*
X443377Y240518D01*
X443472Y240496D01*
X443565Y240467D01*
X443591Y240468D01*
X443617Y240462D01*
X443713Y240471D01*
X443811Y240473D01*
X443835Y240482D01*
X443861Y240485D01*
X443951Y240524D01*
X444042Y240558D01*
X444062Y240574D01*
X444086Y240585D01*
X444158Y240651D01*
X444234Y240712D01*
X444248Y240734D01*
X444267Y240751D01*
X444314Y240837D01*
X444367Y240919D01*
X444373Y240944D01*
X444386Y240967D01*
X444403Y241063D01*
X444427Y241157D01*
X444425Y241183D01*
X444430Y241209D01*
X444415Y241305D01*
X444408Y241402D01*
X444398Y241426D01*
X444394Y241452D01*
X444350Y241539D01*
X444312Y241629D01*
X444291Y241654D01*
X444282Y241671D01*
X444259Y241694D01*
X444207Y241760D01*
X443337Y242630D01*
X441987Y245887D01*
X441987Y249413D01*
X443337Y252670D01*
X445830Y255163D01*
X449087Y256513D01*
X452427Y256513D01*
X452498Y256524D01*
X452569Y256526D01*
X452618Y256544D01*
X452670Y256552D01*
X452733Y256586D01*
X452801Y256611D01*
X452841Y256643D01*
X452887Y256668D01*
X452937Y256720D01*
X452993Y256764D01*
X453021Y256808D01*
X453057Y256846D01*
X453087Y256911D01*
X453126Y256971D01*
X453138Y257022D01*
X453160Y257069D01*
X453168Y257140D01*
X453186Y257210D01*
X453182Y257262D01*
X453187Y257313D01*
X453172Y257384D01*
X453166Y257455D01*
X453146Y257503D01*
X453135Y257554D01*
X453098Y257615D01*
X453070Y257681D01*
X453025Y257737D01*
X453009Y257765D01*
X452991Y257780D01*
X452965Y257812D01*
X452567Y258210D01*
X451218Y261468D01*
X451218Y264994D01*
X452567Y268251D01*
X455060Y270744D01*
X458318Y272093D01*
X461844Y272093D01*
X465101Y270744D01*
X465541Y270304D01*
X465615Y270251D01*
X465685Y270191D01*
X465715Y270179D01*
X465741Y270160D01*
X465828Y270133D01*
X465913Y270099D01*
X465954Y270095D01*
X465976Y270088D01*
X466008Y270089D01*
X466080Y270081D01*
X488950Y270081D01*
X488970Y270084D01*
X488989Y270082D01*
X489091Y270104D01*
X489193Y270120D01*
X489210Y270130D01*
X489230Y270134D01*
X489319Y270187D01*
X489410Y270236D01*
X489424Y270250D01*
X489441Y270260D01*
X489508Y270339D01*
X489579Y270414D01*
X489588Y270432D01*
X489601Y270447D01*
X489640Y270543D01*
X489683Y270637D01*
X489685Y270657D01*
X489693Y270675D01*
X489711Y270842D01*
X489711Y273558D01*
X489708Y273578D01*
X489710Y273597D01*
X489688Y273699D01*
X489671Y273801D01*
X489662Y273818D01*
X489658Y273838D01*
X489605Y273927D01*
X489556Y274018D01*
X489542Y274032D01*
X489532Y274049D01*
X489453Y274116D01*
X489378Y274188D01*
X489360Y274196D01*
X489345Y274209D01*
X489249Y274248D01*
X489155Y274291D01*
X489135Y274293D01*
X489117Y274301D01*
X488950Y274319D01*
X460645Y274319D01*
X455276Y276543D01*
X451168Y280651D01*
X448944Y286020D01*
X448944Y291830D01*
X451168Y297199D01*
X455276Y301307D01*
X460645Y303531D01*
X488950Y303531D01*
X488970Y303534D01*
X488989Y303532D01*
X489091Y303554D01*
X489193Y303570D01*
X489210Y303580D01*
X489230Y303584D01*
X489319Y303637D01*
X489410Y303686D01*
X489424Y303700D01*
X489441Y303710D01*
X489508Y303789D01*
X489579Y303864D01*
X489588Y303882D01*
X489601Y303897D01*
X489640Y303993D01*
X489683Y304087D01*
X489685Y304107D01*
X489693Y304125D01*
X489711Y304292D01*
X489711Y456439D01*
X495808Y456439D01*
X495828Y456442D01*
X495847Y456440D01*
X495949Y456462D01*
X496051Y456478D01*
X496068Y456488D01*
X496088Y456492D01*
X496177Y456545D01*
X496268Y456594D01*
X496282Y456608D01*
X496299Y456618D01*
X496366Y456697D01*
X496438Y456772D01*
X496446Y456790D01*
X496459Y456805D01*
X496498Y456901D01*
X496541Y456995D01*
X496543Y457015D01*
X496551Y457033D01*
X496569Y457200D01*
X496569Y1020826D01*
X496566Y1020846D01*
X496568Y1020865D01*
X496546Y1020967D01*
X496530Y1021069D01*
X496520Y1021086D01*
X496516Y1021106D01*
X496463Y1021195D01*
X496414Y1021286D01*
X496400Y1021300D01*
X496390Y1021317D01*
X496311Y1021384D01*
X496236Y1021456D01*
X496218Y1021464D01*
X496203Y1021477D01*
X496107Y1021516D01*
X496013Y1021559D01*
X495993Y1021561D01*
X495975Y1021569D01*
X495808Y1021587D01*
X469584Y1021587D01*
X469137Y1022034D01*
X469137Y1098866D01*
X469584Y1099313D01*
X495808Y1099313D01*
X495828Y1099316D01*
X495847Y1099314D01*
X495949Y1099336D01*
X496051Y1099352D01*
X496068Y1099362D01*
X496088Y1099366D01*
X496177Y1099419D01*
X496268Y1099468D01*
X496282Y1099482D01*
X496299Y1099492D01*
X496366Y1099571D01*
X496438Y1099646D01*
X496446Y1099664D01*
X496459Y1099679D01*
X496498Y1099775D01*
X496541Y1099869D01*
X496543Y1099889D01*
X496551Y1099907D01*
X496569Y1100074D01*
X496569Y1137158D01*
X496566Y1137178D01*
X496568Y1137197D01*
X496546Y1137299D01*
X496530Y1137401D01*
X496520Y1137418D01*
X496516Y1137438D01*
X496463Y1137527D01*
X496414Y1137618D01*
X496400Y1137632D01*
X496390Y1137649D01*
X496311Y1137716D01*
X496236Y1137788D01*
X496218Y1137796D01*
X496203Y1137809D01*
X496107Y1137848D01*
X496013Y1137891D01*
X495993Y1137893D01*
X495975Y1137901D01*
X495808Y1137919D01*
X234950Y1137919D01*
X234930Y1137916D01*
X234911Y1137918D01*
X234809Y1137896D01*
X234707Y1137880D01*
X234690Y1137870D01*
X234670Y1137866D01*
X234581Y1137813D01*
X234490Y1137764D01*
X234476Y1137750D01*
X234459Y1137740D01*
X234392Y1137661D01*
X234321Y1137586D01*
X234312Y1137568D01*
X234299Y1137553D01*
X234260Y1137457D01*
X234217Y1137363D01*
X234215Y1137343D01*
X234207Y1137325D01*
X234189Y1137158D01*
X234189Y1049677D01*
X234199Y1049612D01*
X234200Y1049547D01*
X234223Y1049467D01*
X234229Y1049434D01*
X234238Y1049417D01*
X234247Y1049385D01*
X234443Y1048912D01*
X234443Y998963D01*
X233553Y996815D01*
X222385Y985647D01*
X220237Y984757D01*
X186885Y984757D01*
X186795Y984743D01*
X186704Y984735D01*
X186675Y984723D01*
X186643Y984718D01*
X186562Y984675D01*
X186478Y984639D01*
X186446Y984613D01*
X186425Y984602D01*
X186403Y984579D01*
X186347Y984534D01*
X167991Y966178D01*
X167938Y966104D01*
X167878Y966034D01*
X167866Y966004D01*
X167847Y965978D01*
X167820Y965891D01*
X167786Y965806D01*
X167782Y965765D01*
X167775Y965743D01*
X167776Y965711D01*
X167768Y965640D01*
X167768Y919588D01*
X166878Y917440D01*
X152116Y902678D01*
X152063Y902604D01*
X152003Y902534D01*
X151991Y902504D01*
X151972Y902478D01*
X151945Y902391D01*
X151911Y902306D01*
X151907Y902265D01*
X151900Y902243D01*
X151901Y902211D01*
X151893Y902140D01*
X151893Y475810D01*
X151907Y475720D01*
X151915Y475629D01*
X151927Y475600D01*
X151932Y475568D01*
X151975Y475487D01*
X152011Y475403D01*
X152037Y475371D01*
X152048Y475350D01*
X152071Y475328D01*
X152116Y475272D01*
X154597Y472791D01*
X154671Y472738D01*
X154741Y472678D01*
X154771Y472666D01*
X154797Y472647D01*
X154884Y472620D01*
X154969Y472586D01*
X155010Y472582D01*
X155032Y472575D01*
X155064Y472576D01*
X155135Y472568D01*
X347237Y472568D01*
X349385Y471678D01*
X357378Y463685D01*
X358268Y461537D01*
X358268Y460474D01*
X358271Y460454D01*
X358269Y460435D01*
X358291Y460333D01*
X358307Y460231D01*
X358317Y460214D01*
X358321Y460194D01*
X358374Y460105D01*
X358423Y460014D01*
X358437Y460000D01*
X358447Y459983D01*
X358526Y459916D01*
X358601Y459844D01*
X358619Y459836D01*
X358634Y459823D01*
X358730Y459784D01*
X358824Y459741D01*
X358844Y459739D01*
X358862Y459731D01*
X359029Y459713D01*
X360538Y459713D01*
X363795Y458363D01*
X366288Y455870D01*
X367638Y452613D01*
X367638Y449087D01*
X366288Y445830D01*
X363795Y443337D01*
X360538Y441987D01*
X359029Y441987D01*
X359009Y441984D01*
X358990Y441986D01*
X358888Y441964D01*
X358786Y441948D01*
X358769Y441938D01*
X358749Y441934D01*
X358660Y441881D01*
X358569Y441832D01*
X358555Y441818D01*
X358538Y441808D01*
X358471Y441729D01*
X358399Y441654D01*
X358391Y441636D01*
X358378Y441621D01*
X358339Y441525D01*
X358296Y441431D01*
X358294Y441411D01*
X358286Y441393D01*
X358268Y441226D01*
X358268Y433813D01*
X357378Y431665D01*
X342616Y416903D01*
X342563Y416829D01*
X342503Y416759D01*
X342491Y416729D01*
X342472Y416703D01*
X342445Y416616D01*
X342411Y416531D01*
X342407Y416490D01*
X342400Y416468D01*
X342401Y416436D01*
X342393Y416365D01*
X342393Y411588D01*
X341721Y409965D01*
X341710Y409921D01*
X341691Y409879D01*
X341682Y409802D01*
X341664Y409726D01*
X341669Y409680D01*
X341664Y409635D01*
X341680Y409558D01*
X341688Y409481D01*
X341706Y409439D01*
X341716Y409394D01*
X341756Y409327D01*
X341788Y409256D01*
X341819Y409222D01*
X341842Y409183D01*
X341901Y409132D01*
X341954Y409075D01*
X341994Y409053D01*
X342029Y409023D01*
X342101Y408994D01*
X342169Y408957D01*
X342215Y408948D01*
X342257Y408931D01*
X342393Y408916D01*
X342412Y408913D01*
X342417Y408914D01*
X342424Y408913D01*
X344663Y408913D01*
X347920Y407563D01*
X350413Y405070D01*
X351763Y401813D01*
X351763Y398287D01*
X350413Y395030D01*
X347920Y392537D01*
X344663Y391187D01*
X341137Y391187D01*
X337880Y392537D01*
X335387Y395030D01*
X334332Y397575D01*
X334281Y397658D01*
X334235Y397744D01*
X334216Y397762D01*
X334203Y397784D01*
X334128Y397846D01*
X334057Y397913D01*
X334033Y397924D01*
X334013Y397941D01*
X333922Y397976D01*
X333834Y398017D01*
X333808Y398020D01*
X333784Y398029D01*
X333686Y398033D01*
X333590Y398044D01*
X333564Y398038D01*
X333538Y398039D01*
X333444Y398012D01*
X333349Y397992D01*
X333327Y397978D01*
X333302Y397971D01*
X333222Y397915D01*
X333138Y397865D01*
X333121Y397845D01*
X333100Y397831D01*
X333041Y397752D01*
X332978Y397678D01*
X332968Y397654D01*
X332953Y397633D01*
X332923Y397541D01*
X332886Y397450D01*
X332883Y397418D01*
X332877Y397399D01*
X332877Y397366D01*
X332868Y397284D01*
X332868Y377416D01*
X332883Y377320D01*
X332893Y377223D01*
X332903Y377199D01*
X332907Y377174D01*
X332953Y377088D01*
X332993Y376999D01*
X333010Y376979D01*
X333023Y376956D01*
X333093Y376889D01*
X333159Y376818D01*
X333182Y376805D01*
X333201Y376787D01*
X333289Y376746D01*
X333375Y376699D01*
X333400Y376694D01*
X333424Y376683D01*
X333521Y376673D01*
X333617Y376655D01*
X333643Y376659D01*
X333668Y376656D01*
X333764Y376677D01*
X333860Y376691D01*
X333883Y376703D01*
X333909Y376708D01*
X333992Y376758D01*
X334079Y376803D01*
X334098Y376821D01*
X334120Y376835D01*
X334183Y376909D01*
X334251Y376978D01*
X334267Y377007D01*
X334280Y377022D01*
X334292Y377052D01*
X334332Y377125D01*
X335387Y379670D01*
X337880Y382163D01*
X341137Y383513D01*
X344663Y383513D01*
X347920Y382163D01*
X350413Y379670D01*
X351763Y376413D01*
X351763Y372887D01*
X350413Y369630D01*
X348679Y367895D01*
X348611Y367801D01*
X348541Y367707D01*
X348539Y367701D01*
X348536Y367696D01*
X348501Y367585D01*
X348465Y367473D01*
X348465Y367466D01*
X348463Y367460D01*
X348466Y367344D01*
X348467Y367227D01*
X348469Y367220D01*
X348470Y367215D01*
X348476Y367197D01*
X348514Y367066D01*
X348588Y366888D01*
X348588Y363722D01*
X348602Y363632D01*
X348610Y363541D01*
X348622Y363512D01*
X348627Y363480D01*
X348670Y363399D01*
X348706Y363315D01*
X348732Y363283D01*
X348743Y363262D01*
X348766Y363240D01*
X348811Y363184D01*
X350413Y361581D01*
X351763Y358324D01*
X351763Y354798D01*
X350413Y351541D01*
X347920Y349048D01*
X344663Y347698D01*
X341137Y347698D01*
X337880Y349048D01*
X335387Y351541D01*
X334037Y354798D01*
X334037Y357964D01*
X334023Y358054D01*
X334015Y358145D01*
X334003Y358174D01*
X333998Y358206D01*
X333955Y358287D01*
X333919Y358371D01*
X333893Y358403D01*
X333882Y358424D01*
X333859Y358446D01*
X333814Y358502D01*
X333281Y359035D01*
X333244Y359062D01*
X333213Y359096D01*
X333145Y359133D01*
X333081Y359179D01*
X333037Y359192D01*
X332997Y359214D01*
X332921Y359228D01*
X332846Y359251D01*
X332800Y359250D01*
X332755Y359258D01*
X332678Y359247D01*
X332600Y359245D01*
X332557Y359229D01*
X332512Y359222D01*
X332442Y359187D01*
X332369Y359160D01*
X332334Y359132D01*
X332293Y359111D01*
X332238Y359055D01*
X332177Y359007D01*
X332153Y358968D01*
X332120Y358935D01*
X332054Y358815D01*
X332044Y358800D01*
X332043Y358795D01*
X332039Y358788D01*
X331978Y358640D01*
X327160Y353822D01*
X326190Y353420D01*
X326173Y353410D01*
X326154Y353404D01*
X326069Y353345D01*
X325981Y353290D01*
X325968Y353275D01*
X325952Y353264D01*
X325890Y353181D01*
X325824Y353101D01*
X325817Y353082D01*
X325805Y353066D01*
X325773Y352968D01*
X325736Y352871D01*
X325735Y352851D01*
X325729Y352832D01*
X325730Y352729D01*
X325725Y352626D01*
X325731Y352606D01*
X325731Y352586D01*
X325778Y352425D01*
X326363Y351013D01*
X326363Y347487D01*
X325013Y344230D01*
X322520Y341737D01*
X319263Y340387D01*
X315737Y340387D01*
X312480Y341737D01*
X309987Y344230D01*
X308637Y347487D01*
X308637Y351013D01*
X309987Y354270D01*
X311326Y355610D01*
X311338Y355626D01*
X311353Y355638D01*
X311409Y355726D01*
X311469Y355809D01*
X311475Y355828D01*
X311486Y355845D01*
X311511Y355946D01*
X311542Y356044D01*
X311541Y356064D01*
X311546Y356084D01*
X311538Y356187D01*
X311535Y356290D01*
X311529Y356309D01*
X311527Y356329D01*
X311487Y356424D01*
X311451Y356521D01*
X311438Y356537D01*
X311431Y356555D01*
X311326Y356686D01*
X309372Y358640D01*
X308482Y360788D01*
X308482Y423437D01*
X309372Y425585D01*
X314190Y430403D01*
X314517Y430539D01*
X314617Y430600D01*
X314717Y430660D01*
X314721Y430665D01*
X314726Y430668D01*
X314801Y430758D01*
X314877Y430847D01*
X314879Y430853D01*
X314883Y430858D01*
X314925Y430966D01*
X314969Y431075D01*
X314970Y431083D01*
X314971Y431087D01*
X314972Y431106D01*
X314987Y431242D01*
X314987Y433563D01*
X316337Y436820D01*
X316874Y437358D01*
X316916Y437416D01*
X316965Y437468D01*
X316987Y437515D01*
X317017Y437557D01*
X317039Y437626D01*
X317069Y437691D01*
X317075Y437743D01*
X317090Y437793D01*
X317088Y437864D01*
X317096Y437935D01*
X317085Y437986D01*
X317083Y438038D01*
X317059Y438106D01*
X317044Y438176D01*
X317017Y438221D01*
X316999Y438269D01*
X316954Y438325D01*
X316917Y438387D01*
X316878Y438421D01*
X316845Y438461D01*
X316785Y438500D01*
X316731Y438547D01*
X316682Y438566D01*
X316638Y438594D01*
X316569Y438612D01*
X316502Y438639D01*
X316431Y438647D01*
X316400Y438655D01*
X316377Y438653D01*
X316336Y438657D01*
X299614Y438657D01*
X299544Y438646D01*
X299472Y438644D01*
X299423Y438626D01*
X299372Y438618D01*
X299308Y438584D01*
X299241Y438559D01*
X299200Y438527D01*
X299154Y438502D01*
X299105Y438451D01*
X299049Y438406D01*
X299021Y438362D01*
X298985Y438324D01*
X298955Y438259D01*
X298916Y438199D01*
X298903Y438148D01*
X298881Y438101D01*
X298873Y438030D01*
X298856Y437960D01*
X298860Y437908D01*
X298854Y437857D01*
X298869Y437786D01*
X298875Y437715D01*
X298895Y437667D01*
X298906Y437616D01*
X298943Y437555D01*
X298971Y437489D01*
X299016Y437433D01*
X299033Y437405D01*
X299050Y437390D01*
X299076Y437358D01*
X299613Y436820D01*
X300963Y433563D01*
X300963Y430037D01*
X299613Y426780D01*
X297120Y424287D01*
X293863Y422937D01*
X290337Y422937D01*
X287080Y424287D01*
X284587Y426780D01*
X283237Y430037D01*
X283237Y433563D01*
X284587Y436820D01*
X285124Y437358D01*
X285166Y437416D01*
X285215Y437468D01*
X285237Y437515D01*
X285267Y437557D01*
X285289Y437626D01*
X285319Y437691D01*
X285325Y437743D01*
X285340Y437793D01*
X285338Y437864D01*
X285346Y437935D01*
X285335Y437986D01*
X285333Y438038D01*
X285309Y438106D01*
X285294Y438176D01*
X285267Y438221D01*
X285249Y438269D01*
X285204Y438325D01*
X285167Y438387D01*
X285128Y438421D01*
X285095Y438461D01*
X285035Y438500D01*
X284981Y438547D01*
X284932Y438566D01*
X284888Y438594D01*
X284819Y438612D01*
X284752Y438639D01*
X284681Y438647D01*
X284650Y438655D01*
X284627Y438653D01*
X284586Y438657D01*
X269435Y438657D01*
X269345Y438643D01*
X269254Y438635D01*
X269225Y438623D01*
X269193Y438618D01*
X269112Y438575D01*
X269028Y438539D01*
X268996Y438513D01*
X268975Y438502D01*
X268953Y438479D01*
X268897Y438434D01*
X255885Y425422D01*
X255597Y425135D01*
X255541Y425055D01*
X255479Y424980D01*
X255469Y424956D01*
X255454Y424935D01*
X255425Y424842D01*
X255390Y424751D01*
X255389Y424725D01*
X255382Y424700D01*
X255384Y424602D01*
X255380Y424505D01*
X255387Y424480D01*
X255388Y424454D01*
X255421Y424362D01*
X255448Y424269D01*
X255463Y424247D01*
X255472Y424223D01*
X255533Y424147D01*
X255589Y424067D01*
X255610Y424051D01*
X255626Y424031D01*
X255708Y423978D01*
X255786Y423920D01*
X255811Y423912D01*
X255833Y423898D01*
X255927Y423874D01*
X256020Y423844D01*
X256046Y423844D01*
X256071Y423838D01*
X256169Y423845D01*
X256266Y423846D01*
X256297Y423855D01*
X256317Y423857D01*
X256347Y423870D01*
X256427Y423893D01*
X258587Y424788D01*
X262113Y424788D01*
X265370Y423438D01*
X267863Y420945D01*
X269213Y417688D01*
X269213Y414162D01*
X267863Y410905D01*
X265370Y408412D01*
X262113Y407062D01*
X258587Y407062D01*
X255330Y408412D01*
X252837Y410905D01*
X251487Y414162D01*
X251487Y417688D01*
X252837Y420945D01*
X253867Y421976D01*
X253924Y422055D01*
X253986Y422130D01*
X253995Y422154D01*
X254010Y422175D01*
X254039Y422268D01*
X254074Y422359D01*
X254075Y422385D01*
X254083Y422410D01*
X254080Y422508D01*
X254084Y422605D01*
X254077Y422630D01*
X254076Y422656D01*
X254043Y422748D01*
X254016Y422841D01*
X254001Y422863D01*
X253992Y422887D01*
X253931Y422964D01*
X253876Y423043D01*
X253855Y423059D01*
X253838Y423079D01*
X253756Y423132D01*
X253678Y423190D01*
X253653Y423198D01*
X253631Y423212D01*
X253537Y423236D01*
X253444Y423266D01*
X253418Y423266D01*
X253393Y423272D01*
X253296Y423265D01*
X253198Y423264D01*
X253167Y423255D01*
X253148Y423253D01*
X253117Y423240D01*
X253037Y423217D01*
X251987Y422782D01*
X241552Y422782D01*
X241532Y422779D01*
X241512Y422781D01*
X241411Y422759D01*
X241309Y422743D01*
X241291Y422733D01*
X241272Y422729D01*
X241183Y422676D01*
X241091Y422627D01*
X241078Y422613D01*
X241061Y422603D01*
X240993Y422524D01*
X240922Y422449D01*
X240914Y422431D01*
X240901Y422416D01*
X240862Y422320D01*
X240818Y422226D01*
X240816Y422206D01*
X240809Y422188D01*
X240790Y422021D01*
X240790Y420665D01*
X239441Y417407D01*
X236948Y414914D01*
X233691Y413565D01*
X230165Y413565D01*
X226907Y414914D01*
X224414Y417407D01*
X223065Y420665D01*
X223065Y422676D01*
X223046Y422791D01*
X223029Y422907D01*
X223026Y422913D01*
X223025Y422919D01*
X222971Y423021D01*
X222918Y423126D01*
X222913Y423131D01*
X222910Y423136D01*
X222826Y423216D01*
X222742Y423298D01*
X222735Y423302D01*
X222732Y423305D01*
X222715Y423313D01*
X222595Y423379D01*
X220405Y424287D01*
X217912Y426780D01*
X217132Y428662D01*
X217070Y428762D01*
X217010Y428862D01*
X217005Y428866D01*
X217002Y428871D01*
X216912Y428946D01*
X216823Y429022D01*
X216817Y429024D01*
X216813Y429028D01*
X216704Y429070D01*
X216595Y429114D01*
X216588Y429115D01*
X216583Y429116D01*
X216565Y429117D01*
X216428Y429132D01*
X155135Y429132D01*
X155045Y429118D01*
X154954Y429110D01*
X154925Y429098D01*
X154893Y429093D01*
X154812Y429050D01*
X154728Y429014D01*
X154696Y428988D01*
X154675Y428977D01*
X154653Y428954D01*
X154597Y428909D01*
X152116Y426428D01*
X152063Y426354D01*
X152003Y426284D01*
X151991Y426254D01*
X151972Y426228D01*
X151945Y426141D01*
X151911Y426056D01*
X151907Y426015D01*
X151900Y425993D01*
X151901Y425961D01*
X151893Y425890D01*
X151893Y307535D01*
X151907Y307445D01*
X151915Y307354D01*
X151927Y307325D01*
X151932Y307293D01*
X151975Y307212D01*
X152011Y307128D01*
X152037Y307096D01*
X152048Y307075D01*
X152071Y307053D01*
X152116Y306997D01*
X166878Y292235D01*
X167768Y290087D01*
X167768Y243313D01*
X166878Y241165D01*
X152116Y226403D01*
X152063Y226329D01*
X152003Y226259D01*
X151991Y226229D01*
X151972Y226203D01*
X151945Y226116D01*
X151911Y226031D01*
X151907Y225990D01*
X151900Y225968D01*
X151901Y225936D01*
X151893Y225865D01*
X151893Y129013D01*
X151003Y126865D01*
X149360Y125222D01*
X148934Y125045D01*
X148834Y124983D01*
X148734Y124924D01*
X148730Y124919D01*
X148725Y124916D01*
X148650Y124825D01*
X148574Y124737D01*
X148572Y124731D01*
X148568Y124726D01*
X148526Y124618D01*
X148482Y124509D01*
X148481Y124501D01*
X148480Y124497D01*
X148479Y124478D01*
X148464Y124342D01*
X148464Y5842D01*
X148467Y5822D01*
X148465Y5803D01*
X148487Y5701D01*
X148504Y5599D01*
X148513Y5582D01*
X148517Y5562D01*
X148570Y5473D01*
X148619Y5382D01*
X148633Y5368D01*
X148643Y5351D01*
X148722Y5284D01*
X148797Y5212D01*
X148815Y5204D01*
X148830Y5191D01*
X148926Y5152D01*
X149020Y5109D01*
X149040Y5107D01*
X149058Y5099D01*
X149225Y5081D01*
X488950Y5081D01*
X488970Y5084D01*
G37*
G36*
X142641Y5084D02*
X142641Y5084D01*
X142660Y5082D01*
X142762Y5104D01*
X142864Y5120D01*
X142881Y5130D01*
X142901Y5134D01*
X142990Y5187D01*
X143081Y5236D01*
X143095Y5250D01*
X143112Y5260D01*
X143179Y5339D01*
X143251Y5414D01*
X143259Y5432D01*
X143272Y5447D01*
X143311Y5543D01*
X143354Y5637D01*
X143356Y5657D01*
X143364Y5675D01*
X143382Y5842D01*
X143382Y123571D01*
X143379Y123591D01*
X143381Y123610D01*
X143359Y123712D01*
X143343Y123814D01*
X143333Y123831D01*
X143329Y123851D01*
X143276Y123940D01*
X143227Y124031D01*
X143213Y124045D01*
X143203Y124062D01*
X143124Y124129D01*
X143049Y124201D01*
X143031Y124209D01*
X143016Y124222D01*
X142920Y124261D01*
X142826Y124304D01*
X142806Y124306D01*
X142788Y124314D01*
X142621Y124332D01*
X139799Y124332D01*
X139779Y124329D01*
X139760Y124331D01*
X139658Y124309D01*
X139556Y124293D01*
X139539Y124283D01*
X139519Y124279D01*
X139430Y124226D01*
X139339Y124177D01*
X139325Y124163D01*
X139308Y124153D01*
X139241Y124074D01*
X139169Y123999D01*
X139161Y123981D01*
X139148Y123966D01*
X139109Y123870D01*
X139066Y123776D01*
X139064Y123756D01*
X139056Y123738D01*
X139038Y123571D01*
X139038Y122062D01*
X137688Y118805D01*
X135195Y116312D01*
X131938Y114962D01*
X130274Y114962D01*
X130254Y114959D01*
X130235Y114961D01*
X130133Y114939D01*
X130031Y114923D01*
X130014Y114913D01*
X129994Y114909D01*
X129905Y114856D01*
X129814Y114807D01*
X129800Y114793D01*
X129783Y114783D01*
X129716Y114704D01*
X129644Y114629D01*
X129636Y114611D01*
X129623Y114596D01*
X129584Y114500D01*
X129541Y114406D01*
X129539Y114386D01*
X129531Y114368D01*
X129513Y114201D01*
X129513Y112537D01*
X128163Y109280D01*
X125670Y106787D01*
X122413Y105437D01*
X118887Y105437D01*
X115630Y106787D01*
X113137Y109280D01*
X112128Y111716D01*
X112079Y111793D01*
X112038Y111874D01*
X112015Y111897D01*
X111998Y111925D01*
X111928Y111983D01*
X111863Y112047D01*
X111827Y112067D01*
X111808Y112081D01*
X111778Y112093D01*
X111716Y112128D01*
X109280Y113137D01*
X106787Y115630D01*
X105437Y118887D01*
X105437Y122413D01*
X105796Y123280D01*
X105807Y123324D01*
X105826Y123366D01*
X105835Y123443D01*
X105852Y123519D01*
X105848Y123565D01*
X105853Y123610D01*
X105837Y123687D01*
X105829Y123764D01*
X105811Y123806D01*
X105801Y123851D01*
X105761Y123918D01*
X105729Y123989D01*
X105698Y124023D01*
X105675Y124062D01*
X105616Y124113D01*
X105563Y124170D01*
X105523Y124192D01*
X105488Y124222D01*
X105416Y124251D01*
X105347Y124288D01*
X105302Y124297D01*
X105260Y124314D01*
X105124Y124329D01*
X105105Y124332D01*
X105100Y124331D01*
X105093Y124332D01*
X103613Y124332D01*
X101465Y125222D01*
X99822Y126865D01*
X98932Y129013D01*
X98932Y163071D01*
X98921Y163141D01*
X98919Y163213D01*
X98901Y163262D01*
X98893Y163313D01*
X98859Y163377D01*
X98834Y163444D01*
X98802Y163485D01*
X98777Y163531D01*
X98725Y163580D01*
X98681Y163636D01*
X98637Y163664D01*
X98599Y163700D01*
X98534Y163730D01*
X98474Y163769D01*
X98423Y163782D01*
X98376Y163804D01*
X98305Y163812D01*
X98235Y163829D01*
X98183Y163825D01*
X98132Y163831D01*
X98061Y163816D01*
X97990Y163810D01*
X97942Y163790D01*
X97891Y163779D01*
X97830Y163742D01*
X97764Y163714D01*
X97708Y163669D01*
X97680Y163652D01*
X97665Y163635D01*
X97633Y163609D01*
X95551Y161527D01*
X90100Y159269D01*
X84200Y159269D01*
X78749Y161527D01*
X74577Y165699D01*
X72319Y171150D01*
X72319Y177050D01*
X74577Y182501D01*
X78749Y186673D01*
X84200Y188931D01*
X90100Y188931D01*
X95551Y186673D01*
X97633Y184591D01*
X97691Y184549D01*
X97743Y184500D01*
X97790Y184478D01*
X97832Y184448D01*
X97901Y184426D01*
X97966Y184396D01*
X98018Y184391D01*
X98068Y184375D01*
X98139Y184377D01*
X98210Y184369D01*
X98261Y184380D01*
X98313Y184382D01*
X98381Y184406D01*
X98451Y184421D01*
X98496Y184448D01*
X98544Y184466D01*
X98600Y184511D01*
X98662Y184548D01*
X98696Y184587D01*
X98736Y184620D01*
X98775Y184680D01*
X98822Y184734D01*
X98841Y184783D01*
X98869Y184827D01*
X98887Y184896D01*
X98914Y184963D01*
X98922Y185034D01*
X98930Y185065D01*
X98928Y185088D01*
X98932Y185129D01*
X98932Y229762D01*
X99822Y231910D01*
X114584Y246672D01*
X114637Y246746D01*
X114697Y246816D01*
X114709Y246846D01*
X114728Y246872D01*
X114755Y246959D01*
X114789Y247044D01*
X114793Y247085D01*
X114800Y247107D01*
X114799Y247139D01*
X114807Y247210D01*
X114807Y286190D01*
X114793Y286280D01*
X114785Y286371D01*
X114773Y286400D01*
X114768Y286432D01*
X114725Y286513D01*
X114689Y286597D01*
X114663Y286629D01*
X114652Y286650D01*
X114629Y286672D01*
X114584Y286728D01*
X99822Y301490D01*
X98932Y303638D01*
X98932Y322871D01*
X98921Y322941D01*
X98919Y323013D01*
X98901Y323062D01*
X98893Y323113D01*
X98859Y323177D01*
X98834Y323244D01*
X98802Y323285D01*
X98777Y323331D01*
X98725Y323380D01*
X98681Y323436D01*
X98637Y323464D01*
X98599Y323500D01*
X98534Y323530D01*
X98474Y323569D01*
X98423Y323582D01*
X98376Y323604D01*
X98305Y323612D01*
X98235Y323629D01*
X98183Y323625D01*
X98132Y323631D01*
X98061Y323616D01*
X97990Y323610D01*
X97942Y323590D01*
X97891Y323579D01*
X97830Y323542D01*
X97764Y323514D01*
X97708Y323469D01*
X97680Y323452D01*
X97665Y323435D01*
X97633Y323409D01*
X95551Y321327D01*
X90100Y319069D01*
X84200Y319069D01*
X78749Y321327D01*
X74577Y325499D01*
X72319Y330950D01*
X72319Y336850D01*
X74577Y342301D01*
X78749Y346473D01*
X84200Y348731D01*
X90100Y348731D01*
X95551Y346473D01*
X97633Y344391D01*
X97691Y344349D01*
X97743Y344300D01*
X97790Y344278D01*
X97832Y344248D01*
X97901Y344226D01*
X97966Y344196D01*
X98018Y344191D01*
X98068Y344175D01*
X98139Y344177D01*
X98210Y344169D01*
X98261Y344180D01*
X98313Y344182D01*
X98381Y344206D01*
X98451Y344221D01*
X98496Y344248D01*
X98544Y344266D01*
X98600Y344311D01*
X98662Y344348D01*
X98696Y344387D01*
X98736Y344420D01*
X98775Y344480D01*
X98822Y344534D01*
X98841Y344583D01*
X98869Y344627D01*
X98887Y344696D01*
X98914Y344763D01*
X98922Y344834D01*
X98930Y344865D01*
X98928Y344888D01*
X98932Y344929D01*
X98932Y467871D01*
X98921Y467941D01*
X98919Y468013D01*
X98901Y468062D01*
X98893Y468113D01*
X98859Y468177D01*
X98834Y468244D01*
X98802Y468285D01*
X98777Y468331D01*
X98725Y468380D01*
X98681Y468436D01*
X98637Y468464D01*
X98599Y468500D01*
X98534Y468530D01*
X98474Y468569D01*
X98423Y468582D01*
X98376Y468604D01*
X98305Y468612D01*
X98235Y468629D01*
X98183Y468625D01*
X98132Y468631D01*
X98061Y468616D01*
X97990Y468610D01*
X97942Y468590D01*
X97891Y468579D01*
X97830Y468542D01*
X97764Y468514D01*
X97708Y468469D01*
X97680Y468452D01*
X97665Y468435D01*
X97633Y468409D01*
X95551Y466327D01*
X90100Y464069D01*
X84200Y464069D01*
X78749Y466327D01*
X74577Y470499D01*
X72319Y475950D01*
X72319Y481850D01*
X74577Y487301D01*
X78749Y491473D01*
X84200Y493731D01*
X90100Y493731D01*
X95551Y491473D01*
X97633Y489391D01*
X97691Y489349D01*
X97743Y489300D01*
X97790Y489278D01*
X97832Y489248D01*
X97901Y489226D01*
X97966Y489196D01*
X98018Y489191D01*
X98068Y489175D01*
X98139Y489177D01*
X98210Y489169D01*
X98261Y489180D01*
X98313Y489182D01*
X98381Y489206D01*
X98451Y489221D01*
X98496Y489248D01*
X98544Y489266D01*
X98600Y489311D01*
X98662Y489348D01*
X98696Y489387D01*
X98736Y489420D01*
X98775Y489480D01*
X98822Y489534D01*
X98841Y489583D01*
X98869Y489627D01*
X98887Y489696D01*
X98914Y489763D01*
X98922Y489834D01*
X98930Y489865D01*
X98928Y489888D01*
X98932Y489929D01*
X98932Y522896D01*
X98921Y522966D01*
X98919Y523038D01*
X98901Y523087D01*
X98893Y523138D01*
X98859Y523202D01*
X98834Y523269D01*
X98802Y523310D01*
X98777Y523356D01*
X98725Y523405D01*
X98681Y523461D01*
X98637Y523489D01*
X98599Y523525D01*
X98534Y523555D01*
X98474Y523594D01*
X98423Y523607D01*
X98376Y523629D01*
X98305Y523637D01*
X98235Y523654D01*
X98183Y523650D01*
X98132Y523656D01*
X98061Y523641D01*
X97990Y523635D01*
X97942Y523615D01*
X97891Y523604D01*
X97830Y523567D01*
X97764Y523539D01*
X97708Y523494D01*
X97680Y523477D01*
X97665Y523460D01*
X97633Y523434D01*
X95551Y521352D01*
X90100Y519094D01*
X84200Y519094D01*
X78749Y521352D01*
X74577Y525524D01*
X72319Y530975D01*
X72319Y536875D01*
X74577Y542326D01*
X78749Y546498D01*
X84200Y548756D01*
X90100Y548756D01*
X95551Y546498D01*
X97633Y544416D01*
X97691Y544374D01*
X97743Y544325D01*
X97790Y544303D01*
X97832Y544273D01*
X97901Y544251D01*
X97966Y544221D01*
X98018Y544216D01*
X98068Y544200D01*
X98139Y544202D01*
X98210Y544194D01*
X98261Y544205D01*
X98313Y544207D01*
X98381Y544231D01*
X98451Y544246D01*
X98496Y544273D01*
X98544Y544291D01*
X98600Y544336D01*
X98662Y544373D01*
X98696Y544412D01*
X98736Y544445D01*
X98775Y544505D01*
X98822Y544559D01*
X98841Y544608D01*
X98869Y544652D01*
X98887Y544721D01*
X98914Y544788D01*
X98922Y544859D01*
X98930Y544890D01*
X98928Y544913D01*
X98932Y544954D01*
X98932Y667896D01*
X98921Y667966D01*
X98919Y668038D01*
X98901Y668087D01*
X98893Y668138D01*
X98859Y668202D01*
X98834Y668269D01*
X98802Y668310D01*
X98777Y668356D01*
X98725Y668405D01*
X98681Y668461D01*
X98637Y668489D01*
X98599Y668525D01*
X98534Y668555D01*
X98474Y668594D01*
X98423Y668607D01*
X98376Y668629D01*
X98305Y668637D01*
X98235Y668654D01*
X98183Y668650D01*
X98132Y668656D01*
X98061Y668641D01*
X97990Y668635D01*
X97942Y668615D01*
X97891Y668604D01*
X97830Y668567D01*
X97764Y668539D01*
X97708Y668494D01*
X97680Y668477D01*
X97665Y668460D01*
X97633Y668434D01*
X95551Y666352D01*
X90100Y664094D01*
X84200Y664094D01*
X78749Y666352D01*
X74577Y670524D01*
X72319Y675975D01*
X72319Y681875D01*
X74577Y687326D01*
X78749Y691498D01*
X84200Y693756D01*
X90100Y693756D01*
X95551Y691498D01*
X97633Y689416D01*
X97691Y689374D01*
X97743Y689325D01*
X97790Y689303D01*
X97832Y689273D01*
X97901Y689251D01*
X97966Y689221D01*
X98018Y689216D01*
X98068Y689200D01*
X98139Y689202D01*
X98210Y689194D01*
X98261Y689205D01*
X98313Y689207D01*
X98381Y689231D01*
X98451Y689246D01*
X98496Y689273D01*
X98544Y689291D01*
X98600Y689336D01*
X98662Y689373D01*
X98696Y689412D01*
X98736Y689445D01*
X98775Y689505D01*
X98822Y689559D01*
X98841Y689608D01*
X98869Y689652D01*
X98887Y689721D01*
X98914Y689788D01*
X98922Y689859D01*
X98930Y689890D01*
X98928Y689913D01*
X98932Y689954D01*
X98932Y719746D01*
X98921Y719816D01*
X98919Y719888D01*
X98901Y719937D01*
X98893Y719988D01*
X98859Y720052D01*
X98834Y720119D01*
X98802Y720160D01*
X98777Y720206D01*
X98725Y720255D01*
X98681Y720311D01*
X98637Y720339D01*
X98599Y720375D01*
X98534Y720405D01*
X98474Y720444D01*
X98423Y720457D01*
X98376Y720479D01*
X98305Y720487D01*
X98235Y720504D01*
X98183Y720500D01*
X98132Y720506D01*
X98061Y720491D01*
X97990Y720485D01*
X97942Y720465D01*
X97891Y720454D01*
X97830Y720417D01*
X97764Y720389D01*
X97708Y720344D01*
X97680Y720327D01*
X97665Y720310D01*
X97633Y720284D01*
X95551Y718202D01*
X90100Y715944D01*
X84200Y715944D01*
X78749Y718202D01*
X74577Y722374D01*
X72319Y727825D01*
X72319Y733725D01*
X74577Y739176D01*
X78749Y743348D01*
X84200Y745606D01*
X90100Y745606D01*
X95551Y743348D01*
X97633Y741266D01*
X97691Y741224D01*
X97743Y741175D01*
X97790Y741153D01*
X97832Y741123D01*
X97901Y741101D01*
X97966Y741071D01*
X98018Y741066D01*
X98068Y741050D01*
X98139Y741052D01*
X98210Y741044D01*
X98261Y741055D01*
X98313Y741057D01*
X98381Y741081D01*
X98451Y741096D01*
X98496Y741123D01*
X98544Y741141D01*
X98600Y741186D01*
X98662Y741223D01*
X98696Y741262D01*
X98736Y741295D01*
X98775Y741355D01*
X98822Y741409D01*
X98841Y741458D01*
X98869Y741502D01*
X98887Y741571D01*
X98914Y741638D01*
X98922Y741709D01*
X98930Y741740D01*
X98928Y741763D01*
X98932Y741804D01*
X98932Y864746D01*
X98921Y864816D01*
X98919Y864888D01*
X98901Y864937D01*
X98893Y864988D01*
X98859Y865052D01*
X98834Y865119D01*
X98802Y865160D01*
X98777Y865206D01*
X98725Y865255D01*
X98681Y865311D01*
X98637Y865339D01*
X98599Y865375D01*
X98534Y865405D01*
X98474Y865444D01*
X98423Y865457D01*
X98376Y865479D01*
X98305Y865487D01*
X98235Y865504D01*
X98183Y865500D01*
X98132Y865506D01*
X98061Y865491D01*
X97990Y865485D01*
X97942Y865465D01*
X97891Y865454D01*
X97830Y865417D01*
X97764Y865389D01*
X97708Y865344D01*
X97680Y865327D01*
X97665Y865310D01*
X97633Y865284D01*
X95551Y863202D01*
X90100Y860944D01*
X84200Y860944D01*
X78749Y863202D01*
X74577Y867374D01*
X72319Y872825D01*
X72319Y878725D01*
X74577Y884176D01*
X78749Y888348D01*
X84200Y890606D01*
X90100Y890606D01*
X95551Y888348D01*
X97633Y886266D01*
X97691Y886224D01*
X97743Y886175D01*
X97790Y886153D01*
X97832Y886123D01*
X97901Y886101D01*
X97966Y886071D01*
X98018Y886066D01*
X98068Y886050D01*
X98139Y886052D01*
X98210Y886044D01*
X98261Y886055D01*
X98313Y886057D01*
X98381Y886081D01*
X98451Y886096D01*
X98496Y886123D01*
X98544Y886141D01*
X98600Y886186D01*
X98662Y886223D01*
X98696Y886262D01*
X98736Y886295D01*
X98775Y886355D01*
X98822Y886409D01*
X98841Y886458D01*
X98869Y886502D01*
X98887Y886571D01*
X98914Y886638D01*
X98922Y886709D01*
X98930Y886740D01*
X98928Y886763D01*
X98932Y886804D01*
X98932Y906037D01*
X99822Y908185D01*
X114584Y922947D01*
X114637Y923021D01*
X114697Y923091D01*
X114709Y923121D01*
X114728Y923147D01*
X114755Y923234D01*
X114789Y923319D01*
X114793Y923360D01*
X114800Y923382D01*
X114799Y923414D01*
X114807Y923485D01*
X114807Y990600D01*
X114804Y990620D01*
X114806Y990639D01*
X114784Y990741D01*
X114768Y990843D01*
X114758Y990860D01*
X114754Y990880D01*
X114701Y990969D01*
X114652Y991060D01*
X114638Y991074D01*
X114628Y991091D01*
X114549Y991158D01*
X114474Y991230D01*
X114456Y991238D01*
X114441Y991251D01*
X114345Y991290D01*
X114251Y991333D01*
X114231Y991335D01*
X114213Y991343D01*
X114046Y991361D01*
X95565Y991361D01*
X86486Y1000440D01*
X86486Y1012510D01*
X95565Y1021589D01*
X117221Y1021589D01*
X117241Y1021592D01*
X117260Y1021590D01*
X117362Y1021612D01*
X117464Y1021629D01*
X117481Y1021638D01*
X117501Y1021642D01*
X117590Y1021695D01*
X117681Y1021744D01*
X117695Y1021758D01*
X117712Y1021768D01*
X117779Y1021847D01*
X117851Y1021922D01*
X117859Y1021940D01*
X117872Y1021955D01*
X117911Y1022051D01*
X117954Y1022145D01*
X117956Y1022165D01*
X117964Y1022183D01*
X117982Y1022350D01*
X117982Y1080662D01*
X118178Y1081135D01*
X118193Y1081199D01*
X118218Y1081260D01*
X118227Y1081343D01*
X118234Y1081375D01*
X118233Y1081394D01*
X118236Y1081427D01*
X118236Y1085089D01*
X121898Y1085089D01*
X121963Y1085099D01*
X122028Y1085100D01*
X122108Y1085123D01*
X122141Y1085129D01*
X122158Y1085138D01*
X122190Y1085147D01*
X122663Y1085343D01*
X159912Y1085343D01*
X160385Y1085147D01*
X160449Y1085132D01*
X160510Y1085107D01*
X160593Y1085098D01*
X160625Y1085091D01*
X160644Y1085092D01*
X160677Y1085089D01*
X164339Y1085089D01*
X164339Y1081427D01*
X164349Y1081362D01*
X164350Y1081297D01*
X164373Y1081217D01*
X164379Y1081184D01*
X164388Y1081167D01*
X164397Y1081135D01*
X164593Y1080662D01*
X164593Y1054354D01*
X164596Y1054334D01*
X164594Y1054315D01*
X164616Y1054213D01*
X164632Y1054111D01*
X164642Y1054094D01*
X164646Y1054074D01*
X164699Y1053985D01*
X164748Y1053894D01*
X164762Y1053880D01*
X164772Y1053863D01*
X164851Y1053796D01*
X164926Y1053724D01*
X164944Y1053716D01*
X164959Y1053703D01*
X165055Y1053664D01*
X165149Y1053621D01*
X165169Y1053619D01*
X165187Y1053611D01*
X165354Y1053593D01*
X228346Y1053593D01*
X228366Y1053596D01*
X228385Y1053594D01*
X228487Y1053616D01*
X228589Y1053632D01*
X228606Y1053642D01*
X228626Y1053646D01*
X228715Y1053699D01*
X228806Y1053748D01*
X228820Y1053762D01*
X228837Y1053772D01*
X228904Y1053851D01*
X228976Y1053926D01*
X228984Y1053944D01*
X228997Y1053959D01*
X229036Y1054055D01*
X229079Y1054149D01*
X229081Y1054169D01*
X229089Y1054187D01*
X229107Y1054354D01*
X229107Y1137158D01*
X229104Y1137178D01*
X229106Y1137197D01*
X229084Y1137299D01*
X229068Y1137401D01*
X229058Y1137418D01*
X229054Y1137438D01*
X229001Y1137527D01*
X228952Y1137618D01*
X228938Y1137632D01*
X228928Y1137649D01*
X228849Y1137716D01*
X228774Y1137788D01*
X228756Y1137796D01*
X228741Y1137809D01*
X228645Y1137848D01*
X228551Y1137891D01*
X228531Y1137893D01*
X228513Y1137901D01*
X228346Y1137919D01*
X5842Y1137919D01*
X5822Y1137916D01*
X5803Y1137918D01*
X5701Y1137896D01*
X5599Y1137880D01*
X5582Y1137870D01*
X5562Y1137866D01*
X5473Y1137813D01*
X5382Y1137764D01*
X5368Y1137750D01*
X5351Y1137740D01*
X5284Y1137661D01*
X5212Y1137586D01*
X5204Y1137568D01*
X5191Y1137553D01*
X5152Y1137457D01*
X5109Y1137363D01*
X5107Y1137343D01*
X5099Y1137325D01*
X5081Y1137158D01*
X5081Y5842D01*
X5084Y5822D01*
X5082Y5803D01*
X5104Y5701D01*
X5120Y5599D01*
X5130Y5582D01*
X5134Y5562D01*
X5187Y5473D01*
X5236Y5382D01*
X5250Y5368D01*
X5260Y5351D01*
X5339Y5284D01*
X5414Y5212D01*
X5432Y5204D01*
X5447Y5191D01*
X5543Y5152D01*
X5637Y5109D01*
X5657Y5107D01*
X5675Y5099D01*
X5842Y5081D01*
X142621Y5081D01*
X142641Y5084D01*
G37*
G36*
X1149370Y951361D02*
X1149370Y951361D01*
X1149389Y951359D01*
X1149491Y951381D01*
X1149593Y951398D01*
X1149610Y951407D01*
X1149630Y951411D01*
X1149719Y951464D01*
X1149810Y951513D01*
X1149824Y951527D01*
X1149841Y951537D01*
X1149908Y951616D01*
X1149980Y951691D01*
X1149988Y951709D01*
X1150001Y951724D01*
X1150040Y951820D01*
X1150083Y951914D01*
X1150085Y951934D01*
X1150093Y951952D01*
X1150111Y952119D01*
X1150111Y993460D01*
X1156015Y999364D01*
X1171575Y999364D01*
X1171665Y999379D01*
X1171756Y999386D01*
X1171786Y999398D01*
X1171818Y999404D01*
X1171898Y999446D01*
X1171982Y999482D01*
X1172014Y999508D01*
X1172035Y999519D01*
X1172057Y999542D01*
X1172113Y999587D01*
X1213165Y1040639D01*
X1217047Y1040639D01*
X1217111Y1040649D01*
X1217177Y1040650D01*
X1217257Y1040673D01*
X1217289Y1040679D01*
X1217307Y1040688D01*
X1217338Y1040697D01*
X1217437Y1040738D01*
X1220963Y1040738D01*
X1221062Y1040697D01*
X1221126Y1040682D01*
X1221187Y1040657D01*
X1221269Y1040648D01*
X1221301Y1040641D01*
X1221321Y1040642D01*
X1221353Y1040639D01*
X1225235Y1040639D01*
X1238251Y1027623D01*
X1238251Y1019323D01*
X1238266Y1019233D01*
X1238273Y1019142D01*
X1238285Y1019113D01*
X1238291Y1019081D01*
X1238333Y1019000D01*
X1238369Y1018916D01*
X1238395Y1018884D01*
X1238406Y1018863D01*
X1238429Y1018841D01*
X1238474Y1018785D01*
X1239413Y1017845D01*
X1240763Y1014588D01*
X1240763Y1011062D01*
X1239413Y1007805D01*
X1238474Y1006865D01*
X1238421Y1006791D01*
X1238361Y1006722D01*
X1238349Y1006691D01*
X1238330Y1006665D01*
X1238303Y1006578D01*
X1238269Y1006493D01*
X1238265Y1006452D01*
X1238258Y1006430D01*
X1238259Y1006398D01*
X1238251Y1006327D01*
X1238251Y952119D01*
X1238254Y952099D01*
X1238252Y952080D01*
X1238274Y951978D01*
X1238291Y951876D01*
X1238300Y951859D01*
X1238304Y951839D01*
X1238357Y951750D01*
X1238406Y951659D01*
X1238420Y951645D01*
X1238430Y951628D01*
X1238509Y951561D01*
X1238584Y951490D01*
X1238602Y951481D01*
X1238617Y951468D01*
X1238713Y951429D01*
X1238807Y951386D01*
X1238827Y951384D01*
X1238845Y951376D01*
X1239012Y951358D01*
X1270000Y951358D01*
X1270020Y951361D01*
X1270039Y951359D01*
X1270141Y951381D01*
X1270243Y951398D01*
X1270260Y951407D01*
X1270280Y951411D01*
X1270369Y951464D01*
X1270460Y951513D01*
X1270474Y951527D01*
X1270491Y951537D01*
X1270558Y951616D01*
X1270630Y951691D01*
X1270638Y951709D01*
X1270651Y951724D01*
X1270690Y951820D01*
X1270733Y951914D01*
X1270735Y951934D01*
X1270743Y951952D01*
X1270761Y952119D01*
X1270761Y993460D01*
X1276665Y999364D01*
X1295085Y999364D01*
X1300989Y993460D01*
X1300989Y952119D01*
X1300992Y952099D01*
X1300990Y952080D01*
X1301012Y951978D01*
X1301029Y951876D01*
X1301038Y951859D01*
X1301042Y951839D01*
X1301095Y951750D01*
X1301144Y951659D01*
X1301158Y951645D01*
X1301168Y951628D01*
X1301247Y951561D01*
X1301322Y951490D01*
X1301340Y951481D01*
X1301355Y951468D01*
X1301451Y951429D01*
X1301545Y951386D01*
X1301565Y951384D01*
X1301583Y951376D01*
X1301750Y951358D01*
X1492758Y951358D01*
X1492778Y951361D01*
X1492797Y951359D01*
X1492899Y951381D01*
X1493001Y951398D01*
X1493018Y951407D01*
X1493038Y951411D01*
X1493127Y951464D01*
X1493218Y951513D01*
X1493232Y951527D01*
X1493249Y951537D01*
X1493316Y951616D01*
X1493388Y951691D01*
X1493396Y951709D01*
X1493409Y951724D01*
X1493448Y951820D01*
X1493491Y951914D01*
X1493493Y951934D01*
X1493501Y951952D01*
X1493519Y952119D01*
X1493519Y1137158D01*
X1493516Y1137178D01*
X1493518Y1137197D01*
X1493496Y1137299D01*
X1493480Y1137401D01*
X1493470Y1137418D01*
X1493466Y1137438D01*
X1493413Y1137527D01*
X1493364Y1137618D01*
X1493350Y1137632D01*
X1493340Y1137649D01*
X1493261Y1137716D01*
X1493186Y1137788D01*
X1493168Y1137796D01*
X1493153Y1137809D01*
X1493057Y1137848D01*
X1492963Y1137891D01*
X1492943Y1137893D01*
X1492925Y1137901D01*
X1492758Y1137919D01*
X958342Y1137919D01*
X958322Y1137916D01*
X958303Y1137918D01*
X958201Y1137896D01*
X958099Y1137880D01*
X958082Y1137870D01*
X958062Y1137866D01*
X957973Y1137813D01*
X957882Y1137764D01*
X957868Y1137750D01*
X957851Y1137740D01*
X957784Y1137661D01*
X957712Y1137586D01*
X957704Y1137568D01*
X957691Y1137553D01*
X957652Y1137457D01*
X957609Y1137363D01*
X957607Y1137343D01*
X957599Y1137325D01*
X957581Y1137158D01*
X957581Y952119D01*
X957584Y952099D01*
X957582Y952080D01*
X957604Y951978D01*
X957620Y951876D01*
X957630Y951859D01*
X957634Y951839D01*
X957687Y951750D01*
X957736Y951659D01*
X957750Y951645D01*
X957760Y951628D01*
X957839Y951561D01*
X957914Y951490D01*
X957932Y951481D01*
X957947Y951468D01*
X958043Y951429D01*
X958137Y951386D01*
X958157Y951384D01*
X958175Y951376D01*
X958342Y951358D01*
X1149350Y951358D01*
X1149370Y951361D01*
G37*
G36*
X116055Y129425D02*
X116055Y129425D01*
X116127Y129427D01*
X116176Y129445D01*
X116227Y129454D01*
X116291Y129487D01*
X116358Y129512D01*
X116399Y129544D01*
X116445Y129569D01*
X116494Y129621D01*
X116550Y129665D01*
X116578Y129709D01*
X116614Y129747D01*
X116644Y129812D01*
X116683Y129872D01*
X116696Y129923D01*
X116718Y129970D01*
X116726Y130041D01*
X116743Y130111D01*
X116739Y130163D01*
X116745Y130214D01*
X116730Y130285D01*
X116724Y130356D01*
X116704Y130404D01*
X116693Y130455D01*
X116656Y130516D01*
X116628Y130582D01*
X116583Y130638D01*
X116566Y130666D01*
X116549Y130681D01*
X116523Y130713D01*
X115867Y131369D01*
X115867Y135331D01*
X118669Y138133D01*
X122631Y138133D01*
X125433Y135331D01*
X125433Y131369D01*
X124777Y130713D01*
X124735Y130655D01*
X124686Y130603D01*
X124664Y130556D01*
X124634Y130514D01*
X124612Y130445D01*
X124582Y130380D01*
X124577Y130328D01*
X124561Y130278D01*
X124563Y130207D01*
X124555Y130136D01*
X124566Y130085D01*
X124568Y130033D01*
X124592Y129965D01*
X124607Y129895D01*
X124634Y129851D01*
X124652Y129802D01*
X124697Y129746D01*
X124734Y129684D01*
X124773Y129650D01*
X124806Y129610D01*
X124866Y129571D01*
X124920Y129524D01*
X124969Y129505D01*
X125013Y129477D01*
X125082Y129459D01*
X125149Y129432D01*
X125220Y129424D01*
X125251Y129416D01*
X125274Y129418D01*
X125315Y129414D01*
X146050Y129414D01*
X146070Y129417D01*
X146089Y129415D01*
X146191Y129437D01*
X146293Y129454D01*
X146310Y129463D01*
X146330Y129467D01*
X146419Y129520D01*
X146510Y129569D01*
X146524Y129583D01*
X146541Y129593D01*
X146608Y129672D01*
X146680Y129747D01*
X146688Y129765D01*
X146701Y129780D01*
X146740Y129876D01*
X146783Y129970D01*
X146785Y129990D01*
X146793Y130008D01*
X146811Y130175D01*
X146811Y228285D01*
X162463Y243937D01*
X162516Y244011D01*
X162576Y244080D01*
X162588Y244110D01*
X162607Y244136D01*
X162634Y244223D01*
X162668Y244308D01*
X162672Y244349D01*
X162679Y244372D01*
X162678Y244404D01*
X162686Y244475D01*
X162686Y288925D01*
X162672Y289015D01*
X162664Y289106D01*
X162652Y289136D01*
X162647Y289168D01*
X162604Y289248D01*
X162568Y289332D01*
X162542Y289364D01*
X162531Y289385D01*
X162508Y289407D01*
X162463Y289463D01*
X146811Y305115D01*
X146811Y428310D01*
X152715Y434214D01*
X220760Y434214D01*
X220850Y434229D01*
X220941Y434236D01*
X220970Y434248D01*
X221002Y434254D01*
X221083Y434296D01*
X221167Y434332D01*
X221199Y434358D01*
X221220Y434369D01*
X221242Y434392D01*
X221298Y434437D01*
X223444Y436583D01*
X227406Y436583D01*
X230208Y433781D01*
X230208Y432606D01*
X230222Y432516D01*
X230230Y432425D01*
X230242Y432395D01*
X230247Y432363D01*
X230290Y432283D01*
X230326Y432199D01*
X230352Y432167D01*
X230363Y432146D01*
X230386Y432124D01*
X230431Y432068D01*
X234412Y428087D01*
X234486Y428034D01*
X234555Y427974D01*
X234585Y427962D01*
X234611Y427943D01*
X234699Y427916D01*
X234783Y427882D01*
X234824Y427878D01*
X234847Y427871D01*
X234879Y427872D01*
X234950Y427864D01*
X250825Y427864D01*
X250915Y427879D01*
X251006Y427886D01*
X251036Y427898D01*
X251068Y427904D01*
X251148Y427946D01*
X251232Y427982D01*
X251264Y428008D01*
X251285Y428019D01*
X251307Y428042D01*
X251363Y428087D01*
X267015Y443739D01*
X323535Y443739D01*
X326264Y441010D01*
X326264Y436465D01*
X326279Y436375D01*
X326286Y436284D01*
X326298Y436255D01*
X326304Y436223D01*
X326346Y436142D01*
X326382Y436058D01*
X326408Y436026D01*
X326419Y436005D01*
X326442Y435983D01*
X326487Y435927D01*
X328633Y433781D01*
X328633Y429819D01*
X325831Y427017D01*
X324656Y427017D01*
X324566Y427003D01*
X324475Y426995D01*
X324445Y426983D01*
X324413Y426978D01*
X324333Y426935D01*
X324249Y426899D01*
X324217Y426873D01*
X324196Y426862D01*
X324174Y426839D01*
X324118Y426794D01*
X323535Y426211D01*
X317500Y426211D01*
X317410Y426197D01*
X317319Y426189D01*
X317289Y426177D01*
X317257Y426172D01*
X317177Y426129D01*
X317093Y426093D01*
X317061Y426067D01*
X317040Y426056D01*
X317018Y426033D01*
X316962Y425988D01*
X313787Y422813D01*
X313734Y422739D01*
X313674Y422670D01*
X313662Y422640D01*
X313643Y422614D01*
X313616Y422527D01*
X313582Y422442D01*
X313578Y422401D01*
X313571Y422378D01*
X313572Y422346D01*
X313564Y422275D01*
X313564Y361950D01*
X313579Y361860D01*
X313586Y361769D01*
X313598Y361739D01*
X313604Y361707D01*
X313646Y361627D01*
X313682Y361543D01*
X313708Y361511D01*
X313719Y361490D01*
X313742Y361468D01*
X313787Y361412D01*
X316962Y358237D01*
X317036Y358184D01*
X317105Y358124D01*
X317135Y358112D01*
X317161Y358093D01*
X317248Y358066D01*
X317333Y358032D01*
X317374Y358028D01*
X317397Y358021D01*
X317429Y358022D01*
X317500Y358014D01*
X323850Y358014D01*
X323940Y358029D01*
X324031Y358036D01*
X324061Y358048D01*
X324093Y358054D01*
X324173Y358096D01*
X324257Y358132D01*
X324289Y358158D01*
X324310Y358169D01*
X324332Y358192D01*
X324388Y358237D01*
X327563Y361412D01*
X327616Y361486D01*
X327676Y361555D01*
X327688Y361585D01*
X327707Y361611D01*
X327734Y361698D01*
X327768Y361783D01*
X327772Y361824D01*
X327779Y361847D01*
X327778Y361879D01*
X327786Y361950D01*
X327786Y402910D01*
X337088Y412212D01*
X337141Y412286D01*
X337201Y412355D01*
X337213Y412385D01*
X337232Y412411D01*
X337259Y412498D01*
X337293Y412583D01*
X337297Y412624D01*
X337304Y412647D01*
X337303Y412679D01*
X337311Y412750D01*
X337311Y418785D01*
X337894Y419368D01*
X337947Y419442D01*
X338007Y419511D01*
X338019Y419541D01*
X338038Y419567D01*
X338065Y419654D01*
X338099Y419739D01*
X338103Y419780D01*
X338110Y419803D01*
X338109Y419835D01*
X338117Y419906D01*
X338117Y421081D01*
X340919Y423883D01*
X342094Y423883D01*
X342184Y423897D01*
X342275Y423905D01*
X342305Y423917D01*
X342337Y423922D01*
X342417Y423965D01*
X342501Y424001D01*
X342533Y424027D01*
X342554Y424038D01*
X342576Y424061D01*
X342632Y424106D01*
X352963Y434437D01*
X353016Y434511D01*
X353076Y434580D01*
X353088Y434610D01*
X353107Y434636D01*
X353134Y434723D01*
X353168Y434808D01*
X353172Y434849D01*
X353179Y434872D01*
X353178Y434904D01*
X353186Y434975D01*
X353186Y460375D01*
X353172Y460465D01*
X353164Y460556D01*
X353152Y460586D01*
X353147Y460618D01*
X353104Y460698D01*
X353068Y460782D01*
X353042Y460814D01*
X353031Y460835D01*
X353008Y460857D01*
X352963Y460913D01*
X346613Y467263D01*
X346539Y467316D01*
X346470Y467376D01*
X346440Y467388D01*
X346414Y467407D01*
X346327Y467434D01*
X346242Y467468D01*
X346201Y467472D01*
X346178Y467479D01*
X346146Y467478D01*
X346075Y467486D01*
X332071Y467486D01*
X332001Y467475D01*
X331929Y467473D01*
X331880Y467455D01*
X331829Y467447D01*
X331765Y467413D01*
X331698Y467388D01*
X331657Y467356D01*
X331611Y467331D01*
X331562Y467280D01*
X331506Y467235D01*
X331478Y467191D01*
X331442Y467153D01*
X331412Y467088D01*
X331373Y467028D01*
X331360Y466977D01*
X331338Y466930D01*
X331330Y466859D01*
X331313Y466789D01*
X331317Y466737D01*
X331311Y466686D01*
X331326Y466615D01*
X331332Y466544D01*
X331352Y466496D01*
X331363Y466445D01*
X331400Y466384D01*
X331428Y466318D01*
X331473Y466262D01*
X331490Y466234D01*
X331507Y466219D01*
X331533Y466187D01*
X333967Y463753D01*
X333967Y463218D01*
X333978Y463148D01*
X333980Y463076D01*
X333998Y463027D01*
X334006Y462976D01*
X334040Y462912D01*
X334065Y462845D01*
X334097Y462804D01*
X334122Y462758D01*
X334174Y462709D01*
X334218Y462653D01*
X334262Y462625D01*
X334300Y462589D01*
X334365Y462559D01*
X334425Y462520D01*
X334476Y462507D01*
X334523Y462485D01*
X334594Y462477D01*
X334664Y462460D01*
X334716Y462464D01*
X334767Y462458D01*
X334838Y462473D01*
X334909Y462479D01*
X334957Y462499D01*
X335008Y462510D01*
X335069Y462547D01*
X335135Y462575D01*
X335191Y462620D01*
X335219Y462637D01*
X335234Y462654D01*
X335266Y462680D01*
X337744Y465158D01*
X341706Y465158D01*
X344508Y462356D01*
X344508Y458394D01*
X341706Y455592D01*
X337744Y455592D01*
X334942Y458394D01*
X334942Y458929D01*
X334931Y458999D01*
X334929Y459071D01*
X334911Y459120D01*
X334903Y459171D01*
X334869Y459235D01*
X334844Y459302D01*
X334812Y459343D01*
X334787Y459389D01*
X334735Y459438D01*
X334691Y459494D01*
X334647Y459522D01*
X334609Y459558D01*
X334544Y459588D01*
X334484Y459627D01*
X334433Y459640D01*
X334386Y459662D01*
X334315Y459670D01*
X334245Y459687D01*
X334193Y459683D01*
X334142Y459689D01*
X334071Y459674D01*
X334000Y459668D01*
X333952Y459648D01*
X333901Y459637D01*
X333840Y459600D01*
X333774Y459572D01*
X333718Y459527D01*
X333690Y459510D01*
X333675Y459493D01*
X333643Y459467D01*
X331165Y456989D01*
X327203Y456989D01*
X324401Y459791D01*
X324401Y463753D01*
X326835Y466187D01*
X326877Y466245D01*
X326926Y466297D01*
X326948Y466344D01*
X326978Y466386D01*
X327000Y466455D01*
X327030Y466520D01*
X327036Y466572D01*
X327051Y466622D01*
X327049Y466693D01*
X327057Y466764D01*
X327046Y466815D01*
X327044Y466867D01*
X327020Y466935D01*
X327005Y467005D01*
X326978Y467049D01*
X326960Y467098D01*
X326915Y467154D01*
X326878Y467216D01*
X326839Y467250D01*
X326806Y467290D01*
X326746Y467329D01*
X326692Y467376D01*
X326643Y467395D01*
X326599Y467423D01*
X326530Y467441D01*
X326463Y467468D01*
X326392Y467476D01*
X326361Y467484D01*
X326338Y467482D01*
X326297Y467486D01*
X152715Y467486D01*
X146811Y473390D01*
X146811Y904560D01*
X162463Y920212D01*
X162516Y920286D01*
X162576Y920355D01*
X162588Y920385D01*
X162607Y920411D01*
X162634Y920498D01*
X162668Y920583D01*
X162672Y920624D01*
X162679Y920647D01*
X162678Y920679D01*
X162686Y920750D01*
X162686Y968060D01*
X184465Y989839D01*
X219075Y989839D01*
X219165Y989854D01*
X219256Y989861D01*
X219286Y989873D01*
X219318Y989879D01*
X219398Y989921D01*
X219482Y989957D01*
X219514Y989983D01*
X219535Y989994D01*
X219557Y990017D01*
X219613Y990062D01*
X229138Y999587D01*
X229191Y999661D01*
X229251Y999730D01*
X229263Y999760D01*
X229282Y999786D01*
X229309Y999873D01*
X229343Y999958D01*
X229347Y999999D01*
X229354Y1000022D01*
X229353Y1000054D01*
X229361Y1000125D01*
X229361Y1047750D01*
X229358Y1047770D01*
X229360Y1047789D01*
X229338Y1047891D01*
X229322Y1047993D01*
X229312Y1048010D01*
X229308Y1048030D01*
X229255Y1048119D01*
X229206Y1048210D01*
X229192Y1048224D01*
X229182Y1048241D01*
X229103Y1048308D01*
X229028Y1048380D01*
X229010Y1048388D01*
X228995Y1048401D01*
X228899Y1048440D01*
X228805Y1048483D01*
X228785Y1048485D01*
X228767Y1048493D01*
X228600Y1048511D01*
X159511Y1048511D01*
X159511Y1079500D01*
X159508Y1079520D01*
X159510Y1079539D01*
X159488Y1079641D01*
X159472Y1079743D01*
X159462Y1079760D01*
X159458Y1079780D01*
X159405Y1079869D01*
X159356Y1079960D01*
X159342Y1079974D01*
X159332Y1079991D01*
X159253Y1080058D01*
X159178Y1080130D01*
X159160Y1080138D01*
X159145Y1080151D01*
X159049Y1080190D01*
X158955Y1080233D01*
X158935Y1080235D01*
X158917Y1080243D01*
X158750Y1080261D01*
X123825Y1080261D01*
X123805Y1080258D01*
X123786Y1080260D01*
X123684Y1080238D01*
X123582Y1080222D01*
X123565Y1080212D01*
X123545Y1080208D01*
X123456Y1080155D01*
X123365Y1080106D01*
X123351Y1080092D01*
X123334Y1080082D01*
X123267Y1080003D01*
X123196Y1079928D01*
X123187Y1079910D01*
X123174Y1079895D01*
X123135Y1079799D01*
X123092Y1079705D01*
X123090Y1079685D01*
X123082Y1079667D01*
X123064Y1079500D01*
X123064Y1022350D01*
X123066Y1022334D01*
X123065Y1022321D01*
X123066Y1022317D01*
X123065Y1022311D01*
X123087Y1022209D01*
X123104Y1022107D01*
X123113Y1022090D01*
X123117Y1022070D01*
X123170Y1021981D01*
X123219Y1021890D01*
X123233Y1021876D01*
X123243Y1021859D01*
X123322Y1021792D01*
X123397Y1021721D01*
X123415Y1021712D01*
X123430Y1021699D01*
X123526Y1021660D01*
X123620Y1021617D01*
X123640Y1021615D01*
X123658Y1021607D01*
X123825Y1021589D01*
X126685Y1021589D01*
X135764Y1012510D01*
X135764Y1000440D01*
X126685Y991361D01*
X120650Y991361D01*
X120630Y991358D01*
X120611Y991360D01*
X120509Y991338D01*
X120407Y991322D01*
X120390Y991312D01*
X120370Y991308D01*
X120281Y991255D01*
X120190Y991206D01*
X120176Y991192D01*
X120159Y991182D01*
X120092Y991103D01*
X120021Y991028D01*
X120012Y991010D01*
X119999Y990995D01*
X119960Y990899D01*
X119917Y990805D01*
X119915Y990785D01*
X119907Y990767D01*
X119889Y990600D01*
X119889Y921065D01*
X104237Y905413D01*
X104184Y905339D01*
X104124Y905270D01*
X104112Y905240D01*
X104093Y905214D01*
X104066Y905127D01*
X104032Y905042D01*
X104028Y905001D01*
X104021Y904978D01*
X104022Y904946D01*
X104014Y904875D01*
X104014Y304800D01*
X104029Y304710D01*
X104036Y304619D01*
X104048Y304589D01*
X104054Y304557D01*
X104096Y304477D01*
X104132Y304393D01*
X104158Y304361D01*
X104169Y304340D01*
X104192Y304318D01*
X104237Y304262D01*
X119889Y288610D01*
X119889Y244790D01*
X104237Y229138D01*
X104184Y229064D01*
X104124Y228995D01*
X104112Y228965D01*
X104093Y228939D01*
X104066Y228852D01*
X104032Y228767D01*
X104028Y228726D01*
X104021Y228703D01*
X104022Y228671D01*
X104014Y228600D01*
X104014Y130175D01*
X104017Y130155D01*
X104015Y130136D01*
X104037Y130034D01*
X104054Y129932D01*
X104063Y129915D01*
X104067Y129895D01*
X104120Y129806D01*
X104169Y129715D01*
X104183Y129701D01*
X104193Y129684D01*
X104272Y129617D01*
X104347Y129546D01*
X104365Y129537D01*
X104380Y129524D01*
X104476Y129485D01*
X104570Y129442D01*
X104590Y129440D01*
X104608Y129432D01*
X104775Y129414D01*
X115985Y129414D01*
X116055Y129425D01*
G37*
%LPC*%
G36*
X1012688Y1054339D02*
X1012688Y1054339D01*
X1006288Y1056054D01*
X1000551Y1059366D01*
X995866Y1064051D01*
X992554Y1069788D01*
X990839Y1076188D01*
X990839Y1082812D01*
X992554Y1089212D01*
X995866Y1094949D01*
X1000551Y1099634D01*
X1006288Y1102946D01*
X1012688Y1104661D01*
X1019312Y1104661D01*
X1025712Y1102946D01*
X1031449Y1099634D01*
X1036134Y1094949D01*
X1039446Y1089212D01*
X1041161Y1082812D01*
X1041161Y1076188D01*
X1039446Y1069788D01*
X1036134Y1064051D01*
X1031449Y1059366D01*
X1025712Y1056054D01*
X1019312Y1054339D01*
X1012688Y1054339D01*
G37*
%LPD*%
%LPC*%
G36*
X1431788Y1054339D02*
X1431788Y1054339D01*
X1425388Y1056054D01*
X1419651Y1059366D01*
X1414966Y1064051D01*
X1411654Y1069788D01*
X1409939Y1076188D01*
X1409939Y1082812D01*
X1411654Y1089212D01*
X1414966Y1094949D01*
X1419651Y1099634D01*
X1425388Y1102946D01*
X1431788Y1104661D01*
X1438412Y1104661D01*
X1444812Y1102946D01*
X1450549Y1099634D01*
X1455234Y1094949D01*
X1458546Y1089212D01*
X1460261Y1082812D01*
X1460261Y1076188D01*
X1458546Y1069788D01*
X1455234Y1064051D01*
X1450549Y1059366D01*
X1444812Y1056054D01*
X1438412Y1054339D01*
X1431788Y1054339D01*
G37*
%LPD*%
%LPC*%
G36*
X403088Y1041639D02*
X403088Y1041639D01*
X396688Y1043354D01*
X390951Y1046666D01*
X386266Y1051351D01*
X382954Y1057088D01*
X381239Y1063488D01*
X381239Y1070112D01*
X382954Y1076512D01*
X386266Y1082249D01*
X390951Y1086934D01*
X396688Y1090246D01*
X403088Y1091961D01*
X409712Y1091961D01*
X416112Y1090246D01*
X421849Y1086934D01*
X426534Y1082249D01*
X429846Y1076512D01*
X431561Y1070112D01*
X431561Y1063488D01*
X429846Y1057088D01*
X426534Y1051351D01*
X421849Y1046666D01*
X416112Y1043354D01*
X409712Y1041639D01*
X403088Y1041639D01*
G37*
%LPD*%
%LPC*%
G36*
X403088Y51039D02*
X403088Y51039D01*
X396688Y52754D01*
X390951Y56066D01*
X386266Y60751D01*
X382954Y66488D01*
X381239Y72888D01*
X381239Y79512D01*
X382954Y85912D01*
X386266Y91649D01*
X390951Y96334D01*
X396688Y99646D01*
X403088Y101361D01*
X409712Y101361D01*
X416112Y99646D01*
X421849Y96334D01*
X426534Y91649D01*
X429846Y85912D01*
X431561Y79512D01*
X431561Y72888D01*
X429846Y66488D01*
X426534Y60751D01*
X421849Y56066D01*
X416112Y52754D01*
X409712Y51039D01*
X403088Y51039D01*
G37*
%LPD*%
%LPC*%
G36*
X72888Y914639D02*
X72888Y914639D01*
X66488Y916354D01*
X60751Y919666D01*
X56066Y924351D01*
X52754Y930088D01*
X51039Y936488D01*
X51039Y943112D01*
X52754Y949512D01*
X56066Y955249D01*
X60751Y959934D01*
X66488Y963246D01*
X72888Y964961D01*
X79512Y964961D01*
X85912Y963246D01*
X91649Y959934D01*
X96334Y955249D01*
X99646Y949512D01*
X101361Y943112D01*
X101361Y936488D01*
X99646Y930088D01*
X96334Y924351D01*
X91649Y919666D01*
X85912Y916354D01*
X79512Y914639D01*
X72888Y914639D01*
G37*
%LPD*%
%LPC*%
G36*
X72888Y241539D02*
X72888Y241539D01*
X66488Y243254D01*
X60751Y246566D01*
X56066Y251251D01*
X52754Y256988D01*
X51039Y263388D01*
X51039Y270012D01*
X52754Y276412D01*
X56066Y282149D01*
X60751Y286834D01*
X66488Y290146D01*
X72888Y291861D01*
X79512Y291861D01*
X85912Y290146D01*
X91649Y286834D01*
X96334Y282149D01*
X99646Y276412D01*
X101361Y270012D01*
X101361Y263388D01*
X99646Y256988D01*
X96334Y251251D01*
X91649Y246566D01*
X85912Y243254D01*
X79512Y241539D01*
X72888Y241539D01*
G37*
%LPD*%
%LPC*%
G36*
X1128537Y1023012D02*
X1128537Y1023012D01*
X1125280Y1024362D01*
X1122787Y1026855D01*
X1121437Y1030112D01*
X1121437Y1033638D01*
X1122787Y1036895D01*
X1123657Y1037765D01*
X1123714Y1037845D01*
X1123776Y1037920D01*
X1123785Y1037944D01*
X1123800Y1037965D01*
X1123829Y1038058D01*
X1123864Y1038149D01*
X1123865Y1038175D01*
X1123873Y1038200D01*
X1123870Y1038298D01*
X1123874Y1038395D01*
X1123867Y1038420D01*
X1123866Y1038446D01*
X1123833Y1038538D01*
X1123806Y1038631D01*
X1123791Y1038653D01*
X1123782Y1038677D01*
X1123721Y1038753D01*
X1123665Y1038833D01*
X1123644Y1038849D01*
X1123628Y1038869D01*
X1123546Y1038922D01*
X1123468Y1038980D01*
X1123443Y1038988D01*
X1123421Y1039002D01*
X1123327Y1039026D01*
X1123234Y1039056D01*
X1123208Y1039056D01*
X1123183Y1039062D01*
X1123086Y1039055D01*
X1122988Y1039054D01*
X1122957Y1039045D01*
X1122937Y1039043D01*
X1122907Y1039030D01*
X1122827Y1039007D01*
X1122538Y1038887D01*
X1119012Y1038887D01*
X1115755Y1040237D01*
X1114963Y1041028D01*
X1114947Y1041040D01*
X1114935Y1041055D01*
X1114847Y1041111D01*
X1114764Y1041171D01*
X1114745Y1041177D01*
X1114728Y1041188D01*
X1114627Y1041213D01*
X1114528Y1041244D01*
X1114509Y1041243D01*
X1114489Y1041248D01*
X1114386Y1041240D01*
X1114283Y1041237D01*
X1114264Y1041231D01*
X1114244Y1041229D01*
X1114149Y1041189D01*
X1114052Y1041153D01*
X1114036Y1041141D01*
X1114018Y1041133D01*
X1113887Y1041028D01*
X1113095Y1040237D01*
X1109838Y1038887D01*
X1106312Y1038887D01*
X1103055Y1040237D01*
X1100562Y1042730D01*
X1099212Y1045987D01*
X1099212Y1049513D01*
X1100562Y1052770D01*
X1103055Y1055263D01*
X1106312Y1056613D01*
X1109838Y1056613D01*
X1113095Y1055263D01*
X1113887Y1054472D01*
X1113903Y1054460D01*
X1113915Y1054445D01*
X1114003Y1054389D01*
X1114086Y1054329D01*
X1114105Y1054323D01*
X1114122Y1054312D01*
X1114223Y1054287D01*
X1114322Y1054256D01*
X1114341Y1054257D01*
X1114361Y1054252D01*
X1114464Y1054260D01*
X1114567Y1054263D01*
X1114586Y1054269D01*
X1114606Y1054271D01*
X1114701Y1054311D01*
X1114798Y1054347D01*
X1114814Y1054360D01*
X1114832Y1054367D01*
X1114963Y1054472D01*
X1115755Y1055263D01*
X1119012Y1056613D01*
X1122538Y1056613D01*
X1125795Y1055263D01*
X1128288Y1052770D01*
X1129638Y1049513D01*
X1129638Y1045987D01*
X1128288Y1042730D01*
X1127418Y1041860D01*
X1127361Y1041780D01*
X1127299Y1041705D01*
X1127290Y1041681D01*
X1127275Y1041660D01*
X1127246Y1041567D01*
X1127211Y1041476D01*
X1127210Y1041450D01*
X1127202Y1041425D01*
X1127205Y1041327D01*
X1127201Y1041230D01*
X1127208Y1041205D01*
X1127209Y1041179D01*
X1127242Y1041087D01*
X1127269Y1040994D01*
X1127284Y1040972D01*
X1127293Y1040948D01*
X1127354Y1040872D01*
X1127410Y1040792D01*
X1127431Y1040776D01*
X1127447Y1040756D01*
X1127529Y1040703D01*
X1127607Y1040645D01*
X1127632Y1040637D01*
X1127654Y1040623D01*
X1127748Y1040599D01*
X1127841Y1040569D01*
X1127867Y1040569D01*
X1127892Y1040563D01*
X1127989Y1040570D01*
X1128087Y1040571D01*
X1128118Y1040580D01*
X1128138Y1040582D01*
X1128168Y1040595D01*
X1128248Y1040618D01*
X1128537Y1040738D01*
X1132063Y1040738D01*
X1135320Y1039388D01*
X1137813Y1036895D01*
X1139163Y1033638D01*
X1139163Y1030112D01*
X1137813Y1026855D01*
X1135320Y1024362D01*
X1132063Y1023012D01*
X1128537Y1023012D01*
G37*
%LPD*%
%LPC*%
G36*
X35200Y670094D02*
X35200Y670094D01*
X29749Y672352D01*
X25577Y676524D01*
X23319Y681975D01*
X23319Y687875D01*
X25577Y693326D01*
X29749Y697498D01*
X35200Y699756D01*
X41100Y699756D01*
X46551Y697498D01*
X50723Y693326D01*
X52981Y687875D01*
X52981Y681975D01*
X50723Y676524D01*
X46551Y672352D01*
X41100Y670094D01*
X35200Y670094D01*
G37*
%LPD*%
%LPC*%
G36*
X35200Y8269D02*
X35200Y8269D01*
X29749Y10527D01*
X25577Y14699D01*
X23319Y20150D01*
X23319Y26050D01*
X25577Y31501D01*
X29749Y35673D01*
X35200Y37931D01*
X41100Y37931D01*
X46551Y35673D01*
X50723Y31501D01*
X52981Y26050D01*
X52981Y20150D01*
X50723Y14699D01*
X46551Y10527D01*
X41100Y8269D01*
X35200Y8269D01*
G37*
%LPD*%
%LPC*%
G36*
X35200Y513094D02*
X35200Y513094D01*
X29749Y515352D01*
X25577Y519524D01*
X23319Y524975D01*
X23319Y530875D01*
X25577Y536326D01*
X29749Y540498D01*
X35200Y542756D01*
X41100Y542756D01*
X46551Y540498D01*
X50723Y536326D01*
X52981Y530875D01*
X52981Y524975D01*
X50723Y519524D01*
X46551Y515352D01*
X41100Y513094D01*
X35200Y513094D01*
G37*
%LPD*%
%LPC*%
G36*
X35200Y470069D02*
X35200Y470069D01*
X29749Y472327D01*
X25577Y476499D01*
X23319Y481950D01*
X23319Y487850D01*
X25577Y493301D01*
X29749Y497473D01*
X35200Y499731D01*
X41100Y499731D01*
X46551Y497473D01*
X50723Y493301D01*
X52981Y487850D01*
X52981Y481950D01*
X50723Y476499D01*
X46551Y472327D01*
X41100Y470069D01*
X35200Y470069D01*
G37*
%LPD*%
%LPC*%
G36*
X35200Y313069D02*
X35200Y313069D01*
X29749Y315327D01*
X25577Y319499D01*
X23319Y324950D01*
X23319Y330850D01*
X25577Y336301D01*
X29749Y340473D01*
X35200Y342731D01*
X41100Y342731D01*
X46551Y340473D01*
X50723Y336301D01*
X52981Y330850D01*
X52981Y324950D01*
X50723Y319499D01*
X46551Y315327D01*
X41100Y313069D01*
X35200Y313069D01*
G37*
%LPD*%
%LPC*%
G36*
X35200Y165269D02*
X35200Y165269D01*
X29749Y167527D01*
X25577Y171699D01*
X23319Y177150D01*
X23319Y183050D01*
X25577Y188501D01*
X29749Y192673D01*
X35200Y194931D01*
X41100Y194931D01*
X46551Y192673D01*
X50723Y188501D01*
X52981Y183050D01*
X52981Y177150D01*
X50723Y171699D01*
X46551Y167527D01*
X41100Y165269D01*
X35200Y165269D01*
G37*
%LPD*%
%LPC*%
G36*
X84200Y14269D02*
X84200Y14269D01*
X78749Y16527D01*
X74577Y20699D01*
X72319Y26150D01*
X72319Y32050D01*
X74577Y37501D01*
X78749Y41673D01*
X84200Y43931D01*
X90100Y43931D01*
X95551Y41673D01*
X99723Y37501D01*
X101981Y32050D01*
X101981Y26150D01*
X99723Y20699D01*
X95551Y16527D01*
X90100Y14269D01*
X84200Y14269D01*
G37*
%LPD*%
%LPC*%
G36*
X35200Y866944D02*
X35200Y866944D01*
X29749Y869202D01*
X25577Y873374D01*
X23319Y878825D01*
X23319Y884725D01*
X25577Y890176D01*
X29749Y894348D01*
X35200Y896606D01*
X41100Y896606D01*
X46551Y894348D01*
X50723Y890176D01*
X52981Y884725D01*
X52981Y878825D01*
X50723Y873374D01*
X46551Y869202D01*
X41100Y866944D01*
X35200Y866944D01*
G37*
%LPD*%
%LPC*%
G36*
X35200Y709944D02*
X35200Y709944D01*
X29749Y712202D01*
X25577Y716374D01*
X23319Y721825D01*
X23319Y727725D01*
X25577Y733176D01*
X29749Y737348D01*
X35200Y739606D01*
X41100Y739606D01*
X46551Y737348D01*
X50723Y733176D01*
X52981Y727725D01*
X52981Y721825D01*
X50723Y716374D01*
X46551Y712202D01*
X41100Y709944D01*
X35200Y709944D01*
G37*
%LPD*%
%LPC*%
G36*
X325262Y295937D02*
X325262Y295937D01*
X322005Y297287D01*
X319512Y299780D01*
X318162Y303037D01*
X318162Y306563D01*
X319512Y309820D01*
X320883Y311191D01*
X320950Y311286D01*
X321021Y311380D01*
X321023Y311386D01*
X321026Y311391D01*
X321060Y311502D01*
X321097Y311614D01*
X321097Y311620D01*
X321099Y311626D01*
X321096Y311743D01*
X321094Y311860D01*
X321092Y311867D01*
X321092Y311872D01*
X321086Y311890D01*
X321048Y312021D01*
X320044Y314444D01*
X320044Y317970D01*
X321393Y321227D01*
X323886Y323720D01*
X327144Y325070D01*
X330670Y325070D01*
X333927Y323720D01*
X336420Y321227D01*
X336784Y320349D01*
X336795Y320332D01*
X336800Y320313D01*
X336859Y320228D01*
X336914Y320140D01*
X336929Y320127D01*
X336940Y320111D01*
X337023Y320049D01*
X337103Y319983D01*
X337122Y319976D01*
X337138Y319964D01*
X337236Y319932D01*
X337333Y319895D01*
X337353Y319894D01*
X337372Y319888D01*
X337475Y319889D01*
X337579Y319884D01*
X337598Y319890D01*
X337618Y319890D01*
X337779Y319937D01*
X337962Y320013D01*
X341488Y320013D01*
X344745Y318663D01*
X347238Y316170D01*
X348588Y312913D01*
X348588Y309387D01*
X347238Y306130D01*
X344745Y303637D01*
X341488Y302287D01*
X337962Y302287D01*
X336630Y302839D01*
X336610Y302844D01*
X336593Y302853D01*
X336491Y302872D01*
X336390Y302895D01*
X336370Y302893D01*
X336351Y302897D01*
X336248Y302882D01*
X336145Y302872D01*
X336127Y302864D01*
X336107Y302861D01*
X336015Y302814D01*
X335921Y302772D01*
X335906Y302759D01*
X335888Y302750D01*
X335816Y302676D01*
X335740Y302606D01*
X335730Y302588D01*
X335716Y302574D01*
X335635Y302427D01*
X334538Y299780D01*
X332045Y297287D01*
X328788Y295937D01*
X325262Y295937D01*
G37*
%LPD*%
%LPC*%
G36*
X77612Y610262D02*
X77612Y610262D01*
X74355Y611612D01*
X71862Y614105D01*
X70512Y617362D01*
X70512Y620888D01*
X71634Y623596D01*
X71655Y623685D01*
X71683Y623772D01*
X71683Y623804D01*
X71690Y623836D01*
X71682Y623926D01*
X71681Y624018D01*
X71669Y624057D01*
X71667Y624081D01*
X71654Y624110D01*
X71634Y624179D01*
X70512Y626887D01*
X70512Y630413D01*
X71862Y633670D01*
X74355Y636163D01*
X77612Y637513D01*
X81138Y637513D01*
X84395Y636163D01*
X86888Y633670D01*
X88238Y630413D01*
X88238Y626887D01*
X87116Y624179D01*
X87095Y624090D01*
X87067Y624003D01*
X87067Y623971D01*
X87060Y623939D01*
X87068Y623849D01*
X87069Y623757D01*
X87081Y623718D01*
X87083Y623694D01*
X87096Y623665D01*
X87116Y623596D01*
X88238Y620888D01*
X88238Y617362D01*
X86888Y614105D01*
X84395Y611612D01*
X81138Y610262D01*
X77612Y610262D01*
G37*
%LPD*%
%LPC*%
G36*
X77612Y807112D02*
X77612Y807112D01*
X74355Y808462D01*
X71862Y810955D01*
X70512Y814212D01*
X70512Y817738D01*
X71634Y820446D01*
X71655Y820535D01*
X71683Y820622D01*
X71683Y820654D01*
X71690Y820686D01*
X71682Y820776D01*
X71681Y820868D01*
X71669Y820907D01*
X71667Y820931D01*
X71654Y820960D01*
X71634Y821029D01*
X70512Y823737D01*
X70512Y827263D01*
X71862Y830520D01*
X74355Y833013D01*
X77612Y834363D01*
X81138Y834363D01*
X84395Y833013D01*
X86888Y830520D01*
X88238Y827263D01*
X88238Y823737D01*
X87116Y821029D01*
X87095Y820940D01*
X87067Y820853D01*
X87067Y820821D01*
X87060Y820789D01*
X87068Y820699D01*
X87069Y820607D01*
X87081Y820568D01*
X87083Y820544D01*
X87096Y820515D01*
X87116Y820446D01*
X88238Y817738D01*
X88238Y814212D01*
X86888Y810955D01*
X84395Y808462D01*
X81138Y807112D01*
X77612Y807112D01*
G37*
%LPD*%
%LPC*%
G36*
X77612Y410237D02*
X77612Y410237D01*
X74355Y411587D01*
X71862Y414080D01*
X70512Y417337D01*
X70512Y420863D01*
X71634Y423571D01*
X71655Y423660D01*
X71683Y423747D01*
X71683Y423779D01*
X71690Y423811D01*
X71682Y423901D01*
X71681Y423993D01*
X71669Y424032D01*
X71667Y424056D01*
X71654Y424085D01*
X71634Y424154D01*
X70512Y426862D01*
X70512Y430388D01*
X71862Y433645D01*
X74355Y436138D01*
X77612Y437488D01*
X81138Y437488D01*
X84395Y436138D01*
X86888Y433645D01*
X88238Y430388D01*
X88238Y426862D01*
X87116Y424154D01*
X87095Y424065D01*
X87067Y423978D01*
X87067Y423946D01*
X87060Y423914D01*
X87068Y423824D01*
X87069Y423732D01*
X87081Y423693D01*
X87083Y423669D01*
X87096Y423640D01*
X87116Y423571D01*
X88238Y420863D01*
X88238Y417337D01*
X86888Y414080D01*
X84395Y411587D01*
X81138Y410237D01*
X77612Y410237D01*
G37*
%LPD*%
%LPC*%
G36*
X1185227Y1081023D02*
X1185227Y1081023D01*
X1181119Y1082725D01*
X1177975Y1085869D01*
X1176273Y1089977D01*
X1176273Y1094423D01*
X1177975Y1098531D01*
X1181119Y1101675D01*
X1185227Y1103377D01*
X1189673Y1103377D01*
X1193781Y1101675D01*
X1196925Y1098531D01*
X1198627Y1094423D01*
X1198627Y1089977D01*
X1196925Y1085869D01*
X1193781Y1082725D01*
X1189673Y1081023D01*
X1185227Y1081023D01*
G37*
%LPD*%
%LPC*%
G36*
X258587Y349912D02*
X258587Y349912D01*
X255330Y351262D01*
X252837Y353755D01*
X251487Y357012D01*
X251487Y360538D01*
X252837Y363795D01*
X255330Y366288D01*
X258587Y367638D01*
X262113Y367638D01*
X265370Y366288D01*
X267863Y363795D01*
X269213Y360538D01*
X269213Y357012D01*
X267863Y353755D01*
X265370Y351262D01*
X262113Y349912D01*
X258587Y349912D01*
G37*
%LPD*%
%LPC*%
G36*
X1077737Y1035712D02*
X1077737Y1035712D01*
X1074480Y1037062D01*
X1071987Y1039555D01*
X1070637Y1042812D01*
X1070637Y1046338D01*
X1071987Y1049595D01*
X1074480Y1052088D01*
X1077737Y1053438D01*
X1081263Y1053438D01*
X1084520Y1052088D01*
X1087013Y1049595D01*
X1088363Y1046338D01*
X1088363Y1042812D01*
X1087013Y1039555D01*
X1084520Y1037062D01*
X1081263Y1035712D01*
X1077737Y1035712D01*
G37*
%LPD*%
%LPC*%
G36*
X1306337Y1035712D02*
X1306337Y1035712D01*
X1303080Y1037062D01*
X1300587Y1039555D01*
X1299237Y1042812D01*
X1299237Y1046338D01*
X1300587Y1049595D01*
X1303080Y1052088D01*
X1306337Y1053438D01*
X1309863Y1053438D01*
X1313120Y1052088D01*
X1315613Y1049595D01*
X1316963Y1046338D01*
X1316963Y1042812D01*
X1315613Y1039555D01*
X1313120Y1037062D01*
X1309863Y1035712D01*
X1306337Y1035712D01*
G37*
%LPD*%
%LPC*%
G36*
X1192037Y1035712D02*
X1192037Y1035712D01*
X1188780Y1037062D01*
X1186287Y1039555D01*
X1184937Y1042812D01*
X1184937Y1046338D01*
X1186287Y1049595D01*
X1188780Y1052088D01*
X1192037Y1053438D01*
X1195563Y1053438D01*
X1198820Y1052088D01*
X1201313Y1049595D01*
X1202663Y1046338D01*
X1202663Y1042812D01*
X1201313Y1039555D01*
X1198820Y1037062D01*
X1195563Y1035712D01*
X1192037Y1035712D01*
G37*
%LPD*%
%LPC*%
G36*
X287162Y340387D02*
X287162Y340387D01*
X283905Y341737D01*
X281412Y344230D01*
X280062Y347487D01*
X280062Y351013D01*
X281412Y354270D01*
X283905Y356763D01*
X287162Y358113D01*
X290688Y358113D01*
X293945Y356763D01*
X296438Y354270D01*
X297788Y351013D01*
X297788Y347487D01*
X296438Y344230D01*
X293945Y341737D01*
X290688Y340387D01*
X287162Y340387D01*
G37*
%LPD*%
%LPC*%
G36*
X198262Y343562D02*
X198262Y343562D01*
X195005Y344912D01*
X192512Y347405D01*
X191162Y350662D01*
X191162Y354188D01*
X192512Y357445D01*
X195005Y359938D01*
X198262Y361288D01*
X201788Y361288D01*
X205045Y359938D01*
X207538Y357445D01*
X208888Y354188D01*
X208888Y350662D01*
X207538Y347405D01*
X205045Y344912D01*
X201788Y343562D01*
X198262Y343562D01*
G37*
%LPD*%
%LPC*%
G36*
X230012Y343562D02*
X230012Y343562D01*
X226755Y344912D01*
X224262Y347405D01*
X222912Y350662D01*
X222912Y354188D01*
X224262Y357445D01*
X226755Y359938D01*
X230012Y361288D01*
X233538Y361288D01*
X236795Y359938D01*
X239288Y357445D01*
X240638Y354188D01*
X240638Y350662D01*
X239288Y347405D01*
X236795Y344912D01*
X233538Y343562D01*
X230012Y343562D01*
G37*
%LPD*%
%LPC*%
G36*
X258587Y381662D02*
X258587Y381662D01*
X255330Y383012D01*
X252837Y385505D01*
X251487Y388762D01*
X251487Y392288D01*
X252837Y395545D01*
X255330Y398038D01*
X258587Y399388D01*
X262113Y399388D01*
X265370Y398038D01*
X267863Y395545D01*
X269213Y392288D01*
X269213Y388762D01*
X267863Y385505D01*
X265370Y383012D01*
X262113Y381662D01*
X258587Y381662D01*
G37*
%LPD*%
%LPC*%
G36*
X112319Y842942D02*
X112319Y842942D01*
X109517Y845744D01*
X109517Y849706D01*
X112319Y852508D01*
X116281Y852508D01*
X119083Y849706D01*
X119083Y845744D01*
X116281Y842942D01*
X112319Y842942D01*
G37*
%LPD*%
%LPC*%
G36*
X112319Y427471D02*
X112319Y427471D01*
X109517Y430273D01*
X109517Y434235D01*
X112319Y437037D01*
X116281Y437037D01*
X119083Y434235D01*
X119083Y430273D01*
X116281Y427471D01*
X112319Y427471D01*
G37*
%LPD*%
%LPC*%
G36*
X255194Y442892D02*
X255194Y442892D01*
X252392Y445694D01*
X252392Y449656D01*
X255194Y452458D01*
X259156Y452458D01*
X261958Y449656D01*
X261958Y445694D01*
X259156Y442892D01*
X255194Y442892D01*
G37*
%LPD*%
%LPC*%
G36*
X112319Y446067D02*
X112319Y446067D01*
X109517Y448869D01*
X109517Y452831D01*
X112319Y455633D01*
X116281Y455633D01*
X119083Y452831D01*
X119083Y448869D01*
X116281Y446067D01*
X112319Y446067D01*
G37*
%LPD*%
%LPC*%
G36*
X112319Y141267D02*
X112319Y141267D01*
X109517Y144069D01*
X109517Y148031D01*
X112319Y150833D01*
X116281Y150833D01*
X119083Y148031D01*
X119083Y144069D01*
X116281Y141267D01*
X112319Y141267D01*
G37*
%LPD*%
%LPC*%
G36*
X112319Y824346D02*
X112319Y824346D01*
X109517Y827148D01*
X109517Y831110D01*
X112319Y833912D01*
X116281Y833912D01*
X119083Y831110D01*
X119083Y827148D01*
X116281Y824346D01*
X112319Y824346D01*
G37*
%LPD*%
%LPC*%
G36*
X112319Y627496D02*
X112319Y627496D01*
X109517Y630298D01*
X109517Y634260D01*
X112319Y637062D01*
X116281Y637062D01*
X119083Y634260D01*
X119083Y630298D01*
X116281Y627496D01*
X112319Y627496D01*
G37*
%LPD*%
%LPC*%
G36*
X112319Y646092D02*
X112319Y646092D01*
X109517Y648894D01*
X109517Y652856D01*
X112319Y655658D01*
X116281Y655658D01*
X119083Y652856D01*
X119083Y648894D01*
X116281Y646092D01*
X112319Y646092D01*
G37*
%LPD*%
D10*
X494538Y1067562D02*
X494538Y1072078D01*
X494536Y1072211D01*
X494530Y1072343D01*
X494520Y1072475D01*
X494507Y1072607D01*
X494489Y1072739D01*
X494468Y1072869D01*
X494443Y1073000D01*
X494414Y1073129D01*
X494381Y1073257D01*
X494345Y1073385D01*
X494305Y1073511D01*
X494261Y1073636D01*
X494213Y1073760D01*
X494162Y1073882D01*
X494107Y1074003D01*
X494049Y1074122D01*
X493987Y1074240D01*
X493922Y1074355D01*
X493853Y1074469D01*
X493782Y1074580D01*
X493706Y1074689D01*
X493628Y1074796D01*
X493547Y1074901D01*
X493462Y1075003D01*
X493375Y1075103D01*
X493285Y1075200D01*
X493192Y1075295D01*
X493096Y1075386D01*
X492998Y1075475D01*
X492897Y1075561D01*
X492793Y1075644D01*
X492687Y1075724D01*
X492579Y1075800D01*
X492469Y1075874D01*
X492356Y1075944D01*
X492242Y1076011D01*
X492125Y1076074D01*
X492007Y1076134D01*
X491887Y1076191D01*
X491765Y1076244D01*
X491642Y1076293D01*
X491518Y1076339D01*
X491392Y1076381D01*
X491265Y1076419D01*
X491137Y1076454D01*
X491008Y1076485D01*
X490879Y1076512D01*
X490748Y1076535D01*
X490617Y1076555D01*
X490485Y1076570D01*
X490353Y1076582D01*
X490221Y1076590D01*
X490088Y1076594D01*
X489956Y1076594D01*
X489823Y1076590D01*
X489691Y1076582D01*
X489559Y1076570D01*
X489427Y1076555D01*
X489296Y1076535D01*
X489165Y1076512D01*
X489036Y1076485D01*
X488907Y1076454D01*
X488779Y1076419D01*
X488652Y1076381D01*
X488526Y1076339D01*
X488402Y1076293D01*
X488279Y1076244D01*
X488157Y1076191D01*
X488037Y1076134D01*
X487919Y1076074D01*
X487802Y1076011D01*
X487688Y1075944D01*
X487575Y1075874D01*
X487465Y1075800D01*
X487357Y1075724D01*
X487251Y1075644D01*
X487147Y1075561D01*
X487046Y1075475D01*
X486948Y1075386D01*
X486852Y1075295D01*
X486759Y1075200D01*
X486669Y1075103D01*
X486582Y1075003D01*
X486497Y1074901D01*
X486416Y1074796D01*
X486338Y1074689D01*
X486262Y1074580D01*
X486191Y1074469D01*
X486122Y1074355D01*
X486057Y1074240D01*
X485995Y1074122D01*
X485937Y1074003D01*
X485882Y1073882D01*
X485831Y1073760D01*
X485783Y1073636D01*
X485739Y1073511D01*
X485699Y1073385D01*
X485663Y1073257D01*
X485630Y1073129D01*
X485601Y1073000D01*
X485576Y1072869D01*
X485555Y1072739D01*
X485537Y1072607D01*
X485524Y1072475D01*
X485514Y1072343D01*
X485508Y1072211D01*
X485506Y1072078D01*
X478282Y1072981D02*
X478282Y1067562D01*
X478282Y1072981D02*
X478284Y1073100D01*
X478290Y1073220D01*
X478300Y1073339D01*
X478314Y1073457D01*
X478331Y1073576D01*
X478353Y1073693D01*
X478378Y1073810D01*
X478408Y1073925D01*
X478441Y1074040D01*
X478478Y1074154D01*
X478518Y1074266D01*
X478563Y1074377D01*
X478611Y1074486D01*
X478662Y1074594D01*
X478717Y1074700D01*
X478776Y1074804D01*
X478838Y1074906D01*
X478903Y1075006D01*
X478972Y1075104D01*
X479044Y1075200D01*
X479119Y1075293D01*
X479196Y1075383D01*
X479277Y1075471D01*
X479361Y1075556D01*
X479448Y1075638D01*
X479537Y1075718D01*
X479629Y1075794D01*
X479723Y1075868D01*
X479820Y1075938D01*
X479918Y1076005D01*
X480019Y1076069D01*
X480123Y1076129D01*
X480228Y1076186D01*
X480335Y1076239D01*
X480443Y1076289D01*
X480553Y1076335D01*
X480665Y1076377D01*
X480778Y1076416D01*
X480892Y1076451D01*
X481007Y1076482D01*
X481124Y1076510D01*
X481241Y1076533D01*
X481358Y1076553D01*
X481477Y1076569D01*
X481596Y1076581D01*
X481715Y1076589D01*
X481834Y1076593D01*
X481954Y1076593D01*
X482073Y1076589D01*
X482192Y1076581D01*
X482311Y1076569D01*
X482430Y1076553D01*
X482547Y1076533D01*
X482664Y1076510D01*
X482781Y1076482D01*
X482896Y1076451D01*
X483010Y1076416D01*
X483123Y1076377D01*
X483235Y1076335D01*
X483345Y1076289D01*
X483453Y1076239D01*
X483560Y1076186D01*
X483665Y1076129D01*
X483769Y1076069D01*
X483870Y1076005D01*
X483968Y1075938D01*
X484065Y1075868D01*
X484159Y1075794D01*
X484251Y1075718D01*
X484340Y1075638D01*
X484427Y1075556D01*
X484511Y1075471D01*
X484592Y1075383D01*
X484669Y1075293D01*
X484744Y1075200D01*
X484816Y1075104D01*
X484885Y1075006D01*
X484950Y1074906D01*
X485012Y1074804D01*
X485071Y1074700D01*
X485126Y1074594D01*
X485177Y1074486D01*
X485225Y1074377D01*
X485270Y1074266D01*
X485310Y1074154D01*
X485347Y1074040D01*
X485380Y1073925D01*
X485410Y1073810D01*
X485435Y1073693D01*
X485457Y1073576D01*
X485474Y1073457D01*
X485488Y1073339D01*
X485498Y1073220D01*
X485504Y1073100D01*
X485506Y1072981D01*
X485507Y1072981D02*
X485507Y1069368D01*
D11*
X1702816Y252984D02*
X1702816Y229616D01*
X1702816Y252984D02*
X1713202Y252984D01*
X1713202Y242598D02*
X1702816Y242598D01*
X1720603Y233511D02*
X1720603Y252984D01*
X1720603Y233511D02*
X1720605Y233389D01*
X1720611Y233266D01*
X1720620Y233144D01*
X1720634Y233023D01*
X1720651Y232902D01*
X1720672Y232781D01*
X1720697Y232661D01*
X1720725Y232542D01*
X1720758Y232424D01*
X1720794Y232307D01*
X1720833Y232192D01*
X1720877Y232077D01*
X1720923Y231964D01*
X1720974Y231853D01*
X1721028Y231743D01*
X1721085Y231635D01*
X1721145Y231528D01*
X1721209Y231424D01*
X1721277Y231322D01*
X1721347Y231222D01*
X1721420Y231124D01*
X1721497Y231028D01*
X1721576Y230935D01*
X1721659Y230845D01*
X1721744Y230757D01*
X1721832Y230672D01*
X1721922Y230589D01*
X1722015Y230510D01*
X1722111Y230433D01*
X1722209Y230360D01*
X1722309Y230290D01*
X1722411Y230222D01*
X1722515Y230158D01*
X1722622Y230098D01*
X1722730Y230041D01*
X1722840Y229987D01*
X1722951Y229936D01*
X1723064Y229890D01*
X1723179Y229846D01*
X1723294Y229807D01*
X1723411Y229771D01*
X1723529Y229738D01*
X1723648Y229710D01*
X1723768Y229685D01*
X1723889Y229664D01*
X1724010Y229647D01*
X1724131Y229633D01*
X1724253Y229624D01*
X1724376Y229618D01*
X1724498Y229616D01*
X1735127Y229616D02*
X1741618Y229616D01*
X1735127Y229616D02*
X1735005Y229618D01*
X1734882Y229624D01*
X1734760Y229633D01*
X1734639Y229647D01*
X1734518Y229664D01*
X1734397Y229685D01*
X1734277Y229710D01*
X1734158Y229738D01*
X1734040Y229771D01*
X1733923Y229807D01*
X1733808Y229846D01*
X1733693Y229890D01*
X1733580Y229936D01*
X1733469Y229987D01*
X1733359Y230041D01*
X1733251Y230098D01*
X1733144Y230158D01*
X1733040Y230222D01*
X1732938Y230290D01*
X1732838Y230360D01*
X1732740Y230433D01*
X1732644Y230510D01*
X1732551Y230589D01*
X1732461Y230672D01*
X1732373Y230757D01*
X1732288Y230845D01*
X1732205Y230935D01*
X1732126Y231028D01*
X1732049Y231124D01*
X1731976Y231222D01*
X1731906Y231322D01*
X1731838Y231424D01*
X1731774Y231528D01*
X1731714Y231635D01*
X1731657Y231743D01*
X1731603Y231853D01*
X1731552Y231964D01*
X1731506Y232077D01*
X1731462Y232192D01*
X1731423Y232307D01*
X1731387Y232424D01*
X1731354Y232542D01*
X1731326Y232661D01*
X1731301Y232781D01*
X1731280Y232902D01*
X1731263Y233023D01*
X1731249Y233144D01*
X1731240Y233266D01*
X1731234Y233389D01*
X1731232Y233511D01*
X1731232Y240002D01*
X1731234Y240145D01*
X1731240Y240288D01*
X1731250Y240431D01*
X1731264Y240573D01*
X1731281Y240715D01*
X1731303Y240857D01*
X1731328Y240998D01*
X1731358Y241138D01*
X1731391Y241277D01*
X1731428Y241415D01*
X1731469Y241552D01*
X1731513Y241688D01*
X1731562Y241823D01*
X1731614Y241956D01*
X1731669Y242088D01*
X1731729Y242218D01*
X1731792Y242347D01*
X1731858Y242474D01*
X1731928Y242599D01*
X1732001Y242721D01*
X1732078Y242842D01*
X1732158Y242961D01*
X1732241Y243077D01*
X1732327Y243192D01*
X1732416Y243303D01*
X1732509Y243413D01*
X1732604Y243519D01*
X1732703Y243623D01*
X1732804Y243724D01*
X1732908Y243823D01*
X1733014Y243918D01*
X1733124Y244011D01*
X1733235Y244100D01*
X1733350Y244186D01*
X1733466Y244269D01*
X1733585Y244349D01*
X1733706Y244426D01*
X1733829Y244499D01*
X1733953Y244569D01*
X1734080Y244635D01*
X1734209Y244698D01*
X1734339Y244758D01*
X1734471Y244813D01*
X1734604Y244865D01*
X1734739Y244914D01*
X1734875Y244958D01*
X1735012Y244999D01*
X1735150Y245036D01*
X1735289Y245069D01*
X1735429Y245099D01*
X1735570Y245124D01*
X1735712Y245146D01*
X1735854Y245163D01*
X1735996Y245177D01*
X1736139Y245187D01*
X1736282Y245193D01*
X1736425Y245195D01*
X1736568Y245193D01*
X1736711Y245187D01*
X1736854Y245177D01*
X1736996Y245163D01*
X1737138Y245146D01*
X1737280Y245124D01*
X1737421Y245099D01*
X1737561Y245069D01*
X1737700Y245036D01*
X1737838Y244999D01*
X1737975Y244958D01*
X1738111Y244914D01*
X1738246Y244865D01*
X1738379Y244813D01*
X1738511Y244758D01*
X1738641Y244698D01*
X1738770Y244635D01*
X1738897Y244569D01*
X1739022Y244499D01*
X1739144Y244426D01*
X1739265Y244349D01*
X1739384Y244269D01*
X1739500Y244186D01*
X1739615Y244100D01*
X1739726Y244011D01*
X1739836Y243918D01*
X1739942Y243823D01*
X1740046Y243724D01*
X1740147Y243623D01*
X1740246Y243519D01*
X1740341Y243413D01*
X1740434Y243303D01*
X1740523Y243192D01*
X1740609Y243077D01*
X1740692Y242961D01*
X1740772Y242842D01*
X1740849Y242721D01*
X1740922Y242599D01*
X1740992Y242474D01*
X1741058Y242347D01*
X1741121Y242218D01*
X1741181Y242088D01*
X1741236Y241956D01*
X1741288Y241823D01*
X1741337Y241688D01*
X1741381Y241552D01*
X1741422Y241415D01*
X1741459Y241277D01*
X1741492Y241138D01*
X1741522Y240998D01*
X1741547Y240857D01*
X1741569Y240715D01*
X1741586Y240573D01*
X1741600Y240431D01*
X1741610Y240288D01*
X1741616Y240145D01*
X1741618Y240002D01*
X1741618Y237405D01*
X1731232Y237405D01*
X1748631Y229616D02*
X1759017Y245195D01*
X1748631Y245195D02*
X1759017Y229616D01*
X1779106Y247142D02*
X1779104Y247292D01*
X1779098Y247443D01*
X1779089Y247593D01*
X1779075Y247743D01*
X1779058Y247892D01*
X1779036Y248041D01*
X1779011Y248189D01*
X1778982Y248337D01*
X1778950Y248484D01*
X1778913Y248630D01*
X1778873Y248775D01*
X1778829Y248919D01*
X1778782Y249061D01*
X1778730Y249203D01*
X1778676Y249343D01*
X1778617Y249481D01*
X1778555Y249619D01*
X1778490Y249754D01*
X1778421Y249888D01*
X1778348Y250019D01*
X1778272Y250149D01*
X1778193Y250277D01*
X1778111Y250403D01*
X1778025Y250527D01*
X1777937Y250648D01*
X1777845Y250768D01*
X1777750Y250884D01*
X1777652Y250999D01*
X1777551Y251110D01*
X1777448Y251219D01*
X1777341Y251326D01*
X1777232Y251429D01*
X1777121Y251530D01*
X1777006Y251628D01*
X1776890Y251723D01*
X1776770Y251815D01*
X1776649Y251903D01*
X1776525Y251989D01*
X1776399Y252071D01*
X1776271Y252150D01*
X1776141Y252226D01*
X1776010Y252299D01*
X1775876Y252368D01*
X1775741Y252433D01*
X1775603Y252495D01*
X1775465Y252554D01*
X1775325Y252608D01*
X1775183Y252660D01*
X1775041Y252707D01*
X1774897Y252751D01*
X1774752Y252791D01*
X1774606Y252828D01*
X1774459Y252860D01*
X1774311Y252889D01*
X1774163Y252914D01*
X1774014Y252936D01*
X1773865Y252953D01*
X1773715Y252967D01*
X1773565Y252976D01*
X1773414Y252982D01*
X1773264Y252984D01*
X1773083Y252982D01*
X1772901Y252975D01*
X1772720Y252964D01*
X1772539Y252949D01*
X1772359Y252929D01*
X1772179Y252905D01*
X1772000Y252877D01*
X1771821Y252844D01*
X1771643Y252807D01*
X1771467Y252766D01*
X1771291Y252720D01*
X1771116Y252670D01*
X1770943Y252616D01*
X1770771Y252558D01*
X1770601Y252496D01*
X1770432Y252429D01*
X1770265Y252359D01*
X1770099Y252284D01*
X1769936Y252206D01*
X1769774Y252123D01*
X1769614Y252037D01*
X1769457Y251947D01*
X1769301Y251853D01*
X1769148Y251755D01*
X1768998Y251654D01*
X1768850Y251549D01*
X1768704Y251440D01*
X1768561Y251328D01*
X1768421Y251213D01*
X1768284Y251094D01*
X1768150Y250972D01*
X1768019Y250846D01*
X1767890Y250718D01*
X1767765Y250587D01*
X1767643Y250452D01*
X1767525Y250315D01*
X1767409Y250175D01*
X1767298Y250032D01*
X1767189Y249886D01*
X1767084Y249738D01*
X1766983Y249587D01*
X1766886Y249434D01*
X1766792Y249279D01*
X1766702Y249121D01*
X1766616Y248961D01*
X1766534Y248799D01*
X1766455Y248636D01*
X1766381Y248470D01*
X1766311Y248303D01*
X1766244Y248134D01*
X1766182Y247963D01*
X1766124Y247791D01*
X1777159Y242598D02*
X1777269Y242706D01*
X1777376Y242816D01*
X1777481Y242929D01*
X1777583Y243044D01*
X1777682Y243162D01*
X1777778Y243282D01*
X1777872Y243405D01*
X1777962Y243529D01*
X1778049Y243656D01*
X1778133Y243785D01*
X1778214Y243917D01*
X1778291Y244050D01*
X1778365Y244185D01*
X1778436Y244321D01*
X1778504Y244460D01*
X1778568Y244600D01*
X1778629Y244741D01*
X1778686Y244884D01*
X1778739Y245028D01*
X1778789Y245174D01*
X1778836Y245321D01*
X1778879Y245469D01*
X1778918Y245618D01*
X1778954Y245767D01*
X1778985Y245918D01*
X1779014Y246069D01*
X1779038Y246221D01*
X1779059Y246374D01*
X1779076Y246527D01*
X1779089Y246680D01*
X1779098Y246834D01*
X1779104Y246988D01*
X1779106Y247142D01*
X1777159Y242598D02*
X1766124Y229616D01*
X1779106Y229616D01*
D12*
X142125Y1054100D03*
X81125Y1054100D03*
X111125Y1006100D03*
D13*
X87150Y875775D03*
X87150Y730775D03*
X38150Y724775D03*
X38150Y881775D03*
X87150Y678925D03*
X87150Y533925D03*
X38150Y527925D03*
X38150Y684925D03*
X87150Y478900D03*
X87150Y333900D03*
X38150Y327900D03*
X38150Y484900D03*
X87150Y174100D03*
X87150Y29100D03*
X38150Y23100D03*
X38150Y180100D03*
D14*
X1187450Y1092200D03*
X1263650Y1092200D03*
D15*
X406400Y76200D03*
X76200Y266700D03*
X406400Y1066800D03*
X76200Y939800D03*
X1435100Y1079500D03*
X1016000Y1079500D03*
D16*
X114300Y450850D03*
X257175Y447675D03*
X114300Y650875D03*
X339725Y460375D03*
X114300Y847725D03*
X342900Y356561D03*
X114300Y146050D03*
X327025Y304800D03*
X114300Y432254D03*
X225425Y431800D03*
X79375Y428625D03*
X231928Y422428D03*
X114300Y632279D03*
X329184Y461772D03*
X79375Y628650D03*
X323850Y431800D03*
X79375Y825500D03*
X342900Y374650D03*
X114300Y829129D03*
X339725Y365125D03*
X130175Y123825D03*
X339725Y311150D03*
X114300Y120650D03*
X328907Y316207D03*
X120650Y133350D03*
X114300Y104775D03*
X114300Y88900D03*
X114300Y76200D03*
X114300Y60325D03*
X79353Y409553D03*
X79375Y393700D03*
X79153Y378047D03*
X79078Y364828D03*
X79375Y437643D03*
X79353Y609578D03*
X79375Y593725D03*
X79153Y578072D03*
X79078Y564853D03*
X79375Y637668D03*
X79353Y806428D03*
X79375Y790575D03*
X79153Y774922D03*
X79078Y761703D03*
X79375Y834518D03*
X203200Y1114425D03*
X203200Y1127125D03*
X222250Y1089025D03*
X222250Y1108075D03*
X212725Y1060450D03*
X193675Y1060450D03*
X184150Y1079500D03*
X171450Y1079500D03*
X1108075Y1047750D03*
X1120775Y1047750D03*
X1130300Y1031875D03*
X63500Y1054100D03*
X63500Y1069975D03*
X73025Y1079500D03*
X88900Y1079500D03*
X98425Y1069975D03*
X98425Y1054100D03*
X98425Y1038225D03*
X88900Y1028700D03*
X73025Y1028700D03*
X63500Y1038225D03*
X292100Y431800D03*
X260350Y390525D03*
X260350Y358775D03*
X288925Y349250D03*
X317500Y349250D03*
X342900Y400050D03*
X260350Y415925D03*
X200025Y352425D03*
X358775Y450850D03*
D17*
X463550Y203200D02*
X1044575Y203200D01*
X1049562Y203260D01*
X1054546Y203441D01*
X1059524Y203742D01*
X1064493Y204163D01*
X1069451Y204705D01*
X1074394Y205366D01*
X1079320Y206146D01*
X1084225Y207045D01*
X1089107Y208062D01*
X1093964Y209197D01*
X1098791Y210449D01*
X1103587Y211817D01*
X1108348Y213301D01*
X1113072Y214899D01*
X1117757Y216611D01*
X1122398Y218436D01*
X1126994Y220372D01*
X1131542Y222419D01*
X1136039Y224575D01*
X1140482Y226839D01*
X1144870Y229210D01*
X1149199Y231686D01*
X1153467Y234266D01*
X1157671Y236948D01*
X1161809Y239732D01*
X1165879Y242614D01*
X1169878Y245594D01*
X1173804Y248670D01*
X1177654Y251839D01*
X1181427Y255101D01*
X1185120Y258453D01*
X1188730Y261893D01*
X1192257Y265420D01*
X1195697Y269030D01*
X1199049Y272723D01*
X1202311Y276496D01*
X1205480Y280346D01*
X1208556Y284272D01*
X1211536Y288271D01*
X1214418Y292341D01*
X1217202Y296479D01*
X1219884Y300683D01*
X1222464Y304951D01*
X1224940Y309280D01*
X1227311Y313668D01*
X1229575Y318111D01*
X1231731Y322608D01*
X1233778Y327156D01*
X1235714Y331752D01*
X1237539Y336393D01*
X1239251Y341078D01*
X1240849Y345802D01*
X1242333Y350563D01*
X1243701Y355359D01*
X1244953Y360186D01*
X1246088Y365043D01*
X1247105Y369925D01*
X1248004Y374830D01*
X1248784Y379756D01*
X1249445Y384699D01*
X1249987Y389657D01*
X1250408Y394626D01*
X1250709Y399604D01*
X1250890Y404588D01*
X1250950Y409575D01*
X1250950Y1000125D01*
D16*
X241300Y1108075D03*
X266700Y1089025D03*
X279400Y1089025D03*
X292100Y1089025D03*
X304800Y1089025D03*
X317500Y1089025D03*
X317500Y1076325D03*
X317500Y1063625D03*
X317500Y1050925D03*
X317500Y1038225D03*
X317500Y1025525D03*
X317500Y1012825D03*
X304800Y1012825D03*
X292100Y1012825D03*
X279400Y1012825D03*
X266700Y1012825D03*
X254000Y1012825D03*
X241300Y1012825D03*
X241300Y1025525D03*
X241300Y1038225D03*
X241300Y1050925D03*
X241300Y1063625D03*
X241300Y1076325D03*
X260350Y1114425D03*
X260350Y1127125D03*
X254000Y1089025D03*
X241300Y1089025D03*
X1050925Y1006475D03*
X1165225Y1006475D03*
X1279525Y1006475D03*
X1120775Y990600D03*
X1108075Y990600D03*
X1130300Y1000125D03*
X279400Y431800D03*
X260612Y403025D03*
X260350Y371475D03*
X276225Y349250D03*
X304800Y349250D03*
X342900Y387350D03*
X307975Y431800D03*
X342900Y419100D03*
X231775Y352425D03*
X450850Y247650D03*
D18*
X1047750Y247650D01*
X1051586Y247696D01*
X1055420Y247835D01*
X1059249Y248067D01*
X1063072Y248391D01*
X1066885Y248807D01*
X1070688Y249316D01*
X1074477Y249916D01*
X1078250Y250607D01*
X1082006Y251390D01*
X1085741Y252263D01*
X1089455Y253226D01*
X1093144Y254278D01*
X1096806Y255420D01*
X1100440Y256649D01*
X1104044Y257966D01*
X1107614Y259370D01*
X1111149Y260859D01*
X1114647Y262434D01*
X1118107Y264092D01*
X1121525Y265834D01*
X1124900Y267658D01*
X1128230Y269562D01*
X1131513Y271547D01*
X1134747Y273610D01*
X1137930Y275751D01*
X1141061Y277969D01*
X1144137Y280261D01*
X1147157Y282627D01*
X1150119Y285065D01*
X1153021Y287574D01*
X1155861Y290152D01*
X1158639Y292799D01*
X1161351Y295511D01*
X1163998Y298289D01*
X1166576Y301129D01*
X1169085Y304031D01*
X1171523Y306993D01*
X1173889Y310013D01*
X1176181Y313089D01*
X1178399Y316220D01*
X1180540Y319403D01*
X1182603Y322637D01*
X1184588Y325920D01*
X1186492Y329250D01*
X1188316Y332625D01*
X1190058Y336043D01*
X1191716Y339503D01*
X1193291Y343001D01*
X1194780Y346536D01*
X1196184Y350106D01*
X1197501Y353710D01*
X1198730Y357344D01*
X1199872Y361006D01*
X1200924Y364695D01*
X1201887Y368409D01*
X1202760Y372144D01*
X1203543Y375900D01*
X1204234Y379673D01*
X1204834Y383462D01*
X1205343Y387265D01*
X1205759Y391078D01*
X1206083Y394901D01*
X1206315Y398730D01*
X1206454Y402564D01*
X1206500Y406400D01*
X1206500Y1003300D01*
X1225550Y1022350D01*
D16*
X1225550Y1022350D03*
X441325Y231775D03*
D18*
X1044575Y231775D01*
X1048871Y231827D01*
X1053165Y231983D01*
X1057454Y232242D01*
X1061735Y232605D01*
X1066006Y233071D01*
X1070265Y233641D01*
X1074509Y234313D01*
X1078735Y235087D01*
X1082941Y235964D01*
X1087125Y236942D01*
X1091284Y238020D01*
X1095416Y239199D01*
X1099518Y240477D01*
X1103588Y241854D01*
X1107624Y243329D01*
X1111622Y244901D01*
X1115582Y246569D01*
X1119500Y248333D01*
X1123374Y250190D01*
X1127203Y252141D01*
X1130983Y254183D01*
X1134712Y256317D01*
X1138389Y258540D01*
X1142012Y260851D01*
X1145577Y263248D01*
X1149083Y265732D01*
X1152528Y268299D01*
X1155911Y270949D01*
X1159228Y273680D01*
X1162478Y276490D01*
X1165660Y279378D01*
X1168770Y282342D01*
X1171808Y285380D01*
X1174772Y288490D01*
X1177660Y291672D01*
X1180470Y294922D01*
X1183201Y298239D01*
X1185851Y301622D01*
X1188418Y305067D01*
X1190902Y308573D01*
X1193299Y312138D01*
X1195610Y315761D01*
X1197833Y319438D01*
X1199967Y323167D01*
X1202009Y326947D01*
X1203960Y330776D01*
X1205817Y334650D01*
X1207581Y338568D01*
X1209249Y342528D01*
X1210821Y346526D01*
X1212296Y350562D01*
X1213673Y354632D01*
X1214951Y358734D01*
X1216130Y362866D01*
X1217208Y367025D01*
X1218186Y371209D01*
X1219063Y375415D01*
X1219837Y379641D01*
X1220509Y383885D01*
X1221079Y388144D01*
X1221545Y392415D01*
X1221908Y396696D01*
X1222167Y400985D01*
X1222323Y405279D01*
X1222375Y409575D01*
X1222375Y1003300D01*
X1231900Y1012825D01*
D16*
X1231900Y1012825D03*
X460081Y263231D03*
D18*
X460375Y263525D02*
X1050925Y263525D01*
X460375Y263525D02*
X460081Y263231D01*
X1050925Y263525D02*
X1054301Y263566D01*
X1057674Y263688D01*
X1061044Y263892D01*
X1064408Y264177D01*
X1067764Y264544D01*
X1071110Y264991D01*
X1074444Y265519D01*
X1077765Y266128D01*
X1081070Y266816D01*
X1084357Y267584D01*
X1087625Y268432D01*
X1090872Y269358D01*
X1094095Y270362D01*
X1097293Y271444D01*
X1100463Y272603D01*
X1103605Y273838D01*
X1106716Y275149D01*
X1109795Y276535D01*
X1112839Y277994D01*
X1115847Y279527D01*
X1118817Y281132D01*
X1121747Y282808D01*
X1124636Y284554D01*
X1127482Y286370D01*
X1130284Y288254D01*
X1133039Y290205D01*
X1135746Y292222D01*
X1138403Y294304D01*
X1141009Y296450D01*
X1143563Y298658D01*
X1146063Y300927D01*
X1148507Y303256D01*
X1150894Y305643D01*
X1153223Y308087D01*
X1155492Y310587D01*
X1157700Y313141D01*
X1159846Y315747D01*
X1161928Y318404D01*
X1163945Y321111D01*
X1165896Y323866D01*
X1167780Y326668D01*
X1169596Y329514D01*
X1171342Y332403D01*
X1173018Y335333D01*
X1174623Y338303D01*
X1176156Y341311D01*
X1177615Y344355D01*
X1179001Y347434D01*
X1180312Y350545D01*
X1181547Y353687D01*
X1182706Y356857D01*
X1183788Y360055D01*
X1184792Y363278D01*
X1185718Y366525D01*
X1186566Y369793D01*
X1187334Y373080D01*
X1188022Y376385D01*
X1188631Y379706D01*
X1189159Y383040D01*
X1189606Y386386D01*
X1189973Y389742D01*
X1190258Y393106D01*
X1190462Y396476D01*
X1190584Y399849D01*
X1190625Y403225D01*
X1190625Y1003300D01*
X1219200Y1031875D01*
D16*
X1219200Y1031875D03*
X120650Y114300D03*
X79375Y419100D03*
X79375Y619125D03*
X79375Y815975D03*
X1079500Y1044575D03*
X1193800Y1044575D03*
X1308100Y1044575D03*
X123825Y142875D03*
X114300Y441325D03*
X114300Y641350D03*
X114300Y838200D03*
X212725Y1041400D03*
X193675Y1041400D03*
X184150Y1022350D03*
X171450Y1022350D03*
X127000Y1076325D03*
X127000Y1060450D03*
X127000Y1044575D03*
X127000Y1028700D03*
X142875Y1028700D03*
X158750Y1028700D03*
X158750Y1044575D03*
X155575Y1076325D03*
X231775Y438150D03*
X345821Y452628D03*
X336550Y431800D03*
X320675Y384175D03*
X320675Y365125D03*
D19*
X1165225Y412750D02*
X1165225Y984250D01*
X1165225Y412750D02*
X1165189Y409758D01*
X1165080Y406768D01*
X1164900Y403781D01*
X1164647Y400799D01*
X1164322Y397825D01*
X1163926Y394859D01*
X1163458Y391903D01*
X1162918Y388960D01*
X1162308Y386031D01*
X1161627Y383117D01*
X1160876Y380220D01*
X1160055Y377343D01*
X1159165Y374486D01*
X1158206Y371652D01*
X1157178Y368841D01*
X1156084Y366056D01*
X1154922Y363299D01*
X1153694Y360570D01*
X1152400Y357872D01*
X1151042Y355206D01*
X1149619Y352573D01*
X1148133Y349976D01*
X1146585Y347415D01*
X1144976Y344892D01*
X1143306Y342409D01*
X1141577Y339967D01*
X1139789Y337568D01*
X1137943Y335213D01*
X1136041Y332902D01*
X1134084Y330639D01*
X1132073Y328423D01*
X1130009Y326257D01*
X1127893Y324141D01*
X1125727Y322077D01*
X1123511Y320066D01*
X1121248Y318109D01*
X1118937Y316207D01*
X1116582Y314361D01*
X1114183Y312573D01*
X1111741Y310844D01*
X1109258Y309174D01*
X1106735Y307565D01*
X1104174Y306017D01*
X1101577Y304531D01*
X1098944Y303108D01*
X1096278Y301750D01*
X1093580Y300456D01*
X1090851Y299228D01*
X1088094Y298066D01*
X1085309Y296972D01*
X1082498Y295944D01*
X1079664Y294985D01*
X1076807Y294095D01*
X1073930Y293274D01*
X1071033Y292523D01*
X1068119Y291842D01*
X1065190Y291232D01*
X1062247Y290692D01*
X1059291Y290224D01*
X1056325Y289828D01*
X1053351Y289503D01*
X1050369Y289250D01*
X1047382Y289070D01*
X1044392Y288961D01*
X1041400Y288925D01*
X463550Y288925D01*
X1285875Y412750D02*
X1285875Y984250D01*
X1285875Y412750D02*
X1285804Y406843D01*
X1285590Y400939D01*
X1285233Y395042D01*
X1284734Y389155D01*
X1284093Y383282D01*
X1283310Y377426D01*
X1282385Y371591D01*
X1281320Y365780D01*
X1280115Y359996D01*
X1278771Y354243D01*
X1277288Y348525D01*
X1275667Y342843D01*
X1273910Y337203D01*
X1272016Y331607D01*
X1269988Y326058D01*
X1267827Y320560D01*
X1265533Y315115D01*
X1263108Y309728D01*
X1260554Y304401D01*
X1257872Y299137D01*
X1255063Y293939D01*
X1252130Y288811D01*
X1249074Y283755D01*
X1245896Y278775D01*
X1242599Y273872D01*
X1239184Y269051D01*
X1235654Y264314D01*
X1232011Y259663D01*
X1228256Y255102D01*
X1224392Y250633D01*
X1220421Y246259D01*
X1216346Y241981D01*
X1212169Y237804D01*
X1207891Y233729D01*
X1203517Y229758D01*
X1199048Y225894D01*
X1194487Y222139D01*
X1189836Y218496D01*
X1185099Y214966D01*
X1180278Y211551D01*
X1175375Y208254D01*
X1170395Y205076D01*
X1165339Y202020D01*
X1160211Y199087D01*
X1155013Y196278D01*
X1149749Y193596D01*
X1144422Y191042D01*
X1139035Y188617D01*
X1133590Y186323D01*
X1128092Y184162D01*
X1122543Y182134D01*
X1116947Y180240D01*
X1111307Y178483D01*
X1105625Y176862D01*
X1099907Y175379D01*
X1094154Y174035D01*
X1088370Y172830D01*
X1082559Y171765D01*
X1076724Y170840D01*
X1070868Y170057D01*
X1064995Y169416D01*
X1059108Y168917D01*
X1053211Y168560D01*
X1047307Y168346D01*
X1041400Y168275D01*
X463550Y168275D01*
M02*
