G04 EAGLE Gerber RS-274X export*
G75*
%MOMM*%
%FSLAX34Y34*%
%LPD*%
%INBottom Copper*%
%IPPOS*%
%AMOC8*
5,1,8,0,0,1.08239X$1,22.5*%
G01*
%ADD10C,0.152400*%
%ADD11C,0.203200*%
%ADD12R,0.600000X0.700000*%
%ADD13R,0.700000X0.600000*%
%ADD14C,2.000000*%
%ADD15C,1.950000*%
%ADD16R,1.500000X1.300000*%
%ADD17R,1.300000X1.500000*%
%ADD18C,1.219200*%
%ADD19R,1.400000X1.600000*%
%ADD20C,6.451600*%
%ADD21C,0.756400*%
%ADD22C,0.295000*%

G36*
X488970Y5084D02*
X488970Y5084D01*
X488989Y5082D01*
X489091Y5104D01*
X489193Y5120D01*
X489210Y5130D01*
X489230Y5134D01*
X489319Y5187D01*
X489410Y5236D01*
X489424Y5250D01*
X489441Y5260D01*
X489508Y5339D01*
X489580Y5414D01*
X489588Y5432D01*
X489601Y5447D01*
X489640Y5543D01*
X489683Y5637D01*
X489685Y5657D01*
X489693Y5675D01*
X489711Y5842D01*
X489711Y456439D01*
X495808Y456439D01*
X495828Y456442D01*
X495847Y456440D01*
X495949Y456462D01*
X496051Y456478D01*
X496068Y456488D01*
X496088Y456492D01*
X496177Y456545D01*
X496268Y456594D01*
X496282Y456608D01*
X496299Y456618D01*
X496366Y456697D01*
X496438Y456772D01*
X496446Y456790D01*
X496459Y456805D01*
X496498Y456901D01*
X496541Y456995D01*
X496543Y457015D01*
X496551Y457033D01*
X496569Y457200D01*
X496569Y1020826D01*
X496566Y1020846D01*
X496568Y1020865D01*
X496546Y1020967D01*
X496530Y1021069D01*
X496520Y1021086D01*
X496516Y1021106D01*
X496463Y1021195D01*
X496414Y1021286D01*
X496400Y1021300D01*
X496390Y1021317D01*
X496311Y1021384D01*
X496236Y1021456D01*
X496218Y1021464D01*
X496203Y1021477D01*
X496107Y1021516D01*
X496013Y1021559D01*
X495993Y1021561D01*
X495975Y1021569D01*
X495808Y1021587D01*
X469584Y1021587D01*
X469137Y1022034D01*
X469137Y1098866D01*
X469584Y1099313D01*
X486017Y1099313D01*
X486107Y1099327D01*
X486198Y1099335D01*
X486228Y1099347D01*
X486260Y1099352D01*
X486340Y1099395D01*
X486424Y1099431D01*
X486456Y1099457D01*
X486477Y1099468D01*
X486499Y1099491D01*
X486555Y1099536D01*
X487616Y1100596D01*
X489763Y1101486D01*
X492088Y1101486D01*
X494235Y1100596D01*
X495270Y1099562D01*
X495328Y1099520D01*
X495380Y1099471D01*
X495427Y1099449D01*
X495469Y1099418D01*
X495538Y1099397D01*
X495603Y1099367D01*
X495655Y1099361D01*
X495705Y1099346D01*
X495776Y1099348D01*
X495847Y1099340D01*
X495898Y1099351D01*
X495950Y1099352D01*
X496018Y1099377D01*
X496088Y1099392D01*
X496133Y1099419D01*
X496181Y1099437D01*
X496237Y1099482D01*
X496299Y1099518D01*
X496333Y1099558D01*
X496373Y1099590D01*
X496412Y1099651D01*
X496459Y1099705D01*
X496478Y1099754D01*
X496506Y1099797D01*
X496524Y1099867D01*
X496551Y1099933D01*
X496559Y1100005D01*
X496567Y1100036D01*
X496565Y1100059D01*
X496569Y1100100D01*
X496569Y1137158D01*
X496566Y1137178D01*
X496568Y1137197D01*
X496546Y1137299D01*
X496530Y1137401D01*
X496520Y1137418D01*
X496516Y1137438D01*
X496463Y1137527D01*
X496414Y1137618D01*
X496400Y1137632D01*
X496390Y1137649D01*
X496311Y1137716D01*
X496236Y1137788D01*
X496218Y1137796D01*
X496203Y1137809D01*
X496107Y1137848D01*
X496013Y1137891D01*
X495993Y1137893D01*
X495975Y1137901D01*
X495808Y1137919D01*
X5842Y1137919D01*
X5822Y1137916D01*
X5803Y1137918D01*
X5701Y1137896D01*
X5599Y1137880D01*
X5582Y1137870D01*
X5562Y1137866D01*
X5473Y1137813D01*
X5382Y1137764D01*
X5368Y1137750D01*
X5351Y1137740D01*
X5284Y1137661D01*
X5212Y1137586D01*
X5204Y1137568D01*
X5191Y1137553D01*
X5152Y1137457D01*
X5109Y1137363D01*
X5107Y1137343D01*
X5099Y1137325D01*
X5081Y1137158D01*
X5081Y5842D01*
X5084Y5822D01*
X5082Y5803D01*
X5104Y5701D01*
X5120Y5599D01*
X5130Y5582D01*
X5134Y5562D01*
X5187Y5473D01*
X5236Y5382D01*
X5250Y5368D01*
X5260Y5351D01*
X5339Y5284D01*
X5414Y5212D01*
X5432Y5204D01*
X5447Y5191D01*
X5543Y5152D01*
X5637Y5109D01*
X5657Y5107D01*
X5675Y5099D01*
X5842Y5081D01*
X488950Y5081D01*
X488970Y5084D01*
G37*
%LPC*%
G36*
X118887Y105437D02*
X118887Y105437D01*
X115630Y106787D01*
X114182Y108234D01*
X114108Y108287D01*
X114038Y108347D01*
X114008Y108359D01*
X113982Y108378D01*
X113895Y108405D01*
X113810Y108439D01*
X113769Y108443D01*
X113747Y108450D01*
X113715Y108449D01*
X113644Y108457D01*
X84563Y108457D01*
X82415Y109347D01*
X80665Y111097D01*
X66647Y125115D01*
X64897Y126865D01*
X64007Y129013D01*
X64007Y202238D01*
X64000Y202283D01*
X64000Y202284D01*
X63999Y202288D01*
X63993Y202328D01*
X63985Y202419D01*
X63973Y202449D01*
X63968Y202481D01*
X63950Y202514D01*
X63948Y202524D01*
X63923Y202565D01*
X63889Y202646D01*
X63863Y202678D01*
X63852Y202698D01*
X63832Y202718D01*
X63822Y202735D01*
X63808Y202747D01*
X63784Y202777D01*
X23495Y243066D01*
X22605Y245213D01*
X22605Y288187D01*
X23495Y290334D01*
X47152Y313991D01*
X47208Y314070D01*
X47270Y314145D01*
X47280Y314169D01*
X47295Y314190D01*
X47324Y314283D01*
X47359Y314374D01*
X47360Y314400D01*
X47367Y314425D01*
X47365Y314523D01*
X47369Y314620D01*
X47362Y314645D01*
X47361Y314671D01*
X47328Y314763D01*
X47300Y314856D01*
X47286Y314878D01*
X47277Y314902D01*
X47216Y314978D01*
X47160Y315058D01*
X47139Y315074D01*
X47123Y315094D01*
X47041Y315147D01*
X46963Y315205D01*
X46938Y315213D01*
X46916Y315227D01*
X46822Y315251D01*
X46729Y315281D01*
X46703Y315281D01*
X46677Y315287D01*
X46581Y315280D01*
X46483Y315279D01*
X46452Y315270D01*
X46432Y315268D01*
X46402Y315255D01*
X46322Y315232D01*
X41100Y313069D01*
X35200Y313069D01*
X29749Y315327D01*
X25577Y319499D01*
X23319Y324950D01*
X23319Y330850D01*
X25577Y336301D01*
X29749Y340473D01*
X35200Y342731D01*
X41100Y342731D01*
X46551Y340473D01*
X50723Y336301D01*
X52981Y330850D01*
X52981Y324950D01*
X50818Y319728D01*
X50809Y319692D01*
X50805Y319682D01*
X50802Y319663D01*
X50795Y319633D01*
X50767Y319540D01*
X50768Y319514D01*
X50762Y319489D01*
X50771Y319392D01*
X50773Y319294D01*
X50782Y319270D01*
X50785Y319244D01*
X50824Y319155D01*
X50858Y319063D01*
X50874Y319043D01*
X50885Y319019D01*
X50951Y318947D01*
X51011Y318871D01*
X51033Y318857D01*
X51051Y318838D01*
X51136Y318791D01*
X51218Y318738D01*
X51244Y318732D01*
X51267Y318719D01*
X51363Y318702D01*
X51457Y318678D01*
X51483Y318680D01*
X51509Y318676D01*
X51605Y318690D01*
X51702Y318697D01*
X51726Y318708D01*
X51752Y318711D01*
X51839Y318756D01*
X51928Y318794D01*
X51954Y318814D01*
X51971Y318823D01*
X51994Y318847D01*
X52059Y318898D01*
X63784Y330623D01*
X63837Y330697D01*
X63897Y330767D01*
X63909Y330797D01*
X63928Y330823D01*
X63955Y330910D01*
X63989Y330995D01*
X63993Y331036D01*
X64000Y331058D01*
X63999Y331090D01*
X64007Y331162D01*
X64007Y410737D01*
X64897Y412885D01*
X66647Y414635D01*
X70289Y418277D01*
X70342Y418351D01*
X70402Y418421D01*
X70414Y418451D01*
X70433Y418477D01*
X70460Y418564D01*
X70494Y418649D01*
X70498Y418690D01*
X70505Y418712D01*
X70504Y418744D01*
X70512Y418815D01*
X70512Y419385D01*
X70498Y419475D01*
X70490Y419566D01*
X70478Y419595D01*
X70473Y419627D01*
X70430Y419708D01*
X70394Y419792D01*
X70368Y419824D01*
X70357Y419845D01*
X70334Y419867D01*
X70289Y419923D01*
X66647Y423565D01*
X64897Y425315D01*
X64007Y427463D01*
X64007Y610762D01*
X64897Y612910D01*
X66647Y614660D01*
X70289Y618302D01*
X70342Y618376D01*
X70402Y618446D01*
X70414Y618476D01*
X70433Y618502D01*
X70460Y618589D01*
X70494Y618674D01*
X70498Y618715D01*
X70505Y618737D01*
X70504Y618769D01*
X70512Y618840D01*
X70512Y619410D01*
X70509Y619429D01*
X70511Y619449D01*
X70496Y619519D01*
X70490Y619591D01*
X70478Y619620D01*
X70473Y619652D01*
X70463Y619670D01*
X70459Y619689D01*
X70422Y619751D01*
X70394Y619817D01*
X70368Y619849D01*
X70357Y619870D01*
X70343Y619884D01*
X70333Y619900D01*
X70315Y619915D01*
X70289Y619948D01*
X64897Y625340D01*
X64007Y627488D01*
X64007Y807612D01*
X64897Y809760D01*
X66647Y811510D01*
X70289Y815152D01*
X70342Y815226D01*
X70402Y815296D01*
X70414Y815326D01*
X70433Y815352D01*
X70460Y815439D01*
X70494Y815524D01*
X70498Y815565D01*
X70505Y815587D01*
X70504Y815619D01*
X70512Y815690D01*
X70512Y817738D01*
X71634Y820446D01*
X71655Y820535D01*
X71683Y820622D01*
X71683Y820654D01*
X71690Y820686D01*
X71682Y820776D01*
X71681Y820868D01*
X71669Y820907D01*
X71667Y820931D01*
X71654Y820960D01*
X71634Y821029D01*
X70512Y823737D01*
X70512Y827263D01*
X71862Y830520D01*
X74355Y833013D01*
X77612Y834363D01*
X81138Y834363D01*
X84395Y833013D01*
X85843Y831566D01*
X85917Y831513D01*
X85987Y831453D01*
X86017Y831441D01*
X86043Y831422D01*
X86130Y831395D01*
X86215Y831361D01*
X86256Y831357D01*
X86278Y831350D01*
X86310Y831351D01*
X86381Y831343D01*
X96412Y831343D01*
X98560Y830453D01*
X105411Y823601D01*
X105491Y823545D01*
X105566Y823483D01*
X105590Y823473D01*
X105611Y823458D01*
X105704Y823429D01*
X105795Y823394D01*
X105821Y823393D01*
X105846Y823386D01*
X105944Y823388D01*
X106041Y823384D01*
X106066Y823391D01*
X106092Y823392D01*
X106184Y823425D01*
X106277Y823452D01*
X106299Y823467D01*
X106323Y823476D01*
X106399Y823537D01*
X106479Y823593D01*
X106495Y823614D01*
X106515Y823630D01*
X106568Y823712D01*
X106626Y823790D01*
X106634Y823815D01*
X106648Y823837D01*
X106672Y823931D01*
X106702Y824024D01*
X106702Y824050D01*
X106708Y824075D01*
X106701Y824172D01*
X106700Y824270D01*
X106691Y824301D01*
X106689Y824321D01*
X106676Y824351D01*
X106653Y824431D01*
X105437Y827366D01*
X105437Y830892D01*
X106465Y833373D01*
X106486Y833462D01*
X106514Y833549D01*
X106514Y833581D01*
X106521Y833613D01*
X106513Y833703D01*
X106512Y833795D01*
X106500Y833834D01*
X106498Y833858D01*
X106485Y833887D01*
X106465Y833956D01*
X105437Y836437D01*
X105437Y839963D01*
X106559Y842671D01*
X106580Y842760D01*
X106608Y842847D01*
X106608Y842879D01*
X106615Y842911D01*
X106607Y843001D01*
X106606Y843093D01*
X106594Y843132D01*
X106592Y843156D01*
X106579Y843185D01*
X106559Y843254D01*
X105437Y845962D01*
X105437Y849488D01*
X106787Y852745D01*
X109280Y855238D01*
X112537Y856588D01*
X116063Y856588D01*
X119320Y855238D01*
X121813Y852745D01*
X123163Y849488D01*
X123163Y847440D01*
X123177Y847350D01*
X123185Y847259D01*
X123197Y847230D01*
X123202Y847198D01*
X123245Y847117D01*
X123281Y847033D01*
X123307Y847001D01*
X123318Y846980D01*
X123341Y846958D01*
X123386Y846902D01*
X395478Y574810D01*
X396368Y572662D01*
X396368Y367138D01*
X395478Y364990D01*
X382096Y351608D01*
X379948Y350718D01*
X349906Y350718D01*
X349816Y350704D01*
X349725Y350696D01*
X349696Y350684D01*
X349664Y350679D01*
X349583Y350636D01*
X349499Y350600D01*
X349467Y350574D01*
X349446Y350563D01*
X349424Y350540D01*
X349368Y350495D01*
X347920Y349048D01*
X344663Y347698D01*
X341137Y347698D01*
X337880Y349048D01*
X335387Y351541D01*
X334037Y354798D01*
X334037Y357964D01*
X334023Y358054D01*
X334015Y358145D01*
X334003Y358174D01*
X333998Y358206D01*
X333955Y358287D01*
X333919Y358371D01*
X333893Y358403D01*
X333882Y358424D01*
X333859Y358446D01*
X333814Y358502D01*
X332212Y360105D01*
X330903Y363263D01*
X330865Y363324D01*
X330836Y363389D01*
X330801Y363428D01*
X330774Y363472D01*
X330718Y363518D01*
X330670Y363571D01*
X330624Y363596D01*
X330584Y363629D01*
X330517Y363655D01*
X330454Y363689D01*
X330403Y363698D01*
X330355Y363717D01*
X330283Y363720D01*
X330212Y363733D01*
X330161Y363725D01*
X330109Y363728D01*
X330040Y363708D01*
X329969Y363697D01*
X329923Y363673D01*
X329873Y363659D01*
X329814Y363618D01*
X329750Y363586D01*
X329713Y363548D01*
X329671Y363519D01*
X329628Y363461D01*
X329578Y363410D01*
X329543Y363347D01*
X329524Y363321D01*
X329517Y363299D01*
X329497Y363263D01*
X328188Y360105D01*
X325695Y357612D01*
X322438Y356262D01*
X318912Y356262D01*
X316752Y357157D01*
X316657Y357179D01*
X316564Y357208D01*
X316538Y357207D01*
X316513Y357213D01*
X316416Y357204D01*
X316318Y357202D01*
X316294Y357193D01*
X316268Y357190D01*
X316179Y357151D01*
X316087Y357117D01*
X316067Y357101D01*
X316043Y357090D01*
X315971Y357024D01*
X315895Y356963D01*
X315881Y356941D01*
X315862Y356924D01*
X315815Y356838D01*
X315762Y356756D01*
X315756Y356731D01*
X315743Y356708D01*
X315726Y356612D01*
X315702Y356518D01*
X315704Y356492D01*
X315700Y356466D01*
X315714Y356370D01*
X315721Y356273D01*
X315732Y356249D01*
X315735Y356223D01*
X315780Y356136D01*
X315818Y356046D01*
X315838Y356021D01*
X315847Y356004D01*
X315871Y355980D01*
X315922Y355915D01*
X316103Y355735D01*
X316993Y353587D01*
X316993Y348810D01*
X317007Y348720D01*
X317015Y348629D01*
X317027Y348600D01*
X317032Y348568D01*
X317075Y348487D01*
X317111Y348403D01*
X317137Y348371D01*
X317148Y348350D01*
X317171Y348328D01*
X317216Y348272D01*
X319278Y346210D01*
X320168Y344062D01*
X320168Y339542D01*
X320171Y339522D01*
X320169Y339503D01*
X320191Y339401D01*
X320207Y339299D01*
X320217Y339282D01*
X320221Y339262D01*
X320274Y339173D01*
X320323Y339082D01*
X320337Y339068D01*
X320347Y339051D01*
X320426Y338984D01*
X320501Y338912D01*
X320519Y338904D01*
X320534Y338891D01*
X320630Y338852D01*
X320724Y338809D01*
X320744Y338807D01*
X320762Y338799D01*
X320929Y338781D01*
X324430Y338781D01*
X326945Y336266D01*
X327018Y336213D01*
X327088Y336153D01*
X327118Y336141D01*
X327144Y336122D01*
X327231Y336095D01*
X327316Y336061D01*
X327357Y336057D01*
X327379Y336050D01*
X327412Y336051D01*
X327483Y336043D01*
X331362Y336043D01*
X333510Y335153D01*
X344678Y323985D01*
X345568Y321837D01*
X345568Y318156D01*
X345582Y318066D01*
X345590Y317975D01*
X345602Y317946D01*
X345607Y317914D01*
X345650Y317833D01*
X345686Y317749D01*
X345712Y317717D01*
X345723Y317696D01*
X345746Y317674D01*
X345791Y317618D01*
X347238Y316170D01*
X348588Y312913D01*
X348588Y309387D01*
X347238Y306130D01*
X345791Y304682D01*
X345738Y304608D01*
X345678Y304538D01*
X345666Y304508D01*
X345647Y304482D01*
X345620Y304395D01*
X345586Y304310D01*
X345582Y304269D01*
X345575Y304247D01*
X345576Y304215D01*
X345568Y304144D01*
X345568Y157588D01*
X344678Y155440D01*
X308110Y118872D01*
X305962Y117982D01*
X137181Y117982D01*
X137091Y117968D01*
X137000Y117960D01*
X136971Y117948D01*
X136939Y117943D01*
X136858Y117900D01*
X136774Y117864D01*
X136742Y117838D01*
X136721Y117827D01*
X136699Y117804D01*
X136643Y117759D01*
X135195Y116312D01*
X131938Y114962D01*
X130274Y114962D01*
X130254Y114959D01*
X130235Y114961D01*
X130133Y114939D01*
X130031Y114923D01*
X130014Y114913D01*
X129994Y114909D01*
X129905Y114856D01*
X129814Y114807D01*
X129800Y114793D01*
X129783Y114783D01*
X129716Y114704D01*
X129644Y114629D01*
X129636Y114611D01*
X129623Y114596D01*
X129584Y114500D01*
X129541Y114406D01*
X129539Y114386D01*
X129531Y114368D01*
X129513Y114201D01*
X129513Y112537D01*
X128163Y109280D01*
X125670Y106787D01*
X122413Y105437D01*
X118887Y105437D01*
G37*
%LPD*%
G36*
X104696Y120146D02*
X104696Y120146D01*
X104715Y120144D01*
X104817Y120166D01*
X104919Y120182D01*
X104936Y120192D01*
X104956Y120196D01*
X105045Y120249D01*
X105136Y120298D01*
X105150Y120312D01*
X105167Y120322D01*
X105234Y120401D01*
X105306Y120476D01*
X105314Y120494D01*
X105327Y120509D01*
X105366Y120605D01*
X105409Y120699D01*
X105411Y120719D01*
X105419Y120737D01*
X105437Y120904D01*
X105437Y122413D01*
X106787Y125670D01*
X109280Y128163D01*
X112537Y129513D01*
X116063Y129513D01*
X117016Y129118D01*
X117129Y129091D01*
X117243Y129063D01*
X117249Y129063D01*
X117255Y129062D01*
X117372Y129073D01*
X117488Y129082D01*
X117494Y129084D01*
X117500Y129085D01*
X117608Y129133D01*
X117714Y129178D01*
X117720Y129183D01*
X117725Y129185D01*
X117738Y129198D01*
X117845Y129283D01*
X121619Y133057D01*
X121646Y133094D01*
X121679Y133125D01*
X121717Y133193D01*
X121762Y133256D01*
X121776Y133300D01*
X121798Y133340D01*
X121812Y133417D01*
X121835Y133491D01*
X121833Y133537D01*
X121842Y133583D01*
X121830Y133660D01*
X121828Y133737D01*
X121813Y133780D01*
X121806Y133826D01*
X121771Y133895D01*
X121744Y133968D01*
X121715Y134004D01*
X121694Y134045D01*
X121639Y134100D01*
X121590Y134160D01*
X121552Y134185D01*
X121519Y134217D01*
X121399Y134283D01*
X121383Y134293D01*
X121378Y134295D01*
X121372Y134298D01*
X118805Y135362D01*
X117070Y137096D01*
X116976Y137164D01*
X116882Y137234D01*
X116876Y137236D01*
X116871Y137239D01*
X116760Y137274D01*
X116648Y137310D01*
X116641Y137310D01*
X116635Y137312D01*
X116519Y137309D01*
X116402Y137308D01*
X116395Y137306D01*
X116390Y137305D01*
X116372Y137299D01*
X116241Y137261D01*
X116063Y137187D01*
X112537Y137187D01*
X109280Y138537D01*
X106787Y141030D01*
X105437Y144287D01*
X105437Y147813D01*
X106787Y151070D01*
X109280Y153563D01*
X112537Y154913D01*
X115787Y154913D01*
X115852Y154923D01*
X115917Y154924D01*
X115997Y154947D01*
X116030Y154952D01*
X116047Y154962D01*
X116079Y154971D01*
X116313Y155068D01*
X302065Y155068D01*
X302155Y155082D01*
X302246Y155090D01*
X302275Y155102D01*
X302307Y155107D01*
X302388Y155150D01*
X302472Y155186D01*
X302504Y155212D01*
X302525Y155223D01*
X302547Y155246D01*
X302603Y155291D01*
X320959Y173647D01*
X321012Y173721D01*
X321072Y173791D01*
X321084Y173821D01*
X321103Y173847D01*
X321130Y173934D01*
X321164Y174019D01*
X321168Y174060D01*
X321175Y174082D01*
X321174Y174114D01*
X321182Y174185D01*
X321182Y297794D01*
X321168Y297884D01*
X321160Y297975D01*
X321148Y298004D01*
X321143Y298036D01*
X321100Y298117D01*
X321064Y298201D01*
X321038Y298233D01*
X321027Y298254D01*
X321004Y298276D01*
X320959Y298332D01*
X319512Y299780D01*
X318162Y303037D01*
X318162Y306563D01*
X319512Y309820D01*
X320486Y310795D01*
X320528Y310853D01*
X320577Y310905D01*
X320599Y310952D01*
X320629Y310994D01*
X320651Y311063D01*
X320681Y311128D01*
X320687Y311180D01*
X320702Y311230D01*
X320700Y311301D01*
X320708Y311372D01*
X320697Y311423D01*
X320695Y311475D01*
X320671Y311543D01*
X320656Y311613D01*
X320629Y311658D01*
X320611Y311706D01*
X320566Y311762D01*
X320529Y311824D01*
X320490Y311858D01*
X320457Y311898D01*
X320397Y311937D01*
X320343Y311984D01*
X320294Y312003D01*
X320250Y312031D01*
X320181Y312049D01*
X320114Y312076D01*
X320043Y312084D01*
X320012Y312092D01*
X319989Y312090D01*
X319948Y312094D01*
X317497Y312094D01*
X317407Y312080D01*
X317316Y312072D01*
X317287Y312060D01*
X317255Y312055D01*
X317174Y312012D01*
X317090Y311976D01*
X317058Y311950D01*
X317037Y311939D01*
X317015Y311916D01*
X316959Y311871D01*
X316210Y311122D01*
X314460Y309372D01*
X312312Y308482D01*
X303638Y308482D01*
X301490Y309372D01*
X296672Y314190D01*
X295782Y316338D01*
X295782Y340165D01*
X295768Y340255D01*
X295760Y340346D01*
X295748Y340375D01*
X295743Y340407D01*
X295700Y340488D01*
X295664Y340572D01*
X295638Y340604D01*
X295627Y340625D01*
X295604Y340647D01*
X295559Y340703D01*
X293497Y342765D01*
X292607Y344913D01*
X292607Y353587D01*
X293497Y355735D01*
X298315Y360553D01*
X300463Y361443D01*
X309137Y361443D01*
X311285Y360553D01*
X311465Y360372D01*
X311544Y360316D01*
X311620Y360254D01*
X311644Y360244D01*
X311665Y360229D01*
X311758Y360200D01*
X311849Y360165D01*
X311875Y360164D01*
X311900Y360157D01*
X311998Y360159D01*
X312095Y360155D01*
X312120Y360162D01*
X312146Y360163D01*
X312238Y360196D01*
X312331Y360223D01*
X312353Y360238D01*
X312377Y360247D01*
X312453Y360308D01*
X312533Y360364D01*
X312549Y360385D01*
X312569Y360401D01*
X312622Y360483D01*
X312680Y360561D01*
X312688Y360586D01*
X312702Y360608D01*
X312726Y360702D01*
X312756Y360795D01*
X312756Y360821D01*
X312762Y360847D01*
X312755Y360943D01*
X312754Y361041D01*
X312745Y361072D01*
X312743Y361092D01*
X312730Y361122D01*
X312707Y361202D01*
X311812Y363362D01*
X311812Y366888D01*
X313162Y370145D01*
X313721Y370705D01*
X313763Y370764D01*
X313811Y370814D01*
X313819Y370831D01*
X313834Y370849D01*
X313846Y370879D01*
X313865Y370905D01*
X313887Y370978D01*
X313915Y371037D01*
X313917Y371054D01*
X313926Y371077D01*
X313930Y371118D01*
X313937Y371140D01*
X313936Y371172D01*
X313944Y371243D01*
X313944Y378057D01*
X313930Y378147D01*
X313922Y378238D01*
X313910Y378267D01*
X313905Y378299D01*
X313862Y378380D01*
X313826Y378464D01*
X313800Y378496D01*
X313789Y378517D01*
X313766Y378539D01*
X313721Y378595D01*
X313162Y379155D01*
X311812Y382412D01*
X311812Y385938D01*
X313162Y389195D01*
X315655Y391688D01*
X318912Y393038D01*
X322438Y393038D01*
X325695Y391688D01*
X328188Y389195D01*
X329538Y385938D01*
X329538Y383992D01*
X329541Y383972D01*
X329539Y383953D01*
X329561Y383851D01*
X329577Y383749D01*
X329587Y383732D01*
X329591Y383712D01*
X329644Y383623D01*
X329693Y383532D01*
X329707Y383518D01*
X329717Y383501D01*
X329796Y383434D01*
X329871Y383362D01*
X329889Y383354D01*
X329904Y383341D01*
X330000Y383302D01*
X330094Y383259D01*
X330114Y383257D01*
X330132Y383249D01*
X330299Y383231D01*
X333874Y383231D01*
X333919Y383238D01*
X333965Y383236D01*
X334040Y383258D01*
X334117Y383270D01*
X334157Y383292D01*
X334201Y383305D01*
X334265Y383349D01*
X334334Y383386D01*
X334366Y383419D01*
X334403Y383445D01*
X334450Y383508D01*
X334504Y383564D01*
X334523Y383606D01*
X334550Y383642D01*
X334574Y383716D01*
X334607Y383787D01*
X334612Y383833D01*
X334626Y383876D01*
X334626Y383954D01*
X334634Y384031D01*
X334624Y384076D01*
X334624Y384122D01*
X334586Y384254D01*
X334582Y384272D01*
X334579Y384276D01*
X334577Y384283D01*
X334037Y385587D01*
X334037Y389113D01*
X335387Y392370D01*
X337880Y394863D01*
X341137Y396213D01*
X344663Y396213D01*
X345317Y395942D01*
X345430Y395915D01*
X345544Y395887D01*
X345550Y395887D01*
X345556Y395886D01*
X345673Y395897D01*
X345789Y395906D01*
X345795Y395908D01*
X345801Y395909D01*
X345909Y395956D01*
X346016Y396002D01*
X346021Y396007D01*
X346026Y396009D01*
X346040Y396021D01*
X346147Y396107D01*
X346820Y396781D01*
X358030Y396781D01*
X361006Y393805D01*
X361006Y383595D01*
X359202Y381792D01*
X359161Y381734D01*
X359111Y381682D01*
X359089Y381635D01*
X359059Y381593D01*
X359038Y381524D01*
X359008Y381459D01*
X359002Y381407D01*
X358987Y381357D01*
X358988Y381286D01*
X358981Y381215D01*
X358992Y381164D01*
X358993Y381112D01*
X359018Y381044D01*
X359033Y380974D01*
X359060Y380929D01*
X359077Y380881D01*
X359122Y380825D01*
X359159Y380763D01*
X359199Y380729D01*
X359231Y380689D01*
X359291Y380650D01*
X359346Y380603D01*
X359394Y380584D01*
X359438Y380556D01*
X359507Y380538D01*
X359574Y380511D01*
X359645Y380503D01*
X359677Y380495D01*
X359700Y380497D01*
X359741Y380493D01*
X362390Y380493D01*
X362480Y380507D01*
X362571Y380515D01*
X362600Y380527D01*
X362632Y380532D01*
X362713Y380575D01*
X362797Y380611D01*
X362829Y380637D01*
X362850Y380648D01*
X362872Y380671D01*
X362928Y380716D01*
X365409Y383197D01*
X365462Y383271D01*
X365522Y383341D01*
X365534Y383371D01*
X365553Y383397D01*
X365580Y383484D01*
X365614Y383569D01*
X365618Y383610D01*
X365625Y383632D01*
X365624Y383664D01*
X365632Y383735D01*
X365632Y546540D01*
X365618Y546630D01*
X365610Y546721D01*
X365598Y546750D01*
X365593Y546782D01*
X365550Y546863D01*
X365514Y546947D01*
X365488Y546979D01*
X365477Y547000D01*
X365454Y547022D01*
X365409Y547078D01*
X93053Y819434D01*
X92979Y819487D01*
X92909Y819547D01*
X92879Y819559D01*
X92853Y819578D01*
X92766Y819605D01*
X92681Y819639D01*
X92640Y819643D01*
X92618Y819650D01*
X92586Y819649D01*
X92515Y819657D01*
X88582Y819657D01*
X88537Y819650D01*
X88491Y819652D01*
X88416Y819630D01*
X88339Y819618D01*
X88299Y819596D01*
X88255Y819583D01*
X88191Y819539D01*
X88122Y819502D01*
X88090Y819469D01*
X88053Y819443D01*
X88006Y819381D01*
X87952Y819324D01*
X87933Y819282D01*
X87906Y819246D01*
X87882Y819172D01*
X87849Y819101D01*
X87844Y819055D01*
X87830Y819012D01*
X87830Y818934D01*
X87822Y818857D01*
X87832Y818812D01*
X87832Y818766D01*
X87870Y818634D01*
X87874Y818616D01*
X87877Y818612D01*
X87879Y818605D01*
X88238Y817738D01*
X88238Y814212D01*
X86888Y810955D01*
X84395Y808462D01*
X81138Y807112D01*
X79090Y807112D01*
X79000Y807098D01*
X78909Y807090D01*
X78880Y807078D01*
X78848Y807073D01*
X78767Y807030D01*
X78683Y806994D01*
X78651Y806968D01*
X78630Y806957D01*
X78608Y806934D01*
X78552Y806889D01*
X75916Y804253D01*
X75863Y804179D01*
X75803Y804109D01*
X75791Y804079D01*
X75772Y804053D01*
X75745Y803966D01*
X75711Y803881D01*
X75707Y803840D01*
X75700Y803818D01*
X75701Y803786D01*
X75693Y803715D01*
X75693Y742129D01*
X75704Y742059D01*
X75706Y741987D01*
X75724Y741938D01*
X75732Y741887D01*
X75766Y741823D01*
X75791Y741756D01*
X75823Y741715D01*
X75848Y741669D01*
X75900Y741620D01*
X75944Y741564D01*
X75988Y741536D01*
X76026Y741500D01*
X76091Y741470D01*
X76151Y741431D01*
X76202Y741418D01*
X76249Y741396D01*
X76320Y741388D01*
X76390Y741371D01*
X76442Y741375D01*
X76493Y741369D01*
X76564Y741384D01*
X76635Y741390D01*
X76683Y741410D01*
X76734Y741421D01*
X76795Y741458D01*
X76861Y741486D01*
X76917Y741531D01*
X76945Y741548D01*
X76960Y741565D01*
X76992Y741591D01*
X78749Y743348D01*
X84200Y745606D01*
X90100Y745606D01*
X95551Y743348D01*
X99723Y739176D01*
X101981Y733725D01*
X101981Y727825D01*
X99723Y722374D01*
X95551Y718202D01*
X90100Y715944D01*
X84200Y715944D01*
X78749Y718202D01*
X76992Y719959D01*
X76934Y720001D01*
X76882Y720050D01*
X76835Y720072D01*
X76793Y720102D01*
X76724Y720124D01*
X76659Y720154D01*
X76607Y720159D01*
X76557Y720175D01*
X76486Y720173D01*
X76415Y720181D01*
X76364Y720170D01*
X76312Y720168D01*
X76244Y720144D01*
X76174Y720129D01*
X76129Y720102D01*
X76081Y720084D01*
X76025Y720039D01*
X75963Y720002D01*
X75929Y719963D01*
X75889Y719930D01*
X75850Y719870D01*
X75803Y719816D01*
X75784Y719767D01*
X75756Y719723D01*
X75738Y719654D01*
X75711Y719587D01*
X75703Y719516D01*
X75695Y719485D01*
X75697Y719462D01*
X75693Y719421D01*
X75693Y690279D01*
X75704Y690209D01*
X75706Y690137D01*
X75724Y690088D01*
X75732Y690037D01*
X75766Y689973D01*
X75791Y689906D01*
X75823Y689865D01*
X75848Y689819D01*
X75900Y689770D01*
X75944Y689714D01*
X75988Y689686D01*
X76026Y689650D01*
X76091Y689620D01*
X76151Y689581D01*
X76202Y689568D01*
X76249Y689546D01*
X76320Y689538D01*
X76390Y689521D01*
X76442Y689525D01*
X76493Y689519D01*
X76564Y689534D01*
X76635Y689540D01*
X76683Y689560D01*
X76734Y689571D01*
X76795Y689608D01*
X76861Y689636D01*
X76917Y689681D01*
X76945Y689698D01*
X76960Y689715D01*
X76992Y689741D01*
X78749Y691498D01*
X84200Y693756D01*
X90100Y693756D01*
X95551Y691498D01*
X99723Y687326D01*
X101981Y681875D01*
X101981Y675975D01*
X99723Y670524D01*
X95551Y666352D01*
X90100Y664094D01*
X84200Y664094D01*
X78749Y666352D01*
X76992Y668109D01*
X76934Y668151D01*
X76882Y668200D01*
X76835Y668222D01*
X76793Y668252D01*
X76724Y668274D01*
X76659Y668304D01*
X76607Y668309D01*
X76557Y668325D01*
X76486Y668323D01*
X76415Y668331D01*
X76364Y668320D01*
X76312Y668318D01*
X76244Y668294D01*
X76174Y668279D01*
X76129Y668252D01*
X76081Y668234D01*
X76025Y668189D01*
X75963Y668152D01*
X75929Y668113D01*
X75889Y668080D01*
X75850Y668020D01*
X75803Y667966D01*
X75784Y667917D01*
X75756Y667873D01*
X75738Y667804D01*
X75711Y667737D01*
X75703Y667666D01*
X75695Y667635D01*
X75697Y667612D01*
X75693Y667571D01*
X75693Y637857D01*
X75700Y637812D01*
X75698Y637766D01*
X75720Y637691D01*
X75732Y637614D01*
X75754Y637574D01*
X75767Y637530D01*
X75811Y637466D01*
X75848Y637397D01*
X75881Y637365D01*
X75907Y637328D01*
X75969Y637281D01*
X76026Y637227D01*
X76068Y637208D01*
X76104Y637181D01*
X76178Y637157D01*
X76249Y637124D01*
X76295Y637119D01*
X76338Y637105D01*
X76416Y637105D01*
X76493Y637097D01*
X76538Y637107D01*
X76584Y637107D01*
X76716Y637145D01*
X76734Y637149D01*
X76738Y637152D01*
X76745Y637154D01*
X77612Y637513D01*
X81138Y637513D01*
X84395Y636163D01*
X85843Y634716D01*
X85917Y634663D01*
X85987Y634603D01*
X86017Y634591D01*
X86043Y634572D01*
X86130Y634545D01*
X86215Y634511D01*
X86256Y634507D01*
X86278Y634500D01*
X86310Y634501D01*
X86381Y634493D01*
X105115Y634493D01*
X105230Y634512D01*
X105346Y634529D01*
X105352Y634531D01*
X105358Y634532D01*
X105461Y634587D01*
X105566Y634640D01*
X105570Y634645D01*
X105575Y634648D01*
X105655Y634732D01*
X105738Y634816D01*
X105741Y634822D01*
X105745Y634826D01*
X105753Y634843D01*
X105819Y634963D01*
X106465Y636523D01*
X106486Y636612D01*
X106514Y636699D01*
X106514Y636731D01*
X106521Y636763D01*
X106513Y636853D01*
X106512Y636945D01*
X106500Y636984D01*
X106498Y637008D01*
X106485Y637037D01*
X106465Y637106D01*
X105437Y639587D01*
X105437Y643113D01*
X106559Y645821D01*
X106580Y645910D01*
X106608Y645997D01*
X106608Y646029D01*
X106615Y646061D01*
X106607Y646151D01*
X106606Y646243D01*
X106594Y646282D01*
X106592Y646306D01*
X106579Y646335D01*
X106559Y646404D01*
X105437Y649112D01*
X105437Y652638D01*
X106787Y655895D01*
X109280Y658388D01*
X112537Y659738D01*
X116063Y659738D01*
X119320Y658388D01*
X121813Y655895D01*
X122530Y654164D01*
X122565Y654109D01*
X122591Y654048D01*
X122643Y653983D01*
X122660Y653955D01*
X122675Y653943D01*
X122695Y653917D01*
X167297Y609316D01*
X167371Y609263D01*
X167441Y609203D01*
X167471Y609191D01*
X167497Y609172D01*
X167584Y609145D01*
X167669Y609111D01*
X167710Y609107D01*
X167732Y609100D01*
X167764Y609101D01*
X167835Y609093D01*
X242462Y609093D01*
X244610Y608203D01*
X344678Y508135D01*
X345568Y505987D01*
X345568Y467381D01*
X345582Y467291D01*
X345590Y467200D01*
X345602Y467171D01*
X345607Y467139D01*
X345650Y467058D01*
X345686Y466974D01*
X345712Y466942D01*
X345723Y466921D01*
X345746Y466899D01*
X345791Y466843D01*
X347238Y465395D01*
X348588Y462138D01*
X348588Y461584D01*
X348607Y461469D01*
X348624Y461353D01*
X348626Y461347D01*
X348627Y461341D01*
X348682Y461237D01*
X348735Y461133D01*
X348740Y461129D01*
X348743Y461123D01*
X348827Y461044D01*
X348911Y460961D01*
X348917Y460958D01*
X348921Y460954D01*
X348938Y460946D01*
X349058Y460880D01*
X350841Y460141D01*
X353334Y457648D01*
X354684Y454391D01*
X354684Y450865D01*
X353966Y449133D01*
X353958Y449099D01*
X353956Y449094D01*
X353955Y449086D01*
X353940Y449020D01*
X353911Y448906D01*
X353912Y448900D01*
X353910Y448894D01*
X353921Y448777D01*
X353930Y448661D01*
X353933Y448655D01*
X353933Y448649D01*
X353981Y448542D01*
X354027Y448435D01*
X354031Y448429D01*
X354033Y448424D01*
X354046Y448411D01*
X354131Y448304D01*
X355506Y446930D01*
X355506Y435720D01*
X352530Y432744D01*
X346174Y432744D01*
X346154Y432741D01*
X346135Y432743D01*
X346033Y432721D01*
X345931Y432705D01*
X345914Y432695D01*
X345894Y432691D01*
X345805Y432638D01*
X345714Y432589D01*
X345700Y432575D01*
X345683Y432565D01*
X345616Y432486D01*
X345544Y432411D01*
X345536Y432393D01*
X345523Y432378D01*
X345484Y432282D01*
X345441Y432188D01*
X345439Y432168D01*
X345431Y432150D01*
X345413Y431983D01*
X345413Y430037D01*
X344861Y428705D01*
X344856Y428685D01*
X344847Y428668D01*
X344828Y428566D01*
X344805Y428465D01*
X344807Y428445D01*
X344803Y428426D01*
X344818Y428323D01*
X344828Y428220D01*
X344836Y428202D01*
X344839Y428182D01*
X344886Y428090D01*
X344928Y427996D01*
X344941Y427981D01*
X344950Y427963D01*
X345024Y427891D01*
X345094Y427815D01*
X345112Y427805D01*
X345126Y427791D01*
X345273Y427710D01*
X347920Y426613D01*
X350413Y424120D01*
X351763Y420863D01*
X351763Y417337D01*
X350413Y414080D01*
X347920Y411587D01*
X344663Y410237D01*
X341137Y410237D01*
X337880Y411587D01*
X335387Y414080D01*
X334037Y417337D01*
X334037Y420863D01*
X334589Y422195D01*
X334594Y422215D01*
X334603Y422232D01*
X334622Y422334D01*
X334645Y422435D01*
X334643Y422455D01*
X334647Y422474D01*
X334632Y422577D01*
X334622Y422680D01*
X334614Y422698D01*
X334611Y422718D01*
X334564Y422810D01*
X334522Y422904D01*
X334509Y422919D01*
X334500Y422937D01*
X334426Y423009D01*
X334356Y423085D01*
X334338Y423095D01*
X334324Y423109D01*
X334177Y423190D01*
X331530Y424287D01*
X330738Y425078D01*
X330722Y425090D01*
X330710Y425105D01*
X330642Y425148D01*
X330605Y425180D01*
X330584Y425189D01*
X330539Y425221D01*
X330520Y425227D01*
X330503Y425238D01*
X330402Y425263D01*
X330388Y425268D01*
X330377Y425272D01*
X330372Y425273D01*
X330303Y425294D01*
X330284Y425293D01*
X330264Y425298D01*
X330161Y425290D01*
X330058Y425287D01*
X330039Y425281D01*
X330019Y425279D01*
X329957Y425253D01*
X329947Y425251D01*
X329923Y425238D01*
X329827Y425203D01*
X329811Y425191D01*
X329793Y425183D01*
X329743Y425143D01*
X329730Y425136D01*
X329716Y425121D01*
X329662Y425078D01*
X328870Y424287D01*
X325613Y422937D01*
X322087Y422937D01*
X318830Y424287D01*
X316451Y426665D01*
X316435Y426677D01*
X316422Y426693D01*
X316335Y426749D01*
X316251Y426809D01*
X316232Y426815D01*
X316215Y426826D01*
X316115Y426851D01*
X316016Y426881D01*
X315996Y426881D01*
X315977Y426886D01*
X315874Y426878D01*
X315770Y426875D01*
X315751Y426868D01*
X315731Y426867D01*
X315637Y426826D01*
X315539Y426791D01*
X315523Y426778D01*
X315505Y426770D01*
X315374Y426665D01*
X312995Y424287D01*
X309738Y422937D01*
X306212Y422937D01*
X302955Y424287D01*
X300462Y426780D01*
X299112Y430037D01*
X299112Y433563D01*
X300462Y436820D01*
X302955Y439313D01*
X306212Y440663D01*
X309738Y440663D01*
X312995Y439313D01*
X315374Y436935D01*
X315390Y436923D01*
X315403Y436907D01*
X315490Y436851D01*
X315574Y436791D01*
X315593Y436785D01*
X315610Y436774D01*
X315710Y436749D01*
X315809Y436719D01*
X315829Y436719D01*
X315848Y436714D01*
X315951Y436722D01*
X316055Y436725D01*
X316074Y436732D01*
X316093Y436733D01*
X316188Y436774D01*
X316286Y436809D01*
X316302Y436822D01*
X316320Y436830D01*
X316451Y436935D01*
X316896Y437380D01*
X316949Y437454D01*
X317009Y437524D01*
X317021Y437554D01*
X317040Y437580D01*
X317067Y437667D01*
X317101Y437752D01*
X317105Y437793D01*
X317112Y437815D01*
X317111Y437847D01*
X317119Y437918D01*
X317119Y440828D01*
X317105Y440918D01*
X317097Y441009D01*
X317085Y441038D01*
X317080Y441070D01*
X317037Y441151D01*
X317001Y441235D01*
X316975Y441267D01*
X316964Y441288D01*
X316941Y441310D01*
X316896Y441366D01*
X311103Y447159D01*
X310213Y449307D01*
X310213Y496549D01*
X310199Y496639D01*
X310191Y496730D01*
X310179Y496759D01*
X310174Y496791D01*
X310131Y496872D01*
X310095Y496956D01*
X310069Y496988D01*
X310058Y497009D01*
X310035Y497031D01*
X309990Y497087D01*
X226403Y580674D01*
X226329Y580727D01*
X226259Y580787D01*
X226229Y580799D01*
X226203Y580818D01*
X226116Y580845D01*
X226031Y580879D01*
X225990Y580883D01*
X225968Y580890D01*
X225936Y580889D01*
X225865Y580897D01*
X145142Y580897D01*
X142994Y581787D01*
X102197Y622584D01*
X102123Y622637D01*
X102053Y622697D01*
X102023Y622709D01*
X101997Y622728D01*
X101910Y622755D01*
X101825Y622789D01*
X101784Y622793D01*
X101762Y622800D01*
X101730Y622799D01*
X101659Y622807D01*
X88582Y622807D01*
X88537Y622800D01*
X88491Y622802D01*
X88416Y622780D01*
X88339Y622768D01*
X88299Y622746D01*
X88255Y622733D01*
X88191Y622689D01*
X88122Y622652D01*
X88090Y622619D01*
X88053Y622593D01*
X88006Y622531D01*
X87952Y622474D01*
X87933Y622432D01*
X87906Y622396D01*
X87882Y622322D01*
X87849Y622251D01*
X87844Y622205D01*
X87830Y622162D01*
X87830Y622084D01*
X87822Y622007D01*
X87832Y621962D01*
X87832Y621916D01*
X87870Y621784D01*
X87874Y621766D01*
X87877Y621762D01*
X87879Y621755D01*
X88238Y620888D01*
X88238Y617362D01*
X86888Y614105D01*
X84395Y611612D01*
X81138Y610262D01*
X79090Y610262D01*
X79000Y610248D01*
X78909Y610240D01*
X78880Y610228D01*
X78848Y610223D01*
X78767Y610180D01*
X78683Y610144D01*
X78651Y610118D01*
X78630Y610107D01*
X78608Y610084D01*
X78552Y610039D01*
X75916Y607403D01*
X75863Y607329D01*
X75803Y607259D01*
X75791Y607229D01*
X75772Y607203D01*
X75745Y607116D01*
X75711Y607031D01*
X75707Y606990D01*
X75700Y606968D01*
X75701Y606936D01*
X75693Y606865D01*
X75693Y545279D01*
X75704Y545209D01*
X75706Y545137D01*
X75724Y545088D01*
X75732Y545037D01*
X75766Y544973D01*
X75791Y544906D01*
X75823Y544865D01*
X75848Y544819D01*
X75900Y544770D01*
X75944Y544714D01*
X75988Y544686D01*
X76026Y544650D01*
X76091Y544620D01*
X76151Y544581D01*
X76202Y544568D01*
X76249Y544546D01*
X76320Y544538D01*
X76390Y544521D01*
X76442Y544525D01*
X76493Y544519D01*
X76564Y544534D01*
X76635Y544540D01*
X76683Y544560D01*
X76734Y544571D01*
X76795Y544608D01*
X76861Y544636D01*
X76917Y544681D01*
X76945Y544698D01*
X76960Y544715D01*
X76992Y544741D01*
X78749Y546498D01*
X84200Y548756D01*
X90100Y548756D01*
X95551Y546498D01*
X99723Y542326D01*
X101981Y536875D01*
X101981Y530975D01*
X99723Y525524D01*
X95551Y521352D01*
X90100Y519094D01*
X84200Y519094D01*
X78749Y521352D01*
X76992Y523109D01*
X76934Y523151D01*
X76882Y523200D01*
X76835Y523222D01*
X76793Y523252D01*
X76724Y523274D01*
X76659Y523304D01*
X76607Y523309D01*
X76557Y523325D01*
X76486Y523323D01*
X76415Y523331D01*
X76364Y523320D01*
X76312Y523318D01*
X76244Y523294D01*
X76174Y523279D01*
X76129Y523252D01*
X76081Y523234D01*
X76025Y523189D01*
X75963Y523152D01*
X75929Y523113D01*
X75889Y523080D01*
X75850Y523020D01*
X75803Y522966D01*
X75784Y522917D01*
X75756Y522873D01*
X75738Y522804D01*
X75711Y522737D01*
X75703Y522666D01*
X75695Y522635D01*
X75697Y522612D01*
X75693Y522571D01*
X75693Y490254D01*
X75704Y490184D01*
X75706Y490112D01*
X75724Y490063D01*
X75732Y490012D01*
X75766Y489948D01*
X75791Y489881D01*
X75823Y489840D01*
X75848Y489794D01*
X75900Y489745D01*
X75944Y489689D01*
X75988Y489661D01*
X76026Y489625D01*
X76091Y489595D01*
X76151Y489556D01*
X76202Y489543D01*
X76249Y489521D01*
X76320Y489513D01*
X76390Y489496D01*
X76442Y489500D01*
X76493Y489494D01*
X76564Y489509D01*
X76635Y489515D01*
X76683Y489535D01*
X76734Y489546D01*
X76795Y489583D01*
X76861Y489611D01*
X76917Y489656D01*
X76945Y489673D01*
X76960Y489690D01*
X76992Y489716D01*
X78749Y491473D01*
X84200Y493731D01*
X90100Y493731D01*
X95551Y491473D01*
X99723Y487301D01*
X101981Y481850D01*
X101981Y475950D01*
X99723Y470499D01*
X95551Y466327D01*
X90100Y464069D01*
X84200Y464069D01*
X78749Y466327D01*
X76992Y468084D01*
X76934Y468126D01*
X76882Y468175D01*
X76835Y468197D01*
X76793Y468227D01*
X76724Y468249D01*
X76659Y468279D01*
X76607Y468284D01*
X76557Y468300D01*
X76486Y468298D01*
X76415Y468306D01*
X76364Y468295D01*
X76312Y468293D01*
X76244Y468269D01*
X76174Y468254D01*
X76129Y468227D01*
X76081Y468209D01*
X76025Y468164D01*
X75963Y468127D01*
X75929Y468088D01*
X75889Y468055D01*
X75850Y467995D01*
X75803Y467941D01*
X75784Y467892D01*
X75756Y467848D01*
X75738Y467779D01*
X75711Y467712D01*
X75703Y467641D01*
X75695Y467610D01*
X75697Y467587D01*
X75693Y467546D01*
X75693Y437832D01*
X75700Y437787D01*
X75698Y437741D01*
X75720Y437666D01*
X75732Y437589D01*
X75754Y437549D01*
X75767Y437505D01*
X75811Y437441D01*
X75848Y437372D01*
X75881Y437340D01*
X75907Y437303D01*
X75969Y437256D01*
X76026Y437202D01*
X76068Y437183D01*
X76104Y437156D01*
X76178Y437132D01*
X76249Y437099D01*
X76295Y437094D01*
X76338Y437080D01*
X76416Y437080D01*
X76493Y437072D01*
X76538Y437082D01*
X76584Y437082D01*
X76716Y437120D01*
X76734Y437124D01*
X76738Y437127D01*
X76745Y437129D01*
X77612Y437488D01*
X81138Y437488D01*
X84395Y436138D01*
X86888Y433645D01*
X87668Y431763D01*
X87730Y431663D01*
X87790Y431563D01*
X87795Y431559D01*
X87798Y431554D01*
X87888Y431479D01*
X87977Y431403D01*
X87983Y431401D01*
X87987Y431397D01*
X88096Y431355D01*
X88205Y431311D01*
X88212Y431310D01*
X88217Y431309D01*
X88235Y431308D01*
X88372Y431293D01*
X104676Y431293D01*
X104696Y431296D01*
X104715Y431294D01*
X104817Y431316D01*
X104919Y431332D01*
X104936Y431342D01*
X104956Y431346D01*
X105045Y431399D01*
X105136Y431448D01*
X105150Y431462D01*
X105167Y431472D01*
X105234Y431551D01*
X105306Y431626D01*
X105314Y431644D01*
X105327Y431659D01*
X105366Y431755D01*
X105409Y431849D01*
X105411Y431869D01*
X105419Y431887D01*
X105437Y432054D01*
X105437Y434017D01*
X106465Y436498D01*
X106486Y436587D01*
X106514Y436674D01*
X106514Y436706D01*
X106521Y436738D01*
X106513Y436828D01*
X106512Y436920D01*
X106500Y436959D01*
X106498Y436983D01*
X106485Y437012D01*
X106465Y437081D01*
X105437Y439562D01*
X105437Y443088D01*
X106559Y445796D01*
X106580Y445885D01*
X106608Y445972D01*
X106608Y446004D01*
X106615Y446036D01*
X106607Y446126D01*
X106606Y446218D01*
X106594Y446257D01*
X106592Y446281D01*
X106579Y446310D01*
X106559Y446379D01*
X105437Y449087D01*
X105437Y452613D01*
X106787Y455870D01*
X109280Y458363D01*
X112537Y459713D01*
X116063Y459713D01*
X119320Y458363D01*
X121813Y455870D01*
X122593Y453988D01*
X122655Y453888D01*
X122715Y453788D01*
X122720Y453784D01*
X122723Y453779D01*
X122813Y453704D01*
X122902Y453628D01*
X122908Y453626D01*
X122912Y453622D01*
X123021Y453580D01*
X123130Y453536D01*
X123137Y453535D01*
X123142Y453534D01*
X123160Y453533D01*
X123297Y453518D01*
X250169Y453518D01*
X250259Y453532D01*
X250350Y453540D01*
X250379Y453552D01*
X250411Y453557D01*
X250492Y453600D01*
X250576Y453636D01*
X250608Y453662D01*
X250629Y453673D01*
X250651Y453696D01*
X250707Y453741D01*
X252155Y455188D01*
X255412Y456538D01*
X258938Y456538D01*
X262195Y455188D01*
X264688Y452695D01*
X266038Y449438D01*
X266038Y445912D01*
X264688Y442655D01*
X262195Y440162D01*
X258938Y438812D01*
X255412Y438812D01*
X252155Y440162D01*
X251180Y441136D01*
X251122Y441178D01*
X251070Y441227D01*
X251023Y441249D01*
X250981Y441279D01*
X250912Y441301D01*
X250847Y441331D01*
X250795Y441337D01*
X250745Y441352D01*
X250674Y441350D01*
X250603Y441358D01*
X250552Y441347D01*
X250500Y441345D01*
X250432Y441321D01*
X250362Y441306D01*
X250317Y441279D01*
X250269Y441261D01*
X250213Y441216D01*
X250151Y441179D01*
X250117Y441140D01*
X250077Y441107D01*
X250038Y441047D01*
X249991Y440993D01*
X249972Y440944D01*
X249944Y440900D01*
X249926Y440831D01*
X249899Y440764D01*
X249891Y440693D01*
X249883Y440662D01*
X249885Y440639D01*
X249881Y440598D01*
X249881Y421695D01*
X246905Y418719D01*
X240493Y418719D01*
X240378Y418700D01*
X240262Y418683D01*
X240257Y418681D01*
X240250Y418680D01*
X240148Y418625D01*
X240043Y418572D01*
X240039Y418567D01*
X240033Y418564D01*
X239953Y418480D01*
X239871Y418396D01*
X239867Y418390D01*
X239864Y418386D01*
X239856Y418369D01*
X239790Y418249D01*
X239441Y417407D01*
X236948Y414914D01*
X233691Y413565D01*
X230165Y413565D01*
X226907Y414914D01*
X225460Y416362D01*
X225386Y416415D01*
X225316Y416474D01*
X225286Y416487D01*
X225260Y416505D01*
X225173Y416532D01*
X225088Y416566D01*
X225047Y416571D01*
X225025Y416578D01*
X224993Y416577D01*
X224921Y416585D01*
X224415Y416585D01*
X222268Y417474D01*
X220358Y419384D01*
X220284Y419437D01*
X220215Y419497D01*
X220185Y419509D01*
X220158Y419528D01*
X220071Y419555D01*
X219987Y419589D01*
X219946Y419593D01*
X219923Y419600D01*
X219891Y419599D01*
X219820Y419607D01*
X88999Y419607D01*
X88979Y419604D01*
X88960Y419606D01*
X88858Y419584D01*
X88756Y419568D01*
X88739Y419558D01*
X88719Y419554D01*
X88630Y419501D01*
X88539Y419452D01*
X88525Y419438D01*
X88508Y419428D01*
X88441Y419349D01*
X88369Y419274D01*
X88361Y419256D01*
X88348Y419241D01*
X88309Y419145D01*
X88266Y419051D01*
X88264Y419031D01*
X88256Y419013D01*
X88238Y418846D01*
X88238Y417337D01*
X86888Y414080D01*
X84395Y411587D01*
X81138Y410237D01*
X79090Y410237D01*
X79000Y410223D01*
X78909Y410215D01*
X78880Y410203D01*
X78848Y410198D01*
X78767Y410155D01*
X78683Y410119D01*
X78651Y410093D01*
X78630Y410082D01*
X78608Y410059D01*
X78552Y410014D01*
X75916Y407378D01*
X75863Y407304D01*
X75803Y407234D01*
X75791Y407204D01*
X75772Y407178D01*
X75745Y407091D01*
X75711Y407006D01*
X75707Y406965D01*
X75700Y406943D01*
X75701Y406911D01*
X75693Y406840D01*
X75693Y345254D01*
X75704Y345184D01*
X75706Y345112D01*
X75724Y345063D01*
X75732Y345012D01*
X75766Y344948D01*
X75791Y344881D01*
X75823Y344840D01*
X75848Y344794D01*
X75900Y344745D01*
X75944Y344689D01*
X75988Y344661D01*
X76026Y344625D01*
X76091Y344595D01*
X76151Y344556D01*
X76202Y344543D01*
X76249Y344521D01*
X76320Y344513D01*
X76390Y344496D01*
X76442Y344500D01*
X76493Y344494D01*
X76564Y344509D01*
X76635Y344515D01*
X76683Y344535D01*
X76734Y344546D01*
X76795Y344583D01*
X76861Y344611D01*
X76917Y344656D01*
X76945Y344673D01*
X76960Y344690D01*
X76992Y344716D01*
X78749Y346473D01*
X84200Y348731D01*
X90100Y348731D01*
X95551Y346473D01*
X99723Y342301D01*
X101981Y336850D01*
X101981Y330950D01*
X99723Y325499D01*
X95551Y321327D01*
X90100Y319069D01*
X84200Y319069D01*
X78749Y321327D01*
X75420Y324657D01*
X75403Y324668D01*
X75391Y324684D01*
X75304Y324740D01*
X75220Y324800D01*
X75201Y324806D01*
X75184Y324817D01*
X75084Y324842D01*
X74985Y324872D01*
X74965Y324872D01*
X74946Y324877D01*
X74843Y324869D01*
X74739Y324866D01*
X74720Y324859D01*
X74700Y324858D01*
X74606Y324817D01*
X74508Y324782D01*
X74492Y324769D01*
X74474Y324761D01*
X74343Y324657D01*
X60393Y310706D01*
X60359Y310660D01*
X60319Y310620D01*
X60288Y310561D01*
X60249Y310506D01*
X60232Y310452D01*
X60206Y310401D01*
X60196Y310335D01*
X60177Y310271D01*
X60178Y310214D01*
X60170Y310158D01*
X60181Y310092D01*
X60183Y310025D01*
X60203Y309972D01*
X60213Y309916D01*
X60245Y309857D01*
X60268Y309794D01*
X60303Y309750D01*
X60330Y309700D01*
X60379Y309655D01*
X60421Y309602D01*
X60469Y309572D01*
X60511Y309533D01*
X60572Y309506D01*
X60628Y309469D01*
X60683Y309455D01*
X60735Y309432D01*
X60802Y309426D01*
X60867Y309409D01*
X60923Y309414D01*
X60980Y309408D01*
X61081Y309426D01*
X61112Y309428D01*
X61124Y309434D01*
X61145Y309437D01*
X69694Y311948D01*
X82706Y311948D01*
X95190Y308282D01*
X106136Y301247D01*
X114656Y291414D01*
X120061Y279579D01*
X121913Y266700D01*
X120061Y253821D01*
X114656Y241986D01*
X106136Y232153D01*
X95190Y225118D01*
X82706Y221452D01*
X69694Y221452D01*
X61145Y223963D01*
X61089Y223970D01*
X61034Y223986D01*
X60968Y223985D01*
X60901Y223993D01*
X60845Y223981D01*
X60788Y223980D01*
X60726Y223957D01*
X60660Y223944D01*
X60611Y223915D01*
X60557Y223896D01*
X60505Y223854D01*
X60448Y223820D01*
X60410Y223777D01*
X60365Y223742D01*
X60329Y223686D01*
X60285Y223635D01*
X60263Y223583D01*
X60232Y223535D01*
X60216Y223470D01*
X60190Y223409D01*
X60186Y223352D01*
X60172Y223296D01*
X60178Y223230D01*
X60173Y223163D01*
X60187Y223108D01*
X60192Y223051D01*
X60218Y222990D01*
X60234Y222925D01*
X60266Y222877D01*
X60288Y222825D01*
X60352Y222745D01*
X60369Y222719D01*
X60379Y222711D01*
X60393Y222694D01*
X74803Y208283D01*
X75693Y206136D01*
X75693Y185454D01*
X75704Y185384D01*
X75706Y185312D01*
X75724Y185263D01*
X75732Y185212D01*
X75766Y185148D01*
X75791Y185081D01*
X75823Y185040D01*
X75848Y184994D01*
X75900Y184945D01*
X75944Y184889D01*
X75988Y184861D01*
X76026Y184825D01*
X76091Y184795D01*
X76151Y184756D01*
X76202Y184743D01*
X76249Y184721D01*
X76320Y184713D01*
X76390Y184696D01*
X76442Y184700D01*
X76493Y184694D01*
X76564Y184709D01*
X76635Y184715D01*
X76683Y184735D01*
X76734Y184746D01*
X76795Y184783D01*
X76861Y184811D01*
X76917Y184856D01*
X76945Y184873D01*
X76960Y184890D01*
X76992Y184916D01*
X78749Y186673D01*
X84200Y188931D01*
X90100Y188931D01*
X95551Y186673D01*
X99723Y182501D01*
X101981Y177050D01*
X101981Y171150D01*
X99723Y165699D01*
X95551Y161527D01*
X90100Y159269D01*
X84200Y159269D01*
X78749Y161527D01*
X76992Y163284D01*
X76934Y163326D01*
X76882Y163375D01*
X76835Y163397D01*
X76793Y163427D01*
X76724Y163449D01*
X76659Y163479D01*
X76607Y163484D01*
X76557Y163500D01*
X76486Y163498D01*
X76415Y163506D01*
X76364Y163495D01*
X76312Y163493D01*
X76244Y163469D01*
X76174Y163454D01*
X76129Y163427D01*
X76081Y163409D01*
X76025Y163364D01*
X75963Y163327D01*
X75929Y163288D01*
X75889Y163255D01*
X75850Y163195D01*
X75803Y163141D01*
X75784Y163092D01*
X75756Y163048D01*
X75738Y162979D01*
X75711Y162912D01*
X75703Y162841D01*
X75695Y162810D01*
X75697Y162787D01*
X75693Y162746D01*
X75693Y132910D01*
X75707Y132820D01*
X75715Y132729D01*
X75727Y132700D01*
X75732Y132668D01*
X75775Y132587D01*
X75811Y132503D01*
X75837Y132471D01*
X75848Y132450D01*
X75871Y132428D01*
X75916Y132372D01*
X87922Y120366D01*
X87996Y120313D01*
X88066Y120253D01*
X88096Y120241D01*
X88122Y120222D01*
X88209Y120195D01*
X88294Y120161D01*
X88335Y120157D01*
X88357Y120150D01*
X88389Y120151D01*
X88460Y120143D01*
X104676Y120143D01*
X104696Y120146D01*
G37*
G36*
X1492778Y951361D02*
X1492778Y951361D01*
X1492797Y951359D01*
X1492899Y951381D01*
X1493001Y951398D01*
X1493018Y951407D01*
X1493038Y951411D01*
X1493127Y951464D01*
X1493218Y951513D01*
X1493232Y951527D01*
X1493249Y951537D01*
X1493316Y951616D01*
X1493388Y951691D01*
X1493396Y951709D01*
X1493409Y951724D01*
X1493448Y951820D01*
X1493491Y951914D01*
X1493493Y951934D01*
X1493501Y951952D01*
X1493519Y952119D01*
X1493519Y1137158D01*
X1493516Y1137178D01*
X1493518Y1137197D01*
X1493496Y1137299D01*
X1493480Y1137401D01*
X1493470Y1137418D01*
X1493466Y1137438D01*
X1493413Y1137527D01*
X1493364Y1137618D01*
X1493350Y1137632D01*
X1493340Y1137649D01*
X1493261Y1137716D01*
X1493186Y1137788D01*
X1493168Y1137796D01*
X1493153Y1137809D01*
X1493057Y1137848D01*
X1492963Y1137891D01*
X1492943Y1137893D01*
X1492925Y1137901D01*
X1492758Y1137919D01*
X958342Y1137919D01*
X958322Y1137916D01*
X958303Y1137918D01*
X958201Y1137896D01*
X958099Y1137880D01*
X958082Y1137870D01*
X958062Y1137866D01*
X957973Y1137813D01*
X957882Y1137764D01*
X957868Y1137750D01*
X957851Y1137740D01*
X957784Y1137661D01*
X957712Y1137586D01*
X957704Y1137568D01*
X957691Y1137553D01*
X957652Y1137457D01*
X957609Y1137363D01*
X957607Y1137343D01*
X957599Y1137325D01*
X957581Y1137158D01*
X957581Y952119D01*
X957584Y952099D01*
X957582Y952080D01*
X957604Y951978D01*
X957620Y951876D01*
X957630Y951859D01*
X957634Y951839D01*
X957687Y951750D01*
X957736Y951659D01*
X957750Y951645D01*
X957760Y951628D01*
X957839Y951561D01*
X957914Y951490D01*
X957932Y951481D01*
X957947Y951468D01*
X958043Y951429D01*
X958137Y951386D01*
X958157Y951384D01*
X958175Y951376D01*
X958342Y951358D01*
X1492758Y951358D01*
X1492778Y951361D01*
G37*
%LPC*%
G36*
X239537Y1003962D02*
X239537Y1003962D01*
X236280Y1005312D01*
X233787Y1007805D01*
X232437Y1011062D01*
X232437Y1014588D01*
X233787Y1017845D01*
X234578Y1018637D01*
X234590Y1018653D01*
X234605Y1018665D01*
X234661Y1018753D01*
X234721Y1018836D01*
X234727Y1018855D01*
X234738Y1018872D01*
X234763Y1018973D01*
X234794Y1019072D01*
X234793Y1019091D01*
X234798Y1019111D01*
X234790Y1019214D01*
X234787Y1019317D01*
X234781Y1019336D01*
X234779Y1019356D01*
X234739Y1019451D01*
X234703Y1019548D01*
X234690Y1019564D01*
X234683Y1019582D01*
X234578Y1019713D01*
X233787Y1020505D01*
X232437Y1023762D01*
X232437Y1027288D01*
X233787Y1030545D01*
X234578Y1031337D01*
X234590Y1031353D01*
X234605Y1031365D01*
X234661Y1031453D01*
X234721Y1031536D01*
X234727Y1031555D01*
X234738Y1031572D01*
X234763Y1031673D01*
X234794Y1031772D01*
X234793Y1031791D01*
X234798Y1031811D01*
X234790Y1031914D01*
X234787Y1032017D01*
X234781Y1032036D01*
X234779Y1032056D01*
X234739Y1032151D01*
X234703Y1032248D01*
X234690Y1032264D01*
X234683Y1032282D01*
X234578Y1032413D01*
X233787Y1033205D01*
X232437Y1036462D01*
X232437Y1039988D01*
X233787Y1043245D01*
X234578Y1044037D01*
X234590Y1044053D01*
X234605Y1044065D01*
X234661Y1044153D01*
X234721Y1044236D01*
X234727Y1044255D01*
X234738Y1044272D01*
X234763Y1044373D01*
X234794Y1044472D01*
X234793Y1044491D01*
X234798Y1044511D01*
X234790Y1044614D01*
X234787Y1044717D01*
X234781Y1044736D01*
X234779Y1044756D01*
X234739Y1044851D01*
X234703Y1044948D01*
X234690Y1044964D01*
X234683Y1044982D01*
X234578Y1045113D01*
X233787Y1045905D01*
X232437Y1049162D01*
X232437Y1052688D01*
X233787Y1055945D01*
X234578Y1056737D01*
X234590Y1056753D01*
X234605Y1056765D01*
X234661Y1056853D01*
X234721Y1056936D01*
X234727Y1056955D01*
X234738Y1056972D01*
X234763Y1057073D01*
X234794Y1057172D01*
X234793Y1057191D01*
X234798Y1057211D01*
X234790Y1057314D01*
X234787Y1057417D01*
X234781Y1057436D01*
X234779Y1057456D01*
X234739Y1057551D01*
X234703Y1057648D01*
X234690Y1057664D01*
X234683Y1057682D01*
X234578Y1057813D01*
X233787Y1058605D01*
X232437Y1061862D01*
X232437Y1065388D01*
X233787Y1068645D01*
X234578Y1069437D01*
X234590Y1069453D01*
X234605Y1069465D01*
X234661Y1069553D01*
X234721Y1069636D01*
X234727Y1069655D01*
X234738Y1069672D01*
X234763Y1069773D01*
X234794Y1069872D01*
X234793Y1069891D01*
X234798Y1069911D01*
X234790Y1070014D01*
X234787Y1070117D01*
X234781Y1070136D01*
X234779Y1070156D01*
X234739Y1070251D01*
X234703Y1070348D01*
X234690Y1070364D01*
X234683Y1070382D01*
X234578Y1070513D01*
X233787Y1071305D01*
X232437Y1074562D01*
X232437Y1078088D01*
X233787Y1081345D01*
X234578Y1082137D01*
X234590Y1082153D01*
X234605Y1082165D01*
X234661Y1082253D01*
X234721Y1082336D01*
X234727Y1082355D01*
X234738Y1082372D01*
X234763Y1082473D01*
X234794Y1082572D01*
X234793Y1082591D01*
X234798Y1082611D01*
X234790Y1082714D01*
X234787Y1082817D01*
X234781Y1082836D01*
X234779Y1082856D01*
X234739Y1082951D01*
X234703Y1083048D01*
X234690Y1083064D01*
X234683Y1083082D01*
X234578Y1083213D01*
X233787Y1084005D01*
X232437Y1087262D01*
X232437Y1090788D01*
X233787Y1094045D01*
X236280Y1096538D01*
X239438Y1097847D01*
X239499Y1097885D01*
X239564Y1097914D01*
X239603Y1097949D01*
X239647Y1097976D01*
X239693Y1098032D01*
X239746Y1098080D01*
X239771Y1098126D01*
X239804Y1098166D01*
X239830Y1098233D01*
X239864Y1098296D01*
X239873Y1098347D01*
X239892Y1098395D01*
X239895Y1098467D01*
X239908Y1098538D01*
X239900Y1098589D01*
X239903Y1098641D01*
X239883Y1098710D01*
X239872Y1098781D01*
X239848Y1098827D01*
X239834Y1098877D01*
X239793Y1098936D01*
X239761Y1099000D01*
X239723Y1099037D01*
X239694Y1099079D01*
X239636Y1099122D01*
X239585Y1099172D01*
X239522Y1099207D01*
X239496Y1099226D01*
X239474Y1099233D01*
X239438Y1099253D01*
X236280Y1100562D01*
X233787Y1103055D01*
X232437Y1106312D01*
X232437Y1109838D01*
X233787Y1113095D01*
X236280Y1115588D01*
X239537Y1116938D01*
X243063Y1116938D01*
X246320Y1115588D01*
X248813Y1113095D01*
X250163Y1109838D01*
X250163Y1106312D01*
X248813Y1103055D01*
X246320Y1100562D01*
X243162Y1099253D01*
X243101Y1099215D01*
X243036Y1099186D01*
X242997Y1099151D01*
X242953Y1099124D01*
X242907Y1099068D01*
X242854Y1099020D01*
X242829Y1098974D01*
X242796Y1098934D01*
X242770Y1098867D01*
X242736Y1098804D01*
X242727Y1098753D01*
X242708Y1098705D01*
X242705Y1098633D01*
X242692Y1098562D01*
X242700Y1098511D01*
X242697Y1098459D01*
X242717Y1098390D01*
X242728Y1098319D01*
X242752Y1098273D01*
X242766Y1098223D01*
X242807Y1098164D01*
X242839Y1098100D01*
X242877Y1098063D01*
X242906Y1098021D01*
X242964Y1097978D01*
X243015Y1097928D01*
X243078Y1097893D01*
X243104Y1097874D01*
X243126Y1097867D01*
X243162Y1097847D01*
X246320Y1096538D01*
X247112Y1095747D01*
X247128Y1095735D01*
X247140Y1095720D01*
X247228Y1095664D01*
X247311Y1095604D01*
X247330Y1095598D01*
X247347Y1095587D01*
X247448Y1095562D01*
X247547Y1095531D01*
X247566Y1095532D01*
X247586Y1095527D01*
X247689Y1095535D01*
X247792Y1095538D01*
X247811Y1095544D01*
X247831Y1095546D01*
X247926Y1095586D01*
X248023Y1095622D01*
X248039Y1095634D01*
X248057Y1095642D01*
X248188Y1095747D01*
X248980Y1096538D01*
X252237Y1097888D01*
X255763Y1097888D01*
X259020Y1096538D01*
X259812Y1095747D01*
X259828Y1095735D01*
X259840Y1095720D01*
X259928Y1095664D01*
X260011Y1095604D01*
X260030Y1095598D01*
X260047Y1095587D01*
X260148Y1095562D01*
X260247Y1095531D01*
X260266Y1095532D01*
X260286Y1095527D01*
X260389Y1095535D01*
X260492Y1095538D01*
X260511Y1095544D01*
X260531Y1095546D01*
X260626Y1095586D01*
X260723Y1095622D01*
X260739Y1095635D01*
X260757Y1095642D01*
X260888Y1095747D01*
X261680Y1096538D01*
X264937Y1097888D01*
X268463Y1097888D01*
X271720Y1096538D01*
X272512Y1095747D01*
X272528Y1095735D01*
X272540Y1095720D01*
X272628Y1095664D01*
X272711Y1095604D01*
X272730Y1095598D01*
X272747Y1095587D01*
X272848Y1095562D01*
X272947Y1095531D01*
X272966Y1095532D01*
X272986Y1095527D01*
X273089Y1095535D01*
X273192Y1095538D01*
X273211Y1095544D01*
X273231Y1095546D01*
X273326Y1095586D01*
X273423Y1095622D01*
X273439Y1095635D01*
X273457Y1095642D01*
X273588Y1095747D01*
X274380Y1096538D01*
X277637Y1097888D01*
X281163Y1097888D01*
X284420Y1096538D01*
X285212Y1095747D01*
X285228Y1095735D01*
X285240Y1095720D01*
X285328Y1095664D01*
X285411Y1095604D01*
X285430Y1095598D01*
X285447Y1095587D01*
X285548Y1095562D01*
X285647Y1095531D01*
X285666Y1095532D01*
X285686Y1095527D01*
X285789Y1095535D01*
X285892Y1095538D01*
X285911Y1095544D01*
X285931Y1095546D01*
X286026Y1095586D01*
X286123Y1095622D01*
X286139Y1095635D01*
X286157Y1095642D01*
X286288Y1095747D01*
X287080Y1096538D01*
X290337Y1097888D01*
X293863Y1097888D01*
X297120Y1096538D01*
X297912Y1095747D01*
X297928Y1095735D01*
X297940Y1095720D01*
X298028Y1095664D01*
X298111Y1095604D01*
X298130Y1095598D01*
X298147Y1095587D01*
X298248Y1095562D01*
X298347Y1095531D01*
X298366Y1095532D01*
X298386Y1095527D01*
X298489Y1095535D01*
X298592Y1095538D01*
X298611Y1095544D01*
X298631Y1095546D01*
X298726Y1095586D01*
X298823Y1095622D01*
X298839Y1095635D01*
X298857Y1095642D01*
X298988Y1095747D01*
X299780Y1096538D01*
X303037Y1097888D01*
X306563Y1097888D01*
X309820Y1096538D01*
X310612Y1095747D01*
X310628Y1095735D01*
X310640Y1095720D01*
X310728Y1095664D01*
X310811Y1095604D01*
X310830Y1095598D01*
X310847Y1095587D01*
X310948Y1095562D01*
X311047Y1095531D01*
X311066Y1095532D01*
X311086Y1095527D01*
X311189Y1095535D01*
X311292Y1095538D01*
X311311Y1095544D01*
X311331Y1095546D01*
X311426Y1095586D01*
X311523Y1095622D01*
X311539Y1095635D01*
X311557Y1095642D01*
X311688Y1095747D01*
X312480Y1096538D01*
X315737Y1097888D01*
X319263Y1097888D01*
X322520Y1096538D01*
X325013Y1094045D01*
X326363Y1090788D01*
X326363Y1087262D01*
X325013Y1084005D01*
X324222Y1083213D01*
X324210Y1083197D01*
X324195Y1083185D01*
X324139Y1083097D01*
X324079Y1083014D01*
X324073Y1082995D01*
X324062Y1082978D01*
X324037Y1082877D01*
X324006Y1082778D01*
X324007Y1082759D01*
X324002Y1082739D01*
X324010Y1082636D01*
X324013Y1082533D01*
X324019Y1082514D01*
X324021Y1082494D01*
X324061Y1082399D01*
X324097Y1082302D01*
X324110Y1082286D01*
X324117Y1082268D01*
X324222Y1082137D01*
X325013Y1081345D01*
X326363Y1078088D01*
X326363Y1074562D01*
X325013Y1071305D01*
X324222Y1070513D01*
X324210Y1070497D01*
X324195Y1070485D01*
X324139Y1070397D01*
X324079Y1070314D01*
X324073Y1070295D01*
X324062Y1070278D01*
X324037Y1070177D01*
X324006Y1070078D01*
X324007Y1070059D01*
X324002Y1070039D01*
X324010Y1069936D01*
X324013Y1069833D01*
X324019Y1069814D01*
X324021Y1069794D01*
X324061Y1069699D01*
X324097Y1069602D01*
X324110Y1069586D01*
X324117Y1069568D01*
X324222Y1069437D01*
X325013Y1068645D01*
X326363Y1065388D01*
X326363Y1061862D01*
X325013Y1058605D01*
X324222Y1057813D01*
X324210Y1057797D01*
X324195Y1057785D01*
X324139Y1057697D01*
X324079Y1057614D01*
X324073Y1057595D01*
X324062Y1057578D01*
X324037Y1057477D01*
X324006Y1057378D01*
X324007Y1057359D01*
X324002Y1057339D01*
X324010Y1057236D01*
X324013Y1057133D01*
X324019Y1057114D01*
X324021Y1057094D01*
X324061Y1056999D01*
X324097Y1056902D01*
X324110Y1056886D01*
X324117Y1056868D01*
X324222Y1056737D01*
X325013Y1055945D01*
X326363Y1052688D01*
X326363Y1049162D01*
X325013Y1045905D01*
X324222Y1045113D01*
X324210Y1045097D01*
X324195Y1045085D01*
X324139Y1044997D01*
X324079Y1044914D01*
X324073Y1044895D01*
X324062Y1044878D01*
X324037Y1044777D01*
X324006Y1044678D01*
X324007Y1044659D01*
X324002Y1044639D01*
X324010Y1044536D01*
X324013Y1044433D01*
X324019Y1044414D01*
X324021Y1044394D01*
X324061Y1044299D01*
X324097Y1044202D01*
X324110Y1044186D01*
X324117Y1044168D01*
X324222Y1044037D01*
X325013Y1043245D01*
X326363Y1039988D01*
X326363Y1036462D01*
X325013Y1033205D01*
X324222Y1032413D01*
X324210Y1032397D01*
X324195Y1032385D01*
X324139Y1032297D01*
X324079Y1032214D01*
X324073Y1032195D01*
X324062Y1032178D01*
X324037Y1032077D01*
X324006Y1031978D01*
X324007Y1031959D01*
X324002Y1031939D01*
X324010Y1031836D01*
X324013Y1031733D01*
X324019Y1031714D01*
X324021Y1031694D01*
X324061Y1031599D01*
X324097Y1031502D01*
X324110Y1031486D01*
X324117Y1031468D01*
X324222Y1031337D01*
X325013Y1030545D01*
X326363Y1027288D01*
X326363Y1023762D01*
X325013Y1020505D01*
X324222Y1019713D01*
X324210Y1019697D01*
X324195Y1019685D01*
X324139Y1019597D01*
X324079Y1019514D01*
X324073Y1019495D01*
X324062Y1019478D01*
X324037Y1019377D01*
X324006Y1019278D01*
X324007Y1019259D01*
X324002Y1019239D01*
X324010Y1019136D01*
X324013Y1019033D01*
X324019Y1019014D01*
X324021Y1018994D01*
X324061Y1018899D01*
X324097Y1018802D01*
X324110Y1018786D01*
X324117Y1018768D01*
X324222Y1018637D01*
X325013Y1017845D01*
X326363Y1014588D01*
X326363Y1011062D01*
X325013Y1007805D01*
X322520Y1005312D01*
X319263Y1003962D01*
X315737Y1003962D01*
X312480Y1005312D01*
X311688Y1006103D01*
X311672Y1006115D01*
X311660Y1006130D01*
X311572Y1006186D01*
X311489Y1006246D01*
X311470Y1006252D01*
X311453Y1006263D01*
X311352Y1006288D01*
X311253Y1006319D01*
X311234Y1006318D01*
X311214Y1006323D01*
X311111Y1006315D01*
X311008Y1006312D01*
X310989Y1006306D01*
X310969Y1006304D01*
X310874Y1006264D01*
X310777Y1006228D01*
X310761Y1006216D01*
X310743Y1006208D01*
X310612Y1006103D01*
X309820Y1005312D01*
X306563Y1003962D01*
X303037Y1003962D01*
X299780Y1005312D01*
X298988Y1006103D01*
X298972Y1006115D01*
X298960Y1006130D01*
X298872Y1006186D01*
X298789Y1006246D01*
X298770Y1006252D01*
X298753Y1006263D01*
X298652Y1006288D01*
X298553Y1006319D01*
X298534Y1006318D01*
X298514Y1006323D01*
X298411Y1006315D01*
X298308Y1006312D01*
X298289Y1006306D01*
X298269Y1006304D01*
X298174Y1006264D01*
X298077Y1006228D01*
X298061Y1006215D01*
X298043Y1006208D01*
X297912Y1006103D01*
X297120Y1005312D01*
X293863Y1003962D01*
X290337Y1003962D01*
X287080Y1005312D01*
X286288Y1006103D01*
X286272Y1006115D01*
X286260Y1006130D01*
X286172Y1006186D01*
X286089Y1006246D01*
X286070Y1006252D01*
X286053Y1006263D01*
X285952Y1006288D01*
X285853Y1006319D01*
X285834Y1006318D01*
X285814Y1006323D01*
X285711Y1006315D01*
X285608Y1006312D01*
X285589Y1006306D01*
X285569Y1006304D01*
X285474Y1006264D01*
X285377Y1006228D01*
X285361Y1006215D01*
X285343Y1006208D01*
X285212Y1006103D01*
X284420Y1005312D01*
X281163Y1003962D01*
X277637Y1003962D01*
X274380Y1005312D01*
X273588Y1006103D01*
X273572Y1006115D01*
X273560Y1006130D01*
X273472Y1006186D01*
X273389Y1006246D01*
X273370Y1006252D01*
X273353Y1006263D01*
X273252Y1006288D01*
X273153Y1006319D01*
X273134Y1006318D01*
X273114Y1006323D01*
X273011Y1006315D01*
X272908Y1006312D01*
X272889Y1006306D01*
X272869Y1006304D01*
X272774Y1006264D01*
X272677Y1006228D01*
X272661Y1006215D01*
X272643Y1006208D01*
X272512Y1006103D01*
X271720Y1005312D01*
X268463Y1003962D01*
X264937Y1003962D01*
X261680Y1005312D01*
X260888Y1006103D01*
X260872Y1006115D01*
X260860Y1006130D01*
X260772Y1006186D01*
X260689Y1006246D01*
X260670Y1006252D01*
X260653Y1006263D01*
X260552Y1006288D01*
X260453Y1006319D01*
X260434Y1006318D01*
X260414Y1006323D01*
X260311Y1006315D01*
X260208Y1006312D01*
X260189Y1006306D01*
X260169Y1006304D01*
X260074Y1006264D01*
X259977Y1006228D01*
X259961Y1006215D01*
X259943Y1006208D01*
X259812Y1006103D01*
X259020Y1005312D01*
X255763Y1003962D01*
X252237Y1003962D01*
X248980Y1005312D01*
X248188Y1006103D01*
X248172Y1006115D01*
X248160Y1006130D01*
X248072Y1006186D01*
X247989Y1006246D01*
X247970Y1006252D01*
X247953Y1006263D01*
X247852Y1006288D01*
X247753Y1006319D01*
X247734Y1006318D01*
X247714Y1006323D01*
X247611Y1006315D01*
X247508Y1006312D01*
X247489Y1006306D01*
X247469Y1006304D01*
X247374Y1006264D01*
X247277Y1006228D01*
X247261Y1006215D01*
X247243Y1006208D01*
X247112Y1006103D01*
X246320Y1005312D01*
X243063Y1003962D01*
X239537Y1003962D01*
G37*
%LPD*%
%LPC*%
G36*
X1009494Y1034252D02*
X1009494Y1034252D01*
X997010Y1037918D01*
X986064Y1044953D01*
X977544Y1054786D01*
X972139Y1066621D01*
X970287Y1079500D01*
X972139Y1092379D01*
X977544Y1104214D01*
X986064Y1114048D01*
X997010Y1121082D01*
X1009494Y1124748D01*
X1022506Y1124748D01*
X1034990Y1121082D01*
X1045936Y1114047D01*
X1054456Y1104214D01*
X1059861Y1092379D01*
X1061713Y1079500D01*
X1059861Y1066621D01*
X1054456Y1054786D01*
X1045936Y1044953D01*
X1034990Y1037918D01*
X1022506Y1034252D01*
X1009494Y1034252D01*
G37*
%LPD*%
%LPC*%
G36*
X399894Y1021552D02*
X399894Y1021552D01*
X387410Y1025218D01*
X376464Y1032253D01*
X367944Y1042086D01*
X362539Y1053921D01*
X360687Y1066800D01*
X362539Y1079679D01*
X367944Y1091514D01*
X376464Y1101347D01*
X387410Y1108382D01*
X399894Y1112048D01*
X412906Y1112048D01*
X425390Y1108382D01*
X436336Y1101347D01*
X444856Y1091514D01*
X450261Y1079679D01*
X452113Y1066800D01*
X450261Y1053921D01*
X444856Y1042086D01*
X436336Y1032253D01*
X425390Y1025218D01*
X412906Y1021552D01*
X399894Y1021552D01*
G37*
%LPD*%
%LPC*%
G36*
X69694Y894552D02*
X69694Y894552D01*
X57210Y898218D01*
X46264Y905253D01*
X37744Y915086D01*
X32339Y926921D01*
X30487Y939800D01*
X32339Y952679D01*
X37744Y964514D01*
X46264Y974347D01*
X57210Y981382D01*
X69694Y985048D01*
X82706Y985048D01*
X95190Y981382D01*
X106136Y974347D01*
X114656Y964514D01*
X120061Y952679D01*
X121913Y939800D01*
X120061Y926921D01*
X114656Y915086D01*
X106136Y905253D01*
X95190Y898218D01*
X82706Y894552D01*
X69694Y894552D01*
G37*
%LPD*%
%LPC*%
G36*
X399894Y30952D02*
X399894Y30952D01*
X387410Y34618D01*
X376464Y41653D01*
X367944Y51486D01*
X362539Y63321D01*
X360687Y76200D01*
X362539Y89079D01*
X367944Y100914D01*
X376464Y110747D01*
X387410Y117782D01*
X399894Y121448D01*
X412906Y121448D01*
X425390Y117782D01*
X436336Y110747D01*
X444856Y100914D01*
X450261Y89079D01*
X452113Y76200D01*
X450261Y63321D01*
X444856Y51486D01*
X436336Y41653D01*
X425390Y34618D01*
X412906Y30952D01*
X399894Y30952D01*
G37*
%LPD*%
%LPC*%
G36*
X1428594Y1034252D02*
X1428594Y1034252D01*
X1416110Y1037918D01*
X1405164Y1044953D01*
X1396644Y1054786D01*
X1391239Y1066621D01*
X1389387Y1079500D01*
X1391239Y1092379D01*
X1396644Y1104214D01*
X1405164Y1114047D01*
X1416110Y1121082D01*
X1428594Y1124748D01*
X1441606Y1124748D01*
X1454090Y1121082D01*
X1465036Y1114047D01*
X1473556Y1104214D01*
X1478961Y1092379D01*
X1480813Y1079500D01*
X1478961Y1066621D01*
X1473556Y1054786D01*
X1465036Y1044952D01*
X1454090Y1037918D01*
X1441606Y1034252D01*
X1428594Y1034252D01*
G37*
%LPD*%
%LPC*%
G36*
X1075163Y959357D02*
X1075163Y959357D01*
X1073015Y960247D01*
X1071372Y961890D01*
X1070482Y964038D01*
X1070482Y994158D01*
X1070479Y994178D01*
X1070481Y994197D01*
X1070459Y994299D01*
X1070443Y994401D01*
X1070433Y994418D01*
X1070429Y994438D01*
X1070376Y994527D01*
X1070327Y994618D01*
X1070313Y994632D01*
X1070303Y994649D01*
X1070224Y994716D01*
X1070149Y994788D01*
X1070131Y994796D01*
X1070116Y994809D01*
X1070020Y994848D01*
X1069926Y994891D01*
X1069906Y994893D01*
X1069888Y994901D01*
X1069721Y994919D01*
X1054020Y994919D01*
X1051550Y997389D01*
X1051476Y997442D01*
X1051407Y997502D01*
X1051377Y997514D01*
X1051351Y997533D01*
X1051264Y997560D01*
X1051179Y997594D01*
X1051138Y997598D01*
X1051116Y997605D01*
X1051083Y997604D01*
X1051012Y997612D01*
X1049162Y997612D01*
X1045905Y998962D01*
X1043412Y1001455D01*
X1042062Y1004712D01*
X1042062Y1008238D01*
X1043412Y1011495D01*
X1045905Y1013988D01*
X1048632Y1015118D01*
X1048649Y1015129D01*
X1048668Y1015134D01*
X1048753Y1015193D01*
X1048841Y1015248D01*
X1048854Y1015263D01*
X1048870Y1015275D01*
X1048932Y1015357D01*
X1048998Y1015437D01*
X1049005Y1015456D01*
X1049017Y1015472D01*
X1049049Y1015570D01*
X1049086Y1015667D01*
X1049087Y1015687D01*
X1049093Y1015706D01*
X1049092Y1015809D01*
X1049097Y1015913D01*
X1049091Y1015932D01*
X1049091Y1015952D01*
X1049044Y1016113D01*
X1048257Y1018013D01*
X1048257Y1036212D01*
X1049147Y1038360D01*
X1050790Y1040003D01*
X1052938Y1040893D01*
X1069721Y1040893D01*
X1069741Y1040896D01*
X1069760Y1040894D01*
X1069862Y1040916D01*
X1069964Y1040932D01*
X1069981Y1040942D01*
X1070001Y1040946D01*
X1070090Y1040999D01*
X1070181Y1041048D01*
X1070195Y1041062D01*
X1070212Y1041072D01*
X1070279Y1041151D01*
X1070351Y1041226D01*
X1070359Y1041244D01*
X1070372Y1041259D01*
X1070411Y1041355D01*
X1070454Y1041449D01*
X1070456Y1041469D01*
X1070464Y1041487D01*
X1070482Y1041654D01*
X1070482Y1067962D01*
X1071372Y1070110D01*
X1073015Y1071753D01*
X1075163Y1072643D01*
X1099712Y1072643D01*
X1101860Y1071753D01*
X1103503Y1070110D01*
X1104393Y1067962D01*
X1104393Y999807D01*
X1104400Y999762D01*
X1104398Y999716D01*
X1104420Y999641D01*
X1104432Y999564D01*
X1104454Y999524D01*
X1104467Y999480D01*
X1104511Y999416D01*
X1104548Y999347D01*
X1104581Y999315D01*
X1104607Y999278D01*
X1104669Y999231D01*
X1104726Y999177D01*
X1104768Y999158D01*
X1104804Y999131D01*
X1104878Y999107D01*
X1104949Y999074D01*
X1104995Y999069D01*
X1105038Y999055D01*
X1105116Y999055D01*
X1105193Y999047D01*
X1105238Y999057D01*
X1105284Y999057D01*
X1105416Y999095D01*
X1105434Y999099D01*
X1105438Y999102D01*
X1105445Y999104D01*
X1106312Y999463D01*
X1109838Y999463D01*
X1113095Y998113D01*
X1113887Y997322D01*
X1113903Y997310D01*
X1113915Y997295D01*
X1114003Y997239D01*
X1114086Y997179D01*
X1114105Y997173D01*
X1114122Y997162D01*
X1114223Y997137D01*
X1114322Y997106D01*
X1114341Y997107D01*
X1114361Y997102D01*
X1114464Y997110D01*
X1114567Y997113D01*
X1114586Y997119D01*
X1114606Y997121D01*
X1114701Y997161D01*
X1114798Y997197D01*
X1114814Y997209D01*
X1114832Y997217D01*
X1114963Y997322D01*
X1115755Y998113D01*
X1119012Y999463D01*
X1120676Y999463D01*
X1120696Y999466D01*
X1120715Y999464D01*
X1120817Y999486D01*
X1120919Y999502D01*
X1120936Y999512D01*
X1120956Y999516D01*
X1121045Y999569D01*
X1121136Y999618D01*
X1121150Y999632D01*
X1121167Y999642D01*
X1121234Y999721D01*
X1121306Y999796D01*
X1121314Y999814D01*
X1121327Y999829D01*
X1121366Y999925D01*
X1121409Y1000019D01*
X1121411Y1000039D01*
X1121419Y1000057D01*
X1121437Y1000224D01*
X1121437Y1001888D01*
X1122787Y1005145D01*
X1125280Y1007638D01*
X1128537Y1008988D01*
X1132063Y1008988D01*
X1135320Y1007638D01*
X1137813Y1005145D01*
X1139163Y1001888D01*
X1139163Y998362D01*
X1137813Y995105D01*
X1135320Y992612D01*
X1132063Y991262D01*
X1130399Y991262D01*
X1130379Y991259D01*
X1130360Y991261D01*
X1130258Y991239D01*
X1130156Y991223D01*
X1130139Y991213D01*
X1130119Y991209D01*
X1130030Y991156D01*
X1129939Y991107D01*
X1129925Y991093D01*
X1129908Y991083D01*
X1129841Y991004D01*
X1129769Y990929D01*
X1129761Y990911D01*
X1129748Y990896D01*
X1129709Y990800D01*
X1129666Y990706D01*
X1129664Y990686D01*
X1129656Y990668D01*
X1129638Y990501D01*
X1129638Y988837D01*
X1128288Y985580D01*
X1125795Y983087D01*
X1123801Y982260D01*
X1123701Y982199D01*
X1123601Y982139D01*
X1123597Y982134D01*
X1123592Y982131D01*
X1123517Y982041D01*
X1123441Y981952D01*
X1123439Y981946D01*
X1123435Y981941D01*
X1123393Y981833D01*
X1123349Y981724D01*
X1123348Y981716D01*
X1123347Y981712D01*
X1123346Y981693D01*
X1123331Y981557D01*
X1123331Y963895D01*
X1120355Y960919D01*
X1102847Y960919D01*
X1102757Y960905D01*
X1102666Y960897D01*
X1102637Y960885D01*
X1102605Y960880D01*
X1102524Y960837D01*
X1102440Y960801D01*
X1102408Y960775D01*
X1102387Y960764D01*
X1102365Y960741D01*
X1102309Y960696D01*
X1101860Y960247D01*
X1099712Y959357D01*
X1075163Y959357D01*
G37*
%LPD*%
%LPC*%
G36*
X1189463Y959357D02*
X1189463Y959357D01*
X1187315Y960247D01*
X1185672Y961890D01*
X1184782Y964038D01*
X1184782Y994158D01*
X1184779Y994178D01*
X1184781Y994197D01*
X1184759Y994299D01*
X1184743Y994401D01*
X1184733Y994418D01*
X1184729Y994438D01*
X1184676Y994527D01*
X1184627Y994618D01*
X1184613Y994632D01*
X1184603Y994649D01*
X1184524Y994716D01*
X1184449Y994788D01*
X1184431Y994796D01*
X1184416Y994809D01*
X1184320Y994848D01*
X1184226Y994891D01*
X1184206Y994893D01*
X1184188Y994901D01*
X1184021Y994919D01*
X1168320Y994919D01*
X1165850Y997389D01*
X1165776Y997442D01*
X1165707Y997502D01*
X1165677Y997514D01*
X1165651Y997533D01*
X1165564Y997560D01*
X1165479Y997594D01*
X1165438Y997598D01*
X1165416Y997605D01*
X1165383Y997604D01*
X1165312Y997612D01*
X1163462Y997612D01*
X1160205Y998962D01*
X1157712Y1001455D01*
X1156362Y1004712D01*
X1156362Y1008238D01*
X1157712Y1011495D01*
X1160205Y1013988D01*
X1162932Y1015118D01*
X1162949Y1015129D01*
X1162968Y1015134D01*
X1163053Y1015193D01*
X1163141Y1015248D01*
X1163154Y1015263D01*
X1163170Y1015275D01*
X1163232Y1015357D01*
X1163298Y1015437D01*
X1163305Y1015456D01*
X1163317Y1015472D01*
X1163349Y1015570D01*
X1163386Y1015667D01*
X1163387Y1015687D01*
X1163393Y1015706D01*
X1163392Y1015809D01*
X1163397Y1015913D01*
X1163391Y1015932D01*
X1163391Y1015952D01*
X1163344Y1016113D01*
X1162557Y1018013D01*
X1162557Y1036212D01*
X1163447Y1038360D01*
X1165090Y1040003D01*
X1167238Y1040893D01*
X1184021Y1040893D01*
X1184041Y1040896D01*
X1184060Y1040894D01*
X1184162Y1040916D01*
X1184264Y1040932D01*
X1184281Y1040942D01*
X1184301Y1040946D01*
X1184390Y1040999D01*
X1184481Y1041048D01*
X1184495Y1041062D01*
X1184512Y1041072D01*
X1184579Y1041151D01*
X1184651Y1041226D01*
X1184659Y1041244D01*
X1184672Y1041259D01*
X1184711Y1041355D01*
X1184754Y1041449D01*
X1184756Y1041469D01*
X1184764Y1041487D01*
X1184782Y1041654D01*
X1184782Y1067962D01*
X1185672Y1070110D01*
X1187315Y1071753D01*
X1189463Y1072643D01*
X1214012Y1072643D01*
X1216160Y1071753D01*
X1217803Y1070110D01*
X1218693Y1067962D01*
X1218693Y1041499D01*
X1218696Y1041479D01*
X1218694Y1041460D01*
X1218716Y1041358D01*
X1218732Y1041256D01*
X1218742Y1041239D01*
X1218746Y1041219D01*
X1218799Y1041130D01*
X1218848Y1041039D01*
X1218862Y1041025D01*
X1218872Y1041008D01*
X1218951Y1040941D01*
X1219026Y1040869D01*
X1219044Y1040861D01*
X1219059Y1040848D01*
X1219155Y1040809D01*
X1219249Y1040766D01*
X1219269Y1040764D01*
X1219287Y1040756D01*
X1219454Y1040738D01*
X1220963Y1040738D01*
X1224220Y1039388D01*
X1226713Y1036895D01*
X1228063Y1033638D01*
X1228063Y1031411D01*
X1228082Y1031296D01*
X1228099Y1031180D01*
X1228101Y1031174D01*
X1228102Y1031168D01*
X1228157Y1031065D01*
X1228210Y1030961D01*
X1228215Y1030956D01*
X1228218Y1030951D01*
X1228302Y1030871D01*
X1228386Y1030788D01*
X1228392Y1030785D01*
X1228396Y1030781D01*
X1228413Y1030773D01*
X1228533Y1030707D01*
X1230570Y1029863D01*
X1233063Y1027370D01*
X1234413Y1024113D01*
X1234413Y1021886D01*
X1234432Y1021771D01*
X1234449Y1021655D01*
X1234451Y1021649D01*
X1234452Y1021643D01*
X1234507Y1021540D01*
X1234560Y1021436D01*
X1234565Y1021431D01*
X1234568Y1021426D01*
X1234652Y1021346D01*
X1234736Y1021263D01*
X1234742Y1021260D01*
X1234746Y1021256D01*
X1234763Y1021248D01*
X1234883Y1021182D01*
X1236920Y1020338D01*
X1239413Y1017845D01*
X1240763Y1014588D01*
X1240763Y1011062D01*
X1239413Y1007805D01*
X1236920Y1005312D01*
X1233663Y1003962D01*
X1230137Y1003962D01*
X1226880Y1005312D01*
X1224387Y1007805D01*
X1223037Y1011062D01*
X1223037Y1013289D01*
X1223018Y1013404D01*
X1223001Y1013520D01*
X1222999Y1013526D01*
X1222998Y1013532D01*
X1222943Y1013635D01*
X1222890Y1013739D01*
X1222885Y1013744D01*
X1222882Y1013749D01*
X1222798Y1013829D01*
X1222714Y1013912D01*
X1222708Y1013915D01*
X1222704Y1013919D01*
X1222687Y1013927D01*
X1222567Y1013993D01*
X1220530Y1014837D01*
X1219992Y1015374D01*
X1219934Y1015416D01*
X1219882Y1015465D01*
X1219835Y1015487D01*
X1219793Y1015517D01*
X1219724Y1015539D01*
X1219659Y1015569D01*
X1219607Y1015575D01*
X1219557Y1015590D01*
X1219486Y1015588D01*
X1219415Y1015596D01*
X1219364Y1015585D01*
X1219312Y1015583D01*
X1219244Y1015559D01*
X1219174Y1015544D01*
X1219129Y1015517D01*
X1219081Y1015499D01*
X1219025Y1015454D01*
X1218963Y1015417D01*
X1218929Y1015378D01*
X1218889Y1015345D01*
X1218850Y1015285D01*
X1218803Y1015231D01*
X1218784Y1015182D01*
X1218756Y1015138D01*
X1218738Y1015069D01*
X1218711Y1015002D01*
X1218703Y1014931D01*
X1218695Y1014900D01*
X1218697Y1014877D01*
X1218693Y1014836D01*
X1218693Y987842D01*
X1218696Y987822D01*
X1218694Y987803D01*
X1218716Y987701D01*
X1218732Y987599D01*
X1218742Y987582D01*
X1218746Y987562D01*
X1218799Y987473D01*
X1218848Y987382D01*
X1218862Y987368D01*
X1218872Y987351D01*
X1218951Y987284D01*
X1219026Y987212D01*
X1219044Y987204D01*
X1219059Y987191D01*
X1219155Y987152D01*
X1219249Y987109D01*
X1219269Y987107D01*
X1219287Y987099D01*
X1219454Y987081D01*
X1234655Y987081D01*
X1237631Y984105D01*
X1237631Y963895D01*
X1234655Y960919D01*
X1217147Y960919D01*
X1217057Y960905D01*
X1216966Y960897D01*
X1216937Y960885D01*
X1216905Y960880D01*
X1216824Y960837D01*
X1216740Y960801D01*
X1216708Y960775D01*
X1216687Y960764D01*
X1216665Y960741D01*
X1216609Y960696D01*
X1216160Y960247D01*
X1214012Y959357D01*
X1189463Y959357D01*
G37*
%LPD*%
%LPC*%
G36*
X1303763Y959357D02*
X1303763Y959357D01*
X1301615Y960247D01*
X1299972Y961890D01*
X1299082Y964038D01*
X1299082Y994158D01*
X1299079Y994178D01*
X1299081Y994197D01*
X1299059Y994299D01*
X1299043Y994401D01*
X1299033Y994418D01*
X1299029Y994438D01*
X1298976Y994527D01*
X1298927Y994618D01*
X1298913Y994632D01*
X1298903Y994649D01*
X1298824Y994716D01*
X1298749Y994788D01*
X1298731Y994796D01*
X1298716Y994809D01*
X1298620Y994848D01*
X1298526Y994891D01*
X1298506Y994893D01*
X1298488Y994901D01*
X1298321Y994919D01*
X1282620Y994919D01*
X1280150Y997389D01*
X1280077Y997442D01*
X1280007Y997502D01*
X1279977Y997514D01*
X1279951Y997533D01*
X1279864Y997560D01*
X1279779Y997594D01*
X1279738Y997598D01*
X1279716Y997605D01*
X1279683Y997604D01*
X1279612Y997612D01*
X1277762Y997612D01*
X1274505Y998962D01*
X1272012Y1001455D01*
X1270662Y1004712D01*
X1270662Y1008238D01*
X1272012Y1011495D01*
X1274505Y1013988D01*
X1277232Y1015118D01*
X1277249Y1015129D01*
X1277268Y1015134D01*
X1277353Y1015193D01*
X1277441Y1015248D01*
X1277454Y1015263D01*
X1277470Y1015275D01*
X1277532Y1015357D01*
X1277598Y1015437D01*
X1277605Y1015456D01*
X1277617Y1015472D01*
X1277649Y1015570D01*
X1277686Y1015667D01*
X1277687Y1015687D01*
X1277693Y1015706D01*
X1277692Y1015809D01*
X1277697Y1015913D01*
X1277691Y1015932D01*
X1277691Y1015952D01*
X1277644Y1016113D01*
X1276857Y1018013D01*
X1276857Y1036212D01*
X1277747Y1038360D01*
X1279390Y1040003D01*
X1281538Y1040893D01*
X1298321Y1040893D01*
X1298341Y1040896D01*
X1298360Y1040894D01*
X1298462Y1040916D01*
X1298564Y1040932D01*
X1298581Y1040942D01*
X1298601Y1040946D01*
X1298690Y1040999D01*
X1298781Y1041048D01*
X1298795Y1041062D01*
X1298812Y1041072D01*
X1298879Y1041151D01*
X1298951Y1041226D01*
X1298959Y1041244D01*
X1298972Y1041259D01*
X1299011Y1041355D01*
X1299054Y1041449D01*
X1299056Y1041469D01*
X1299064Y1041487D01*
X1299082Y1041654D01*
X1299082Y1067962D01*
X1299972Y1070110D01*
X1301615Y1071753D01*
X1303763Y1072643D01*
X1328312Y1072643D01*
X1330460Y1071753D01*
X1332103Y1070110D01*
X1332993Y1067962D01*
X1332993Y987842D01*
X1332996Y987822D01*
X1332994Y987803D01*
X1333016Y987701D01*
X1333032Y987599D01*
X1333042Y987582D01*
X1333046Y987562D01*
X1333099Y987473D01*
X1333148Y987382D01*
X1333162Y987368D01*
X1333172Y987351D01*
X1333251Y987284D01*
X1333326Y987212D01*
X1333344Y987204D01*
X1333359Y987191D01*
X1333455Y987152D01*
X1333549Y987109D01*
X1333569Y987107D01*
X1333587Y987099D01*
X1333754Y987081D01*
X1348955Y987081D01*
X1351931Y984105D01*
X1351931Y963895D01*
X1348955Y960919D01*
X1331447Y960919D01*
X1331357Y960905D01*
X1331266Y960897D01*
X1331237Y960885D01*
X1331205Y960880D01*
X1331124Y960837D01*
X1331040Y960801D01*
X1331008Y960775D01*
X1330987Y960764D01*
X1330965Y960741D01*
X1330909Y960696D01*
X1330460Y960247D01*
X1328312Y959357D01*
X1303763Y959357D01*
G37*
%LPD*%
%LPC*%
G36*
X98125Y991019D02*
X98125Y991019D01*
X92582Y993315D01*
X88340Y997557D01*
X86044Y1003100D01*
X86044Y1009100D01*
X88340Y1014643D01*
X92582Y1018885D01*
X98125Y1021181D01*
X120148Y1021181D01*
X120218Y1021192D01*
X120290Y1021194D01*
X120339Y1021212D01*
X120390Y1021220D01*
X120454Y1021254D01*
X120521Y1021279D01*
X120562Y1021311D01*
X120608Y1021336D01*
X120657Y1021388D01*
X120713Y1021432D01*
X120741Y1021476D01*
X120777Y1021514D01*
X120807Y1021579D01*
X120846Y1021639D01*
X120859Y1021690D01*
X120881Y1021737D01*
X120889Y1021808D01*
X120906Y1021878D01*
X120902Y1021930D01*
X120908Y1021981D01*
X120893Y1022052D01*
X120887Y1022123D01*
X120867Y1022171D01*
X120856Y1022222D01*
X120819Y1022283D01*
X120791Y1022349D01*
X120746Y1022405D01*
X120729Y1022433D01*
X120712Y1022448D01*
X120686Y1022480D01*
X119487Y1023680D01*
X118137Y1026937D01*
X118137Y1030463D01*
X119487Y1033720D01*
X121865Y1036099D01*
X121877Y1036115D01*
X121893Y1036128D01*
X121949Y1036215D01*
X122009Y1036299D01*
X122015Y1036318D01*
X122026Y1036335D01*
X122051Y1036435D01*
X122081Y1036534D01*
X122081Y1036554D01*
X122086Y1036573D01*
X122078Y1036676D01*
X122075Y1036780D01*
X122068Y1036799D01*
X122067Y1036819D01*
X122026Y1036913D01*
X121991Y1037011D01*
X121978Y1037027D01*
X121970Y1037045D01*
X121865Y1037176D01*
X119487Y1039555D01*
X118137Y1042812D01*
X118137Y1046338D01*
X119487Y1049595D01*
X121865Y1051974D01*
X121877Y1051990D01*
X121893Y1052003D01*
X121949Y1052090D01*
X122009Y1052174D01*
X122015Y1052193D01*
X122026Y1052210D01*
X122051Y1052310D01*
X122081Y1052409D01*
X122081Y1052429D01*
X122086Y1052448D01*
X122078Y1052551D01*
X122075Y1052655D01*
X122068Y1052674D01*
X122067Y1052694D01*
X122026Y1052788D01*
X121991Y1052886D01*
X121978Y1052902D01*
X121970Y1052920D01*
X121865Y1053051D01*
X119487Y1055430D01*
X118137Y1058687D01*
X118137Y1062213D01*
X119487Y1065470D01*
X121865Y1067849D01*
X121877Y1067865D01*
X121893Y1067878D01*
X121949Y1067965D01*
X122009Y1068049D01*
X122015Y1068068D01*
X122026Y1068085D01*
X122051Y1068185D01*
X122081Y1068284D01*
X122081Y1068304D01*
X122086Y1068323D01*
X122078Y1068426D01*
X122075Y1068530D01*
X122068Y1068549D01*
X122067Y1068569D01*
X122026Y1068663D01*
X121991Y1068761D01*
X121978Y1068777D01*
X121970Y1068795D01*
X121865Y1068926D01*
X119487Y1071305D01*
X118137Y1074562D01*
X118137Y1078088D01*
X119487Y1081345D01*
X121980Y1083838D01*
X125237Y1085188D01*
X128763Y1085188D01*
X132020Y1083838D01*
X134513Y1081345D01*
X135663Y1078571D01*
X135673Y1078554D01*
X135679Y1078534D01*
X135738Y1078450D01*
X135792Y1078361D01*
X135808Y1078349D01*
X135819Y1078332D01*
X135902Y1078271D01*
X135982Y1078205D01*
X136001Y1078197D01*
X136016Y1078186D01*
X136115Y1078153D01*
X136212Y1078116D01*
X136231Y1078116D01*
X136250Y1078109D01*
X136354Y1078110D01*
X136457Y1078106D01*
X136476Y1078112D01*
X136496Y1078112D01*
X136657Y1078159D01*
X139125Y1079181D01*
X145125Y1079181D01*
X146163Y1078751D01*
X146182Y1078746D01*
X146200Y1078737D01*
X146302Y1078718D01*
X146402Y1078695D01*
X146422Y1078696D01*
X146442Y1078693D01*
X146544Y1078708D01*
X146647Y1078718D01*
X146665Y1078726D01*
X146685Y1078729D01*
X146778Y1078776D01*
X146872Y1078818D01*
X146887Y1078831D01*
X146904Y1078840D01*
X146977Y1078914D01*
X147053Y1078984D01*
X147063Y1079002D01*
X147077Y1079016D01*
X147157Y1079163D01*
X148062Y1081345D01*
X150555Y1083838D01*
X153812Y1085188D01*
X157338Y1085188D01*
X160595Y1083838D01*
X163088Y1081345D01*
X164438Y1078088D01*
X164438Y1074562D01*
X163088Y1071305D01*
X160595Y1068812D01*
X157676Y1067602D01*
X157576Y1067540D01*
X157476Y1067481D01*
X157472Y1067476D01*
X157467Y1067473D01*
X157392Y1067382D01*
X157316Y1067294D01*
X157314Y1067288D01*
X157310Y1067283D01*
X157268Y1067175D01*
X157224Y1067066D01*
X157223Y1067058D01*
X157222Y1067053D01*
X157221Y1067035D01*
X157206Y1066899D01*
X157206Y1054199D01*
X157209Y1054179D01*
X157207Y1054160D01*
X157229Y1054058D01*
X157245Y1053956D01*
X157255Y1053939D01*
X157259Y1053919D01*
X157312Y1053830D01*
X157361Y1053739D01*
X157375Y1053725D01*
X157385Y1053708D01*
X157464Y1053641D01*
X157539Y1053569D01*
X157557Y1053561D01*
X157572Y1053548D01*
X157668Y1053509D01*
X157762Y1053466D01*
X157782Y1053464D01*
X157800Y1053456D01*
X157967Y1053438D01*
X160513Y1053438D01*
X163770Y1052088D01*
X166263Y1049595D01*
X167613Y1046338D01*
X167613Y1042812D01*
X166263Y1039555D01*
X163885Y1037176D01*
X163873Y1037160D01*
X163857Y1037147D01*
X163801Y1037060D01*
X163741Y1036976D01*
X163735Y1036957D01*
X163724Y1036940D01*
X163699Y1036840D01*
X163669Y1036741D01*
X163669Y1036721D01*
X163664Y1036702D01*
X163672Y1036599D01*
X163675Y1036495D01*
X163682Y1036476D01*
X163683Y1036456D01*
X163724Y1036362D01*
X163759Y1036264D01*
X163772Y1036248D01*
X163780Y1036230D01*
X163885Y1036099D01*
X166263Y1033720D01*
X167360Y1031073D01*
X167371Y1031056D01*
X167376Y1031037D01*
X167435Y1030952D01*
X167490Y1030864D01*
X167505Y1030851D01*
X167516Y1030835D01*
X167599Y1030773D01*
X167679Y1030707D01*
X167698Y1030700D01*
X167714Y1030688D01*
X167812Y1030656D01*
X167909Y1030619D01*
X167929Y1030618D01*
X167948Y1030612D01*
X168051Y1030613D01*
X168155Y1030608D01*
X168174Y1030614D01*
X168194Y1030614D01*
X168355Y1030661D01*
X169687Y1031213D01*
X173213Y1031213D01*
X176470Y1029863D01*
X177262Y1029072D01*
X177278Y1029060D01*
X177290Y1029045D01*
X177378Y1028989D01*
X177461Y1028929D01*
X177480Y1028923D01*
X177497Y1028912D01*
X177598Y1028887D01*
X177697Y1028856D01*
X177716Y1028857D01*
X177736Y1028852D01*
X177839Y1028860D01*
X177942Y1028863D01*
X177961Y1028869D01*
X177981Y1028871D01*
X178076Y1028911D01*
X178173Y1028947D01*
X178189Y1028959D01*
X178207Y1028967D01*
X178338Y1029072D01*
X179130Y1029863D01*
X182387Y1031213D01*
X185913Y1031213D01*
X189170Y1029863D01*
X191663Y1027370D01*
X193013Y1024113D01*
X193013Y1020587D01*
X191663Y1017330D01*
X189170Y1014837D01*
X185913Y1013487D01*
X182387Y1013487D01*
X179130Y1014837D01*
X178338Y1015628D01*
X178322Y1015640D01*
X178310Y1015655D01*
X178222Y1015711D01*
X178139Y1015771D01*
X178120Y1015777D01*
X178103Y1015788D01*
X178002Y1015813D01*
X177903Y1015844D01*
X177884Y1015843D01*
X177864Y1015848D01*
X177761Y1015840D01*
X177658Y1015837D01*
X177639Y1015831D01*
X177619Y1015829D01*
X177524Y1015789D01*
X177427Y1015753D01*
X177411Y1015740D01*
X177393Y1015733D01*
X177262Y1015628D01*
X176470Y1014837D01*
X173213Y1013487D01*
X169687Y1013487D01*
X166430Y1014837D01*
X163937Y1017330D01*
X162840Y1019977D01*
X162829Y1019994D01*
X162824Y1020013D01*
X162765Y1020098D01*
X162710Y1020186D01*
X162695Y1020199D01*
X162684Y1020215D01*
X162601Y1020277D01*
X162521Y1020343D01*
X162502Y1020350D01*
X162486Y1020362D01*
X162388Y1020394D01*
X162291Y1020431D01*
X162271Y1020432D01*
X162252Y1020438D01*
X162149Y1020437D01*
X162045Y1020442D01*
X162026Y1020436D01*
X162006Y1020436D01*
X161845Y1020389D01*
X160513Y1019837D01*
X156987Y1019837D01*
X153730Y1021187D01*
X151351Y1023565D01*
X151335Y1023577D01*
X151322Y1023593D01*
X151235Y1023649D01*
X151151Y1023709D01*
X151132Y1023715D01*
X151115Y1023726D01*
X151015Y1023751D01*
X150916Y1023781D01*
X150896Y1023781D01*
X150877Y1023786D01*
X150774Y1023778D01*
X150670Y1023775D01*
X150651Y1023768D01*
X150631Y1023767D01*
X150537Y1023726D01*
X150439Y1023691D01*
X150423Y1023678D01*
X150405Y1023670D01*
X150274Y1023565D01*
X147895Y1021187D01*
X144638Y1019837D01*
X141112Y1019837D01*
X137855Y1021187D01*
X135476Y1023565D01*
X135460Y1023577D01*
X135447Y1023593D01*
X135360Y1023649D01*
X135276Y1023709D01*
X135257Y1023715D01*
X135240Y1023726D01*
X135140Y1023751D01*
X135041Y1023781D01*
X135021Y1023781D01*
X135002Y1023786D01*
X134899Y1023778D01*
X134795Y1023775D01*
X134776Y1023768D01*
X134756Y1023767D01*
X134662Y1023726D01*
X134564Y1023691D01*
X134548Y1023678D01*
X134530Y1023670D01*
X134399Y1023565D01*
X132020Y1021187D01*
X129763Y1020252D01*
X129702Y1020214D01*
X129637Y1020185D01*
X129599Y1020150D01*
X129554Y1020122D01*
X129509Y1020067D01*
X129456Y1020018D01*
X129431Y1019973D01*
X129398Y1019933D01*
X129372Y1019866D01*
X129337Y1019803D01*
X129328Y1019752D01*
X129309Y1019703D01*
X129306Y1019631D01*
X129294Y1019561D01*
X129301Y1019509D01*
X129299Y1019457D01*
X129319Y1019388D01*
X129329Y1019317D01*
X129353Y1019271D01*
X129368Y1019221D01*
X129408Y1019162D01*
X129441Y1019098D01*
X129478Y1019062D01*
X129508Y1019019D01*
X129565Y1018976D01*
X129617Y1018926D01*
X129639Y1018914D01*
X133910Y1014643D01*
X136206Y1009100D01*
X136206Y1003100D01*
X133910Y997557D01*
X129668Y993315D01*
X124125Y991019D01*
X98125Y991019D01*
G37*
%LPD*%
G36*
X1098570Y964442D02*
X1098570Y964442D01*
X1098589Y964440D01*
X1098691Y964462D01*
X1098793Y964479D01*
X1098810Y964488D01*
X1098830Y964492D01*
X1098919Y964545D01*
X1099010Y964594D01*
X1099024Y964608D01*
X1099041Y964618D01*
X1099108Y964697D01*
X1099180Y964772D01*
X1099188Y964790D01*
X1099201Y964805D01*
X1099240Y964901D01*
X1099283Y964995D01*
X1099285Y965015D01*
X1099293Y965033D01*
X1099311Y965200D01*
X1099311Y1066800D01*
X1099308Y1066820D01*
X1099310Y1066839D01*
X1099288Y1066941D01*
X1099272Y1067043D01*
X1099262Y1067060D01*
X1099258Y1067080D01*
X1099205Y1067169D01*
X1099156Y1067260D01*
X1099142Y1067274D01*
X1099132Y1067291D01*
X1099053Y1067358D01*
X1098978Y1067430D01*
X1098960Y1067438D01*
X1098945Y1067451D01*
X1098849Y1067490D01*
X1098755Y1067533D01*
X1098735Y1067535D01*
X1098717Y1067543D01*
X1098550Y1067561D01*
X1076325Y1067561D01*
X1076305Y1067558D01*
X1076286Y1067560D01*
X1076184Y1067538D01*
X1076082Y1067522D01*
X1076065Y1067512D01*
X1076045Y1067508D01*
X1075956Y1067455D01*
X1075865Y1067406D01*
X1075851Y1067392D01*
X1075834Y1067382D01*
X1075767Y1067303D01*
X1075696Y1067228D01*
X1075687Y1067210D01*
X1075674Y1067195D01*
X1075635Y1067099D01*
X1075592Y1067005D01*
X1075590Y1066985D01*
X1075582Y1066967D01*
X1075564Y1066800D01*
X1075564Y1035811D01*
X1054100Y1035811D01*
X1054080Y1035808D01*
X1054061Y1035810D01*
X1053959Y1035788D01*
X1053857Y1035772D01*
X1053840Y1035762D01*
X1053820Y1035758D01*
X1053731Y1035705D01*
X1053640Y1035656D01*
X1053626Y1035642D01*
X1053609Y1035632D01*
X1053542Y1035553D01*
X1053471Y1035478D01*
X1053462Y1035460D01*
X1053449Y1035445D01*
X1053410Y1035349D01*
X1053367Y1035255D01*
X1053365Y1035235D01*
X1053357Y1035217D01*
X1053339Y1035050D01*
X1053339Y1019175D01*
X1053342Y1019155D01*
X1053340Y1019136D01*
X1053362Y1019034D01*
X1053379Y1018932D01*
X1053388Y1018915D01*
X1053392Y1018895D01*
X1053445Y1018806D01*
X1053494Y1018715D01*
X1053508Y1018701D01*
X1053518Y1018684D01*
X1053597Y1018617D01*
X1053672Y1018546D01*
X1053690Y1018537D01*
X1053705Y1018524D01*
X1053801Y1018485D01*
X1053895Y1018442D01*
X1053915Y1018440D01*
X1053933Y1018432D01*
X1054100Y1018414D01*
X1075564Y1018414D01*
X1075564Y965200D01*
X1075567Y965180D01*
X1075565Y965161D01*
X1075587Y965059D01*
X1075604Y964957D01*
X1075613Y964940D01*
X1075617Y964920D01*
X1075670Y964831D01*
X1075719Y964740D01*
X1075733Y964726D01*
X1075743Y964709D01*
X1075822Y964642D01*
X1075897Y964571D01*
X1075915Y964562D01*
X1075930Y964549D01*
X1076026Y964510D01*
X1076120Y964467D01*
X1076140Y964465D01*
X1076158Y964457D01*
X1076325Y964439D01*
X1098550Y964439D01*
X1098570Y964442D01*
G37*
G36*
X1327170Y964442D02*
X1327170Y964442D01*
X1327189Y964440D01*
X1327291Y964462D01*
X1327393Y964479D01*
X1327410Y964488D01*
X1327430Y964492D01*
X1327519Y964545D01*
X1327610Y964594D01*
X1327624Y964608D01*
X1327641Y964618D01*
X1327708Y964697D01*
X1327780Y964772D01*
X1327788Y964790D01*
X1327801Y964805D01*
X1327840Y964901D01*
X1327883Y964995D01*
X1327885Y965015D01*
X1327893Y965033D01*
X1327911Y965200D01*
X1327911Y1066800D01*
X1327908Y1066820D01*
X1327910Y1066839D01*
X1327888Y1066941D01*
X1327872Y1067043D01*
X1327862Y1067060D01*
X1327858Y1067080D01*
X1327805Y1067169D01*
X1327756Y1067260D01*
X1327742Y1067274D01*
X1327732Y1067291D01*
X1327653Y1067358D01*
X1327578Y1067430D01*
X1327560Y1067438D01*
X1327545Y1067451D01*
X1327449Y1067490D01*
X1327355Y1067533D01*
X1327335Y1067535D01*
X1327317Y1067543D01*
X1327150Y1067561D01*
X1304925Y1067561D01*
X1304905Y1067558D01*
X1304886Y1067560D01*
X1304784Y1067538D01*
X1304682Y1067522D01*
X1304665Y1067512D01*
X1304645Y1067508D01*
X1304556Y1067455D01*
X1304465Y1067406D01*
X1304451Y1067392D01*
X1304434Y1067382D01*
X1304367Y1067303D01*
X1304296Y1067228D01*
X1304287Y1067210D01*
X1304274Y1067195D01*
X1304235Y1067099D01*
X1304192Y1067005D01*
X1304190Y1066985D01*
X1304182Y1066967D01*
X1304164Y1066800D01*
X1304164Y1035811D01*
X1282700Y1035811D01*
X1282680Y1035808D01*
X1282661Y1035810D01*
X1282559Y1035788D01*
X1282457Y1035772D01*
X1282440Y1035762D01*
X1282420Y1035758D01*
X1282331Y1035705D01*
X1282240Y1035656D01*
X1282226Y1035642D01*
X1282209Y1035632D01*
X1282142Y1035553D01*
X1282071Y1035478D01*
X1282062Y1035460D01*
X1282049Y1035445D01*
X1282010Y1035349D01*
X1281967Y1035255D01*
X1281965Y1035235D01*
X1281957Y1035217D01*
X1281939Y1035050D01*
X1281939Y1019175D01*
X1281942Y1019155D01*
X1281940Y1019136D01*
X1281962Y1019034D01*
X1281979Y1018932D01*
X1281988Y1018915D01*
X1281992Y1018895D01*
X1282045Y1018806D01*
X1282094Y1018715D01*
X1282108Y1018701D01*
X1282118Y1018684D01*
X1282197Y1018617D01*
X1282272Y1018546D01*
X1282290Y1018537D01*
X1282305Y1018524D01*
X1282401Y1018485D01*
X1282495Y1018442D01*
X1282515Y1018440D01*
X1282533Y1018432D01*
X1282700Y1018414D01*
X1304164Y1018414D01*
X1304164Y965200D01*
X1304167Y965180D01*
X1304165Y965161D01*
X1304187Y965059D01*
X1304204Y964957D01*
X1304213Y964940D01*
X1304217Y964920D01*
X1304270Y964831D01*
X1304319Y964740D01*
X1304333Y964726D01*
X1304343Y964709D01*
X1304422Y964642D01*
X1304497Y964571D01*
X1304515Y964562D01*
X1304530Y964549D01*
X1304626Y964510D01*
X1304720Y964467D01*
X1304740Y964465D01*
X1304758Y964457D01*
X1304925Y964439D01*
X1327150Y964439D01*
X1327170Y964442D01*
G37*
G36*
X1212870Y964442D02*
X1212870Y964442D01*
X1212889Y964440D01*
X1212991Y964462D01*
X1213093Y964479D01*
X1213110Y964488D01*
X1213130Y964492D01*
X1213219Y964545D01*
X1213310Y964594D01*
X1213324Y964608D01*
X1213341Y964618D01*
X1213408Y964697D01*
X1213480Y964772D01*
X1213488Y964790D01*
X1213501Y964805D01*
X1213540Y964901D01*
X1213583Y964995D01*
X1213585Y965015D01*
X1213593Y965033D01*
X1213611Y965200D01*
X1213611Y1028694D01*
X1213601Y1028759D01*
X1213600Y1028824D01*
X1213577Y1028904D01*
X1213572Y1028937D01*
X1213562Y1028954D01*
X1213553Y1028985D01*
X1212877Y1030617D01*
X1212877Y1033133D01*
X1213553Y1034765D01*
X1213568Y1034829D01*
X1213593Y1034889D01*
X1213602Y1034972D01*
X1213609Y1035004D01*
X1213608Y1035024D01*
X1213611Y1035056D01*
X1213611Y1066800D01*
X1213608Y1066820D01*
X1213610Y1066839D01*
X1213588Y1066941D01*
X1213572Y1067043D01*
X1213562Y1067060D01*
X1213558Y1067080D01*
X1213505Y1067169D01*
X1213456Y1067260D01*
X1213442Y1067274D01*
X1213432Y1067291D01*
X1213353Y1067358D01*
X1213278Y1067430D01*
X1213260Y1067438D01*
X1213245Y1067451D01*
X1213149Y1067490D01*
X1213055Y1067533D01*
X1213035Y1067535D01*
X1213017Y1067543D01*
X1212850Y1067561D01*
X1190625Y1067561D01*
X1190605Y1067558D01*
X1190586Y1067560D01*
X1190484Y1067538D01*
X1190382Y1067522D01*
X1190365Y1067512D01*
X1190345Y1067508D01*
X1190256Y1067455D01*
X1190165Y1067406D01*
X1190151Y1067392D01*
X1190134Y1067382D01*
X1190067Y1067303D01*
X1189996Y1067228D01*
X1189987Y1067210D01*
X1189974Y1067195D01*
X1189935Y1067099D01*
X1189892Y1067005D01*
X1189890Y1066985D01*
X1189882Y1066967D01*
X1189864Y1066800D01*
X1189864Y1035811D01*
X1168400Y1035811D01*
X1168380Y1035808D01*
X1168361Y1035810D01*
X1168259Y1035788D01*
X1168157Y1035772D01*
X1168140Y1035762D01*
X1168120Y1035758D01*
X1168031Y1035705D01*
X1167940Y1035656D01*
X1167926Y1035642D01*
X1167909Y1035632D01*
X1167842Y1035553D01*
X1167771Y1035478D01*
X1167762Y1035460D01*
X1167749Y1035445D01*
X1167710Y1035349D01*
X1167667Y1035255D01*
X1167665Y1035235D01*
X1167657Y1035217D01*
X1167639Y1035050D01*
X1167639Y1019175D01*
X1167642Y1019155D01*
X1167640Y1019136D01*
X1167662Y1019034D01*
X1167679Y1018932D01*
X1167688Y1018915D01*
X1167692Y1018895D01*
X1167745Y1018806D01*
X1167794Y1018715D01*
X1167808Y1018701D01*
X1167818Y1018684D01*
X1167897Y1018617D01*
X1167972Y1018546D01*
X1167990Y1018537D01*
X1168005Y1018524D01*
X1168101Y1018485D01*
X1168195Y1018442D01*
X1168215Y1018440D01*
X1168233Y1018432D01*
X1168400Y1018414D01*
X1189864Y1018414D01*
X1189864Y965200D01*
X1189867Y965180D01*
X1189865Y965161D01*
X1189887Y965059D01*
X1189904Y964957D01*
X1189913Y964940D01*
X1189917Y964920D01*
X1189970Y964831D01*
X1190019Y964740D01*
X1190033Y964726D01*
X1190043Y964709D01*
X1190122Y964642D01*
X1190197Y964571D01*
X1190215Y964562D01*
X1190230Y964549D01*
X1190326Y964510D01*
X1190420Y964467D01*
X1190440Y964465D01*
X1190458Y964457D01*
X1190625Y964439D01*
X1212850Y964439D01*
X1212870Y964442D01*
G37*
%LPC*%
G36*
X1153420Y1079619D02*
X1153420Y1079619D01*
X1150444Y1082595D01*
X1150444Y1101805D01*
X1153420Y1104781D01*
X1170630Y1104781D01*
X1173745Y1101665D01*
X1173761Y1101636D01*
X1173812Y1101586D01*
X1173857Y1101530D01*
X1173901Y1101502D01*
X1173939Y1101466D01*
X1174004Y1101436D01*
X1174064Y1101397D01*
X1174115Y1101385D01*
X1174162Y1101363D01*
X1174233Y1101355D01*
X1174303Y1101337D01*
X1174355Y1101341D01*
X1174406Y1101336D01*
X1174477Y1101351D01*
X1174548Y1101356D01*
X1174596Y1101377D01*
X1174647Y1101388D01*
X1174708Y1101425D01*
X1174774Y1101453D01*
X1174830Y1101498D01*
X1174858Y1101514D01*
X1174873Y1101532D01*
X1174905Y1101558D01*
X1175023Y1101675D01*
X1179131Y1103377D01*
X1195769Y1103377D01*
X1199877Y1101675D01*
X1203021Y1098531D01*
X1204723Y1094423D01*
X1204723Y1089977D01*
X1203021Y1085869D01*
X1199877Y1082725D01*
X1195769Y1081023D01*
X1179131Y1081023D01*
X1175023Y1082725D01*
X1174905Y1082842D01*
X1174847Y1082884D01*
X1174795Y1082934D01*
X1174748Y1082956D01*
X1174706Y1082986D01*
X1174637Y1083007D01*
X1174572Y1083037D01*
X1174520Y1083043D01*
X1174470Y1083058D01*
X1174399Y1083056D01*
X1174328Y1083064D01*
X1174277Y1083053D01*
X1174225Y1083052D01*
X1174157Y1083027D01*
X1174087Y1083012D01*
X1174042Y1082985D01*
X1173994Y1082968D01*
X1173938Y1082923D01*
X1173876Y1082886D01*
X1173842Y1082846D01*
X1173802Y1082814D01*
X1173763Y1082754D01*
X1173757Y1082746D01*
X1170630Y1079619D01*
X1153420Y1079619D01*
G37*
%LPD*%
%LPC*%
G36*
X439562Y222912D02*
X439562Y222912D01*
X436305Y224262D01*
X433812Y226755D01*
X432462Y230012D01*
X432462Y233538D01*
X433812Y236795D01*
X436305Y239288D01*
X439562Y240638D01*
X443088Y240638D01*
X443377Y240518D01*
X443472Y240496D01*
X443565Y240467D01*
X443591Y240468D01*
X443616Y240462D01*
X443713Y240471D01*
X443811Y240473D01*
X443835Y240482D01*
X443861Y240485D01*
X443950Y240524D01*
X444042Y240558D01*
X444062Y240574D01*
X444086Y240585D01*
X444158Y240651D01*
X444234Y240712D01*
X444248Y240734D01*
X444267Y240751D01*
X444314Y240836D01*
X444367Y240918D01*
X444373Y240944D01*
X444386Y240967D01*
X444403Y241063D01*
X444427Y241157D01*
X444425Y241183D01*
X444430Y241209D01*
X444415Y241305D01*
X444408Y241402D01*
X444398Y241426D01*
X444394Y241452D01*
X444350Y241539D01*
X444311Y241629D01*
X444291Y241654D01*
X444282Y241671D01*
X444259Y241695D01*
X444207Y241760D01*
X443337Y242630D01*
X441987Y245887D01*
X441987Y249413D01*
X443337Y252670D01*
X445830Y255163D01*
X449087Y256513D01*
X452427Y256513D01*
X452498Y256524D01*
X452569Y256526D01*
X452618Y256544D01*
X452670Y256552D01*
X452733Y256586D01*
X452801Y256611D01*
X452841Y256643D01*
X452887Y256668D01*
X452937Y256720D01*
X452993Y256764D01*
X453021Y256808D01*
X453057Y256846D01*
X453087Y256911D01*
X453126Y256971D01*
X453138Y257022D01*
X453160Y257069D01*
X453168Y257140D01*
X453186Y257210D01*
X453182Y257262D01*
X453187Y257313D01*
X453172Y257384D01*
X453166Y257455D01*
X453146Y257503D01*
X453135Y257554D01*
X453098Y257615D01*
X453070Y257681D01*
X453025Y257737D01*
X453009Y257765D01*
X452991Y257780D01*
X452965Y257812D01*
X452567Y258210D01*
X451218Y261468D01*
X451218Y264994D01*
X452567Y268251D01*
X455060Y270744D01*
X458318Y272093D01*
X461844Y272093D01*
X465101Y270744D01*
X467594Y268251D01*
X468943Y264994D01*
X468943Y261468D01*
X467594Y258210D01*
X465101Y255717D01*
X461844Y254368D01*
X458504Y254368D01*
X458433Y254356D01*
X458361Y254355D01*
X458312Y254337D01*
X458261Y254328D01*
X458198Y254295D01*
X458130Y254270D01*
X458089Y254237D01*
X458044Y254213D01*
X457994Y254161D01*
X457938Y254116D01*
X457910Y254073D01*
X457874Y254035D01*
X457844Y253970D01*
X457805Y253909D01*
X457792Y253859D01*
X457771Y253812D01*
X457763Y253740D01*
X457745Y253671D01*
X457749Y253619D01*
X457743Y253567D01*
X457759Y253497D01*
X457764Y253426D01*
X457785Y253378D01*
X457796Y253327D01*
X457832Y253265D01*
X457861Y253199D01*
X457905Y253143D01*
X457922Y253116D01*
X457940Y253101D01*
X457965Y253068D01*
X458363Y252670D01*
X459713Y249413D01*
X459713Y245887D01*
X458363Y242630D01*
X455870Y240137D01*
X452613Y238787D01*
X449087Y238787D01*
X448798Y238907D01*
X448703Y238929D01*
X448610Y238958D01*
X448584Y238957D01*
X448559Y238963D01*
X448462Y238954D01*
X448364Y238952D01*
X448340Y238943D01*
X448314Y238940D01*
X448225Y238901D01*
X448133Y238867D01*
X448113Y238851D01*
X448089Y238840D01*
X448017Y238774D01*
X447941Y238713D01*
X447927Y238691D01*
X447908Y238674D01*
X447861Y238589D01*
X447808Y238507D01*
X447802Y238481D01*
X447789Y238458D01*
X447772Y238362D01*
X447748Y238268D01*
X447750Y238242D01*
X447745Y238216D01*
X447760Y238120D01*
X447767Y238023D01*
X447777Y237999D01*
X447781Y237973D01*
X447825Y237886D01*
X447864Y237796D01*
X447884Y237771D01*
X447893Y237754D01*
X447916Y237730D01*
X447968Y237665D01*
X448838Y236795D01*
X450188Y233538D01*
X450188Y230012D01*
X448838Y226755D01*
X446345Y224262D01*
X443088Y222912D01*
X439562Y222912D01*
G37*
%LPD*%
%LPC*%
G36*
X35200Y8269D02*
X35200Y8269D01*
X29749Y10527D01*
X25577Y14699D01*
X23319Y20150D01*
X23319Y26050D01*
X25577Y31501D01*
X29749Y35673D01*
X35200Y37931D01*
X41100Y37931D01*
X46551Y35673D01*
X50723Y31501D01*
X52981Y26050D01*
X52981Y20150D01*
X50723Y14699D01*
X46551Y10527D01*
X41100Y8269D01*
X35200Y8269D01*
G37*
%LPD*%
%LPC*%
G36*
X35200Y165269D02*
X35200Y165269D01*
X29749Y167527D01*
X25577Y171699D01*
X23319Y177150D01*
X23319Y183050D01*
X25577Y188501D01*
X29749Y192673D01*
X35200Y194931D01*
X41100Y194931D01*
X46551Y192673D01*
X50723Y188501D01*
X52981Y183050D01*
X52981Y177150D01*
X50723Y171699D01*
X46551Y167527D01*
X41100Y165269D01*
X35200Y165269D01*
G37*
%LPD*%
%LPC*%
G36*
X84200Y14269D02*
X84200Y14269D01*
X78749Y16527D01*
X74577Y20699D01*
X72319Y26150D01*
X72319Y32050D01*
X74577Y37501D01*
X78749Y41673D01*
X84200Y43931D01*
X90100Y43931D01*
X95551Y41673D01*
X99723Y37501D01*
X101981Y32050D01*
X101981Y26150D01*
X99723Y20699D01*
X95551Y16527D01*
X90100Y14269D01*
X84200Y14269D01*
G37*
%LPD*%
%LPC*%
G36*
X35200Y470069D02*
X35200Y470069D01*
X29749Y472327D01*
X25577Y476499D01*
X23319Y481950D01*
X23319Y487850D01*
X25577Y493301D01*
X29749Y497473D01*
X35200Y499731D01*
X41100Y499731D01*
X46551Y497473D01*
X50723Y493301D01*
X52981Y487850D01*
X52981Y481950D01*
X50723Y476499D01*
X46551Y472327D01*
X41100Y470069D01*
X35200Y470069D01*
G37*
%LPD*%
%LPC*%
G36*
X35200Y513094D02*
X35200Y513094D01*
X29749Y515352D01*
X25577Y519524D01*
X23319Y524975D01*
X23319Y530875D01*
X25577Y536326D01*
X29749Y540498D01*
X35200Y542756D01*
X41100Y542756D01*
X46551Y540498D01*
X50723Y536326D01*
X52981Y530875D01*
X52981Y524975D01*
X50723Y519524D01*
X46551Y515352D01*
X41100Y513094D01*
X35200Y513094D01*
G37*
%LPD*%
%LPC*%
G36*
X35200Y670094D02*
X35200Y670094D01*
X29749Y672352D01*
X25577Y676524D01*
X23319Y681975D01*
X23319Y687875D01*
X25577Y693326D01*
X29749Y697498D01*
X35200Y699756D01*
X41100Y699756D01*
X46551Y697498D01*
X50723Y693326D01*
X52981Y687875D01*
X52981Y681975D01*
X50723Y676524D01*
X46551Y672352D01*
X41100Y670094D01*
X35200Y670094D01*
G37*
%LPD*%
%LPC*%
G36*
X35200Y709944D02*
X35200Y709944D01*
X29749Y712202D01*
X25577Y716374D01*
X23319Y721825D01*
X23319Y727725D01*
X25577Y733176D01*
X29749Y737348D01*
X35200Y739606D01*
X41100Y739606D01*
X46551Y737348D01*
X50723Y733176D01*
X52981Y727725D01*
X52981Y721825D01*
X50723Y716374D01*
X46551Y712202D01*
X41100Y709944D01*
X35200Y709944D01*
G37*
%LPD*%
%LPC*%
G36*
X84200Y860944D02*
X84200Y860944D01*
X78749Y863202D01*
X74577Y867374D01*
X72319Y872825D01*
X72319Y878725D01*
X74577Y884176D01*
X78749Y888348D01*
X84200Y890606D01*
X90100Y890606D01*
X95551Y888348D01*
X99723Y884176D01*
X101981Y878725D01*
X101981Y872825D01*
X99723Y867374D01*
X95551Y863202D01*
X90100Y860944D01*
X84200Y860944D01*
G37*
%LPD*%
%LPC*%
G36*
X35200Y866944D02*
X35200Y866944D01*
X29749Y869202D01*
X25577Y873374D01*
X23319Y878825D01*
X23319Y884725D01*
X25577Y890176D01*
X29749Y894348D01*
X35200Y896606D01*
X41100Y896606D01*
X46551Y894348D01*
X50723Y890176D01*
X52981Y884725D01*
X52981Y878825D01*
X50723Y873374D01*
X46551Y869202D01*
X41100Y866944D01*
X35200Y866944D01*
G37*
%LPD*%
%LPC*%
G36*
X1255331Y1081023D02*
X1255331Y1081023D01*
X1251223Y1082725D01*
X1248079Y1085869D01*
X1246377Y1089977D01*
X1246377Y1094423D01*
X1248079Y1098531D01*
X1251223Y1101675D01*
X1255331Y1103377D01*
X1271969Y1103377D01*
X1276077Y1101675D01*
X1279221Y1098531D01*
X1280923Y1094423D01*
X1280923Y1089977D01*
X1279221Y1085869D01*
X1276077Y1082725D01*
X1271969Y1081023D01*
X1255331Y1081023D01*
G37*
%LPD*%
G36*
X311240Y313579D02*
X311240Y313579D01*
X311331Y313586D01*
X311361Y313598D01*
X311393Y313604D01*
X311473Y313646D01*
X311557Y313682D01*
X311589Y313708D01*
X311610Y313719D01*
X311632Y313742D01*
X311688Y313787D01*
X314863Y316962D01*
X314916Y317036D01*
X314976Y317105D01*
X314988Y317135D01*
X315007Y317161D01*
X315034Y317248D01*
X315068Y317333D01*
X315072Y317374D01*
X315079Y317397D01*
X315078Y317429D01*
X315086Y317500D01*
X315086Y342900D01*
X315072Y342990D01*
X315064Y343081D01*
X315052Y343111D01*
X315047Y343143D01*
X315004Y343223D01*
X314968Y343307D01*
X314942Y343339D01*
X314931Y343360D01*
X314908Y343382D01*
X314863Y343438D01*
X311911Y346390D01*
X311911Y352425D01*
X311897Y352515D01*
X311889Y352606D01*
X311877Y352636D01*
X311872Y352668D01*
X311829Y352748D01*
X311793Y352832D01*
X311767Y352864D01*
X311756Y352885D01*
X311733Y352907D01*
X311688Y352963D01*
X308513Y356138D01*
X308439Y356191D01*
X308370Y356251D01*
X308340Y356263D01*
X308314Y356282D01*
X308227Y356309D01*
X308142Y356343D01*
X308101Y356347D01*
X308078Y356354D01*
X308046Y356353D01*
X307975Y356361D01*
X301625Y356361D01*
X301535Y356347D01*
X301444Y356339D01*
X301414Y356327D01*
X301382Y356322D01*
X301302Y356279D01*
X301218Y356243D01*
X301186Y356217D01*
X301165Y356206D01*
X301143Y356183D01*
X301087Y356138D01*
X297912Y352963D01*
X297859Y352889D01*
X297799Y352820D01*
X297787Y352790D01*
X297768Y352764D01*
X297741Y352677D01*
X297707Y352592D01*
X297703Y352551D01*
X297696Y352528D01*
X297697Y352496D01*
X297689Y352425D01*
X297689Y346075D01*
X297704Y345985D01*
X297711Y345894D01*
X297723Y345864D01*
X297729Y345832D01*
X297771Y345752D01*
X297807Y345668D01*
X297833Y345636D01*
X297844Y345615D01*
X297867Y345593D01*
X297912Y345537D01*
X300864Y342585D01*
X300864Y317500D01*
X300879Y317410D01*
X300886Y317319D01*
X300898Y317289D01*
X300904Y317257D01*
X300946Y317177D01*
X300982Y317093D01*
X301008Y317061D01*
X301019Y317040D01*
X301042Y317018D01*
X301087Y316962D01*
X304262Y313787D01*
X304336Y313734D01*
X304405Y313674D01*
X304435Y313662D01*
X304461Y313643D01*
X304548Y313616D01*
X304633Y313582D01*
X304674Y313578D01*
X304697Y313571D01*
X304729Y313572D01*
X304800Y313564D01*
X311150Y313564D01*
X311240Y313579D01*
G37*
%LPC*%
G36*
X191912Y1032537D02*
X191912Y1032537D01*
X188655Y1033887D01*
X186162Y1036380D01*
X184812Y1039637D01*
X184812Y1043163D01*
X186162Y1046420D01*
X188655Y1048913D01*
X191912Y1050263D01*
X195438Y1050263D01*
X198695Y1048913D01*
X201188Y1046420D01*
X202497Y1043262D01*
X202535Y1043201D01*
X202564Y1043136D01*
X202599Y1043097D01*
X202626Y1043053D01*
X202682Y1043007D01*
X202730Y1042954D01*
X202776Y1042929D01*
X202816Y1042896D01*
X202883Y1042870D01*
X202946Y1042836D01*
X202997Y1042827D01*
X203045Y1042808D01*
X203117Y1042805D01*
X203188Y1042792D01*
X203239Y1042800D01*
X203291Y1042797D01*
X203360Y1042817D01*
X203431Y1042828D01*
X203477Y1042852D01*
X203527Y1042866D01*
X203586Y1042907D01*
X203650Y1042939D01*
X203687Y1042977D01*
X203729Y1043006D01*
X203772Y1043064D01*
X203822Y1043115D01*
X203857Y1043178D01*
X203876Y1043204D01*
X203883Y1043226D01*
X203903Y1043262D01*
X205212Y1046420D01*
X207705Y1048913D01*
X210962Y1050263D01*
X214488Y1050263D01*
X217745Y1048913D01*
X220238Y1046420D01*
X221588Y1043163D01*
X221588Y1039637D01*
X220238Y1036380D01*
X217745Y1033887D01*
X214488Y1032537D01*
X210962Y1032537D01*
X207705Y1033887D01*
X205212Y1036380D01*
X203903Y1039538D01*
X203865Y1039599D01*
X203836Y1039664D01*
X203801Y1039703D01*
X203774Y1039747D01*
X203718Y1039793D01*
X203670Y1039846D01*
X203624Y1039871D01*
X203584Y1039904D01*
X203517Y1039930D01*
X203454Y1039964D01*
X203403Y1039973D01*
X203355Y1039992D01*
X203283Y1039995D01*
X203212Y1040008D01*
X203161Y1040000D01*
X203109Y1040003D01*
X203040Y1039983D01*
X202969Y1039972D01*
X202923Y1039948D01*
X202873Y1039934D01*
X202814Y1039893D01*
X202750Y1039861D01*
X202713Y1039823D01*
X202671Y1039794D01*
X202628Y1039736D01*
X202578Y1039685D01*
X202543Y1039622D01*
X202524Y1039596D01*
X202517Y1039574D01*
X202497Y1039538D01*
X201188Y1036380D01*
X198695Y1033887D01*
X195438Y1032537D01*
X191912Y1032537D01*
G37*
%LPD*%
%LPC*%
G36*
X258587Y1105562D02*
X258587Y1105562D01*
X255330Y1106912D01*
X252837Y1109405D01*
X251487Y1112662D01*
X251487Y1116188D01*
X252837Y1119445D01*
X253628Y1120237D01*
X253640Y1120253D01*
X253655Y1120265D01*
X253711Y1120353D01*
X253771Y1120436D01*
X253777Y1120455D01*
X253788Y1120472D01*
X253813Y1120573D01*
X253844Y1120672D01*
X253843Y1120691D01*
X253848Y1120711D01*
X253840Y1120814D01*
X253837Y1120917D01*
X253831Y1120936D01*
X253829Y1120956D01*
X253789Y1121051D01*
X253753Y1121148D01*
X253740Y1121164D01*
X253733Y1121182D01*
X253628Y1121313D01*
X252837Y1122105D01*
X251487Y1125362D01*
X251487Y1128888D01*
X252837Y1132145D01*
X255330Y1134638D01*
X258587Y1135988D01*
X262113Y1135988D01*
X265370Y1134638D01*
X267863Y1132145D01*
X269213Y1128888D01*
X269213Y1125362D01*
X267863Y1122105D01*
X267072Y1121313D01*
X267060Y1121297D01*
X267045Y1121285D01*
X266989Y1121197D01*
X266929Y1121114D01*
X266923Y1121095D01*
X266912Y1121078D01*
X266887Y1120977D01*
X266856Y1120878D01*
X266857Y1120859D01*
X266852Y1120839D01*
X266860Y1120736D01*
X266863Y1120633D01*
X266869Y1120614D01*
X266871Y1120594D01*
X266911Y1120499D01*
X266947Y1120402D01*
X266959Y1120386D01*
X266967Y1120368D01*
X267072Y1120237D01*
X267863Y1119445D01*
X269213Y1116188D01*
X269213Y1112662D01*
X267863Y1109405D01*
X265370Y1106912D01*
X262113Y1105562D01*
X258587Y1105562D01*
G37*
%LPD*%
%LPC*%
G36*
X230012Y343562D02*
X230012Y343562D01*
X227449Y344624D01*
X227335Y344651D01*
X227222Y344679D01*
X227215Y344679D01*
X227209Y344680D01*
X227093Y344669D01*
X226977Y344660D01*
X226971Y344658D01*
X226964Y344657D01*
X226857Y344609D01*
X226750Y344564D01*
X226744Y344559D01*
X226740Y344557D01*
X226726Y344544D01*
X226619Y344459D01*
X226005Y343844D01*
X215795Y343844D01*
X212819Y346820D01*
X212819Y358030D01*
X215795Y361006D01*
X226005Y361006D01*
X226619Y360391D01*
X226713Y360323D01*
X226808Y360253D01*
X226814Y360251D01*
X226819Y360247D01*
X226930Y360213D01*
X227042Y360177D01*
X227048Y360177D01*
X227054Y360175D01*
X227171Y360178D01*
X227288Y360179D01*
X227295Y360181D01*
X227300Y360181D01*
X227317Y360188D01*
X227449Y360226D01*
X230012Y361288D01*
X233538Y361288D01*
X236795Y359938D01*
X239288Y357445D01*
X240638Y354188D01*
X240638Y350662D01*
X239288Y347405D01*
X236795Y344912D01*
X233538Y343562D01*
X230012Y343562D01*
G37*
%LPD*%
%LPC*%
G36*
X245220Y393794D02*
X245220Y393794D01*
X242244Y396770D01*
X242244Y406980D01*
X245220Y409956D01*
X254694Y409956D01*
X254784Y409970D01*
X254875Y409978D01*
X254905Y409990D01*
X254937Y409995D01*
X255017Y410038D01*
X255101Y410074D01*
X255133Y410100D01*
X255154Y410111D01*
X255176Y410134D01*
X255232Y410179D01*
X255592Y410538D01*
X258849Y411888D01*
X262375Y411888D01*
X265633Y410538D01*
X268126Y408045D01*
X269475Y404788D01*
X269475Y401262D01*
X268126Y398005D01*
X265633Y395512D01*
X262375Y394162D01*
X258849Y394162D01*
X257868Y394569D01*
X257755Y394595D01*
X257641Y394624D01*
X257635Y394623D01*
X257629Y394625D01*
X257512Y394614D01*
X257396Y394605D01*
X257390Y394602D01*
X257384Y394602D01*
X257277Y394554D01*
X257170Y394508D01*
X257164Y394504D01*
X257159Y394502D01*
X257146Y394489D01*
X257039Y394404D01*
X256430Y393794D01*
X245220Y393794D01*
G37*
%LPD*%
%LPC*%
G36*
X245220Y362044D02*
X245220Y362044D01*
X242244Y365020D01*
X242244Y375230D01*
X245220Y378206D01*
X254232Y378206D01*
X254322Y378220D01*
X254413Y378228D01*
X254442Y378240D01*
X254474Y378245D01*
X254555Y378288D01*
X254639Y378324D01*
X254671Y378350D01*
X254692Y378361D01*
X254714Y378384D01*
X254770Y378429D01*
X255330Y378988D01*
X258587Y380338D01*
X262113Y380338D01*
X265370Y378988D01*
X267863Y376495D01*
X269213Y373238D01*
X269213Y369712D01*
X267863Y366455D01*
X265370Y363962D01*
X262113Y362612D01*
X258587Y362612D01*
X257933Y362883D01*
X257819Y362910D01*
X257706Y362938D01*
X257700Y362938D01*
X257694Y362939D01*
X257577Y362928D01*
X257461Y362919D01*
X257455Y362917D01*
X257449Y362916D01*
X257341Y362869D01*
X257234Y362823D01*
X257228Y362818D01*
X257224Y362816D01*
X257210Y362804D01*
X257103Y362718D01*
X256430Y362044D01*
X245220Y362044D01*
G37*
%LPD*%
%LPC*%
G36*
X277637Y422937D02*
X277637Y422937D01*
X274380Y424287D01*
X271887Y426780D01*
X270537Y430037D01*
X270537Y433563D01*
X271887Y436820D01*
X272446Y437380D01*
X272499Y437454D01*
X272559Y437524D01*
X272571Y437554D01*
X272590Y437580D01*
X272617Y437667D01*
X272651Y437752D01*
X272655Y437793D01*
X272662Y437815D01*
X272661Y437847D01*
X272669Y437918D01*
X272669Y446930D01*
X275645Y449906D01*
X285855Y449906D01*
X288831Y446930D01*
X288831Y435720D01*
X288157Y435047D01*
X288089Y434953D01*
X288019Y434858D01*
X288017Y434852D01*
X288013Y434847D01*
X287979Y434736D01*
X287943Y434624D01*
X287943Y434618D01*
X287941Y434612D01*
X287944Y434495D01*
X287945Y434378D01*
X287947Y434371D01*
X287947Y434366D01*
X287954Y434348D01*
X287992Y434217D01*
X288263Y433563D01*
X288263Y430037D01*
X286913Y426780D01*
X284420Y424287D01*
X281163Y422937D01*
X277637Y422937D01*
G37*
%LPD*%
%LPC*%
G36*
X272470Y331144D02*
X272470Y331144D01*
X269494Y334120D01*
X269494Y343132D01*
X269480Y343222D01*
X269472Y343313D01*
X269460Y343342D01*
X269455Y343374D01*
X269412Y343455D01*
X269376Y343539D01*
X269350Y343571D01*
X269339Y343592D01*
X269316Y343614D01*
X269271Y343670D01*
X268712Y344230D01*
X267362Y347487D01*
X267362Y351013D01*
X268712Y354270D01*
X271205Y356763D01*
X274462Y358113D01*
X277988Y358113D01*
X281245Y356763D01*
X283738Y354270D01*
X285088Y351013D01*
X285088Y347487D01*
X284817Y346833D01*
X284790Y346720D01*
X284762Y346606D01*
X284762Y346600D01*
X284761Y346594D01*
X284772Y346477D01*
X284781Y346361D01*
X284783Y346355D01*
X284784Y346349D01*
X284831Y346241D01*
X284877Y346134D01*
X284882Y346129D01*
X284884Y346124D01*
X284896Y346110D01*
X284982Y346003D01*
X285656Y345330D01*
X285656Y334120D01*
X282680Y331144D01*
X272470Y331144D01*
G37*
%LPD*%
D10*
X478282Y1090224D02*
X490926Y1086612D01*
X490926Y1095643D01*
X487313Y1092934D02*
X494538Y1092934D01*
D11*
X1702816Y204498D02*
X1709307Y204498D01*
X1709466Y204496D01*
X1709625Y204490D01*
X1709785Y204480D01*
X1709943Y204467D01*
X1710102Y204449D01*
X1710259Y204428D01*
X1710417Y204402D01*
X1710573Y204373D01*
X1710729Y204340D01*
X1710884Y204303D01*
X1711038Y204263D01*
X1711191Y204218D01*
X1711343Y204170D01*
X1711494Y204119D01*
X1711643Y204063D01*
X1711791Y204004D01*
X1711937Y203941D01*
X1712082Y203875D01*
X1712225Y203805D01*
X1712367Y203732D01*
X1712506Y203655D01*
X1712644Y203575D01*
X1712780Y203491D01*
X1712913Y203404D01*
X1713045Y203314D01*
X1713174Y203221D01*
X1713300Y203124D01*
X1713425Y203025D01*
X1713547Y202922D01*
X1713666Y202817D01*
X1713783Y202708D01*
X1713897Y202597D01*
X1714008Y202483D01*
X1714117Y202366D01*
X1714222Y202247D01*
X1714325Y202125D01*
X1714424Y202000D01*
X1714521Y201874D01*
X1714614Y201745D01*
X1714704Y201613D01*
X1714791Y201480D01*
X1714875Y201344D01*
X1714955Y201206D01*
X1715032Y201067D01*
X1715105Y200925D01*
X1715175Y200782D01*
X1715241Y200637D01*
X1715304Y200491D01*
X1715363Y200343D01*
X1715419Y200194D01*
X1715470Y200043D01*
X1715518Y199891D01*
X1715563Y199738D01*
X1715603Y199584D01*
X1715640Y199429D01*
X1715673Y199273D01*
X1715702Y199117D01*
X1715728Y198959D01*
X1715749Y198802D01*
X1715767Y198643D01*
X1715780Y198485D01*
X1715790Y198325D01*
X1715796Y198166D01*
X1715798Y198007D01*
X1715796Y197848D01*
X1715790Y197689D01*
X1715780Y197529D01*
X1715767Y197371D01*
X1715749Y197212D01*
X1715728Y197055D01*
X1715702Y196897D01*
X1715673Y196741D01*
X1715640Y196585D01*
X1715603Y196430D01*
X1715563Y196276D01*
X1715518Y196123D01*
X1715470Y195971D01*
X1715419Y195820D01*
X1715363Y195671D01*
X1715304Y195523D01*
X1715241Y195377D01*
X1715175Y195232D01*
X1715105Y195089D01*
X1715032Y194947D01*
X1714955Y194808D01*
X1714875Y194670D01*
X1714791Y194534D01*
X1714704Y194401D01*
X1714614Y194269D01*
X1714521Y194140D01*
X1714424Y194014D01*
X1714325Y193889D01*
X1714222Y193767D01*
X1714117Y193648D01*
X1714008Y193531D01*
X1713897Y193417D01*
X1713783Y193306D01*
X1713666Y193197D01*
X1713547Y193092D01*
X1713425Y192989D01*
X1713300Y192890D01*
X1713174Y192793D01*
X1713045Y192700D01*
X1712913Y192610D01*
X1712780Y192523D01*
X1712644Y192439D01*
X1712506Y192359D01*
X1712367Y192282D01*
X1712225Y192209D01*
X1712082Y192139D01*
X1711937Y192073D01*
X1711791Y192010D01*
X1711643Y191951D01*
X1711494Y191895D01*
X1711343Y191844D01*
X1711191Y191796D01*
X1711038Y191751D01*
X1710884Y191711D01*
X1710729Y191674D01*
X1710573Y191641D01*
X1710417Y191612D01*
X1710259Y191586D01*
X1710102Y191565D01*
X1709943Y191547D01*
X1709785Y191534D01*
X1709625Y191524D01*
X1709466Y191518D01*
X1709307Y191516D01*
X1702816Y191516D01*
X1702816Y214884D01*
X1709307Y214884D01*
X1709450Y214882D01*
X1709593Y214876D01*
X1709736Y214866D01*
X1709878Y214852D01*
X1710020Y214835D01*
X1710162Y214813D01*
X1710303Y214788D01*
X1710443Y214758D01*
X1710582Y214725D01*
X1710720Y214688D01*
X1710857Y214647D01*
X1710993Y214603D01*
X1711128Y214554D01*
X1711261Y214502D01*
X1711393Y214447D01*
X1711523Y214387D01*
X1711652Y214324D01*
X1711779Y214258D01*
X1711904Y214188D01*
X1712026Y214115D01*
X1712147Y214038D01*
X1712266Y213958D01*
X1712382Y213875D01*
X1712497Y213789D01*
X1712608Y213700D01*
X1712718Y213607D01*
X1712824Y213512D01*
X1712928Y213413D01*
X1713029Y213312D01*
X1713128Y213208D01*
X1713223Y213102D01*
X1713316Y212992D01*
X1713405Y212881D01*
X1713491Y212766D01*
X1713574Y212650D01*
X1713654Y212531D01*
X1713731Y212410D01*
X1713804Y212287D01*
X1713874Y212163D01*
X1713940Y212036D01*
X1714003Y211907D01*
X1714063Y211777D01*
X1714118Y211645D01*
X1714170Y211512D01*
X1714219Y211377D01*
X1714263Y211241D01*
X1714304Y211104D01*
X1714341Y210966D01*
X1714374Y210827D01*
X1714404Y210687D01*
X1714429Y210546D01*
X1714451Y210404D01*
X1714468Y210262D01*
X1714482Y210120D01*
X1714492Y209977D01*
X1714498Y209834D01*
X1714500Y209691D01*
X1714498Y209548D01*
X1714492Y209405D01*
X1714482Y209262D01*
X1714468Y209120D01*
X1714451Y208978D01*
X1714429Y208836D01*
X1714404Y208695D01*
X1714374Y208555D01*
X1714341Y208416D01*
X1714304Y208278D01*
X1714263Y208141D01*
X1714219Y208005D01*
X1714170Y207870D01*
X1714118Y207737D01*
X1714063Y207605D01*
X1714003Y207475D01*
X1713940Y207346D01*
X1713874Y207219D01*
X1713804Y207094D01*
X1713731Y206972D01*
X1713654Y206851D01*
X1713574Y206732D01*
X1713491Y206616D01*
X1713405Y206501D01*
X1713316Y206390D01*
X1713223Y206280D01*
X1713128Y206174D01*
X1713029Y206070D01*
X1712928Y205969D01*
X1712824Y205870D01*
X1712718Y205775D01*
X1712608Y205682D01*
X1712497Y205593D01*
X1712382Y205507D01*
X1712266Y205424D01*
X1712147Y205344D01*
X1712026Y205267D01*
X1711904Y205194D01*
X1711779Y205124D01*
X1711652Y205058D01*
X1711523Y204995D01*
X1711393Y204935D01*
X1711261Y204880D01*
X1711128Y204828D01*
X1710993Y204779D01*
X1710857Y204735D01*
X1710720Y204694D01*
X1710582Y204657D01*
X1710443Y204624D01*
X1710303Y204594D01*
X1710162Y204569D01*
X1710020Y204547D01*
X1709878Y204530D01*
X1709736Y204516D01*
X1709593Y204506D01*
X1709450Y204500D01*
X1709307Y204498D01*
X1722758Y201902D02*
X1722758Y196709D01*
X1722757Y201902D02*
X1722759Y202045D01*
X1722765Y202188D01*
X1722775Y202331D01*
X1722789Y202473D01*
X1722806Y202615D01*
X1722828Y202757D01*
X1722853Y202898D01*
X1722883Y203038D01*
X1722916Y203177D01*
X1722953Y203315D01*
X1722994Y203452D01*
X1723038Y203588D01*
X1723087Y203723D01*
X1723139Y203856D01*
X1723194Y203988D01*
X1723254Y204118D01*
X1723317Y204247D01*
X1723383Y204374D01*
X1723453Y204499D01*
X1723526Y204621D01*
X1723603Y204742D01*
X1723683Y204861D01*
X1723766Y204977D01*
X1723852Y205092D01*
X1723941Y205203D01*
X1724034Y205313D01*
X1724129Y205419D01*
X1724228Y205523D01*
X1724329Y205624D01*
X1724433Y205723D01*
X1724539Y205818D01*
X1724649Y205911D01*
X1724760Y206000D01*
X1724875Y206086D01*
X1724991Y206169D01*
X1725110Y206249D01*
X1725231Y206326D01*
X1725354Y206399D01*
X1725478Y206469D01*
X1725605Y206535D01*
X1725734Y206598D01*
X1725864Y206658D01*
X1725996Y206713D01*
X1726129Y206765D01*
X1726264Y206814D01*
X1726400Y206858D01*
X1726537Y206899D01*
X1726675Y206936D01*
X1726814Y206969D01*
X1726954Y206999D01*
X1727095Y207024D01*
X1727237Y207046D01*
X1727379Y207063D01*
X1727521Y207077D01*
X1727664Y207087D01*
X1727807Y207093D01*
X1727950Y207095D01*
X1728093Y207093D01*
X1728236Y207087D01*
X1728379Y207077D01*
X1728521Y207063D01*
X1728663Y207046D01*
X1728805Y207024D01*
X1728946Y206999D01*
X1729086Y206969D01*
X1729225Y206936D01*
X1729363Y206899D01*
X1729500Y206858D01*
X1729636Y206814D01*
X1729771Y206765D01*
X1729904Y206713D01*
X1730036Y206658D01*
X1730166Y206598D01*
X1730295Y206535D01*
X1730422Y206469D01*
X1730547Y206399D01*
X1730669Y206326D01*
X1730790Y206249D01*
X1730909Y206169D01*
X1731025Y206086D01*
X1731140Y206000D01*
X1731251Y205911D01*
X1731361Y205818D01*
X1731467Y205723D01*
X1731571Y205624D01*
X1731672Y205523D01*
X1731771Y205419D01*
X1731866Y205313D01*
X1731959Y205203D01*
X1732048Y205092D01*
X1732134Y204977D01*
X1732217Y204861D01*
X1732297Y204742D01*
X1732374Y204621D01*
X1732447Y204499D01*
X1732517Y204374D01*
X1732583Y204247D01*
X1732646Y204118D01*
X1732706Y203988D01*
X1732761Y203856D01*
X1732813Y203723D01*
X1732862Y203588D01*
X1732906Y203452D01*
X1732947Y203315D01*
X1732984Y203177D01*
X1733017Y203038D01*
X1733047Y202898D01*
X1733072Y202757D01*
X1733094Y202615D01*
X1733111Y202473D01*
X1733125Y202331D01*
X1733135Y202188D01*
X1733141Y202045D01*
X1733143Y201902D01*
X1733143Y196709D01*
X1733141Y196566D01*
X1733135Y196423D01*
X1733125Y196280D01*
X1733111Y196138D01*
X1733094Y195996D01*
X1733072Y195854D01*
X1733047Y195713D01*
X1733017Y195573D01*
X1732984Y195434D01*
X1732947Y195296D01*
X1732906Y195159D01*
X1732862Y195023D01*
X1732813Y194888D01*
X1732761Y194755D01*
X1732706Y194623D01*
X1732646Y194493D01*
X1732583Y194364D01*
X1732517Y194237D01*
X1732447Y194112D01*
X1732374Y193990D01*
X1732297Y193869D01*
X1732217Y193750D01*
X1732134Y193634D01*
X1732048Y193519D01*
X1731959Y193408D01*
X1731866Y193298D01*
X1731771Y193192D01*
X1731672Y193088D01*
X1731571Y192987D01*
X1731467Y192888D01*
X1731361Y192793D01*
X1731251Y192700D01*
X1731140Y192611D01*
X1731025Y192525D01*
X1730909Y192442D01*
X1730790Y192362D01*
X1730669Y192285D01*
X1730547Y192212D01*
X1730422Y192142D01*
X1730295Y192076D01*
X1730166Y192013D01*
X1730036Y191953D01*
X1729904Y191898D01*
X1729771Y191846D01*
X1729636Y191797D01*
X1729500Y191753D01*
X1729363Y191712D01*
X1729225Y191675D01*
X1729086Y191642D01*
X1728946Y191612D01*
X1728805Y191587D01*
X1728663Y191565D01*
X1728521Y191548D01*
X1728379Y191534D01*
X1728236Y191524D01*
X1728093Y191518D01*
X1727950Y191516D01*
X1727807Y191518D01*
X1727664Y191524D01*
X1727521Y191534D01*
X1727379Y191548D01*
X1727237Y191565D01*
X1727095Y191587D01*
X1726954Y191612D01*
X1726814Y191642D01*
X1726675Y191675D01*
X1726537Y191712D01*
X1726400Y191753D01*
X1726264Y191797D01*
X1726129Y191846D01*
X1725996Y191898D01*
X1725864Y191953D01*
X1725734Y192013D01*
X1725605Y192076D01*
X1725478Y192142D01*
X1725354Y192212D01*
X1725231Y192285D01*
X1725110Y192362D01*
X1724991Y192442D01*
X1724875Y192525D01*
X1724760Y192611D01*
X1724649Y192700D01*
X1724539Y192793D01*
X1724433Y192888D01*
X1724329Y192987D01*
X1724228Y193088D01*
X1724129Y193192D01*
X1724034Y193298D01*
X1723941Y193408D01*
X1723852Y193519D01*
X1723766Y193634D01*
X1723683Y193750D01*
X1723603Y193869D01*
X1723526Y193990D01*
X1723453Y194113D01*
X1723383Y194237D01*
X1723317Y194364D01*
X1723254Y194493D01*
X1723194Y194623D01*
X1723139Y194755D01*
X1723087Y194888D01*
X1723038Y195023D01*
X1722994Y195159D01*
X1722953Y195296D01*
X1722916Y195434D01*
X1722883Y195573D01*
X1722853Y195713D01*
X1722828Y195854D01*
X1722806Y195996D01*
X1722789Y196138D01*
X1722775Y196280D01*
X1722765Y196423D01*
X1722759Y196566D01*
X1722757Y196709D01*
X1739283Y207095D02*
X1747072Y207095D01*
X1741879Y214884D02*
X1741879Y195411D01*
X1741881Y195289D01*
X1741887Y195166D01*
X1741896Y195044D01*
X1741910Y194923D01*
X1741927Y194802D01*
X1741948Y194681D01*
X1741973Y194561D01*
X1742001Y194442D01*
X1742034Y194324D01*
X1742070Y194207D01*
X1742109Y194092D01*
X1742153Y193977D01*
X1742199Y193864D01*
X1742250Y193753D01*
X1742304Y193643D01*
X1742361Y193535D01*
X1742421Y193428D01*
X1742485Y193324D01*
X1742553Y193222D01*
X1742623Y193122D01*
X1742696Y193024D01*
X1742773Y192928D01*
X1742852Y192835D01*
X1742935Y192745D01*
X1743020Y192657D01*
X1743108Y192572D01*
X1743198Y192489D01*
X1743291Y192410D01*
X1743387Y192333D01*
X1743485Y192260D01*
X1743585Y192190D01*
X1743687Y192122D01*
X1743791Y192058D01*
X1743898Y191998D01*
X1744006Y191941D01*
X1744116Y191887D01*
X1744227Y191836D01*
X1744340Y191790D01*
X1744455Y191746D01*
X1744570Y191707D01*
X1744687Y191671D01*
X1744805Y191638D01*
X1744924Y191610D01*
X1745044Y191585D01*
X1745165Y191564D01*
X1745286Y191547D01*
X1745407Y191533D01*
X1745529Y191524D01*
X1745652Y191518D01*
X1745774Y191516D01*
X1747072Y191516D01*
X1752506Y207095D02*
X1760295Y207095D01*
X1755103Y214884D02*
X1755103Y195411D01*
X1755102Y195411D02*
X1755104Y195289D01*
X1755110Y195166D01*
X1755119Y195044D01*
X1755133Y194923D01*
X1755150Y194802D01*
X1755171Y194681D01*
X1755196Y194561D01*
X1755224Y194442D01*
X1755257Y194324D01*
X1755293Y194207D01*
X1755332Y194092D01*
X1755376Y193977D01*
X1755422Y193864D01*
X1755473Y193753D01*
X1755527Y193643D01*
X1755584Y193535D01*
X1755644Y193428D01*
X1755708Y193324D01*
X1755776Y193222D01*
X1755846Y193122D01*
X1755919Y193024D01*
X1755996Y192928D01*
X1756075Y192835D01*
X1756158Y192745D01*
X1756243Y192657D01*
X1756331Y192572D01*
X1756421Y192489D01*
X1756514Y192410D01*
X1756610Y192333D01*
X1756708Y192260D01*
X1756808Y192190D01*
X1756910Y192122D01*
X1757014Y192058D01*
X1757121Y191998D01*
X1757229Y191941D01*
X1757339Y191887D01*
X1757450Y191836D01*
X1757563Y191790D01*
X1757678Y191746D01*
X1757793Y191707D01*
X1757910Y191671D01*
X1758028Y191638D01*
X1758147Y191610D01*
X1758267Y191585D01*
X1758388Y191564D01*
X1758509Y191547D01*
X1758630Y191533D01*
X1758752Y191524D01*
X1758875Y191518D01*
X1758997Y191516D01*
X1760295Y191516D01*
X1767299Y196709D02*
X1767299Y201902D01*
X1767301Y202045D01*
X1767307Y202188D01*
X1767317Y202331D01*
X1767331Y202473D01*
X1767348Y202615D01*
X1767370Y202757D01*
X1767395Y202898D01*
X1767425Y203038D01*
X1767458Y203177D01*
X1767495Y203315D01*
X1767536Y203452D01*
X1767580Y203588D01*
X1767629Y203723D01*
X1767681Y203856D01*
X1767736Y203988D01*
X1767796Y204118D01*
X1767859Y204247D01*
X1767925Y204374D01*
X1767995Y204499D01*
X1768068Y204621D01*
X1768145Y204742D01*
X1768225Y204861D01*
X1768308Y204977D01*
X1768394Y205092D01*
X1768483Y205203D01*
X1768576Y205313D01*
X1768671Y205419D01*
X1768770Y205523D01*
X1768871Y205624D01*
X1768975Y205723D01*
X1769081Y205818D01*
X1769191Y205911D01*
X1769302Y206000D01*
X1769417Y206086D01*
X1769533Y206169D01*
X1769652Y206249D01*
X1769773Y206326D01*
X1769896Y206399D01*
X1770020Y206469D01*
X1770147Y206535D01*
X1770276Y206598D01*
X1770406Y206658D01*
X1770538Y206713D01*
X1770671Y206765D01*
X1770806Y206814D01*
X1770942Y206858D01*
X1771079Y206899D01*
X1771217Y206936D01*
X1771356Y206969D01*
X1771496Y206999D01*
X1771637Y207024D01*
X1771779Y207046D01*
X1771921Y207063D01*
X1772063Y207077D01*
X1772206Y207087D01*
X1772349Y207093D01*
X1772492Y207095D01*
X1772635Y207093D01*
X1772778Y207087D01*
X1772921Y207077D01*
X1773063Y207063D01*
X1773205Y207046D01*
X1773347Y207024D01*
X1773488Y206999D01*
X1773628Y206969D01*
X1773767Y206936D01*
X1773905Y206899D01*
X1774042Y206858D01*
X1774178Y206814D01*
X1774313Y206765D01*
X1774446Y206713D01*
X1774578Y206658D01*
X1774708Y206598D01*
X1774837Y206535D01*
X1774964Y206469D01*
X1775089Y206399D01*
X1775211Y206326D01*
X1775332Y206249D01*
X1775451Y206169D01*
X1775567Y206086D01*
X1775682Y206000D01*
X1775793Y205911D01*
X1775903Y205818D01*
X1776009Y205723D01*
X1776113Y205624D01*
X1776214Y205523D01*
X1776313Y205419D01*
X1776408Y205313D01*
X1776501Y205203D01*
X1776590Y205092D01*
X1776676Y204977D01*
X1776759Y204861D01*
X1776839Y204742D01*
X1776916Y204621D01*
X1776989Y204499D01*
X1777059Y204374D01*
X1777125Y204247D01*
X1777188Y204118D01*
X1777248Y203988D01*
X1777303Y203856D01*
X1777355Y203723D01*
X1777404Y203588D01*
X1777448Y203452D01*
X1777489Y203315D01*
X1777526Y203177D01*
X1777559Y203038D01*
X1777589Y202898D01*
X1777614Y202757D01*
X1777636Y202615D01*
X1777653Y202473D01*
X1777667Y202331D01*
X1777677Y202188D01*
X1777683Y202045D01*
X1777685Y201902D01*
X1777685Y196709D01*
X1777683Y196566D01*
X1777677Y196423D01*
X1777667Y196280D01*
X1777653Y196138D01*
X1777636Y195996D01*
X1777614Y195854D01*
X1777589Y195713D01*
X1777559Y195573D01*
X1777526Y195434D01*
X1777489Y195296D01*
X1777448Y195159D01*
X1777404Y195023D01*
X1777355Y194888D01*
X1777303Y194755D01*
X1777248Y194623D01*
X1777188Y194493D01*
X1777125Y194364D01*
X1777059Y194237D01*
X1776989Y194112D01*
X1776916Y193990D01*
X1776839Y193869D01*
X1776759Y193750D01*
X1776676Y193634D01*
X1776590Y193519D01*
X1776501Y193408D01*
X1776408Y193298D01*
X1776313Y193192D01*
X1776214Y193088D01*
X1776113Y192987D01*
X1776009Y192888D01*
X1775903Y192793D01*
X1775793Y192700D01*
X1775682Y192611D01*
X1775567Y192525D01*
X1775451Y192442D01*
X1775332Y192362D01*
X1775211Y192285D01*
X1775089Y192212D01*
X1774964Y192142D01*
X1774837Y192076D01*
X1774708Y192013D01*
X1774578Y191953D01*
X1774446Y191898D01*
X1774313Y191846D01*
X1774178Y191797D01*
X1774042Y191753D01*
X1773905Y191712D01*
X1773767Y191675D01*
X1773628Y191642D01*
X1773488Y191612D01*
X1773347Y191587D01*
X1773205Y191565D01*
X1773063Y191548D01*
X1772921Y191534D01*
X1772778Y191524D01*
X1772635Y191518D01*
X1772492Y191516D01*
X1772349Y191518D01*
X1772206Y191524D01*
X1772063Y191534D01*
X1771921Y191548D01*
X1771779Y191565D01*
X1771637Y191587D01*
X1771496Y191612D01*
X1771356Y191642D01*
X1771217Y191675D01*
X1771079Y191712D01*
X1770942Y191753D01*
X1770806Y191797D01*
X1770671Y191846D01*
X1770538Y191898D01*
X1770406Y191953D01*
X1770276Y192013D01*
X1770147Y192076D01*
X1770020Y192142D01*
X1769896Y192212D01*
X1769773Y192285D01*
X1769652Y192362D01*
X1769533Y192442D01*
X1769417Y192525D01*
X1769302Y192611D01*
X1769191Y192700D01*
X1769081Y192793D01*
X1768975Y192888D01*
X1768871Y192987D01*
X1768770Y193088D01*
X1768671Y193192D01*
X1768576Y193298D01*
X1768483Y193408D01*
X1768394Y193519D01*
X1768308Y193634D01*
X1768225Y193750D01*
X1768145Y193869D01*
X1768068Y193990D01*
X1767995Y194113D01*
X1767925Y194237D01*
X1767859Y194364D01*
X1767796Y194493D01*
X1767736Y194623D01*
X1767681Y194755D01*
X1767629Y194888D01*
X1767580Y195023D01*
X1767536Y195159D01*
X1767495Y195296D01*
X1767458Y195434D01*
X1767425Y195573D01*
X1767395Y195713D01*
X1767370Y195854D01*
X1767348Y195996D01*
X1767331Y196138D01*
X1767317Y196280D01*
X1767307Y196423D01*
X1767301Y196566D01*
X1767299Y196709D01*
X1786277Y191516D02*
X1786277Y207095D01*
X1797961Y207095D01*
X1798083Y207093D01*
X1798206Y207087D01*
X1798328Y207078D01*
X1798449Y207064D01*
X1798570Y207047D01*
X1798691Y207026D01*
X1798811Y207001D01*
X1798930Y206973D01*
X1799048Y206940D01*
X1799165Y206904D01*
X1799280Y206865D01*
X1799395Y206821D01*
X1799508Y206775D01*
X1799619Y206724D01*
X1799729Y206670D01*
X1799837Y206613D01*
X1799944Y206553D01*
X1800048Y206489D01*
X1800150Y206421D01*
X1800250Y206351D01*
X1800348Y206278D01*
X1800444Y206201D01*
X1800537Y206122D01*
X1800627Y206039D01*
X1800715Y205954D01*
X1800800Y205866D01*
X1800883Y205776D01*
X1800962Y205683D01*
X1801039Y205587D01*
X1801112Y205489D01*
X1801182Y205389D01*
X1801250Y205287D01*
X1801314Y205183D01*
X1801374Y205076D01*
X1801431Y204968D01*
X1801485Y204858D01*
X1801536Y204747D01*
X1801582Y204634D01*
X1801626Y204519D01*
X1801665Y204404D01*
X1801701Y204287D01*
X1801734Y204169D01*
X1801762Y204050D01*
X1801787Y203930D01*
X1801808Y203809D01*
X1801825Y203688D01*
X1801839Y203567D01*
X1801848Y203445D01*
X1801854Y203322D01*
X1801856Y203200D01*
X1801856Y191516D01*
X1794066Y191516D02*
X1794066Y207095D01*
D12*
X280750Y441325D03*
X290750Y441325D03*
D13*
X250825Y401875D03*
X250825Y391875D03*
X250825Y370125D03*
X250825Y360125D03*
D12*
X277575Y339725D03*
X287575Y339725D03*
X309325Y339725D03*
X319325Y339725D03*
X347425Y441325D03*
X357425Y441325D03*
D14*
X142125Y1044100D02*
X142125Y1064100D01*
X81125Y1064100D02*
X81125Y1044100D01*
X101125Y1006100D02*
X121125Y1006100D01*
D15*
X87150Y875775D03*
X87150Y730775D03*
X38150Y724775D03*
X38150Y881775D03*
X87150Y678925D03*
X87150Y533925D03*
X38150Y527925D03*
X38150Y684925D03*
X87150Y478900D03*
X87150Y333900D03*
X38150Y327900D03*
X38150Y484900D03*
X87150Y174100D03*
X87150Y29100D03*
X38150Y23100D03*
X38150Y180100D03*
D12*
X210900Y352425D03*
X220900Y352425D03*
D16*
X1292225Y1025500D03*
X1292225Y1006500D03*
D13*
X241300Y426800D03*
X241300Y436800D03*
D12*
X332025Y374650D03*
X322025Y374650D03*
X325200Y441325D03*
X335200Y441325D03*
X319325Y320675D03*
X309325Y320675D03*
X319325Y330200D03*
X309325Y330200D03*
D17*
X1143025Y1092200D03*
X1162025Y1092200D03*
D16*
X1063625Y1025500D03*
X1063625Y1006500D03*
X1177925Y1025500D03*
X1177925Y1006500D03*
D18*
X1181354Y1092200D02*
X1193546Y1092200D01*
X1257554Y1092200D02*
X1269746Y1092200D01*
D19*
X1362350Y1058000D03*
X1362350Y974000D03*
X1339850Y974000D03*
X1317350Y974000D03*
X1317350Y1058000D03*
X1248050Y1058000D03*
X1248050Y974000D03*
X1225550Y974000D03*
X1203050Y974000D03*
X1203050Y1058000D03*
X1133750Y1058000D03*
X1133750Y974000D03*
X1111250Y974000D03*
X1088750Y974000D03*
X1088750Y1058000D03*
D20*
X406400Y76200D03*
X76200Y266700D03*
X406400Y1066800D03*
X76200Y939800D03*
X1435100Y1079500D03*
X1016000Y1079500D03*
D13*
X352425Y388700D03*
X352425Y398700D03*
D21*
X114300Y450850D03*
D10*
X117475Y447675D02*
X257175Y447675D01*
X117475Y447675D02*
X114300Y450850D01*
D21*
X257175Y447675D03*
X114300Y650875D03*
D10*
X117475Y650875D01*
X165100Y603250D02*
X241300Y603250D01*
X339725Y504825D01*
X339725Y460375D01*
D21*
X339725Y460375D03*
D10*
X165100Y603250D02*
X117475Y650875D01*
D21*
X114300Y847725D03*
D10*
X390525Y571500D01*
X378786Y356561D02*
X342900Y356561D01*
D21*
X342900Y356561D03*
D10*
X390525Y368300D02*
X390525Y571500D01*
X390525Y368300D02*
X378786Y356561D01*
D21*
X114300Y146050D03*
D10*
X117475Y149225D01*
X304800Y149225D02*
X327025Y171450D01*
X304800Y149225D02*
X117475Y149225D01*
D21*
X327025Y304800D03*
D10*
X327025Y171450D01*
D21*
X114300Y432254D03*
D10*
X114754Y431800D01*
X225425Y431800D01*
D21*
X225425Y431800D03*
X79375Y428625D03*
D10*
X225578Y422428D02*
X231928Y422428D01*
X225578Y422428D02*
X222555Y425450D01*
X82550Y425450D01*
X79375Y428625D01*
D21*
X231928Y422428D03*
D10*
X235103Y425603D02*
X240103Y425603D01*
X235103Y425603D02*
X231928Y422428D01*
X240103Y425603D02*
X241300Y426800D01*
D21*
X114300Y632279D03*
D10*
X152219Y594360D01*
X234696Y594360D01*
X329184Y499872D01*
X329184Y461772D01*
D21*
X329184Y461772D03*
X79375Y628650D03*
D10*
X325200Y441325D02*
X325200Y433150D01*
X323850Y431800D01*
D21*
X323850Y431800D03*
D10*
X104394Y628650D02*
X79375Y628650D01*
X316056Y499284D02*
X316056Y450469D01*
X325200Y441325D01*
X146304Y586740D02*
X104394Y628650D01*
X146304Y586740D02*
X228600Y586740D01*
X316056Y499284D01*
D21*
X79375Y825500D03*
X342900Y374650D03*
D10*
X95250Y825500D02*
X79375Y825500D01*
X371475Y549275D02*
X371475Y381000D01*
X365125Y374650D01*
X371475Y549275D02*
X95250Y825500D01*
X332025Y374650D02*
X342900Y374650D01*
X365125Y374650D01*
D21*
X114300Y829129D03*
D10*
X381000Y562429D01*
X381000Y377825D02*
X371475Y368300D01*
D21*
X339725Y365125D03*
D10*
X381000Y377825D02*
X381000Y562429D01*
X371475Y368300D02*
X342900Y368300D01*
X339725Y365125D01*
D21*
X130175Y123825D03*
D10*
X304800Y123825D01*
X339725Y158750D02*
X339725Y311150D01*
D21*
X339725Y311150D03*
D10*
X339725Y158750D02*
X304800Y123825D01*
X339725Y311150D02*
X339725Y320675D01*
X330200Y330200D02*
X319325Y330200D01*
X330200Y330200D02*
X339725Y320675D01*
D21*
X114300Y120650D03*
D10*
X117475Y120650D01*
X304800Y136525D02*
X333375Y165100D01*
X333375Y311739D02*
X328907Y316207D01*
X333375Y311739D02*
X333375Y165100D01*
D21*
X328907Y316207D03*
D10*
X133350Y136525D02*
X117475Y120650D01*
X133350Y136525D02*
X304800Y136525D01*
X319325Y320675D02*
X324439Y320675D01*
X328907Y316207D01*
D21*
X120650Y133350D03*
X114300Y104775D03*
X114300Y88900D03*
X114300Y76200D03*
X114300Y60325D03*
X79353Y409553D03*
X79375Y393700D03*
X79153Y378047D03*
X79078Y364828D03*
X79375Y437643D03*
X79353Y609578D03*
X79375Y593725D03*
X79153Y578072D03*
X79078Y564853D03*
X79375Y637668D03*
X79353Y806428D03*
X79375Y790575D03*
X79153Y774922D03*
X79078Y761703D03*
X79375Y834518D03*
X203200Y1114425D03*
X203200Y1127125D03*
X222250Y1089025D03*
X222250Y1108075D03*
X212725Y1060450D03*
X193675Y1060450D03*
X184150Y1079500D03*
X171450Y1079500D03*
X1108075Y1047750D03*
X1120775Y1047750D03*
X1130300Y1031875D03*
X63500Y1054100D03*
X63500Y1069975D03*
X73025Y1079500D03*
X88900Y1079500D03*
X98425Y1069975D03*
X98425Y1054100D03*
X98425Y1038225D03*
X88900Y1028700D03*
X73025Y1028700D03*
X63500Y1038225D03*
D10*
X290750Y441325D02*
X290750Y433150D01*
X292100Y431800D01*
D21*
X292100Y431800D03*
D10*
X259000Y391875D02*
X250825Y391875D01*
X259000Y391875D02*
X260350Y390525D01*
D21*
X260350Y390525D03*
D10*
X250825Y360125D02*
X252175Y358775D01*
X260350Y358775D01*
D21*
X260350Y358775D03*
D10*
X287575Y347900D02*
X287575Y339725D01*
X287575Y347900D02*
X288925Y349250D01*
D21*
X288925Y349250D03*
D10*
X319325Y347425D02*
X319325Y339725D01*
X319325Y347425D02*
X317500Y349250D01*
D21*
X317500Y349250D03*
D10*
X344250Y398700D02*
X352425Y398700D01*
X344250Y398700D02*
X342900Y400050D01*
D21*
X342900Y400050D03*
X260350Y415925D03*
D10*
X210900Y352425D02*
X200025Y352425D01*
D21*
X200025Y352425D03*
D10*
X357425Y441325D02*
X357425Y449500D01*
X358775Y450850D01*
D21*
X358775Y450850D03*
X241300Y1108075D03*
X266700Y1089025D03*
X279400Y1089025D03*
X292100Y1089025D03*
X304800Y1089025D03*
X317500Y1089025D03*
X317500Y1076325D03*
X317500Y1063625D03*
X317500Y1050925D03*
X317500Y1038225D03*
X317500Y1025525D03*
X317500Y1012825D03*
X304800Y1012825D03*
X292100Y1012825D03*
X279400Y1012825D03*
X266700Y1012825D03*
X254000Y1012825D03*
X241300Y1012825D03*
X241300Y1025525D03*
X241300Y1038225D03*
X241300Y1050925D03*
X241300Y1063625D03*
X241300Y1076325D03*
X260350Y1114425D03*
X260350Y1127125D03*
X254000Y1089025D03*
X241300Y1089025D03*
D22*
X1063600Y1006475D02*
X1063625Y1006500D01*
X1063600Y1006475D02*
X1050925Y1006475D01*
D21*
X1050925Y1006475D03*
X1165225Y1006475D03*
X1279525Y1006475D03*
D22*
X1165250Y1006500D02*
X1165225Y1006475D01*
X1165250Y1006500D02*
X1177925Y1006500D01*
X1279525Y1006475D02*
X1279550Y1006500D01*
X1292225Y1006500D01*
D21*
X1120775Y990600D03*
X1108075Y990600D03*
X1130300Y1000125D03*
X279400Y431800D03*
D10*
X279400Y439975D01*
X280750Y441325D01*
X259462Y401875D02*
X250825Y401875D01*
X259462Y401875D02*
X260612Y403025D01*
D21*
X260612Y403025D03*
D10*
X259000Y370125D02*
X250825Y370125D01*
X259000Y370125D02*
X260350Y371475D01*
D21*
X260350Y371475D03*
D10*
X276225Y341075D02*
X277575Y339725D01*
X276225Y341075D02*
X276225Y349250D01*
D21*
X276225Y349250D03*
D10*
X309325Y344725D02*
X309325Y339725D01*
X309325Y344725D02*
X304800Y349250D01*
D21*
X304800Y349250D03*
D10*
X351075Y387350D02*
X352425Y388700D01*
X351075Y387350D02*
X342900Y387350D01*
D21*
X342900Y387350D03*
X307975Y431800D03*
X342900Y419100D03*
X231775Y352425D03*
D10*
X220900Y352425D01*
D21*
X450850Y247650D03*
X1225550Y1022350D03*
X441325Y231775D03*
X1231900Y1012825D03*
X460081Y263231D03*
D22*
X1162025Y1092200D02*
X1187450Y1092200D01*
D21*
X1219200Y1031875D03*
X120650Y114300D03*
X79375Y419100D03*
X79375Y619125D03*
X79375Y815975D03*
D10*
X69850Y806450D01*
X69850Y628650D01*
X79375Y619125D01*
X69850Y428625D02*
X79375Y419100D01*
X69850Y609600D02*
X79375Y619125D01*
X69850Y609600D02*
X69850Y428625D01*
X79375Y419100D02*
X69850Y409575D01*
X69850Y328426D01*
X69850Y130175D02*
X85725Y114300D01*
X28448Y246376D02*
X28448Y287024D01*
X69850Y328426D01*
X69850Y204974D02*
X69850Y130175D01*
X69850Y204974D02*
X28448Y246376D01*
X85725Y114300D02*
X120650Y114300D01*
D21*
X1079500Y1044575D03*
X1193800Y1044575D03*
X1308100Y1044575D03*
X123825Y142875D03*
X114300Y441325D03*
X114300Y641350D03*
X114300Y838200D03*
X212725Y1041400D03*
X193675Y1041400D03*
X184150Y1022350D03*
X171450Y1022350D03*
X127000Y1076325D03*
X127000Y1060450D03*
X127000Y1044575D03*
X127000Y1028700D03*
X142875Y1028700D03*
X158750Y1028700D03*
X158750Y1044575D03*
X155575Y1076325D03*
D10*
X233125Y436800D02*
X241300Y436800D01*
X233125Y436800D02*
X231775Y438150D01*
D21*
X231775Y438150D03*
X345821Y452628D03*
D10*
X335200Y441325D02*
X335200Y433150D01*
X336550Y431800D01*
D21*
X336550Y431800D03*
D10*
X347425Y451024D02*
X345821Y452628D01*
X347425Y451024D02*
X347425Y441325D01*
D21*
X320675Y384175D03*
X320675Y365125D03*
D10*
X322025Y366475D02*
X322025Y374650D01*
X322025Y366475D02*
X320675Y365125D01*
X322025Y382825D02*
X320675Y384175D01*
X322025Y382825D02*
X322025Y374650D01*
M02*
