G04 EAGLE Gerber RS-274X export*
G75*
%MOMM*%
%FSLAX34Y34*%
%LPD*%
%INFlex Layer 1*%
%IPPOS*%
%AMOC8*
5,1,8,0,0,1.08239X$1,22.5*%
G01*
%ADD10C,0.152400*%
%ADD11C,0.203200*%
%ADD12C,1.500000*%
%ADD13C,1.950000*%
%ADD14C,1.219200*%
%ADD15C,4.016000*%
%ADD16C,0.756400*%

G36*
X488970Y5084D02*
X488970Y5084D01*
X488989Y5082D01*
X489091Y5104D01*
X489193Y5120D01*
X489210Y5130D01*
X489230Y5134D01*
X489319Y5187D01*
X489410Y5236D01*
X489424Y5250D01*
X489441Y5260D01*
X489508Y5339D01*
X489580Y5414D01*
X489588Y5432D01*
X489601Y5447D01*
X489640Y5543D01*
X489683Y5637D01*
X489685Y5657D01*
X489693Y5675D01*
X489711Y5842D01*
X489711Y456439D01*
X495808Y456439D01*
X495828Y456442D01*
X495847Y456440D01*
X495949Y456462D01*
X496051Y456478D01*
X496068Y456488D01*
X496088Y456492D01*
X496177Y456545D01*
X496268Y456594D01*
X496282Y456608D01*
X496299Y456618D01*
X496366Y456697D01*
X496438Y456772D01*
X496446Y456790D01*
X496459Y456805D01*
X496498Y456901D01*
X496541Y456995D01*
X496543Y457015D01*
X496551Y457033D01*
X496569Y457200D01*
X496569Y1020826D01*
X496566Y1020846D01*
X496568Y1020865D01*
X496546Y1020967D01*
X496530Y1021069D01*
X496520Y1021086D01*
X496516Y1021106D01*
X496463Y1021195D01*
X496414Y1021286D01*
X496400Y1021300D01*
X496390Y1021317D01*
X496311Y1021384D01*
X496236Y1021456D01*
X496218Y1021464D01*
X496203Y1021477D01*
X496107Y1021516D01*
X496013Y1021559D01*
X495993Y1021561D01*
X495975Y1021569D01*
X495808Y1021587D01*
X469584Y1021587D01*
X469137Y1022034D01*
X469137Y1098866D01*
X469584Y1099313D01*
X495808Y1099313D01*
X495828Y1099316D01*
X495847Y1099314D01*
X495949Y1099336D01*
X496051Y1099352D01*
X496068Y1099362D01*
X496088Y1099366D01*
X496177Y1099419D01*
X496268Y1099468D01*
X496282Y1099482D01*
X496299Y1099492D01*
X496366Y1099571D01*
X496438Y1099646D01*
X496446Y1099664D01*
X496459Y1099679D01*
X496498Y1099775D01*
X496541Y1099869D01*
X496543Y1099889D01*
X496551Y1099907D01*
X496569Y1100074D01*
X496569Y1137158D01*
X496566Y1137178D01*
X496568Y1137197D01*
X496546Y1137299D01*
X496530Y1137401D01*
X496520Y1137418D01*
X496516Y1137438D01*
X496463Y1137527D01*
X496414Y1137618D01*
X496400Y1137632D01*
X496390Y1137649D01*
X496311Y1137716D01*
X496236Y1137788D01*
X496218Y1137796D01*
X496203Y1137809D01*
X496107Y1137848D01*
X496013Y1137891D01*
X495993Y1137893D01*
X495975Y1137901D01*
X495808Y1137919D01*
X5842Y1137919D01*
X5822Y1137916D01*
X5803Y1137918D01*
X5701Y1137896D01*
X5599Y1137880D01*
X5582Y1137870D01*
X5562Y1137866D01*
X5473Y1137813D01*
X5382Y1137764D01*
X5368Y1137750D01*
X5351Y1137740D01*
X5284Y1137661D01*
X5212Y1137586D01*
X5204Y1137568D01*
X5191Y1137553D01*
X5152Y1137457D01*
X5109Y1137363D01*
X5107Y1137343D01*
X5099Y1137325D01*
X5081Y1137158D01*
X5081Y5842D01*
X5084Y5822D01*
X5082Y5803D01*
X5104Y5701D01*
X5120Y5599D01*
X5130Y5582D01*
X5134Y5562D01*
X5187Y5473D01*
X5236Y5382D01*
X5250Y5368D01*
X5260Y5351D01*
X5339Y5284D01*
X5414Y5212D01*
X5432Y5204D01*
X5447Y5191D01*
X5543Y5152D01*
X5637Y5109D01*
X5657Y5107D01*
X5675Y5099D01*
X5842Y5081D01*
X488950Y5081D01*
X488970Y5084D01*
G37*
G36*
X1492778Y951361D02*
X1492778Y951361D01*
X1492797Y951359D01*
X1492899Y951381D01*
X1493001Y951398D01*
X1493018Y951407D01*
X1493038Y951411D01*
X1493127Y951464D01*
X1493218Y951513D01*
X1493232Y951527D01*
X1493249Y951537D01*
X1493316Y951616D01*
X1493388Y951691D01*
X1493396Y951709D01*
X1493409Y951724D01*
X1493448Y951820D01*
X1493491Y951914D01*
X1493493Y951934D01*
X1493501Y951952D01*
X1493519Y952119D01*
X1493519Y1137158D01*
X1493516Y1137178D01*
X1493518Y1137197D01*
X1493496Y1137299D01*
X1493480Y1137401D01*
X1493470Y1137418D01*
X1493466Y1137438D01*
X1493413Y1137527D01*
X1493364Y1137618D01*
X1493350Y1137632D01*
X1493340Y1137649D01*
X1493261Y1137716D01*
X1493186Y1137788D01*
X1493168Y1137796D01*
X1493153Y1137809D01*
X1493057Y1137848D01*
X1492963Y1137891D01*
X1492943Y1137893D01*
X1492925Y1137901D01*
X1492758Y1137919D01*
X958342Y1137919D01*
X958322Y1137916D01*
X958303Y1137918D01*
X958201Y1137896D01*
X958099Y1137880D01*
X958082Y1137870D01*
X958062Y1137866D01*
X957973Y1137813D01*
X957882Y1137764D01*
X957868Y1137750D01*
X957851Y1137740D01*
X957784Y1137661D01*
X957712Y1137586D01*
X957704Y1137568D01*
X957691Y1137553D01*
X957652Y1137457D01*
X957609Y1137363D01*
X957607Y1137343D01*
X957599Y1137325D01*
X957581Y1137158D01*
X957581Y952119D01*
X957584Y952099D01*
X957582Y952080D01*
X957604Y951978D01*
X957620Y951876D01*
X957630Y951859D01*
X957634Y951839D01*
X957687Y951750D01*
X957736Y951659D01*
X957750Y951645D01*
X957760Y951628D01*
X957839Y951561D01*
X957914Y951490D01*
X957932Y951481D01*
X957947Y951468D01*
X958043Y951429D01*
X958137Y951386D01*
X958157Y951384D01*
X958175Y951376D01*
X958342Y951358D01*
X1492758Y951358D01*
X1492778Y951361D01*
G37*
%LPC*%
G36*
X239537Y1003962D02*
X239537Y1003962D01*
X236280Y1005312D01*
X233787Y1007805D01*
X232437Y1011062D01*
X232437Y1014588D01*
X233787Y1017845D01*
X234578Y1018637D01*
X234590Y1018653D01*
X234605Y1018665D01*
X234661Y1018753D01*
X234721Y1018836D01*
X234727Y1018855D01*
X234738Y1018872D01*
X234763Y1018973D01*
X234794Y1019072D01*
X234793Y1019091D01*
X234798Y1019111D01*
X234790Y1019214D01*
X234787Y1019317D01*
X234781Y1019336D01*
X234779Y1019356D01*
X234739Y1019451D01*
X234703Y1019548D01*
X234690Y1019564D01*
X234683Y1019582D01*
X234578Y1019713D01*
X233787Y1020505D01*
X232437Y1023762D01*
X232437Y1027288D01*
X233787Y1030545D01*
X234578Y1031337D01*
X234590Y1031353D01*
X234605Y1031365D01*
X234661Y1031453D01*
X234721Y1031536D01*
X234727Y1031555D01*
X234738Y1031572D01*
X234763Y1031673D01*
X234794Y1031772D01*
X234793Y1031791D01*
X234798Y1031811D01*
X234790Y1031914D01*
X234787Y1032017D01*
X234781Y1032036D01*
X234779Y1032056D01*
X234739Y1032151D01*
X234703Y1032248D01*
X234690Y1032264D01*
X234683Y1032282D01*
X234578Y1032413D01*
X233787Y1033205D01*
X232437Y1036462D01*
X232437Y1039988D01*
X233787Y1043245D01*
X234578Y1044037D01*
X234590Y1044053D01*
X234605Y1044065D01*
X234661Y1044153D01*
X234721Y1044236D01*
X234727Y1044255D01*
X234738Y1044272D01*
X234763Y1044373D01*
X234794Y1044472D01*
X234793Y1044491D01*
X234798Y1044511D01*
X234790Y1044614D01*
X234787Y1044717D01*
X234781Y1044736D01*
X234779Y1044756D01*
X234739Y1044851D01*
X234703Y1044948D01*
X234690Y1044964D01*
X234683Y1044982D01*
X234578Y1045113D01*
X233787Y1045905D01*
X232437Y1049162D01*
X232437Y1052688D01*
X233787Y1055945D01*
X234578Y1056737D01*
X234590Y1056753D01*
X234605Y1056765D01*
X234661Y1056853D01*
X234721Y1056936D01*
X234727Y1056955D01*
X234738Y1056972D01*
X234763Y1057073D01*
X234794Y1057172D01*
X234793Y1057191D01*
X234798Y1057211D01*
X234790Y1057314D01*
X234787Y1057417D01*
X234781Y1057436D01*
X234779Y1057456D01*
X234739Y1057551D01*
X234703Y1057648D01*
X234690Y1057664D01*
X234683Y1057682D01*
X234578Y1057813D01*
X233787Y1058605D01*
X232437Y1061862D01*
X232437Y1065388D01*
X233787Y1068645D01*
X234578Y1069437D01*
X234590Y1069453D01*
X234605Y1069465D01*
X234661Y1069553D01*
X234721Y1069636D01*
X234727Y1069655D01*
X234738Y1069672D01*
X234763Y1069773D01*
X234794Y1069872D01*
X234793Y1069891D01*
X234798Y1069911D01*
X234790Y1070014D01*
X234787Y1070117D01*
X234781Y1070136D01*
X234779Y1070156D01*
X234739Y1070251D01*
X234703Y1070348D01*
X234690Y1070364D01*
X234683Y1070382D01*
X234578Y1070513D01*
X233787Y1071305D01*
X232437Y1074562D01*
X232437Y1078088D01*
X233787Y1081345D01*
X234578Y1082137D01*
X234590Y1082153D01*
X234605Y1082165D01*
X234661Y1082253D01*
X234721Y1082336D01*
X234727Y1082355D01*
X234738Y1082372D01*
X234763Y1082473D01*
X234794Y1082572D01*
X234793Y1082591D01*
X234798Y1082611D01*
X234790Y1082714D01*
X234787Y1082817D01*
X234781Y1082836D01*
X234779Y1082856D01*
X234739Y1082951D01*
X234703Y1083048D01*
X234690Y1083064D01*
X234683Y1083082D01*
X234578Y1083213D01*
X233787Y1084005D01*
X232437Y1087262D01*
X232437Y1090788D01*
X233787Y1094045D01*
X236280Y1096538D01*
X239438Y1097847D01*
X239499Y1097885D01*
X239564Y1097914D01*
X239603Y1097949D01*
X239647Y1097976D01*
X239693Y1098032D01*
X239746Y1098080D01*
X239771Y1098126D01*
X239804Y1098166D01*
X239830Y1098233D01*
X239864Y1098296D01*
X239873Y1098347D01*
X239892Y1098395D01*
X239895Y1098467D01*
X239908Y1098538D01*
X239900Y1098589D01*
X239903Y1098641D01*
X239883Y1098710D01*
X239872Y1098781D01*
X239848Y1098827D01*
X239834Y1098877D01*
X239793Y1098936D01*
X239761Y1099000D01*
X239723Y1099037D01*
X239694Y1099079D01*
X239636Y1099122D01*
X239585Y1099172D01*
X239522Y1099207D01*
X239496Y1099226D01*
X239474Y1099233D01*
X239438Y1099253D01*
X236280Y1100562D01*
X233787Y1103055D01*
X232437Y1106312D01*
X232437Y1109838D01*
X233787Y1113095D01*
X236280Y1115588D01*
X239537Y1116938D01*
X243063Y1116938D01*
X246320Y1115588D01*
X248813Y1113095D01*
X250163Y1109838D01*
X250163Y1106312D01*
X248813Y1103055D01*
X246320Y1100562D01*
X243162Y1099253D01*
X243101Y1099215D01*
X243036Y1099186D01*
X242997Y1099151D01*
X242953Y1099124D01*
X242907Y1099068D01*
X242854Y1099020D01*
X242829Y1098974D01*
X242796Y1098934D01*
X242770Y1098867D01*
X242736Y1098804D01*
X242727Y1098753D01*
X242708Y1098705D01*
X242705Y1098633D01*
X242692Y1098562D01*
X242700Y1098511D01*
X242697Y1098459D01*
X242717Y1098390D01*
X242728Y1098319D01*
X242752Y1098273D01*
X242766Y1098223D01*
X242807Y1098164D01*
X242839Y1098100D01*
X242877Y1098063D01*
X242906Y1098021D01*
X242964Y1097978D01*
X243015Y1097928D01*
X243078Y1097893D01*
X243104Y1097874D01*
X243126Y1097867D01*
X243162Y1097847D01*
X246320Y1096538D01*
X247112Y1095747D01*
X247128Y1095735D01*
X247140Y1095720D01*
X247228Y1095664D01*
X247311Y1095604D01*
X247330Y1095598D01*
X247347Y1095587D01*
X247448Y1095562D01*
X247547Y1095531D01*
X247566Y1095532D01*
X247586Y1095527D01*
X247689Y1095535D01*
X247792Y1095538D01*
X247811Y1095544D01*
X247831Y1095546D01*
X247926Y1095586D01*
X248023Y1095622D01*
X248039Y1095634D01*
X248057Y1095642D01*
X248188Y1095747D01*
X248980Y1096538D01*
X252237Y1097888D01*
X255763Y1097888D01*
X259020Y1096538D01*
X259812Y1095747D01*
X259828Y1095735D01*
X259840Y1095720D01*
X259928Y1095664D01*
X260011Y1095604D01*
X260030Y1095598D01*
X260047Y1095587D01*
X260148Y1095562D01*
X260247Y1095531D01*
X260266Y1095532D01*
X260286Y1095527D01*
X260389Y1095535D01*
X260492Y1095538D01*
X260511Y1095544D01*
X260531Y1095546D01*
X260626Y1095586D01*
X260723Y1095622D01*
X260739Y1095634D01*
X260757Y1095642D01*
X260888Y1095747D01*
X261680Y1096538D01*
X264937Y1097888D01*
X268463Y1097888D01*
X271720Y1096538D01*
X272512Y1095747D01*
X272528Y1095735D01*
X272540Y1095720D01*
X272628Y1095664D01*
X272711Y1095604D01*
X272730Y1095598D01*
X272747Y1095587D01*
X272848Y1095562D01*
X272947Y1095531D01*
X272966Y1095532D01*
X272986Y1095527D01*
X273089Y1095535D01*
X273192Y1095538D01*
X273211Y1095544D01*
X273231Y1095546D01*
X273326Y1095586D01*
X273423Y1095622D01*
X273439Y1095635D01*
X273457Y1095642D01*
X273588Y1095747D01*
X274380Y1096538D01*
X277637Y1097888D01*
X281163Y1097888D01*
X284420Y1096538D01*
X285212Y1095747D01*
X285228Y1095735D01*
X285240Y1095720D01*
X285328Y1095664D01*
X285411Y1095604D01*
X285430Y1095598D01*
X285447Y1095587D01*
X285548Y1095562D01*
X285647Y1095531D01*
X285666Y1095532D01*
X285686Y1095527D01*
X285789Y1095535D01*
X285892Y1095538D01*
X285911Y1095544D01*
X285931Y1095546D01*
X286026Y1095586D01*
X286123Y1095622D01*
X286139Y1095635D01*
X286157Y1095642D01*
X286288Y1095747D01*
X287080Y1096538D01*
X290337Y1097888D01*
X293863Y1097888D01*
X297120Y1096538D01*
X297912Y1095747D01*
X297928Y1095735D01*
X297940Y1095720D01*
X298028Y1095664D01*
X298111Y1095604D01*
X298130Y1095598D01*
X298147Y1095587D01*
X298248Y1095562D01*
X298347Y1095531D01*
X298366Y1095532D01*
X298386Y1095527D01*
X298489Y1095535D01*
X298592Y1095538D01*
X298611Y1095544D01*
X298631Y1095546D01*
X298726Y1095586D01*
X298823Y1095622D01*
X298839Y1095635D01*
X298857Y1095642D01*
X298988Y1095747D01*
X299780Y1096538D01*
X303037Y1097888D01*
X306563Y1097888D01*
X309820Y1096538D01*
X310612Y1095747D01*
X310628Y1095735D01*
X310640Y1095720D01*
X310728Y1095664D01*
X310811Y1095604D01*
X310830Y1095598D01*
X310847Y1095587D01*
X310948Y1095562D01*
X311047Y1095531D01*
X311066Y1095532D01*
X311086Y1095527D01*
X311189Y1095535D01*
X311292Y1095538D01*
X311311Y1095544D01*
X311331Y1095546D01*
X311426Y1095586D01*
X311523Y1095622D01*
X311539Y1095635D01*
X311557Y1095642D01*
X311688Y1095747D01*
X312480Y1096538D01*
X315737Y1097888D01*
X319263Y1097888D01*
X322520Y1096538D01*
X325013Y1094045D01*
X326363Y1090788D01*
X326363Y1087262D01*
X325013Y1084005D01*
X324222Y1083213D01*
X324210Y1083197D01*
X324195Y1083185D01*
X324139Y1083097D01*
X324079Y1083014D01*
X324073Y1082995D01*
X324062Y1082978D01*
X324037Y1082877D01*
X324006Y1082778D01*
X324007Y1082759D01*
X324002Y1082739D01*
X324010Y1082636D01*
X324013Y1082533D01*
X324019Y1082514D01*
X324021Y1082494D01*
X324061Y1082399D01*
X324097Y1082302D01*
X324110Y1082286D01*
X324117Y1082268D01*
X324222Y1082137D01*
X325013Y1081345D01*
X326363Y1078088D01*
X326363Y1074562D01*
X325013Y1071305D01*
X324222Y1070513D01*
X324210Y1070497D01*
X324195Y1070485D01*
X324139Y1070397D01*
X324079Y1070314D01*
X324073Y1070295D01*
X324062Y1070278D01*
X324037Y1070177D01*
X324006Y1070078D01*
X324007Y1070059D01*
X324002Y1070039D01*
X324010Y1069936D01*
X324013Y1069833D01*
X324019Y1069814D01*
X324021Y1069794D01*
X324061Y1069699D01*
X324097Y1069602D01*
X324110Y1069586D01*
X324117Y1069568D01*
X324222Y1069437D01*
X325013Y1068645D01*
X326363Y1065388D01*
X326363Y1061862D01*
X325013Y1058605D01*
X324222Y1057813D01*
X324210Y1057797D01*
X324195Y1057785D01*
X324139Y1057697D01*
X324079Y1057614D01*
X324073Y1057595D01*
X324062Y1057578D01*
X324037Y1057477D01*
X324006Y1057378D01*
X324007Y1057359D01*
X324002Y1057339D01*
X324010Y1057236D01*
X324013Y1057133D01*
X324019Y1057114D01*
X324021Y1057094D01*
X324061Y1056999D01*
X324097Y1056902D01*
X324110Y1056886D01*
X324117Y1056868D01*
X324222Y1056737D01*
X325013Y1055945D01*
X326363Y1052688D01*
X326363Y1049162D01*
X325013Y1045905D01*
X324222Y1045113D01*
X324210Y1045097D01*
X324195Y1045085D01*
X324139Y1044997D01*
X324079Y1044914D01*
X324073Y1044895D01*
X324062Y1044878D01*
X324037Y1044777D01*
X324006Y1044678D01*
X324007Y1044659D01*
X324002Y1044639D01*
X324010Y1044536D01*
X324013Y1044433D01*
X324019Y1044414D01*
X324021Y1044394D01*
X324061Y1044299D01*
X324097Y1044202D01*
X324110Y1044186D01*
X324117Y1044168D01*
X324222Y1044037D01*
X325013Y1043245D01*
X326363Y1039988D01*
X326363Y1036462D01*
X325013Y1033205D01*
X324222Y1032413D01*
X324210Y1032397D01*
X324195Y1032385D01*
X324139Y1032297D01*
X324079Y1032214D01*
X324073Y1032195D01*
X324062Y1032178D01*
X324037Y1032077D01*
X324006Y1031978D01*
X324007Y1031959D01*
X324002Y1031939D01*
X324010Y1031836D01*
X324013Y1031733D01*
X324019Y1031714D01*
X324021Y1031694D01*
X324061Y1031599D01*
X324097Y1031502D01*
X324110Y1031486D01*
X324117Y1031468D01*
X324222Y1031337D01*
X325013Y1030545D01*
X326363Y1027288D01*
X326363Y1023762D01*
X325013Y1020505D01*
X324222Y1019713D01*
X324210Y1019697D01*
X324195Y1019685D01*
X324139Y1019597D01*
X324079Y1019514D01*
X324073Y1019495D01*
X324062Y1019478D01*
X324037Y1019377D01*
X324006Y1019278D01*
X324007Y1019259D01*
X324002Y1019239D01*
X324010Y1019136D01*
X324013Y1019033D01*
X324019Y1019014D01*
X324021Y1018994D01*
X324061Y1018899D01*
X324097Y1018802D01*
X324110Y1018786D01*
X324117Y1018768D01*
X324222Y1018637D01*
X325013Y1017845D01*
X326363Y1014588D01*
X326363Y1011062D01*
X325013Y1007805D01*
X322520Y1005312D01*
X319263Y1003962D01*
X315737Y1003962D01*
X312480Y1005312D01*
X311688Y1006103D01*
X311672Y1006115D01*
X311660Y1006130D01*
X311572Y1006186D01*
X311489Y1006246D01*
X311470Y1006252D01*
X311453Y1006263D01*
X311352Y1006288D01*
X311253Y1006319D01*
X311234Y1006318D01*
X311214Y1006323D01*
X311111Y1006315D01*
X311008Y1006312D01*
X310989Y1006306D01*
X310969Y1006304D01*
X310874Y1006264D01*
X310777Y1006228D01*
X310761Y1006215D01*
X310743Y1006208D01*
X310612Y1006103D01*
X309820Y1005312D01*
X306563Y1003962D01*
X303037Y1003962D01*
X299780Y1005312D01*
X298988Y1006103D01*
X298972Y1006115D01*
X298960Y1006130D01*
X298872Y1006186D01*
X298789Y1006246D01*
X298770Y1006252D01*
X298753Y1006263D01*
X298652Y1006288D01*
X298553Y1006319D01*
X298534Y1006318D01*
X298514Y1006323D01*
X298411Y1006315D01*
X298308Y1006312D01*
X298289Y1006306D01*
X298269Y1006304D01*
X298174Y1006264D01*
X298077Y1006228D01*
X298061Y1006215D01*
X298043Y1006208D01*
X297912Y1006103D01*
X297120Y1005312D01*
X293863Y1003962D01*
X290337Y1003962D01*
X287080Y1005312D01*
X286288Y1006103D01*
X286272Y1006115D01*
X286260Y1006130D01*
X286172Y1006186D01*
X286089Y1006246D01*
X286070Y1006252D01*
X286053Y1006263D01*
X285952Y1006288D01*
X285853Y1006319D01*
X285834Y1006318D01*
X285814Y1006323D01*
X285711Y1006315D01*
X285608Y1006312D01*
X285589Y1006306D01*
X285569Y1006304D01*
X285474Y1006264D01*
X285377Y1006228D01*
X285361Y1006215D01*
X285343Y1006208D01*
X285212Y1006103D01*
X284420Y1005312D01*
X281163Y1003962D01*
X277637Y1003962D01*
X274380Y1005312D01*
X273588Y1006103D01*
X273572Y1006115D01*
X273560Y1006130D01*
X273472Y1006186D01*
X273389Y1006246D01*
X273370Y1006252D01*
X273353Y1006263D01*
X273252Y1006288D01*
X273153Y1006319D01*
X273134Y1006318D01*
X273114Y1006323D01*
X273011Y1006315D01*
X272908Y1006312D01*
X272889Y1006306D01*
X272869Y1006304D01*
X272774Y1006264D01*
X272677Y1006228D01*
X272661Y1006215D01*
X272643Y1006208D01*
X272512Y1006103D01*
X271720Y1005312D01*
X268463Y1003962D01*
X264937Y1003962D01*
X261680Y1005312D01*
X260888Y1006103D01*
X260872Y1006115D01*
X260860Y1006130D01*
X260772Y1006186D01*
X260689Y1006246D01*
X260670Y1006252D01*
X260653Y1006263D01*
X260552Y1006288D01*
X260453Y1006319D01*
X260434Y1006318D01*
X260414Y1006323D01*
X260311Y1006315D01*
X260208Y1006312D01*
X260189Y1006306D01*
X260169Y1006304D01*
X260074Y1006264D01*
X259977Y1006228D01*
X259961Y1006215D01*
X259943Y1006208D01*
X259812Y1006103D01*
X259020Y1005312D01*
X255763Y1003962D01*
X252237Y1003962D01*
X248980Y1005312D01*
X248188Y1006103D01*
X248172Y1006115D01*
X248160Y1006130D01*
X248072Y1006186D01*
X247989Y1006246D01*
X247970Y1006252D01*
X247953Y1006263D01*
X247852Y1006288D01*
X247753Y1006319D01*
X247734Y1006318D01*
X247714Y1006323D01*
X247611Y1006315D01*
X247508Y1006312D01*
X247489Y1006306D01*
X247469Y1006304D01*
X247374Y1006264D01*
X247277Y1006228D01*
X247261Y1006215D01*
X247243Y1006208D01*
X247112Y1006103D01*
X246320Y1005312D01*
X243063Y1003962D01*
X239537Y1003962D01*
G37*
%LPD*%
%LPC*%
G36*
X169687Y1013487D02*
X169687Y1013487D01*
X166430Y1014837D01*
X163937Y1017330D01*
X162840Y1019977D01*
X162829Y1019994D01*
X162824Y1020013D01*
X162765Y1020098D01*
X162710Y1020186D01*
X162695Y1020199D01*
X162684Y1020215D01*
X162601Y1020277D01*
X162521Y1020343D01*
X162502Y1020350D01*
X162486Y1020362D01*
X162388Y1020394D01*
X162291Y1020431D01*
X162271Y1020432D01*
X162252Y1020438D01*
X162149Y1020437D01*
X162045Y1020442D01*
X162026Y1020436D01*
X162006Y1020436D01*
X161845Y1020389D01*
X160513Y1019837D01*
X156987Y1019837D01*
X153730Y1021187D01*
X151351Y1023565D01*
X151335Y1023577D01*
X151322Y1023593D01*
X151235Y1023649D01*
X151151Y1023709D01*
X151132Y1023715D01*
X151115Y1023726D01*
X151015Y1023751D01*
X150916Y1023781D01*
X150896Y1023781D01*
X150877Y1023786D01*
X150774Y1023778D01*
X150670Y1023775D01*
X150651Y1023768D01*
X150632Y1023767D01*
X150537Y1023726D01*
X150439Y1023691D01*
X150423Y1023678D01*
X150405Y1023670D01*
X150274Y1023565D01*
X147895Y1021187D01*
X144638Y1019837D01*
X141112Y1019837D01*
X137855Y1021187D01*
X135476Y1023565D01*
X135460Y1023577D01*
X135447Y1023593D01*
X135360Y1023649D01*
X135276Y1023709D01*
X135257Y1023715D01*
X135240Y1023726D01*
X135140Y1023751D01*
X135041Y1023781D01*
X135021Y1023781D01*
X135002Y1023786D01*
X134899Y1023778D01*
X134795Y1023775D01*
X134776Y1023768D01*
X134756Y1023767D01*
X134662Y1023726D01*
X134564Y1023691D01*
X134548Y1023678D01*
X134530Y1023670D01*
X134399Y1023565D01*
X132020Y1021187D01*
X128763Y1019837D01*
X125237Y1019837D01*
X121980Y1021187D01*
X119487Y1023680D01*
X118137Y1026937D01*
X118137Y1030463D01*
X119487Y1033720D01*
X121865Y1036099D01*
X121877Y1036115D01*
X121893Y1036128D01*
X121949Y1036215D01*
X122009Y1036299D01*
X122015Y1036318D01*
X122026Y1036335D01*
X122051Y1036435D01*
X122081Y1036534D01*
X122081Y1036554D01*
X122086Y1036573D01*
X122078Y1036676D01*
X122075Y1036780D01*
X122068Y1036799D01*
X122067Y1036819D01*
X122026Y1036913D01*
X121991Y1037011D01*
X121978Y1037027D01*
X121970Y1037045D01*
X121865Y1037176D01*
X119487Y1039555D01*
X118137Y1042812D01*
X118137Y1046338D01*
X119487Y1049595D01*
X121865Y1051974D01*
X121877Y1051990D01*
X121893Y1052003D01*
X121949Y1052090D01*
X122009Y1052174D01*
X122015Y1052193D01*
X122026Y1052210D01*
X122051Y1052310D01*
X122081Y1052409D01*
X122081Y1052429D01*
X122086Y1052448D01*
X122078Y1052551D01*
X122075Y1052655D01*
X122068Y1052674D01*
X122067Y1052694D01*
X122026Y1052788D01*
X121991Y1052886D01*
X121978Y1052902D01*
X121970Y1052920D01*
X121865Y1053051D01*
X119487Y1055430D01*
X118137Y1058687D01*
X118137Y1062213D01*
X119487Y1065470D01*
X121865Y1067849D01*
X121877Y1067865D01*
X121893Y1067878D01*
X121949Y1067965D01*
X122009Y1068049D01*
X122015Y1068068D01*
X122026Y1068085D01*
X122051Y1068185D01*
X122081Y1068284D01*
X122081Y1068304D01*
X122086Y1068323D01*
X122078Y1068426D01*
X122075Y1068530D01*
X122068Y1068549D01*
X122067Y1068569D01*
X122026Y1068663D01*
X121991Y1068761D01*
X121978Y1068777D01*
X121970Y1068795D01*
X121865Y1068926D01*
X119487Y1071305D01*
X118137Y1074562D01*
X118137Y1078088D01*
X119487Y1081345D01*
X121980Y1083838D01*
X125237Y1085188D01*
X128763Y1085188D01*
X132020Y1083838D01*
X134513Y1081345D01*
X135863Y1078088D01*
X135863Y1074562D01*
X134513Y1071305D01*
X132135Y1068926D01*
X132123Y1068910D01*
X132107Y1068897D01*
X132051Y1068810D01*
X131991Y1068726D01*
X131985Y1068707D01*
X131974Y1068690D01*
X131949Y1068590D01*
X131919Y1068491D01*
X131919Y1068471D01*
X131914Y1068452D01*
X131922Y1068349D01*
X131925Y1068245D01*
X131932Y1068226D01*
X131933Y1068207D01*
X131974Y1068112D01*
X132009Y1068014D01*
X132022Y1067998D01*
X132030Y1067980D01*
X132135Y1067849D01*
X134513Y1065470D01*
X134542Y1065401D01*
X134553Y1065384D01*
X134558Y1065364D01*
X134617Y1065279D01*
X134672Y1065191D01*
X134687Y1065179D01*
X134699Y1065162D01*
X134782Y1065100D01*
X134861Y1065035D01*
X134880Y1065027D01*
X134896Y1065016D01*
X134995Y1064983D01*
X135091Y1064946D01*
X135111Y1064946D01*
X135130Y1064939D01*
X135233Y1064940D01*
X135337Y1064936D01*
X135356Y1064942D01*
X135376Y1064942D01*
X135537Y1064988D01*
X139623Y1066681D01*
X144627Y1066681D01*
X149251Y1064765D01*
X152790Y1061226D01*
X154706Y1056602D01*
X154706Y1053632D01*
X154713Y1053587D01*
X154711Y1053541D01*
X154733Y1053466D01*
X154745Y1053389D01*
X154767Y1053349D01*
X154780Y1053305D01*
X154824Y1053241D01*
X154861Y1053172D01*
X154894Y1053140D01*
X154920Y1053103D01*
X154983Y1053056D01*
X155039Y1053003D01*
X155081Y1052983D01*
X155117Y1052956D01*
X155191Y1052932D01*
X155262Y1052899D01*
X155308Y1052894D01*
X155351Y1052880D01*
X155429Y1052880D01*
X155506Y1052872D01*
X155551Y1052882D01*
X155597Y1052882D01*
X155729Y1052920D01*
X155747Y1052924D01*
X155751Y1052927D01*
X155758Y1052929D01*
X156987Y1053438D01*
X160513Y1053438D01*
X163770Y1052088D01*
X166263Y1049595D01*
X167613Y1046338D01*
X167613Y1042812D01*
X166263Y1039555D01*
X163885Y1037176D01*
X163873Y1037160D01*
X163857Y1037147D01*
X163801Y1037060D01*
X163741Y1036976D01*
X163735Y1036957D01*
X163724Y1036940D01*
X163699Y1036840D01*
X163669Y1036741D01*
X163669Y1036721D01*
X163664Y1036702D01*
X163672Y1036599D01*
X163675Y1036495D01*
X163682Y1036476D01*
X163683Y1036456D01*
X163724Y1036362D01*
X163759Y1036264D01*
X163772Y1036248D01*
X163780Y1036230D01*
X163885Y1036099D01*
X166263Y1033720D01*
X167360Y1031073D01*
X167371Y1031056D01*
X167376Y1031037D01*
X167435Y1030952D01*
X167490Y1030864D01*
X167505Y1030851D01*
X167516Y1030835D01*
X167599Y1030773D01*
X167679Y1030707D01*
X167698Y1030700D01*
X167714Y1030688D01*
X167812Y1030656D01*
X167909Y1030619D01*
X167929Y1030618D01*
X167948Y1030612D01*
X168051Y1030613D01*
X168155Y1030608D01*
X168174Y1030614D01*
X168194Y1030614D01*
X168355Y1030661D01*
X169687Y1031213D01*
X173213Y1031213D01*
X176470Y1029863D01*
X177262Y1029072D01*
X177278Y1029060D01*
X177290Y1029045D01*
X177378Y1028989D01*
X177461Y1028929D01*
X177480Y1028923D01*
X177497Y1028912D01*
X177598Y1028887D01*
X177697Y1028856D01*
X177716Y1028857D01*
X177736Y1028852D01*
X177839Y1028860D01*
X177942Y1028863D01*
X177961Y1028869D01*
X177981Y1028871D01*
X178076Y1028911D01*
X178173Y1028947D01*
X178189Y1028959D01*
X178207Y1028967D01*
X178338Y1029072D01*
X179130Y1029863D01*
X182387Y1031213D01*
X185913Y1031213D01*
X189170Y1029863D01*
X191663Y1027370D01*
X193013Y1024113D01*
X193013Y1020587D01*
X191663Y1017330D01*
X189170Y1014837D01*
X185913Y1013487D01*
X182387Y1013487D01*
X179130Y1014837D01*
X178338Y1015628D01*
X178322Y1015640D01*
X178310Y1015655D01*
X178222Y1015711D01*
X178139Y1015771D01*
X178120Y1015777D01*
X178103Y1015788D01*
X178002Y1015813D01*
X177903Y1015844D01*
X177884Y1015843D01*
X177864Y1015848D01*
X177761Y1015840D01*
X177658Y1015837D01*
X177639Y1015831D01*
X177619Y1015829D01*
X177524Y1015789D01*
X177427Y1015753D01*
X177411Y1015740D01*
X177393Y1015733D01*
X177262Y1015628D01*
X176470Y1014837D01*
X173213Y1013487D01*
X169687Y1013487D01*
G37*
%LPD*%
%LPC*%
G36*
X72888Y241539D02*
X72888Y241539D01*
X66488Y243254D01*
X60751Y246566D01*
X56066Y251251D01*
X52754Y256988D01*
X51039Y263388D01*
X51039Y270012D01*
X52754Y276412D01*
X56066Y282149D01*
X60751Y286834D01*
X66488Y290146D01*
X72888Y291861D01*
X79512Y291861D01*
X85912Y290146D01*
X91649Y286834D01*
X96334Y282149D01*
X99646Y276412D01*
X101361Y270012D01*
X101361Y263388D01*
X99646Y256988D01*
X96334Y251251D01*
X91649Y246566D01*
X85912Y243254D01*
X79512Y241539D01*
X72888Y241539D01*
G37*
%LPD*%
%LPC*%
G36*
X72888Y914639D02*
X72888Y914639D01*
X66488Y916354D01*
X60751Y919666D01*
X56066Y924351D01*
X52754Y930088D01*
X51039Y936488D01*
X51039Y943112D01*
X52754Y949512D01*
X56066Y955249D01*
X60751Y959934D01*
X66488Y963246D01*
X72888Y964961D01*
X79512Y964961D01*
X85912Y963246D01*
X91649Y959934D01*
X96334Y955249D01*
X99646Y949512D01*
X101361Y943112D01*
X101361Y936488D01*
X99646Y930088D01*
X96334Y924351D01*
X91649Y919666D01*
X85912Y916354D01*
X79512Y914639D01*
X72888Y914639D01*
G37*
%LPD*%
%LPC*%
G36*
X403088Y1041639D02*
X403088Y1041639D01*
X396688Y1043354D01*
X390951Y1046666D01*
X386266Y1051351D01*
X382954Y1057088D01*
X381239Y1063488D01*
X381239Y1070112D01*
X382954Y1076512D01*
X386266Y1082249D01*
X390951Y1086934D01*
X396688Y1090246D01*
X403088Y1091961D01*
X409712Y1091961D01*
X416112Y1090246D01*
X421849Y1086934D01*
X426534Y1082249D01*
X429846Y1076512D01*
X431561Y1070112D01*
X431561Y1063488D01*
X429846Y1057088D01*
X426534Y1051351D01*
X421849Y1046666D01*
X416112Y1043354D01*
X409712Y1041639D01*
X403088Y1041639D01*
G37*
%LPD*%
%LPC*%
G36*
X403088Y51039D02*
X403088Y51039D01*
X396688Y52754D01*
X390951Y56066D01*
X386266Y60751D01*
X382954Y66488D01*
X381239Y72888D01*
X381239Y79512D01*
X382954Y85912D01*
X386266Y91649D01*
X390951Y96334D01*
X396688Y99646D01*
X403088Y101361D01*
X409712Y101361D01*
X416112Y99646D01*
X421849Y96334D01*
X426534Y91649D01*
X429846Y85912D01*
X431561Y79512D01*
X431561Y72888D01*
X429846Y66488D01*
X426534Y60751D01*
X421849Y56066D01*
X416112Y52754D01*
X409712Y51039D01*
X403088Y51039D01*
G37*
%LPD*%
%LPC*%
G36*
X1012688Y1054339D02*
X1012688Y1054339D01*
X1006288Y1056054D01*
X1000551Y1059366D01*
X995866Y1064051D01*
X992554Y1069788D01*
X990839Y1076188D01*
X990839Y1082812D01*
X992554Y1089212D01*
X995866Y1094949D01*
X1000551Y1099634D01*
X1006288Y1102946D01*
X1012688Y1104661D01*
X1019312Y1104661D01*
X1025712Y1102946D01*
X1031449Y1099634D01*
X1036134Y1094949D01*
X1039446Y1089212D01*
X1041161Y1082812D01*
X1041161Y1076188D01*
X1039446Y1069788D01*
X1036134Y1064051D01*
X1031449Y1059366D01*
X1025712Y1056054D01*
X1019312Y1054339D01*
X1012688Y1054339D01*
G37*
%LPD*%
%LPC*%
G36*
X1431788Y1054339D02*
X1431788Y1054339D01*
X1425388Y1056054D01*
X1419651Y1059366D01*
X1414966Y1064051D01*
X1411654Y1069788D01*
X1409939Y1076188D01*
X1409939Y1082812D01*
X1411654Y1089212D01*
X1414966Y1094949D01*
X1419651Y1099634D01*
X1425388Y1102946D01*
X1431788Y1104661D01*
X1438412Y1104661D01*
X1444812Y1102946D01*
X1450549Y1099634D01*
X1455234Y1094949D01*
X1458546Y1089212D01*
X1460261Y1082812D01*
X1460261Y1076188D01*
X1458546Y1069788D01*
X1455234Y1064051D01*
X1450549Y1059366D01*
X1444812Y1056054D01*
X1438412Y1054339D01*
X1431788Y1054339D01*
G37*
%LPD*%
%LPC*%
G36*
X341137Y347698D02*
X341137Y347698D01*
X337880Y349048D01*
X335387Y351541D01*
X334037Y354798D01*
X334037Y357964D01*
X334023Y358054D01*
X334015Y358145D01*
X334003Y358174D01*
X333998Y358206D01*
X333955Y358287D01*
X333919Y358371D01*
X333893Y358403D01*
X333882Y358424D01*
X333859Y358446D01*
X333814Y358502D01*
X332212Y360105D01*
X330903Y363263D01*
X330865Y363324D01*
X330836Y363389D01*
X330801Y363428D01*
X330774Y363472D01*
X330718Y363518D01*
X330670Y363571D01*
X330624Y363596D01*
X330584Y363629D01*
X330517Y363655D01*
X330454Y363689D01*
X330403Y363698D01*
X330355Y363717D01*
X330283Y363720D01*
X330212Y363733D01*
X330161Y363725D01*
X330109Y363728D01*
X330040Y363708D01*
X329969Y363697D01*
X329923Y363673D01*
X329873Y363659D01*
X329814Y363618D01*
X329750Y363586D01*
X329713Y363548D01*
X329671Y363519D01*
X329628Y363461D01*
X329578Y363410D01*
X329543Y363347D01*
X329524Y363321D01*
X329517Y363299D01*
X329497Y363263D01*
X328188Y360105D01*
X325695Y357612D01*
X322438Y356262D01*
X318912Y356262D01*
X315655Y357612D01*
X313162Y360105D01*
X311812Y363362D01*
X311812Y366888D01*
X313162Y370145D01*
X315655Y372638D01*
X318813Y373947D01*
X318874Y373985D01*
X318939Y374014D01*
X318978Y374049D01*
X319022Y374076D01*
X319068Y374132D01*
X319121Y374180D01*
X319146Y374226D01*
X319179Y374266D01*
X319205Y374333D01*
X319239Y374396D01*
X319248Y374447D01*
X319267Y374495D01*
X319270Y374567D01*
X319283Y374638D01*
X319275Y374689D01*
X319278Y374741D01*
X319258Y374810D01*
X319247Y374881D01*
X319223Y374927D01*
X319209Y374977D01*
X319168Y375036D01*
X319136Y375100D01*
X319098Y375137D01*
X319069Y375179D01*
X319011Y375222D01*
X318960Y375272D01*
X318897Y375307D01*
X318871Y375326D01*
X318849Y375333D01*
X318813Y375353D01*
X315655Y376662D01*
X313162Y379155D01*
X311812Y382412D01*
X311812Y385938D01*
X313162Y389195D01*
X315655Y391688D01*
X318912Y393038D01*
X322438Y393038D01*
X325695Y391688D01*
X328188Y389195D01*
X329538Y385938D01*
X329538Y382412D01*
X328188Y379155D01*
X325695Y376662D01*
X322537Y375353D01*
X322476Y375315D01*
X322411Y375286D01*
X322372Y375251D01*
X322328Y375224D01*
X322282Y375168D01*
X322229Y375120D01*
X322204Y375074D01*
X322171Y375034D01*
X322145Y374967D01*
X322111Y374904D01*
X322102Y374853D01*
X322083Y374805D01*
X322080Y374733D01*
X322067Y374662D01*
X322075Y374611D01*
X322072Y374559D01*
X322092Y374490D01*
X322103Y374419D01*
X322127Y374373D01*
X322141Y374323D01*
X322182Y374264D01*
X322214Y374200D01*
X322252Y374163D01*
X322281Y374121D01*
X322339Y374078D01*
X322390Y374028D01*
X322453Y373993D01*
X322479Y373974D01*
X322501Y373967D01*
X322537Y373947D01*
X325695Y372638D01*
X328188Y370145D01*
X329497Y366987D01*
X329535Y366926D01*
X329564Y366861D01*
X329599Y366822D01*
X329626Y366778D01*
X329682Y366732D01*
X329730Y366679D01*
X329776Y366654D01*
X329816Y366621D01*
X329883Y366595D01*
X329946Y366561D01*
X329997Y366552D01*
X330045Y366533D01*
X330117Y366530D01*
X330188Y366517D01*
X330239Y366525D01*
X330291Y366522D01*
X330360Y366542D01*
X330431Y366553D01*
X330477Y366577D01*
X330527Y366591D01*
X330586Y366632D01*
X330650Y366664D01*
X330687Y366702D01*
X330729Y366731D01*
X330772Y366789D01*
X330822Y366840D01*
X330857Y366903D01*
X330876Y366929D01*
X330883Y366951D01*
X330903Y366987D01*
X332212Y370145D01*
X333946Y371880D01*
X334014Y371974D01*
X334084Y372068D01*
X334086Y372074D01*
X334089Y372079D01*
X334124Y372190D01*
X334160Y372302D01*
X334160Y372309D01*
X334162Y372315D01*
X334159Y372431D01*
X334158Y372548D01*
X334156Y372555D01*
X334155Y372560D01*
X334149Y372578D01*
X334111Y372709D01*
X334037Y372887D01*
X334037Y376413D01*
X335387Y379670D01*
X336178Y380462D01*
X336190Y380478D01*
X336205Y380490D01*
X336261Y380578D01*
X336321Y380661D01*
X336327Y380680D01*
X336338Y380697D01*
X336363Y380798D01*
X336394Y380897D01*
X336393Y380916D01*
X336398Y380936D01*
X336390Y381039D01*
X336387Y381142D01*
X336381Y381161D01*
X336379Y381181D01*
X336339Y381276D01*
X336303Y381373D01*
X336291Y381389D01*
X336283Y381407D01*
X336178Y381538D01*
X335387Y382330D01*
X334037Y385587D01*
X334037Y389113D01*
X335387Y392370D01*
X337880Y394863D01*
X341137Y396213D01*
X344663Y396213D01*
X347920Y394863D01*
X350413Y392370D01*
X351763Y389113D01*
X351763Y385587D01*
X350413Y382330D01*
X349622Y381538D01*
X349610Y381522D01*
X349595Y381510D01*
X349539Y381422D01*
X349479Y381339D01*
X349473Y381320D01*
X349462Y381303D01*
X349437Y381202D01*
X349406Y381103D01*
X349407Y381084D01*
X349402Y381064D01*
X349410Y380961D01*
X349413Y380858D01*
X349419Y380839D01*
X349421Y380819D01*
X349461Y380724D01*
X349497Y380627D01*
X349510Y380611D01*
X349517Y380593D01*
X349622Y380462D01*
X350413Y379670D01*
X351763Y376413D01*
X351763Y372887D01*
X350413Y369630D01*
X348679Y367895D01*
X348611Y367801D01*
X348541Y367707D01*
X348539Y367701D01*
X348536Y367696D01*
X348501Y367585D01*
X348465Y367473D01*
X348465Y367466D01*
X348463Y367460D01*
X348466Y367344D01*
X348467Y367227D01*
X348469Y367220D01*
X348470Y367215D01*
X348476Y367197D01*
X348514Y367066D01*
X348588Y366888D01*
X348588Y363722D01*
X348602Y363632D01*
X348610Y363541D01*
X348622Y363512D01*
X348627Y363480D01*
X348670Y363399D01*
X348706Y363315D01*
X348732Y363283D01*
X348743Y363262D01*
X348766Y363240D01*
X348811Y363184D01*
X350413Y361581D01*
X351763Y358324D01*
X351763Y354798D01*
X350413Y351541D01*
X347920Y349048D01*
X344663Y347698D01*
X341137Y347698D01*
G37*
%LPD*%
%LPC*%
G36*
X341137Y410237D02*
X341137Y410237D01*
X337880Y411587D01*
X335387Y414080D01*
X334037Y417337D01*
X334037Y420863D01*
X334589Y422195D01*
X334594Y422215D01*
X334603Y422232D01*
X334622Y422334D01*
X334645Y422435D01*
X334643Y422455D01*
X334647Y422474D01*
X334632Y422577D01*
X334622Y422680D01*
X334614Y422698D01*
X334611Y422718D01*
X334564Y422810D01*
X334522Y422904D01*
X334509Y422919D01*
X334500Y422937D01*
X334426Y423009D01*
X334356Y423085D01*
X334338Y423095D01*
X334324Y423109D01*
X334177Y423190D01*
X331530Y424287D01*
X330738Y425078D01*
X330722Y425090D01*
X330710Y425105D01*
X330642Y425148D01*
X330605Y425180D01*
X330584Y425189D01*
X330539Y425221D01*
X330520Y425227D01*
X330503Y425238D01*
X330402Y425263D01*
X330388Y425268D01*
X330377Y425272D01*
X330372Y425273D01*
X330303Y425294D01*
X330284Y425293D01*
X330264Y425298D01*
X330161Y425290D01*
X330058Y425287D01*
X330039Y425281D01*
X330019Y425279D01*
X329957Y425253D01*
X329947Y425251D01*
X329923Y425238D01*
X329827Y425203D01*
X329811Y425190D01*
X329793Y425183D01*
X329743Y425143D01*
X329730Y425136D01*
X329716Y425121D01*
X329662Y425078D01*
X328870Y424287D01*
X325613Y422937D01*
X322087Y422937D01*
X318830Y424287D01*
X316451Y426665D01*
X316435Y426677D01*
X316422Y426693D01*
X316335Y426749D01*
X316251Y426809D01*
X316232Y426815D01*
X316215Y426826D01*
X316115Y426851D01*
X316016Y426881D01*
X315996Y426881D01*
X315977Y426886D01*
X315874Y426878D01*
X315770Y426875D01*
X315751Y426868D01*
X315731Y426867D01*
X315637Y426826D01*
X315539Y426791D01*
X315523Y426778D01*
X315505Y426770D01*
X315374Y426665D01*
X312995Y424287D01*
X309738Y422937D01*
X306212Y422937D01*
X302955Y424287D01*
X300462Y426780D01*
X299112Y430037D01*
X299112Y433563D01*
X300462Y436820D01*
X302955Y439313D01*
X306212Y440663D01*
X309738Y440663D01*
X312995Y439313D01*
X315374Y436935D01*
X315390Y436923D01*
X315403Y436907D01*
X315490Y436851D01*
X315574Y436791D01*
X315593Y436785D01*
X315610Y436774D01*
X315710Y436749D01*
X315809Y436719D01*
X315829Y436719D01*
X315848Y436714D01*
X315951Y436722D01*
X316055Y436725D01*
X316074Y436732D01*
X316093Y436733D01*
X316188Y436774D01*
X316286Y436809D01*
X316302Y436822D01*
X316320Y436830D01*
X316451Y436935D01*
X318830Y439313D01*
X322087Y440663D01*
X325613Y440663D01*
X328870Y439313D01*
X329662Y438522D01*
X329678Y438510D01*
X329690Y438495D01*
X329778Y438439D01*
X329861Y438379D01*
X329880Y438373D01*
X329897Y438362D01*
X329998Y438337D01*
X330097Y438306D01*
X330116Y438307D01*
X330136Y438302D01*
X330239Y438310D01*
X330342Y438313D01*
X330361Y438319D01*
X330381Y438321D01*
X330476Y438361D01*
X330573Y438397D01*
X330589Y438409D01*
X330607Y438417D01*
X330738Y438522D01*
X331530Y439313D01*
X334787Y440663D01*
X338313Y440663D01*
X341570Y439313D01*
X344063Y436820D01*
X345413Y433563D01*
X345413Y430037D01*
X344861Y428705D01*
X344856Y428685D01*
X344847Y428668D01*
X344828Y428566D01*
X344805Y428465D01*
X344807Y428445D01*
X344803Y428426D01*
X344818Y428323D01*
X344828Y428220D01*
X344836Y428202D01*
X344839Y428182D01*
X344886Y428090D01*
X344928Y427996D01*
X344941Y427981D01*
X344950Y427963D01*
X345024Y427891D01*
X345094Y427815D01*
X345112Y427805D01*
X345126Y427791D01*
X345273Y427710D01*
X347920Y426613D01*
X350413Y424120D01*
X351763Y420863D01*
X351763Y417337D01*
X350413Y414080D01*
X347920Y411587D01*
X344663Y410237D01*
X341137Y410237D01*
G37*
%LPD*%
%LPC*%
G36*
X439562Y222912D02*
X439562Y222912D01*
X436305Y224262D01*
X433812Y226755D01*
X432462Y230012D01*
X432462Y233538D01*
X433812Y236795D01*
X436305Y239288D01*
X439562Y240638D01*
X443088Y240638D01*
X443377Y240518D01*
X443472Y240496D01*
X443565Y240467D01*
X443591Y240468D01*
X443617Y240462D01*
X443713Y240471D01*
X443811Y240473D01*
X443835Y240482D01*
X443861Y240485D01*
X443951Y240524D01*
X444042Y240558D01*
X444062Y240574D01*
X444086Y240585D01*
X444158Y240651D01*
X444234Y240712D01*
X444248Y240734D01*
X444267Y240751D01*
X444314Y240837D01*
X444367Y240919D01*
X444373Y240944D01*
X444386Y240967D01*
X444403Y241063D01*
X444427Y241157D01*
X444425Y241183D01*
X444430Y241209D01*
X444415Y241305D01*
X444408Y241402D01*
X444398Y241426D01*
X444394Y241452D01*
X444350Y241539D01*
X444312Y241629D01*
X444291Y241654D01*
X444282Y241671D01*
X444259Y241694D01*
X444207Y241760D01*
X443337Y242630D01*
X441987Y245887D01*
X441987Y249413D01*
X443337Y252670D01*
X445830Y255163D01*
X449087Y256513D01*
X452427Y256513D01*
X452498Y256524D01*
X452569Y256526D01*
X452618Y256544D01*
X452670Y256552D01*
X452733Y256586D01*
X452801Y256611D01*
X452841Y256643D01*
X452887Y256668D01*
X452937Y256720D01*
X452993Y256764D01*
X453021Y256808D01*
X453057Y256846D01*
X453087Y256911D01*
X453126Y256971D01*
X453138Y257022D01*
X453160Y257069D01*
X453168Y257140D01*
X453186Y257210D01*
X453182Y257262D01*
X453187Y257313D01*
X453172Y257384D01*
X453166Y257455D01*
X453146Y257503D01*
X453135Y257554D01*
X453098Y257615D01*
X453070Y257681D01*
X453025Y257737D01*
X453009Y257765D01*
X452991Y257780D01*
X452965Y257812D01*
X452567Y258210D01*
X451218Y261468D01*
X451218Y264994D01*
X452567Y268251D01*
X455060Y270744D01*
X458318Y272093D01*
X461844Y272093D01*
X465101Y270744D01*
X467594Y268251D01*
X468943Y264994D01*
X468943Y261468D01*
X467594Y258210D01*
X465101Y255717D01*
X461844Y254368D01*
X458504Y254368D01*
X458433Y254356D01*
X458361Y254355D01*
X458312Y254337D01*
X458261Y254328D01*
X458198Y254295D01*
X458130Y254270D01*
X458089Y254237D01*
X458044Y254213D01*
X457994Y254161D01*
X457938Y254116D01*
X457910Y254073D01*
X457874Y254035D01*
X457844Y253970D01*
X457805Y253909D01*
X457792Y253859D01*
X457771Y253812D01*
X457763Y253740D01*
X457745Y253671D01*
X457749Y253619D01*
X457743Y253567D01*
X457759Y253497D01*
X457764Y253426D01*
X457785Y253378D01*
X457796Y253327D01*
X457832Y253265D01*
X457861Y253199D01*
X457905Y253143D01*
X457922Y253116D01*
X457940Y253101D01*
X457965Y253068D01*
X458363Y252670D01*
X459713Y249413D01*
X459713Y245887D01*
X458363Y242630D01*
X455870Y240137D01*
X452613Y238787D01*
X449087Y238787D01*
X448798Y238907D01*
X448703Y238929D01*
X448610Y238958D01*
X448584Y238957D01*
X448558Y238963D01*
X448462Y238954D01*
X448364Y238952D01*
X448340Y238943D01*
X448314Y238940D01*
X448224Y238901D01*
X448133Y238867D01*
X448113Y238851D01*
X448089Y238840D01*
X448017Y238774D01*
X447941Y238713D01*
X447927Y238691D01*
X447908Y238674D01*
X447861Y238588D01*
X447808Y238506D01*
X447802Y238481D01*
X447789Y238458D01*
X447772Y238362D01*
X447748Y238268D01*
X447750Y238242D01*
X447745Y238216D01*
X447760Y238120D01*
X447767Y238023D01*
X447777Y237999D01*
X447781Y237973D01*
X447825Y237886D01*
X447863Y237796D01*
X447884Y237771D01*
X447893Y237754D01*
X447916Y237731D01*
X447968Y237665D01*
X448838Y236795D01*
X450188Y233538D01*
X450188Y230012D01*
X448838Y226755D01*
X446345Y224262D01*
X443088Y222912D01*
X439562Y222912D01*
G37*
%LPD*%
%LPC*%
G36*
X35200Y709944D02*
X35200Y709944D01*
X29749Y712202D01*
X25577Y716374D01*
X23319Y721825D01*
X23319Y727725D01*
X25577Y733176D01*
X29749Y737348D01*
X35200Y739606D01*
X41100Y739606D01*
X46551Y737348D01*
X50723Y733176D01*
X52981Y727725D01*
X52981Y721825D01*
X50723Y716374D01*
X46551Y712202D01*
X41100Y709944D01*
X35200Y709944D01*
G37*
%LPD*%
%LPC*%
G36*
X35200Y670094D02*
X35200Y670094D01*
X29749Y672352D01*
X25577Y676524D01*
X23319Y681975D01*
X23319Y687875D01*
X25577Y693326D01*
X29749Y697498D01*
X35200Y699756D01*
X41100Y699756D01*
X46551Y697498D01*
X50723Y693326D01*
X52981Y687875D01*
X52981Y681975D01*
X50723Y676524D01*
X46551Y672352D01*
X41100Y670094D01*
X35200Y670094D01*
G37*
%LPD*%
%LPC*%
G36*
X84200Y664094D02*
X84200Y664094D01*
X78749Y666352D01*
X74577Y670524D01*
X72319Y675975D01*
X72319Y681875D01*
X74577Y687326D01*
X78749Y691498D01*
X84200Y693756D01*
X90100Y693756D01*
X95551Y691498D01*
X99723Y687326D01*
X101981Y681875D01*
X101981Y675975D01*
X99723Y670524D01*
X95551Y666352D01*
X90100Y664094D01*
X84200Y664094D01*
G37*
%LPD*%
%LPC*%
G36*
X84200Y519094D02*
X84200Y519094D01*
X78749Y521352D01*
X74577Y525524D01*
X72319Y530975D01*
X72319Y536875D01*
X74577Y542326D01*
X78749Y546498D01*
X84200Y548756D01*
X90100Y548756D01*
X95551Y546498D01*
X99723Y542326D01*
X101981Y536875D01*
X101981Y530975D01*
X99723Y525524D01*
X95551Y521352D01*
X90100Y519094D01*
X84200Y519094D01*
G37*
%LPD*%
%LPC*%
G36*
X35200Y513094D02*
X35200Y513094D01*
X29749Y515352D01*
X25577Y519524D01*
X23319Y524975D01*
X23319Y530875D01*
X25577Y536326D01*
X29749Y540498D01*
X35200Y542756D01*
X41100Y542756D01*
X46551Y540498D01*
X50723Y536326D01*
X52981Y530875D01*
X52981Y524975D01*
X50723Y519524D01*
X46551Y515352D01*
X41100Y513094D01*
X35200Y513094D01*
G37*
%LPD*%
%LPC*%
G36*
X35200Y470069D02*
X35200Y470069D01*
X29749Y472327D01*
X25577Y476499D01*
X23319Y481950D01*
X23319Y487850D01*
X25577Y493301D01*
X29749Y497473D01*
X35200Y499731D01*
X41100Y499731D01*
X46551Y497473D01*
X50723Y493301D01*
X52981Y487850D01*
X52981Y481950D01*
X50723Y476499D01*
X46551Y472327D01*
X41100Y470069D01*
X35200Y470069D01*
G37*
%LPD*%
%LPC*%
G36*
X84200Y464069D02*
X84200Y464069D01*
X78749Y466327D01*
X74577Y470499D01*
X72319Y475950D01*
X72319Y481850D01*
X74577Y487301D01*
X78749Y491473D01*
X84200Y493731D01*
X90100Y493731D01*
X95551Y491473D01*
X99723Y487301D01*
X101981Y481850D01*
X101981Y475950D01*
X99723Y470499D01*
X95551Y466327D01*
X90100Y464069D01*
X84200Y464069D01*
G37*
%LPD*%
%LPC*%
G36*
X84200Y319069D02*
X84200Y319069D01*
X78749Y321327D01*
X74577Y325499D01*
X72319Y330950D01*
X72319Y336850D01*
X74577Y342301D01*
X78749Y346473D01*
X84200Y348731D01*
X90100Y348731D01*
X95551Y346473D01*
X99723Y342301D01*
X101981Y336850D01*
X101981Y330950D01*
X99723Y325499D01*
X95551Y321327D01*
X90100Y319069D01*
X84200Y319069D01*
G37*
%LPD*%
%LPC*%
G36*
X35200Y313069D02*
X35200Y313069D01*
X29749Y315327D01*
X25577Y319499D01*
X23319Y324950D01*
X23319Y330850D01*
X25577Y336301D01*
X29749Y340473D01*
X35200Y342731D01*
X41100Y342731D01*
X46551Y340473D01*
X50723Y336301D01*
X52981Y330850D01*
X52981Y324950D01*
X50723Y319499D01*
X46551Y315327D01*
X41100Y313069D01*
X35200Y313069D01*
G37*
%LPD*%
%LPC*%
G36*
X35200Y8269D02*
X35200Y8269D01*
X29749Y10527D01*
X25577Y14699D01*
X23319Y20150D01*
X23319Y26050D01*
X25577Y31501D01*
X29749Y35673D01*
X35200Y37931D01*
X41100Y37931D01*
X46551Y35673D01*
X50723Y31501D01*
X52981Y26050D01*
X52981Y20150D01*
X50723Y14699D01*
X46551Y10527D01*
X41100Y8269D01*
X35200Y8269D01*
G37*
%LPD*%
%LPC*%
G36*
X35200Y165269D02*
X35200Y165269D01*
X29749Y167527D01*
X25577Y171699D01*
X23319Y177150D01*
X23319Y183050D01*
X25577Y188501D01*
X29749Y192673D01*
X35200Y194931D01*
X41100Y194931D01*
X46551Y192673D01*
X50723Y188501D01*
X52981Y183050D01*
X52981Y177150D01*
X50723Y171699D01*
X46551Y167527D01*
X41100Y165269D01*
X35200Y165269D01*
G37*
%LPD*%
%LPC*%
G36*
X84200Y159269D02*
X84200Y159269D01*
X78749Y161527D01*
X74577Y165699D01*
X72319Y171150D01*
X72319Y177050D01*
X74577Y182501D01*
X78749Y186673D01*
X84200Y188931D01*
X90100Y188931D01*
X95551Y186673D01*
X99723Y182501D01*
X101981Y177050D01*
X101981Y171150D01*
X99723Y165699D01*
X95551Y161527D01*
X90100Y159269D01*
X84200Y159269D01*
G37*
%LPD*%
%LPC*%
G36*
X84200Y14269D02*
X84200Y14269D01*
X78749Y16527D01*
X74577Y20699D01*
X72319Y26150D01*
X72319Y32050D01*
X74577Y37501D01*
X78749Y41673D01*
X84200Y43931D01*
X90100Y43931D01*
X95551Y41673D01*
X99723Y37501D01*
X101981Y32050D01*
X101981Y26150D01*
X99723Y20699D01*
X95551Y16527D01*
X90100Y14269D01*
X84200Y14269D01*
G37*
%LPD*%
%LPC*%
G36*
X84200Y715944D02*
X84200Y715944D01*
X78749Y718202D01*
X74577Y722374D01*
X72319Y727825D01*
X72319Y733725D01*
X74577Y739176D01*
X78749Y743348D01*
X84200Y745606D01*
X90100Y745606D01*
X95551Y743348D01*
X99723Y739176D01*
X101981Y733725D01*
X101981Y727825D01*
X99723Y722374D01*
X95551Y718202D01*
X90100Y715944D01*
X84200Y715944D01*
G37*
%LPD*%
%LPC*%
G36*
X84200Y860944D02*
X84200Y860944D01*
X78749Y863202D01*
X74577Y867374D01*
X72319Y872825D01*
X72319Y878725D01*
X74577Y884176D01*
X78749Y888348D01*
X84200Y890606D01*
X90100Y890606D01*
X95551Y888348D01*
X99723Y884176D01*
X101981Y878725D01*
X101981Y872825D01*
X99723Y867374D01*
X95551Y863202D01*
X90100Y860944D01*
X84200Y860944D01*
G37*
%LPD*%
%LPC*%
G36*
X35200Y866944D02*
X35200Y866944D01*
X29749Y869202D01*
X25577Y873374D01*
X23319Y878825D01*
X23319Y884725D01*
X25577Y890176D01*
X29749Y894348D01*
X35200Y896606D01*
X41100Y896606D01*
X46551Y894348D01*
X50723Y890176D01*
X52981Y884725D01*
X52981Y878825D01*
X50723Y873374D01*
X46551Y869202D01*
X41100Y866944D01*
X35200Y866944D01*
G37*
%LPD*%
%LPC*%
G36*
X1106312Y981737D02*
X1106312Y981737D01*
X1103055Y983087D01*
X1100562Y985580D01*
X1099212Y988837D01*
X1099212Y992363D01*
X1100562Y995620D01*
X1103055Y998113D01*
X1106312Y999463D01*
X1109838Y999463D01*
X1113095Y998113D01*
X1113887Y997322D01*
X1113903Y997310D01*
X1113915Y997295D01*
X1114003Y997239D01*
X1114086Y997179D01*
X1114105Y997173D01*
X1114122Y997162D01*
X1114223Y997137D01*
X1114322Y997106D01*
X1114341Y997107D01*
X1114361Y997102D01*
X1114464Y997110D01*
X1114567Y997113D01*
X1114586Y997119D01*
X1114606Y997121D01*
X1114701Y997161D01*
X1114798Y997197D01*
X1114814Y997209D01*
X1114832Y997217D01*
X1114963Y997322D01*
X1115755Y998113D01*
X1119012Y999463D01*
X1120676Y999463D01*
X1120696Y999466D01*
X1120715Y999464D01*
X1120817Y999486D01*
X1120919Y999502D01*
X1120936Y999512D01*
X1120956Y999516D01*
X1121045Y999569D01*
X1121136Y999618D01*
X1121150Y999632D01*
X1121167Y999642D01*
X1121234Y999721D01*
X1121306Y999796D01*
X1121314Y999814D01*
X1121327Y999829D01*
X1121366Y999925D01*
X1121409Y1000019D01*
X1121411Y1000039D01*
X1121419Y1000057D01*
X1121437Y1000224D01*
X1121437Y1001888D01*
X1122787Y1005145D01*
X1125280Y1007638D01*
X1128537Y1008988D01*
X1132063Y1008988D01*
X1135320Y1007638D01*
X1137813Y1005145D01*
X1139163Y1001888D01*
X1139163Y998362D01*
X1137813Y995105D01*
X1135320Y992612D01*
X1132063Y991262D01*
X1130399Y991262D01*
X1130379Y991259D01*
X1130360Y991261D01*
X1130258Y991239D01*
X1130156Y991223D01*
X1130139Y991213D01*
X1130119Y991209D01*
X1130030Y991156D01*
X1129939Y991107D01*
X1129925Y991093D01*
X1129908Y991083D01*
X1129841Y991004D01*
X1129769Y990929D01*
X1129761Y990911D01*
X1129748Y990896D01*
X1129709Y990800D01*
X1129666Y990706D01*
X1129664Y990686D01*
X1129656Y990668D01*
X1129638Y990501D01*
X1129638Y988837D01*
X1128288Y985580D01*
X1125795Y983087D01*
X1122538Y981737D01*
X1119012Y981737D01*
X1115755Y983087D01*
X1114963Y983878D01*
X1114947Y983890D01*
X1114935Y983905D01*
X1114868Y983948D01*
X1114829Y983981D01*
X1114808Y983990D01*
X1114764Y984021D01*
X1114745Y984027D01*
X1114728Y984038D01*
X1114627Y984063D01*
X1114618Y984066D01*
X1114601Y984073D01*
X1114593Y984074D01*
X1114528Y984094D01*
X1114509Y984093D01*
X1114489Y984098D01*
X1114386Y984090D01*
X1114283Y984087D01*
X1114264Y984081D01*
X1114244Y984079D01*
X1114184Y984054D01*
X1114173Y984052D01*
X1114146Y984038D01*
X1114052Y984003D01*
X1114036Y983990D01*
X1114018Y983983D01*
X1113969Y983944D01*
X1113956Y983937D01*
X1113941Y983921D01*
X1113887Y983878D01*
X1113095Y983087D01*
X1109838Y981737D01*
X1106312Y981737D01*
G37*
%LPD*%
%LPC*%
G36*
X1230137Y1003962D02*
X1230137Y1003962D01*
X1226880Y1005312D01*
X1224387Y1007805D01*
X1223037Y1011062D01*
X1223037Y1013289D01*
X1223018Y1013404D01*
X1223001Y1013520D01*
X1222999Y1013526D01*
X1222998Y1013532D01*
X1222943Y1013635D01*
X1222890Y1013739D01*
X1222885Y1013744D01*
X1222882Y1013749D01*
X1222798Y1013829D01*
X1222714Y1013912D01*
X1222708Y1013915D01*
X1222704Y1013919D01*
X1222687Y1013927D01*
X1222567Y1013993D01*
X1220530Y1014837D01*
X1218037Y1017330D01*
X1216687Y1020587D01*
X1216687Y1022814D01*
X1216668Y1022929D01*
X1216651Y1023045D01*
X1216649Y1023051D01*
X1216648Y1023057D01*
X1216593Y1023160D01*
X1216540Y1023264D01*
X1216535Y1023269D01*
X1216532Y1023274D01*
X1216448Y1023354D01*
X1216364Y1023437D01*
X1216358Y1023440D01*
X1216354Y1023444D01*
X1216337Y1023452D01*
X1216217Y1023518D01*
X1214180Y1024362D01*
X1211687Y1026855D01*
X1210337Y1030112D01*
X1210337Y1033638D01*
X1211687Y1036895D01*
X1214180Y1039388D01*
X1217437Y1040738D01*
X1220963Y1040738D01*
X1224220Y1039388D01*
X1226713Y1036895D01*
X1228063Y1033638D01*
X1228063Y1031411D01*
X1228082Y1031296D01*
X1228099Y1031180D01*
X1228101Y1031174D01*
X1228102Y1031168D01*
X1228157Y1031065D01*
X1228210Y1030961D01*
X1228215Y1030956D01*
X1228218Y1030951D01*
X1228302Y1030871D01*
X1228386Y1030788D01*
X1228392Y1030785D01*
X1228396Y1030781D01*
X1228413Y1030773D01*
X1228533Y1030707D01*
X1230570Y1029863D01*
X1233063Y1027370D01*
X1234413Y1024113D01*
X1234413Y1021886D01*
X1234432Y1021771D01*
X1234449Y1021655D01*
X1234451Y1021649D01*
X1234452Y1021643D01*
X1234507Y1021540D01*
X1234560Y1021436D01*
X1234565Y1021431D01*
X1234568Y1021426D01*
X1234652Y1021346D01*
X1234736Y1021263D01*
X1234742Y1021260D01*
X1234746Y1021256D01*
X1234763Y1021248D01*
X1234883Y1021182D01*
X1236920Y1020338D01*
X1239413Y1017845D01*
X1240763Y1014588D01*
X1240763Y1011062D01*
X1239413Y1007805D01*
X1236920Y1005312D01*
X1233663Y1003962D01*
X1230137Y1003962D01*
G37*
%LPD*%
%LPC*%
G36*
X325262Y295937D02*
X325262Y295937D01*
X322005Y297287D01*
X319512Y299780D01*
X318162Y303037D01*
X318162Y306563D01*
X319512Y309820D01*
X320883Y311191D01*
X320950Y311285D01*
X321021Y311380D01*
X321023Y311386D01*
X321026Y311391D01*
X321060Y311502D01*
X321097Y311614D01*
X321097Y311620D01*
X321099Y311626D01*
X321096Y311743D01*
X321094Y311860D01*
X321092Y311867D01*
X321092Y311872D01*
X321086Y311890D01*
X321048Y312021D01*
X320044Y314444D01*
X320044Y317970D01*
X321393Y321227D01*
X323886Y323720D01*
X327144Y325070D01*
X330670Y325070D01*
X333927Y323720D01*
X336420Y321227D01*
X336784Y320349D01*
X336795Y320332D01*
X336800Y320313D01*
X336859Y320228D01*
X336914Y320140D01*
X336929Y320127D01*
X336940Y320111D01*
X337023Y320049D01*
X337103Y319983D01*
X337122Y319976D01*
X337138Y319964D01*
X337236Y319932D01*
X337333Y319895D01*
X337353Y319894D01*
X337372Y319888D01*
X337475Y319889D01*
X337579Y319884D01*
X337598Y319890D01*
X337618Y319890D01*
X337779Y319937D01*
X337962Y320013D01*
X341488Y320013D01*
X344745Y318663D01*
X347238Y316170D01*
X348588Y312913D01*
X348588Y309387D01*
X347238Y306130D01*
X344745Y303637D01*
X341488Y302287D01*
X337962Y302287D01*
X336630Y302839D01*
X336610Y302844D01*
X336593Y302853D01*
X336491Y302872D01*
X336390Y302895D01*
X336370Y302893D01*
X336351Y302897D01*
X336248Y302882D01*
X336145Y302872D01*
X336127Y302864D01*
X336107Y302861D01*
X336015Y302814D01*
X335921Y302772D01*
X335906Y302759D01*
X335888Y302750D01*
X335816Y302676D01*
X335740Y302606D01*
X335730Y302588D01*
X335716Y302574D01*
X335635Y302427D01*
X334538Y299780D01*
X332045Y297287D01*
X328788Y295937D01*
X325262Y295937D01*
G37*
%LPD*%
%LPC*%
G36*
X118887Y105437D02*
X118887Y105437D01*
X115630Y106787D01*
X113137Y109280D01*
X112128Y111716D01*
X112079Y111793D01*
X112038Y111874D01*
X112015Y111897D01*
X111998Y111925D01*
X111928Y111983D01*
X111863Y112047D01*
X111827Y112067D01*
X111808Y112081D01*
X111778Y112093D01*
X111716Y112128D01*
X109280Y113137D01*
X106787Y115630D01*
X105437Y118887D01*
X105437Y122413D01*
X106787Y125670D01*
X109280Y128163D01*
X112537Y129513D01*
X116063Y129513D01*
X119320Y128163D01*
X120678Y126806D01*
X120715Y126779D01*
X120746Y126746D01*
X120814Y126708D01*
X120877Y126663D01*
X120921Y126649D01*
X120961Y126627D01*
X121038Y126613D01*
X121112Y126590D01*
X121158Y126591D01*
X121203Y126583D01*
X121281Y126595D01*
X121358Y126597D01*
X121401Y126612D01*
X121447Y126619D01*
X121516Y126654D01*
X121589Y126681D01*
X121625Y126710D01*
X121666Y126731D01*
X121721Y126786D01*
X121781Y126835D01*
X121806Y126873D01*
X121838Y126906D01*
X121904Y127026D01*
X121914Y127042D01*
X121916Y127047D01*
X121919Y127053D01*
X122662Y128845D01*
X125155Y131338D01*
X128412Y132688D01*
X131938Y132688D01*
X135195Y131338D01*
X137688Y128845D01*
X139038Y125588D01*
X139038Y122062D01*
X137688Y118805D01*
X135195Y116312D01*
X131938Y114962D01*
X130274Y114962D01*
X130254Y114959D01*
X130235Y114961D01*
X130133Y114939D01*
X130031Y114923D01*
X130014Y114913D01*
X129994Y114909D01*
X129905Y114856D01*
X129814Y114807D01*
X129800Y114793D01*
X129783Y114783D01*
X129716Y114704D01*
X129644Y114629D01*
X129636Y114611D01*
X129623Y114596D01*
X129584Y114500D01*
X129541Y114406D01*
X129539Y114386D01*
X129531Y114368D01*
X129513Y114201D01*
X129513Y112537D01*
X128163Y109280D01*
X125670Y106787D01*
X122413Y105437D01*
X118887Y105437D01*
G37*
%LPD*%
%LPC*%
G36*
X344058Y443765D02*
X344058Y443765D01*
X340801Y445115D01*
X338308Y447608D01*
X336958Y450865D01*
X336958Y451419D01*
X336939Y451534D01*
X336922Y451650D01*
X336920Y451656D01*
X336919Y451662D01*
X336864Y451765D01*
X336811Y451870D01*
X336806Y451874D01*
X336803Y451880D01*
X336719Y451959D01*
X336635Y452042D01*
X336629Y452045D01*
X336625Y452049D01*
X336608Y452057D01*
X336488Y452123D01*
X334705Y452862D01*
X333930Y453636D01*
X333836Y453704D01*
X333741Y453774D01*
X333735Y453776D01*
X333730Y453780D01*
X333620Y453814D01*
X333507Y453850D01*
X333501Y453850D01*
X333495Y453852D01*
X333378Y453849D01*
X333261Y453848D01*
X333254Y453846D01*
X333249Y453846D01*
X333232Y453839D01*
X333100Y453801D01*
X330947Y452909D01*
X327421Y452909D01*
X324164Y454259D01*
X321671Y456752D01*
X320321Y460009D01*
X320321Y463535D01*
X321671Y466792D01*
X324164Y469285D01*
X327421Y470635D01*
X330947Y470635D01*
X334204Y469285D01*
X334979Y468511D01*
X335073Y468443D01*
X335168Y468373D01*
X335174Y468371D01*
X335179Y468367D01*
X335290Y468333D01*
X335402Y468297D01*
X335408Y468297D01*
X335414Y468295D01*
X335531Y468298D01*
X335648Y468299D01*
X335655Y468301D01*
X335660Y468301D01*
X335677Y468308D01*
X335809Y468346D01*
X337962Y469238D01*
X341488Y469238D01*
X344745Y467888D01*
X347238Y465395D01*
X348588Y462138D01*
X348588Y461584D01*
X348607Y461469D01*
X348624Y461353D01*
X348626Y461347D01*
X348627Y461341D01*
X348682Y461237D01*
X348735Y461133D01*
X348740Y461129D01*
X348743Y461123D01*
X348827Y461044D01*
X348911Y460961D01*
X348917Y460958D01*
X348921Y460954D01*
X348938Y460946D01*
X349058Y460880D01*
X350841Y460141D01*
X353334Y457648D01*
X354684Y454391D01*
X354684Y450865D01*
X353334Y447608D01*
X350841Y445115D01*
X347584Y443765D01*
X344058Y443765D01*
G37*
%LPD*%
%LPC*%
G36*
X230165Y413565D02*
X230165Y413565D01*
X226907Y414914D01*
X224414Y417407D01*
X223065Y420665D01*
X223065Y422676D01*
X223046Y422791D01*
X223029Y422907D01*
X223026Y422913D01*
X223025Y422919D01*
X222971Y423021D01*
X222918Y423126D01*
X222913Y423131D01*
X222910Y423136D01*
X222826Y423216D01*
X222742Y423298D01*
X222735Y423302D01*
X222732Y423305D01*
X222715Y423313D01*
X222595Y423379D01*
X220405Y424287D01*
X217912Y426780D01*
X216562Y430037D01*
X216562Y433563D01*
X217912Y436820D01*
X220405Y439313D01*
X222841Y440322D01*
X222918Y440371D01*
X222999Y440412D01*
X223022Y440435D01*
X223050Y440452D01*
X223108Y440522D01*
X223172Y440587D01*
X223192Y440623D01*
X223206Y440642D01*
X223218Y440672D01*
X223253Y440734D01*
X224262Y443170D01*
X226755Y445663D01*
X230012Y447013D01*
X233538Y447013D01*
X236795Y445663D01*
X239288Y443170D01*
X240638Y439913D01*
X240638Y436387D01*
X239288Y433130D01*
X237062Y430903D01*
X237051Y430887D01*
X237035Y430875D01*
X236979Y430788D01*
X236919Y430704D01*
X236913Y430685D01*
X236902Y430668D01*
X236877Y430567D01*
X236846Y430469D01*
X236847Y430449D01*
X236842Y430429D01*
X236850Y430326D01*
X236853Y430223D01*
X236860Y430204D01*
X236861Y430184D01*
X236901Y430089D01*
X236937Y429992D01*
X236950Y429976D01*
X236957Y429958D01*
X237062Y429827D01*
X239441Y427448D01*
X240790Y424191D01*
X240790Y420665D01*
X239441Y417407D01*
X236948Y414914D01*
X233691Y413565D01*
X230165Y413565D01*
G37*
%LPD*%
%LPC*%
G36*
X112537Y423391D02*
X112537Y423391D01*
X109280Y424741D01*
X106787Y427234D01*
X105437Y430491D01*
X105437Y434017D01*
X106465Y436498D01*
X106486Y436587D01*
X106514Y436674D01*
X106514Y436706D01*
X106521Y436738D01*
X106513Y436828D01*
X106512Y436920D01*
X106500Y436959D01*
X106498Y436983D01*
X106485Y437012D01*
X106465Y437081D01*
X105437Y439562D01*
X105437Y443088D01*
X106559Y445796D01*
X106580Y445885D01*
X106608Y445972D01*
X106608Y446004D01*
X106615Y446036D01*
X106607Y446126D01*
X106606Y446218D01*
X106594Y446257D01*
X106592Y446281D01*
X106579Y446310D01*
X106559Y446379D01*
X105437Y449087D01*
X105437Y452613D01*
X106787Y455870D01*
X109280Y458363D01*
X112537Y459713D01*
X116063Y459713D01*
X119320Y458363D01*
X121813Y455870D01*
X123163Y452613D01*
X123163Y449087D01*
X122041Y446379D01*
X122020Y446290D01*
X121992Y446203D01*
X121992Y446171D01*
X121985Y446139D01*
X121993Y446049D01*
X121994Y445957D01*
X122006Y445918D01*
X122008Y445894D01*
X122021Y445865D01*
X122041Y445796D01*
X123163Y443088D01*
X123163Y439562D01*
X122135Y437081D01*
X122114Y436992D01*
X122086Y436905D01*
X122086Y436873D01*
X122079Y436841D01*
X122087Y436751D01*
X122088Y436659D01*
X122100Y436620D01*
X122102Y436596D01*
X122115Y436567D01*
X122135Y436498D01*
X123163Y434017D01*
X123163Y430491D01*
X121813Y427234D01*
X119320Y424741D01*
X116063Y423391D01*
X112537Y423391D01*
G37*
%LPD*%
%LPC*%
G36*
X112537Y623416D02*
X112537Y623416D01*
X109280Y624766D01*
X106787Y627259D01*
X105437Y630516D01*
X105437Y634042D01*
X106465Y636523D01*
X106486Y636612D01*
X106514Y636699D01*
X106514Y636731D01*
X106521Y636763D01*
X106513Y636853D01*
X106512Y636945D01*
X106500Y636984D01*
X106498Y637008D01*
X106485Y637037D01*
X106465Y637106D01*
X105437Y639587D01*
X105437Y643113D01*
X106559Y645821D01*
X106580Y645910D01*
X106608Y645997D01*
X106608Y646029D01*
X106615Y646061D01*
X106607Y646151D01*
X106606Y646243D01*
X106594Y646282D01*
X106592Y646306D01*
X106579Y646335D01*
X106559Y646404D01*
X105437Y649112D01*
X105437Y652638D01*
X106787Y655895D01*
X109280Y658388D01*
X112537Y659738D01*
X116063Y659738D01*
X119320Y658388D01*
X121813Y655895D01*
X123163Y652638D01*
X123163Y649112D01*
X122041Y646404D01*
X122020Y646315D01*
X121992Y646228D01*
X121992Y646196D01*
X121985Y646164D01*
X121993Y646074D01*
X121994Y645982D01*
X122006Y645943D01*
X122008Y645919D01*
X122021Y645890D01*
X122041Y645821D01*
X123163Y643113D01*
X123163Y639587D01*
X122135Y637106D01*
X122114Y637017D01*
X122086Y636930D01*
X122086Y636898D01*
X122079Y636866D01*
X122087Y636776D01*
X122088Y636684D01*
X122100Y636645D01*
X122102Y636621D01*
X122115Y636592D01*
X122135Y636523D01*
X123163Y634042D01*
X123163Y630516D01*
X121813Y627259D01*
X119320Y624766D01*
X116063Y623416D01*
X112537Y623416D01*
G37*
%LPD*%
%LPC*%
G36*
X112537Y820266D02*
X112537Y820266D01*
X109280Y821616D01*
X106787Y824109D01*
X105437Y827366D01*
X105437Y830892D01*
X106465Y833373D01*
X106486Y833462D01*
X106514Y833549D01*
X106514Y833581D01*
X106521Y833613D01*
X106513Y833703D01*
X106512Y833795D01*
X106500Y833834D01*
X106498Y833858D01*
X106485Y833887D01*
X106465Y833956D01*
X105437Y836437D01*
X105437Y839963D01*
X106559Y842671D01*
X106580Y842760D01*
X106608Y842847D01*
X106608Y842879D01*
X106615Y842911D01*
X106607Y843001D01*
X106606Y843093D01*
X106594Y843132D01*
X106592Y843156D01*
X106579Y843185D01*
X106559Y843254D01*
X105437Y845962D01*
X105437Y849488D01*
X106787Y852745D01*
X109280Y855238D01*
X112537Y856588D01*
X116063Y856588D01*
X119320Y855238D01*
X121813Y852745D01*
X123163Y849488D01*
X123163Y845962D01*
X122041Y843254D01*
X122020Y843165D01*
X121992Y843078D01*
X121992Y843046D01*
X121985Y843014D01*
X121993Y842924D01*
X121994Y842832D01*
X122006Y842793D01*
X122008Y842769D01*
X122021Y842740D01*
X122041Y842671D01*
X123163Y839963D01*
X123163Y836437D01*
X122135Y833956D01*
X122114Y833867D01*
X122086Y833780D01*
X122086Y833748D01*
X122079Y833716D01*
X122087Y833626D01*
X122088Y833534D01*
X122100Y833495D01*
X122102Y833471D01*
X122115Y833442D01*
X122135Y833373D01*
X123163Y830892D01*
X123163Y827366D01*
X121813Y824109D01*
X119320Y821616D01*
X116063Y820266D01*
X112537Y820266D01*
G37*
%LPD*%
%LPC*%
G36*
X191912Y1032537D02*
X191912Y1032537D01*
X188655Y1033887D01*
X186162Y1036380D01*
X184812Y1039637D01*
X184812Y1043163D01*
X186162Y1046420D01*
X188655Y1048913D01*
X191912Y1050263D01*
X195438Y1050263D01*
X198695Y1048913D01*
X201188Y1046420D01*
X202497Y1043262D01*
X202535Y1043201D01*
X202564Y1043136D01*
X202599Y1043097D01*
X202626Y1043053D01*
X202682Y1043007D01*
X202730Y1042954D01*
X202776Y1042929D01*
X202816Y1042896D01*
X202883Y1042870D01*
X202946Y1042836D01*
X202997Y1042827D01*
X203045Y1042808D01*
X203117Y1042805D01*
X203188Y1042792D01*
X203239Y1042800D01*
X203291Y1042797D01*
X203360Y1042817D01*
X203431Y1042828D01*
X203477Y1042852D01*
X203527Y1042866D01*
X203586Y1042907D01*
X203650Y1042939D01*
X203687Y1042977D01*
X203729Y1043006D01*
X203772Y1043064D01*
X203822Y1043115D01*
X203857Y1043178D01*
X203876Y1043204D01*
X203883Y1043226D01*
X203903Y1043262D01*
X205212Y1046420D01*
X207705Y1048913D01*
X210962Y1050263D01*
X214488Y1050263D01*
X217745Y1048913D01*
X220238Y1046420D01*
X221588Y1043163D01*
X221588Y1039637D01*
X220238Y1036380D01*
X217745Y1033887D01*
X214488Y1032537D01*
X210962Y1032537D01*
X207705Y1033887D01*
X205212Y1036380D01*
X203903Y1039538D01*
X203865Y1039599D01*
X203836Y1039664D01*
X203801Y1039703D01*
X203774Y1039747D01*
X203718Y1039793D01*
X203670Y1039846D01*
X203624Y1039871D01*
X203584Y1039904D01*
X203517Y1039930D01*
X203454Y1039964D01*
X203403Y1039973D01*
X203355Y1039992D01*
X203283Y1039995D01*
X203212Y1040008D01*
X203161Y1040000D01*
X203109Y1040003D01*
X203040Y1039983D01*
X202969Y1039972D01*
X202923Y1039948D01*
X202873Y1039934D01*
X202814Y1039893D01*
X202750Y1039861D01*
X202713Y1039823D01*
X202671Y1039794D01*
X202628Y1039736D01*
X202578Y1039685D01*
X202543Y1039622D01*
X202524Y1039596D01*
X202517Y1039574D01*
X202497Y1039538D01*
X201188Y1036380D01*
X198695Y1033887D01*
X195438Y1032537D01*
X191912Y1032537D01*
G37*
%LPD*%
%LPC*%
G36*
X108623Y993519D02*
X108623Y993519D01*
X103999Y995435D01*
X100460Y998974D01*
X98544Y1003598D01*
X98544Y1008602D01*
X100460Y1013226D01*
X103999Y1016765D01*
X108623Y1018681D01*
X113627Y1018681D01*
X118251Y1016765D01*
X121790Y1013226D01*
X123706Y1008602D01*
X123706Y1003598D01*
X121790Y998974D01*
X118251Y995435D01*
X113627Y993519D01*
X108623Y993519D01*
G37*
%LPD*%
%LPC*%
G36*
X258587Y1105562D02*
X258587Y1105562D01*
X255330Y1106912D01*
X252837Y1109405D01*
X251487Y1112662D01*
X251487Y1116188D01*
X252837Y1119445D01*
X253628Y1120237D01*
X253640Y1120253D01*
X253655Y1120265D01*
X253711Y1120353D01*
X253771Y1120436D01*
X253777Y1120455D01*
X253788Y1120472D01*
X253813Y1120573D01*
X253844Y1120672D01*
X253843Y1120691D01*
X253848Y1120711D01*
X253840Y1120814D01*
X253837Y1120917D01*
X253831Y1120936D01*
X253829Y1120956D01*
X253789Y1121051D01*
X253753Y1121148D01*
X253740Y1121164D01*
X253733Y1121182D01*
X253628Y1121313D01*
X252837Y1122105D01*
X251487Y1125362D01*
X251487Y1128888D01*
X252837Y1132145D01*
X255330Y1134638D01*
X258587Y1135988D01*
X262113Y1135988D01*
X265370Y1134638D01*
X267863Y1132145D01*
X269213Y1128888D01*
X269213Y1125362D01*
X267863Y1122105D01*
X267072Y1121313D01*
X267060Y1121297D01*
X267045Y1121285D01*
X266989Y1121197D01*
X266929Y1121114D01*
X266923Y1121095D01*
X266912Y1121078D01*
X266887Y1120977D01*
X266856Y1120878D01*
X266857Y1120859D01*
X266852Y1120839D01*
X266860Y1120736D01*
X266863Y1120633D01*
X266869Y1120614D01*
X266871Y1120594D01*
X266911Y1120499D01*
X266947Y1120402D01*
X266959Y1120386D01*
X266967Y1120368D01*
X267072Y1120237D01*
X267863Y1119445D01*
X269213Y1116188D01*
X269213Y1112662D01*
X267863Y1109405D01*
X265370Y1106912D01*
X262113Y1105562D01*
X258587Y1105562D01*
G37*
%LPD*%
%LPC*%
G36*
X122062Y134012D02*
X122062Y134012D01*
X118805Y135362D01*
X117070Y137096D01*
X116976Y137164D01*
X116882Y137234D01*
X116876Y137236D01*
X116871Y137239D01*
X116760Y137274D01*
X116648Y137310D01*
X116641Y137310D01*
X116635Y137312D01*
X116519Y137309D01*
X116402Y137308D01*
X116395Y137306D01*
X116390Y137305D01*
X116372Y137299D01*
X116241Y137261D01*
X116063Y137187D01*
X112537Y137187D01*
X109280Y138537D01*
X106787Y141030D01*
X105437Y144287D01*
X105437Y147813D01*
X106787Y151070D01*
X109280Y153563D01*
X112537Y154913D01*
X116063Y154913D01*
X119320Y153563D01*
X121055Y151829D01*
X121149Y151761D01*
X121243Y151691D01*
X121249Y151689D01*
X121254Y151686D01*
X121365Y151651D01*
X121477Y151615D01*
X121484Y151615D01*
X121490Y151613D01*
X121606Y151616D01*
X121723Y151617D01*
X121730Y151619D01*
X121735Y151620D01*
X121753Y151626D01*
X121884Y151664D01*
X122062Y151738D01*
X125588Y151738D01*
X128845Y150388D01*
X131338Y147895D01*
X132688Y144638D01*
X132688Y141112D01*
X131338Y137855D01*
X128845Y135362D01*
X125588Y134012D01*
X122062Y134012D01*
G37*
%LPD*%
%LPC*%
G36*
X77612Y807112D02*
X77612Y807112D01*
X74355Y808462D01*
X71862Y810955D01*
X70512Y814212D01*
X70512Y817738D01*
X71634Y820446D01*
X71655Y820535D01*
X71683Y820622D01*
X71683Y820654D01*
X71690Y820686D01*
X71682Y820776D01*
X71681Y820868D01*
X71669Y820907D01*
X71667Y820931D01*
X71654Y820960D01*
X71634Y821029D01*
X70512Y823737D01*
X70512Y827263D01*
X71862Y830520D01*
X74355Y833013D01*
X77612Y834363D01*
X81138Y834363D01*
X84395Y833013D01*
X86888Y830520D01*
X88238Y827263D01*
X88238Y823737D01*
X87116Y821029D01*
X87095Y820940D01*
X87067Y820853D01*
X87067Y820821D01*
X87060Y820789D01*
X87068Y820699D01*
X87069Y820607D01*
X87081Y820568D01*
X87083Y820544D01*
X87096Y820515D01*
X87116Y820446D01*
X88238Y817738D01*
X88238Y814212D01*
X86888Y810955D01*
X84395Y808462D01*
X81138Y807112D01*
X77612Y807112D01*
G37*
%LPD*%
%LPC*%
G36*
X77612Y410237D02*
X77612Y410237D01*
X74355Y411587D01*
X71862Y414080D01*
X70512Y417337D01*
X70512Y420863D01*
X71634Y423571D01*
X71655Y423660D01*
X71683Y423747D01*
X71683Y423779D01*
X71690Y423811D01*
X71682Y423901D01*
X71681Y423993D01*
X71669Y424032D01*
X71667Y424056D01*
X71654Y424085D01*
X71634Y424154D01*
X70512Y426862D01*
X70512Y430388D01*
X71862Y433645D01*
X74355Y436138D01*
X77612Y437488D01*
X81138Y437488D01*
X84395Y436138D01*
X86888Y433645D01*
X88238Y430388D01*
X88238Y426862D01*
X87116Y424154D01*
X87095Y424065D01*
X87067Y423978D01*
X87067Y423946D01*
X87060Y423914D01*
X87068Y423824D01*
X87069Y423732D01*
X87081Y423693D01*
X87083Y423669D01*
X87096Y423640D01*
X87116Y423571D01*
X88238Y420863D01*
X88238Y417337D01*
X86888Y414080D01*
X84395Y411587D01*
X81138Y410237D01*
X77612Y410237D01*
G37*
%LPD*%
%LPC*%
G36*
X77612Y610262D02*
X77612Y610262D01*
X74355Y611612D01*
X71862Y614105D01*
X70512Y617362D01*
X70512Y620888D01*
X71634Y623596D01*
X71655Y623685D01*
X71683Y623772D01*
X71683Y623804D01*
X71690Y623836D01*
X71682Y623926D01*
X71681Y624018D01*
X71669Y624057D01*
X71667Y624081D01*
X71654Y624110D01*
X71634Y624179D01*
X70512Y626887D01*
X70512Y630413D01*
X71862Y633670D01*
X74355Y636163D01*
X77612Y637513D01*
X81138Y637513D01*
X84395Y636163D01*
X86888Y633670D01*
X88238Y630413D01*
X88238Y626887D01*
X87116Y624179D01*
X87095Y624090D01*
X87067Y624003D01*
X87067Y623971D01*
X87060Y623939D01*
X87068Y623849D01*
X87069Y623757D01*
X87081Y623718D01*
X87083Y623694D01*
X87096Y623665D01*
X87116Y623596D01*
X88238Y620888D01*
X88238Y617362D01*
X86888Y614105D01*
X84395Y611612D01*
X81138Y610262D01*
X77612Y610262D01*
G37*
%LPD*%
%LPC*%
G36*
X1185227Y1081023D02*
X1185227Y1081023D01*
X1181119Y1082725D01*
X1177975Y1085869D01*
X1176273Y1089977D01*
X1176273Y1094423D01*
X1177975Y1098531D01*
X1181119Y1101675D01*
X1185227Y1103377D01*
X1189673Y1103377D01*
X1193781Y1101675D01*
X1196925Y1098531D01*
X1198627Y1094423D01*
X1198627Y1089977D01*
X1196925Y1085869D01*
X1193781Y1082725D01*
X1189673Y1081023D01*
X1185227Y1081023D01*
G37*
%LPD*%
%LPC*%
G36*
X1261427Y1081023D02*
X1261427Y1081023D01*
X1257319Y1082725D01*
X1254175Y1085869D01*
X1252473Y1089977D01*
X1252473Y1094423D01*
X1254175Y1098531D01*
X1257319Y1101675D01*
X1261427Y1103377D01*
X1265873Y1103377D01*
X1269981Y1101675D01*
X1273125Y1098531D01*
X1274827Y1094423D01*
X1274827Y1089977D01*
X1273125Y1085869D01*
X1269981Y1082725D01*
X1265873Y1081023D01*
X1261427Y1081023D01*
G37*
%LPD*%
%LPC*%
G36*
X258587Y362612D02*
X258587Y362612D01*
X255330Y363962D01*
X252837Y366455D01*
X251487Y369712D01*
X251487Y373238D01*
X252837Y376495D01*
X255330Y378988D01*
X258587Y380338D01*
X262113Y380338D01*
X265370Y378988D01*
X267863Y376495D01*
X269213Y373238D01*
X269213Y369712D01*
X267863Y366455D01*
X265370Y363962D01*
X262113Y362612D01*
X258587Y362612D01*
G37*
%LPD*%
%LPC*%
G36*
X230012Y343562D02*
X230012Y343562D01*
X226755Y344912D01*
X224262Y347405D01*
X222912Y350662D01*
X222912Y354188D01*
X224262Y357445D01*
X226755Y359938D01*
X230012Y361288D01*
X233538Y361288D01*
X236795Y359938D01*
X239288Y357445D01*
X240638Y354188D01*
X240638Y350662D01*
X239288Y347405D01*
X236795Y344912D01*
X233538Y343562D01*
X230012Y343562D01*
G37*
%LPD*%
%LPC*%
G36*
X303037Y340387D02*
X303037Y340387D01*
X299780Y341737D01*
X297287Y344230D01*
X295937Y347487D01*
X295937Y351013D01*
X297287Y354270D01*
X299780Y356763D01*
X303037Y358113D01*
X306563Y358113D01*
X309820Y356763D01*
X312313Y354270D01*
X313663Y351013D01*
X313663Y347487D01*
X312313Y344230D01*
X309820Y341737D01*
X306563Y340387D01*
X303037Y340387D01*
G37*
%LPD*%
%LPC*%
G36*
X274462Y340387D02*
X274462Y340387D01*
X271205Y341737D01*
X268712Y344230D01*
X267362Y347487D01*
X267362Y351013D01*
X268712Y354270D01*
X271205Y356763D01*
X274462Y358113D01*
X277988Y358113D01*
X281245Y356763D01*
X283738Y354270D01*
X285088Y351013D01*
X285088Y347487D01*
X283738Y344230D01*
X281245Y341737D01*
X277988Y340387D01*
X274462Y340387D01*
G37*
%LPD*%
%LPC*%
G36*
X277637Y422937D02*
X277637Y422937D01*
X274380Y424287D01*
X271887Y426780D01*
X270537Y430037D01*
X270537Y433563D01*
X271887Y436820D01*
X274380Y439313D01*
X277637Y440663D01*
X281163Y440663D01*
X284420Y439313D01*
X286913Y436820D01*
X288263Y433563D01*
X288263Y430037D01*
X286913Y426780D01*
X284420Y424287D01*
X281163Y422937D01*
X277637Y422937D01*
G37*
%LPD*%
%LPC*%
G36*
X1277762Y997612D02*
X1277762Y997612D01*
X1274505Y998962D01*
X1272012Y1001455D01*
X1270662Y1004712D01*
X1270662Y1008238D01*
X1272012Y1011495D01*
X1274505Y1013988D01*
X1277762Y1015338D01*
X1281288Y1015338D01*
X1284545Y1013988D01*
X1287038Y1011495D01*
X1288388Y1008238D01*
X1288388Y1004712D01*
X1287038Y1001455D01*
X1284545Y998962D01*
X1281288Y997612D01*
X1277762Y997612D01*
G37*
%LPD*%
%LPC*%
G36*
X255412Y438812D02*
X255412Y438812D01*
X252155Y440162D01*
X249662Y442655D01*
X248312Y445912D01*
X248312Y449438D01*
X249662Y452695D01*
X252155Y455188D01*
X255412Y456538D01*
X258938Y456538D01*
X262195Y455188D01*
X264688Y452695D01*
X266038Y449438D01*
X266038Y445912D01*
X264688Y442655D01*
X262195Y440162D01*
X258938Y438812D01*
X255412Y438812D01*
G37*
%LPD*%
%LPC*%
G36*
X1306337Y1035712D02*
X1306337Y1035712D01*
X1303080Y1037062D01*
X1300587Y1039555D01*
X1299237Y1042812D01*
X1299237Y1046338D01*
X1300587Y1049595D01*
X1303080Y1052088D01*
X1306337Y1053438D01*
X1309863Y1053438D01*
X1313120Y1052088D01*
X1315613Y1049595D01*
X1316963Y1046338D01*
X1316963Y1042812D01*
X1315613Y1039555D01*
X1313120Y1037062D01*
X1309863Y1035712D01*
X1306337Y1035712D01*
G37*
%LPD*%
%LPC*%
G36*
X1192037Y1035712D02*
X1192037Y1035712D01*
X1188780Y1037062D01*
X1186287Y1039555D01*
X1184937Y1042812D01*
X1184937Y1046338D01*
X1186287Y1049595D01*
X1188780Y1052088D01*
X1192037Y1053438D01*
X1195563Y1053438D01*
X1198820Y1052088D01*
X1201313Y1049595D01*
X1202663Y1046338D01*
X1202663Y1042812D01*
X1201313Y1039555D01*
X1198820Y1037062D01*
X1195563Y1035712D01*
X1192037Y1035712D01*
G37*
%LPD*%
%LPC*%
G36*
X1077737Y1035712D02*
X1077737Y1035712D01*
X1074480Y1037062D01*
X1071987Y1039555D01*
X1070637Y1042812D01*
X1070637Y1046338D01*
X1071987Y1049595D01*
X1074480Y1052088D01*
X1077737Y1053438D01*
X1081263Y1053438D01*
X1084520Y1052088D01*
X1087013Y1049595D01*
X1088363Y1046338D01*
X1088363Y1042812D01*
X1087013Y1039555D01*
X1084520Y1037062D01*
X1081263Y1035712D01*
X1077737Y1035712D01*
G37*
%LPD*%
%LPC*%
G36*
X153812Y1067462D02*
X153812Y1067462D01*
X150555Y1068812D01*
X148062Y1071305D01*
X146712Y1074562D01*
X146712Y1078088D01*
X148062Y1081345D01*
X150555Y1083838D01*
X153812Y1085188D01*
X157338Y1085188D01*
X160595Y1083838D01*
X163088Y1081345D01*
X164438Y1078088D01*
X164438Y1074562D01*
X163088Y1071305D01*
X160595Y1068812D01*
X157338Y1067462D01*
X153812Y1067462D01*
G37*
%LPD*%
%LPC*%
G36*
X1049162Y997612D02*
X1049162Y997612D01*
X1045905Y998962D01*
X1043412Y1001455D01*
X1042062Y1004712D01*
X1042062Y1008238D01*
X1043412Y1011495D01*
X1045905Y1013988D01*
X1049162Y1015338D01*
X1052688Y1015338D01*
X1055945Y1013988D01*
X1058438Y1011495D01*
X1059788Y1008238D01*
X1059788Y1004712D01*
X1058438Y1001455D01*
X1055945Y998962D01*
X1052688Y997612D01*
X1049162Y997612D01*
G37*
%LPD*%
%LPC*%
G36*
X1163462Y997612D02*
X1163462Y997612D01*
X1160205Y998962D01*
X1157712Y1001455D01*
X1156362Y1004712D01*
X1156362Y1008238D01*
X1157712Y1011495D01*
X1160205Y1013988D01*
X1163462Y1015338D01*
X1166988Y1015338D01*
X1170245Y1013988D01*
X1172738Y1011495D01*
X1174088Y1008238D01*
X1174088Y1004712D01*
X1172738Y1001455D01*
X1170245Y998962D01*
X1166988Y997612D01*
X1163462Y997612D01*
G37*
%LPD*%
%LPC*%
G36*
X258849Y394162D02*
X258849Y394162D01*
X255592Y395512D01*
X253099Y398005D01*
X251750Y401262D01*
X251750Y404788D01*
X253099Y408045D01*
X255592Y410538D01*
X258849Y411888D01*
X262375Y411888D01*
X265633Y410538D01*
X268126Y408045D01*
X269475Y404788D01*
X269475Y401262D01*
X268126Y398005D01*
X265633Y395512D01*
X262375Y394162D01*
X258849Y394162D01*
G37*
%LPD*%
D10*
X482346Y1057543D02*
X482221Y1057541D01*
X482096Y1057535D01*
X481971Y1057526D01*
X481847Y1057512D01*
X481723Y1057495D01*
X481599Y1057474D01*
X481477Y1057449D01*
X481355Y1057420D01*
X481234Y1057388D01*
X481114Y1057352D01*
X480995Y1057312D01*
X480878Y1057269D01*
X480762Y1057222D01*
X480647Y1057171D01*
X480535Y1057117D01*
X480423Y1057059D01*
X480314Y1056999D01*
X480207Y1056934D01*
X480101Y1056867D01*
X479998Y1056796D01*
X479897Y1056722D01*
X479798Y1056645D01*
X479702Y1056565D01*
X479608Y1056482D01*
X479517Y1056397D01*
X479428Y1056308D01*
X479343Y1056217D01*
X479260Y1056123D01*
X479180Y1056027D01*
X479103Y1055928D01*
X479029Y1055827D01*
X478958Y1055724D01*
X478891Y1055618D01*
X478826Y1055511D01*
X478766Y1055402D01*
X478708Y1055290D01*
X478654Y1055178D01*
X478603Y1055063D01*
X478556Y1054947D01*
X478513Y1054830D01*
X478473Y1054711D01*
X478437Y1054591D01*
X478405Y1054470D01*
X478376Y1054348D01*
X478351Y1054226D01*
X478330Y1054102D01*
X478313Y1053978D01*
X478299Y1053854D01*
X478290Y1053729D01*
X478284Y1053604D01*
X478282Y1053479D01*
X478284Y1053336D01*
X478290Y1053194D01*
X478300Y1053051D01*
X478313Y1052909D01*
X478331Y1052768D01*
X478352Y1052626D01*
X478377Y1052486D01*
X478406Y1052346D01*
X478439Y1052207D01*
X478476Y1052069D01*
X478516Y1051932D01*
X478560Y1051797D01*
X478608Y1051662D01*
X478660Y1051529D01*
X478715Y1051397D01*
X478774Y1051267D01*
X478836Y1051139D01*
X478902Y1051012D01*
X478971Y1050887D01*
X479043Y1050764D01*
X479119Y1050643D01*
X479198Y1050525D01*
X479281Y1050408D01*
X479366Y1050294D01*
X479455Y1050182D01*
X479546Y1050073D01*
X479641Y1049966D01*
X479738Y1049861D01*
X479839Y1049760D01*
X479942Y1049661D01*
X480047Y1049565D01*
X480156Y1049472D01*
X480267Y1049382D01*
X480380Y1049295D01*
X480495Y1049211D01*
X480613Y1049131D01*
X480733Y1049053D01*
X480855Y1048979D01*
X480979Y1048909D01*
X481105Y1048841D01*
X481233Y1048778D01*
X481362Y1048717D01*
X481493Y1048660D01*
X481625Y1048607D01*
X481759Y1048558D01*
X481894Y1048512D01*
X485507Y1056188D02*
X485415Y1056282D01*
X485321Y1056372D01*
X485224Y1056460D01*
X485124Y1056545D01*
X485022Y1056627D01*
X484917Y1056705D01*
X484810Y1056781D01*
X484701Y1056853D01*
X484590Y1056922D01*
X484476Y1056988D01*
X484361Y1057050D01*
X484244Y1057109D01*
X484125Y1057164D01*
X484005Y1057215D01*
X483883Y1057263D01*
X483760Y1057308D01*
X483636Y1057348D01*
X483510Y1057385D01*
X483383Y1057418D01*
X483256Y1057447D01*
X483127Y1057473D01*
X482998Y1057494D01*
X482868Y1057512D01*
X482738Y1057525D01*
X482608Y1057535D01*
X482477Y1057541D01*
X482346Y1057543D01*
X485507Y1056188D02*
X494538Y1048512D01*
X494538Y1057543D01*
D11*
X1702816Y291084D02*
X1702816Y267716D01*
X1702816Y291084D02*
X1713202Y291084D01*
X1713202Y280698D02*
X1702816Y280698D01*
X1720603Y271611D02*
X1720603Y291084D01*
X1720603Y271611D02*
X1720605Y271489D01*
X1720611Y271366D01*
X1720620Y271244D01*
X1720634Y271123D01*
X1720651Y271002D01*
X1720672Y270881D01*
X1720697Y270761D01*
X1720725Y270642D01*
X1720758Y270524D01*
X1720794Y270407D01*
X1720833Y270292D01*
X1720877Y270177D01*
X1720923Y270064D01*
X1720974Y269953D01*
X1721028Y269843D01*
X1721085Y269735D01*
X1721145Y269628D01*
X1721209Y269524D01*
X1721277Y269422D01*
X1721347Y269322D01*
X1721420Y269224D01*
X1721497Y269128D01*
X1721576Y269035D01*
X1721659Y268945D01*
X1721744Y268857D01*
X1721832Y268772D01*
X1721922Y268689D01*
X1722015Y268610D01*
X1722111Y268533D01*
X1722209Y268460D01*
X1722309Y268390D01*
X1722411Y268322D01*
X1722515Y268258D01*
X1722622Y268198D01*
X1722730Y268141D01*
X1722840Y268087D01*
X1722951Y268036D01*
X1723064Y267990D01*
X1723179Y267946D01*
X1723294Y267907D01*
X1723411Y267871D01*
X1723529Y267838D01*
X1723648Y267810D01*
X1723768Y267785D01*
X1723889Y267764D01*
X1724010Y267747D01*
X1724131Y267733D01*
X1724253Y267724D01*
X1724376Y267718D01*
X1724498Y267716D01*
X1735127Y267716D02*
X1741618Y267716D01*
X1735127Y267716D02*
X1735005Y267718D01*
X1734882Y267724D01*
X1734760Y267733D01*
X1734639Y267747D01*
X1734518Y267764D01*
X1734397Y267785D01*
X1734277Y267810D01*
X1734158Y267838D01*
X1734040Y267871D01*
X1733923Y267907D01*
X1733808Y267946D01*
X1733693Y267990D01*
X1733580Y268036D01*
X1733469Y268087D01*
X1733359Y268141D01*
X1733251Y268198D01*
X1733144Y268258D01*
X1733040Y268322D01*
X1732938Y268390D01*
X1732838Y268460D01*
X1732740Y268533D01*
X1732644Y268610D01*
X1732551Y268689D01*
X1732461Y268772D01*
X1732373Y268857D01*
X1732288Y268945D01*
X1732205Y269035D01*
X1732126Y269128D01*
X1732049Y269224D01*
X1731976Y269322D01*
X1731906Y269422D01*
X1731838Y269524D01*
X1731774Y269628D01*
X1731714Y269735D01*
X1731657Y269843D01*
X1731603Y269953D01*
X1731552Y270064D01*
X1731506Y270177D01*
X1731462Y270292D01*
X1731423Y270407D01*
X1731387Y270524D01*
X1731354Y270642D01*
X1731326Y270761D01*
X1731301Y270881D01*
X1731280Y271002D01*
X1731263Y271123D01*
X1731249Y271244D01*
X1731240Y271366D01*
X1731234Y271489D01*
X1731232Y271611D01*
X1731232Y278102D01*
X1731234Y278245D01*
X1731240Y278388D01*
X1731250Y278531D01*
X1731264Y278673D01*
X1731281Y278815D01*
X1731303Y278957D01*
X1731328Y279098D01*
X1731358Y279238D01*
X1731391Y279377D01*
X1731428Y279515D01*
X1731469Y279652D01*
X1731513Y279788D01*
X1731562Y279923D01*
X1731614Y280056D01*
X1731669Y280188D01*
X1731729Y280318D01*
X1731792Y280447D01*
X1731858Y280574D01*
X1731928Y280699D01*
X1732001Y280821D01*
X1732078Y280942D01*
X1732158Y281061D01*
X1732241Y281177D01*
X1732327Y281292D01*
X1732416Y281403D01*
X1732509Y281513D01*
X1732604Y281619D01*
X1732703Y281723D01*
X1732804Y281824D01*
X1732908Y281923D01*
X1733014Y282018D01*
X1733124Y282111D01*
X1733235Y282200D01*
X1733350Y282286D01*
X1733466Y282369D01*
X1733585Y282449D01*
X1733706Y282526D01*
X1733829Y282599D01*
X1733953Y282669D01*
X1734080Y282735D01*
X1734209Y282798D01*
X1734339Y282858D01*
X1734471Y282913D01*
X1734604Y282965D01*
X1734739Y283014D01*
X1734875Y283058D01*
X1735012Y283099D01*
X1735150Y283136D01*
X1735289Y283169D01*
X1735429Y283199D01*
X1735570Y283224D01*
X1735712Y283246D01*
X1735854Y283263D01*
X1735996Y283277D01*
X1736139Y283287D01*
X1736282Y283293D01*
X1736425Y283295D01*
X1736568Y283293D01*
X1736711Y283287D01*
X1736854Y283277D01*
X1736996Y283263D01*
X1737138Y283246D01*
X1737280Y283224D01*
X1737421Y283199D01*
X1737561Y283169D01*
X1737700Y283136D01*
X1737838Y283099D01*
X1737975Y283058D01*
X1738111Y283014D01*
X1738246Y282965D01*
X1738379Y282913D01*
X1738511Y282858D01*
X1738641Y282798D01*
X1738770Y282735D01*
X1738897Y282669D01*
X1739022Y282599D01*
X1739144Y282526D01*
X1739265Y282449D01*
X1739384Y282369D01*
X1739500Y282286D01*
X1739615Y282200D01*
X1739726Y282111D01*
X1739836Y282018D01*
X1739942Y281923D01*
X1740046Y281824D01*
X1740147Y281723D01*
X1740246Y281619D01*
X1740341Y281513D01*
X1740434Y281403D01*
X1740523Y281292D01*
X1740609Y281177D01*
X1740692Y281061D01*
X1740772Y280942D01*
X1740849Y280821D01*
X1740922Y280699D01*
X1740992Y280574D01*
X1741058Y280447D01*
X1741121Y280318D01*
X1741181Y280188D01*
X1741236Y280056D01*
X1741288Y279923D01*
X1741337Y279788D01*
X1741381Y279652D01*
X1741422Y279515D01*
X1741459Y279377D01*
X1741492Y279238D01*
X1741522Y279098D01*
X1741547Y278957D01*
X1741569Y278815D01*
X1741586Y278673D01*
X1741600Y278531D01*
X1741610Y278388D01*
X1741616Y278245D01*
X1741618Y278102D01*
X1741618Y275505D01*
X1731232Y275505D01*
X1748631Y267716D02*
X1759017Y283295D01*
X1748631Y283295D02*
X1759017Y267716D01*
X1766124Y285891D02*
X1772615Y291084D01*
X1772615Y267716D01*
X1766124Y267716D02*
X1779106Y267716D01*
D12*
X142125Y1054100D03*
X81125Y1054100D03*
X111125Y1006100D03*
D13*
X87150Y875775D03*
X87150Y730775D03*
X38150Y724775D03*
X38150Y881775D03*
X87150Y678925D03*
X87150Y533925D03*
X38150Y527925D03*
X38150Y684925D03*
X87150Y478900D03*
X87150Y333900D03*
X38150Y327900D03*
X38150Y484900D03*
X87150Y174100D03*
X87150Y29100D03*
X38150Y23100D03*
X38150Y180100D03*
D14*
X1187450Y1092200D03*
X1263650Y1092200D03*
D15*
X406400Y76200D03*
X76200Y266700D03*
X406400Y1066800D03*
X76200Y939800D03*
X1435100Y1079500D03*
X1016000Y1079500D03*
D16*
X114300Y450850D03*
X257175Y447675D03*
X114300Y650875D03*
X339725Y460375D03*
X114300Y847725D03*
X342900Y356561D03*
X114300Y146050D03*
X327025Y304800D03*
X114300Y432254D03*
X225425Y431800D03*
X79375Y428625D03*
X231928Y422428D03*
X114300Y632279D03*
X329184Y461772D03*
X79375Y628650D03*
X323850Y431800D03*
X79375Y825500D03*
X342900Y374650D03*
X114300Y829129D03*
X339725Y365125D03*
X130175Y123825D03*
X339725Y311150D03*
X114300Y120650D03*
X328907Y316207D03*
D10*
X1471519Y903345D02*
X1478080Y914593D01*
X1471519Y903345D02*
X1463088Y893419D01*
X1453050Y885123D01*
X1447524Y881668D01*
X1447524Y881668D01*
X1447065Y881409D01*
X1445193Y880350D01*
X1445193Y880350D01*
X1420167Y866199D01*
X1365990Y834330D01*
X1339177Y817935D01*
X1331159Y813032D01*
X1331159Y813032D01*
X1317405Y800221D01*
X1317405Y800221D01*
X1317405Y800221D01*
X1306488Y784919D01*
X1306488Y784919D01*
X1298848Y767745D01*
X1298848Y767745D01*
X1294793Y749391D01*
X1294793Y749391D01*
X1294640Y739994D01*
X1294596Y737317D01*
X1294559Y735013D01*
X1294638Y730140D01*
X1294638Y412750D01*
X1294240Y398551D01*
X1291060Y370331D01*
X1284741Y342645D01*
X1275361Y315840D01*
X1263040Y290254D01*
X1247931Y266208D01*
X1230225Y244006D01*
X1210144Y223925D01*
X1187942Y206219D01*
X1163896Y191110D01*
X1138310Y178789D01*
X1111505Y169409D01*
X1083819Y163090D01*
X1055599Y159910D01*
X1041400Y159512D01*
X593183Y159512D01*
X573356Y156016D01*
X573356Y156016D01*
X554437Y149130D01*
X554437Y149130D01*
X537001Y139063D01*
X537001Y139063D01*
X521578Y126122D01*
X521578Y126122D01*
X521578Y126122D01*
X508637Y110699D01*
X508637Y110699D01*
X498570Y93263D01*
X498570Y93263D01*
X491684Y74344D01*
X491684Y74344D01*
X488188Y54517D01*
X488188Y13462D01*
X438150Y13462D01*
X438150Y65096D01*
X439942Y71784D01*
X439942Y80616D01*
X438150Y87304D01*
X438150Y214531D01*
X444755Y214531D01*
X451093Y217156D01*
X455944Y222007D01*
X458569Y228345D01*
X458569Y232183D01*
X460618Y233031D01*
X465469Y237882D01*
X468094Y244220D01*
X468094Y247885D01*
X469849Y248612D01*
X474699Y253463D01*
X477325Y259801D01*
X477325Y266661D01*
X474699Y272999D01*
X469849Y277849D01*
X463511Y280475D01*
X456651Y280475D01*
X450313Y277849D01*
X445462Y272999D01*
X442837Y266661D01*
X442837Y262996D01*
X441082Y262269D01*
X438150Y259337D01*
X438150Y412775D01*
X488188Y412775D01*
X488188Y402683D01*
X491684Y382856D01*
X498570Y363937D01*
X508637Y346501D01*
X508637Y346501D01*
X521578Y331078D01*
X521578Y331078D01*
X537001Y318137D01*
X537001Y318137D01*
X554437Y308070D01*
X554437Y308070D01*
X573356Y301184D01*
X573356Y301184D01*
X593183Y297688D01*
X1051467Y297688D01*
X1071294Y301184D01*
X1071294Y301184D01*
X1090213Y308070D01*
X1090213Y308070D01*
X1107649Y318137D01*
X1107649Y318137D01*
X1123072Y331078D01*
X1123072Y331078D01*
X1123072Y331078D01*
X1136013Y346501D01*
X1136013Y346501D01*
X1146080Y363937D01*
X1146080Y363937D01*
X1152966Y382856D01*
X1152966Y382856D01*
X1156462Y402683D01*
X1156462Y730140D01*
X1156541Y735012D01*
X1156495Y737834D01*
X1156460Y739994D01*
X1156307Y749391D01*
X1156307Y749391D01*
X1152252Y767745D01*
X1152252Y767745D01*
X1144612Y784919D01*
X1144612Y784919D01*
X1133695Y800221D01*
X1133695Y800221D01*
X1119941Y813032D01*
X1119941Y813032D01*
X1111923Y817935D01*
X1111396Y818257D01*
X1085110Y834330D01*
X1030933Y866199D01*
X1005907Y880350D01*
X1005907Y880350D01*
X1003738Y881577D01*
X1003576Y881668D01*
X1003576Y881668D01*
X998050Y885123D01*
X988012Y893419D01*
X979581Y903345D01*
X973020Y914593D01*
X968529Y926817D01*
X966249Y939639D01*
X965962Y946150D01*
X965962Y984250D01*
X1092041Y984250D01*
X1093456Y980832D01*
X1098307Y975981D01*
X1104645Y973356D01*
X1111505Y973356D01*
X1114425Y974566D01*
X1117345Y973356D01*
X1124205Y973356D01*
X1130543Y975981D01*
X1135394Y980832D01*
X1136763Y984137D01*
X1137035Y984250D01*
X1485138Y984250D01*
X1485138Y946150D01*
X1484851Y939639D01*
X1482571Y926817D01*
X1478080Y914593D01*
X488188Y25400D02*
X438150Y25400D01*
X438150Y38100D02*
X488188Y38100D01*
X488188Y50800D02*
X438150Y50800D01*
X438150Y63500D02*
X489772Y63500D01*
X492360Y76200D02*
X439942Y76200D01*
X438150Y88900D02*
X496982Y88900D01*
X503383Y101600D02*
X438150Y101600D01*
X438150Y114300D02*
X511658Y114300D01*
X522625Y127000D02*
X438150Y127000D01*
X438150Y139700D02*
X538104Y139700D01*
X563421Y152400D02*
X438150Y152400D01*
X438150Y165100D02*
X1092625Y165100D01*
X1135485Y177800D02*
X438150Y177800D01*
X438150Y190500D02*
X1162629Y190500D01*
X1183137Y203200D02*
X438150Y203200D01*
X448060Y215900D02*
X1200081Y215900D01*
X1214819Y228600D02*
X458569Y228600D01*
X466884Y241300D02*
X1227519Y241300D01*
X1238195Y254000D02*
X474922Y254000D01*
X442853Y266700D02*
X438150Y266700D01*
X477308Y266700D02*
X1248240Y266700D01*
X454056Y279400D02*
X438150Y279400D01*
X466105Y279400D02*
X1256220Y279400D01*
X1263929Y292100D02*
X438150Y292100D01*
X438150Y304800D02*
X563421Y304800D01*
X1081229Y304800D02*
X1270045Y304800D01*
X538104Y317500D02*
X438150Y317500D01*
X1106546Y317500D02*
X1275942Y317500D01*
X522625Y330200D02*
X438150Y330200D01*
X1122025Y330200D02*
X1280386Y330200D01*
X511658Y342900D02*
X438150Y342900D01*
X1132992Y342900D02*
X1284799Y342900D01*
X503383Y355600D02*
X438150Y355600D01*
X1141267Y355600D02*
X1287698Y355600D01*
X496982Y368300D02*
X438150Y368300D01*
X1147668Y368300D02*
X1290596Y368300D01*
X492360Y381000D02*
X438150Y381000D01*
X1152290Y381000D02*
X1292262Y381000D01*
X489772Y393700D02*
X438150Y393700D01*
X1154878Y393700D02*
X1293693Y393700D01*
X488188Y406400D02*
X438150Y406400D01*
X1156462Y406400D02*
X1294460Y406400D01*
X1294638Y419100D02*
X1156462Y419100D01*
X1156462Y431800D02*
X1294638Y431800D01*
X1294638Y444500D02*
X1156462Y444500D01*
X1156462Y457200D02*
X1294638Y457200D01*
X1294638Y469900D02*
X1156462Y469900D01*
X1156462Y482600D02*
X1294638Y482600D01*
X1294638Y495300D02*
X1156462Y495300D01*
X1156462Y508000D02*
X1294638Y508000D01*
X1294638Y520700D02*
X1156462Y520700D01*
X1156462Y533400D02*
X1294638Y533400D01*
X1294638Y546100D02*
X1156462Y546100D01*
X1156462Y558800D02*
X1294638Y558800D01*
X1294638Y571500D02*
X1156462Y571500D01*
X1156462Y584200D02*
X1294638Y584200D01*
X1294638Y596900D02*
X1156462Y596900D01*
X1156462Y609600D02*
X1294638Y609600D01*
X1294638Y622300D02*
X1156462Y622300D01*
X1156462Y635000D02*
X1294638Y635000D01*
X1294638Y647700D02*
X1156462Y647700D01*
X1156462Y660400D02*
X1294638Y660400D01*
X1294638Y673100D02*
X1156462Y673100D01*
X1156462Y685800D02*
X1294638Y685800D01*
X1294638Y698500D02*
X1156462Y698500D01*
X1156462Y711200D02*
X1294638Y711200D01*
X1294638Y723900D02*
X1156462Y723900D01*
X1156516Y736600D02*
X1294585Y736600D01*
X1294791Y749300D02*
X1156309Y749300D01*
X1153521Y762000D02*
X1297579Y762000D01*
X1301942Y774700D02*
X1149158Y774700D01*
X1142842Y787400D02*
X1308258Y787400D01*
X1317319Y800100D02*
X1133781Y800100D01*
X1120190Y812800D02*
X1330910Y812800D01*
X1351549Y825500D02*
X1099551Y825500D01*
X1078531Y838200D02*
X1372569Y838200D01*
X1394159Y850900D02*
X1056941Y850900D01*
X1035351Y863600D02*
X1415749Y863600D01*
X1438030Y876300D02*
X1013070Y876300D01*
X993358Y889000D02*
X1457742Y889000D01*
X1470122Y901700D02*
X980978Y901700D01*
X973132Y914400D02*
X1477968Y914400D01*
X1482621Y927100D02*
X968479Y927100D01*
X966242Y939800D02*
X1484858Y939800D01*
X1485138Y952500D02*
X965962Y952500D01*
X965962Y965200D02*
X1485138Y965200D01*
X1096388Y977900D02*
X965962Y977900D01*
X1132462Y977900D02*
X1485138Y977900D01*
X444500Y214531D02*
X444500Y13462D01*
X444500Y270676D02*
X444500Y412775D01*
X457200Y225040D02*
X457200Y13462D01*
X457200Y280475D02*
X457200Y412775D01*
X469900Y248663D02*
X469900Y13462D01*
X469900Y277798D02*
X469900Y412775D01*
X482600Y412775D02*
X482600Y13462D01*
X495300Y84279D02*
X495300Y372921D01*
X508000Y347604D02*
X508000Y109596D01*
X520700Y125075D02*
X520700Y332125D01*
X533400Y321158D02*
X533400Y136042D01*
X546100Y144317D02*
X546100Y312883D01*
X558800Y306482D02*
X558800Y150718D01*
X571500Y155340D02*
X571500Y301860D01*
X584200Y299272D02*
X584200Y157928D01*
X596900Y159512D02*
X596900Y297688D01*
X609600Y297688D02*
X609600Y159512D01*
X622300Y159512D02*
X622300Y297688D01*
X635000Y297688D02*
X635000Y159512D01*
X647700Y159512D02*
X647700Y297688D01*
X660400Y297688D02*
X660400Y159512D01*
X673100Y159512D02*
X673100Y297688D01*
X685800Y297688D02*
X685800Y159512D01*
X698500Y159512D02*
X698500Y297688D01*
X711200Y297688D02*
X711200Y159512D01*
X723900Y159512D02*
X723900Y297688D01*
X736600Y297688D02*
X736600Y159512D01*
X749300Y159512D02*
X749300Y297688D01*
X762000Y297688D02*
X762000Y159512D01*
X774700Y159512D02*
X774700Y297688D01*
X787400Y297688D02*
X787400Y159512D01*
X800100Y159512D02*
X800100Y297688D01*
X812800Y297688D02*
X812800Y159512D01*
X825500Y159512D02*
X825500Y297688D01*
X838200Y297688D02*
X838200Y159512D01*
X850900Y159512D02*
X850900Y297688D01*
X863600Y297688D02*
X863600Y159512D01*
X876300Y159512D02*
X876300Y297688D01*
X889000Y297688D02*
X889000Y159512D01*
X901700Y159512D02*
X901700Y297688D01*
X914400Y297688D02*
X914400Y159512D01*
X927100Y159512D02*
X927100Y297688D01*
X939800Y297688D02*
X939800Y159512D01*
X952500Y159512D02*
X952500Y297688D01*
X965200Y297688D02*
X965200Y159512D01*
X977900Y159512D02*
X977900Y297688D01*
X977900Y906227D02*
X977900Y984250D01*
X990600Y297688D02*
X990600Y159512D01*
X990600Y891280D02*
X990600Y984250D01*
X1003300Y297688D02*
X1003300Y159512D01*
X1003300Y881841D02*
X1003300Y984250D01*
X1016000Y297688D02*
X1016000Y159512D01*
X1016000Y874643D02*
X1016000Y984250D01*
X1028700Y297688D02*
X1028700Y159512D01*
X1028700Y867461D02*
X1028700Y984250D01*
X1041400Y297688D02*
X1041400Y159512D01*
X1041400Y860042D02*
X1041400Y984250D01*
X1054100Y298152D02*
X1054100Y159868D01*
X1054100Y852571D02*
X1054100Y984250D01*
X1066800Y300392D02*
X1066800Y161172D01*
X1066800Y845100D02*
X1066800Y984250D01*
X1079500Y304171D02*
X1079500Y162603D01*
X1079500Y837630D02*
X1079500Y984250D01*
X1092200Y309217D02*
X1092200Y165003D01*
X1092200Y829995D02*
X1092200Y983865D01*
X1104900Y316550D02*
X1104900Y167902D01*
X1104900Y822229D02*
X1104900Y973356D01*
X1117600Y326487D02*
X1117600Y171542D01*
X1117600Y814464D02*
X1117600Y973356D01*
X1130300Y339692D02*
X1130300Y175986D01*
X1130300Y803383D02*
X1130300Y975881D01*
X1143000Y358602D02*
X1143000Y181047D01*
X1143000Y787179D02*
X1143000Y984250D01*
X1155700Y398362D02*
X1155700Y187163D01*
X1155700Y752139D02*
X1155700Y984250D01*
X1168400Y984250D02*
X1168400Y193940D01*
X1181100Y201920D02*
X1181100Y984250D01*
X1193800Y984250D02*
X1193800Y210891D01*
X1206500Y221019D02*
X1206500Y984250D01*
X1219200Y984250D02*
X1219200Y232981D01*
X1231900Y246106D02*
X1231900Y984250D01*
X1244600Y984250D02*
X1244600Y262031D01*
X1257300Y281119D02*
X1257300Y984250D01*
X1270000Y984250D02*
X1270000Y304707D01*
X1282700Y336812D02*
X1282700Y984250D01*
X1295400Y984250D02*
X1295400Y752139D01*
X1308100Y787179D02*
X1308100Y984250D01*
X1320800Y984250D02*
X1320800Y803383D01*
X1333500Y814464D02*
X1333500Y984250D01*
X1346200Y984250D02*
X1346200Y822229D01*
X1358900Y829995D02*
X1358900Y984250D01*
X1371600Y984250D02*
X1371600Y837630D01*
X1384300Y845100D02*
X1384300Y984250D01*
X1397000Y984250D02*
X1397000Y852571D01*
X1409700Y860042D02*
X1409700Y984250D01*
X1422400Y984250D02*
X1422400Y867461D01*
X1435100Y874643D02*
X1435100Y984250D01*
X1447800Y984250D02*
X1447800Y881841D01*
X1460500Y891280D02*
X1460500Y984250D01*
X1473200Y984250D02*
X1473200Y906227D01*
D16*
X120650Y133350D03*
X114300Y104775D03*
X114300Y88900D03*
X114300Y76200D03*
X114300Y60325D03*
X79353Y409553D03*
X79375Y393700D03*
X79153Y378047D03*
X79078Y364828D03*
X79375Y437643D03*
X79353Y609578D03*
X79375Y593725D03*
X79153Y578072D03*
X79078Y564853D03*
X79375Y637668D03*
X79353Y806428D03*
X79375Y790575D03*
X79153Y774922D03*
X79078Y761703D03*
X79375Y834518D03*
X203200Y1114425D03*
X203200Y1127125D03*
X222250Y1089025D03*
X222250Y1108075D03*
X212725Y1060450D03*
X193675Y1060450D03*
X184150Y1079500D03*
X171450Y1079500D03*
X1108075Y1047750D03*
X1120775Y1047750D03*
X1130300Y1031875D03*
X63500Y1054100D03*
X63500Y1069975D03*
X73025Y1079500D03*
X88900Y1079500D03*
X98425Y1069975D03*
X98425Y1054100D03*
X98425Y1038225D03*
X88900Y1028700D03*
X73025Y1028700D03*
X63500Y1038225D03*
X292100Y431800D03*
X260350Y390525D03*
X260350Y358775D03*
X288925Y349250D03*
X317500Y349250D03*
X342900Y400050D03*
X260350Y415925D03*
X200025Y352425D03*
X358775Y450850D03*
X241300Y1108075D03*
X266700Y1089025D03*
X279400Y1089025D03*
X292100Y1089025D03*
X304800Y1089025D03*
X317500Y1089025D03*
X317500Y1076325D03*
X317500Y1063625D03*
X317500Y1050925D03*
X317500Y1038225D03*
X317500Y1025525D03*
X317500Y1012825D03*
X304800Y1012825D03*
X292100Y1012825D03*
X279400Y1012825D03*
X266700Y1012825D03*
X254000Y1012825D03*
X241300Y1012825D03*
X241300Y1025525D03*
X241300Y1038225D03*
X241300Y1050925D03*
X241300Y1063625D03*
X241300Y1076325D03*
X260350Y1114425D03*
X260350Y1127125D03*
X254000Y1089025D03*
X241300Y1089025D03*
X1050925Y1006475D03*
X1165225Y1006475D03*
X1279525Y1006475D03*
X1120775Y990600D03*
X1108075Y990600D03*
X1130300Y1000125D03*
X279400Y431800D03*
X260612Y403025D03*
X260350Y371475D03*
X276225Y349250D03*
X304800Y349250D03*
X342900Y387350D03*
X307975Y431800D03*
X342900Y419100D03*
X231775Y352425D03*
X450850Y247650D03*
X1225550Y1022350D03*
X441325Y231775D03*
X1231900Y1012825D03*
X460081Y263231D03*
X1219200Y1031875D03*
X120650Y114300D03*
X79375Y419100D03*
X79375Y619125D03*
X79375Y815975D03*
X1079500Y1044575D03*
X1193800Y1044575D03*
X1308100Y1044575D03*
X123825Y142875D03*
X114300Y441325D03*
X114300Y641350D03*
X114300Y838200D03*
X212725Y1041400D03*
X193675Y1041400D03*
X184150Y1022350D03*
X171450Y1022350D03*
X127000Y1076325D03*
X127000Y1060450D03*
X127000Y1044575D03*
X127000Y1028700D03*
X142875Y1028700D03*
X158750Y1028700D03*
X158750Y1044575D03*
X155575Y1076325D03*
X231775Y438150D03*
X345821Y452628D03*
X336550Y431800D03*
X320675Y384175D03*
X320675Y365125D03*
M02*
