G04 EAGLE Gerber RS-274X export*
G75*
%MOMM*%
%FSLAX34Y34*%
%LPD*%
%INSilkscreen Bottom*%
%IPPOS*%
%AMOC8*
5,1,8,0,0,1.08239X$1,22.5*%
G01*
%ADD10C,0.076200*%
%ADD11C,0.152400*%
%ADD12R,0.381000X1.016000*%
%ADD13C,0.127000*%
%ADD14C,0.101600*%
%ADD15R,0.757000X0.549100*%
%ADD16R,0.771800X0.534300*%
%ADD17R,0.757000X0.534300*%
%ADD18R,0.756900X0.133600*%
%ADD19R,0.756900X0.549100*%


D10*
X287542Y448056D02*
X289631Y448056D01*
X289720Y448058D01*
X289808Y448064D01*
X289896Y448073D01*
X289984Y448086D01*
X290071Y448103D01*
X290157Y448123D01*
X290242Y448148D01*
X290327Y448175D01*
X290410Y448207D01*
X290491Y448241D01*
X290571Y448280D01*
X290649Y448321D01*
X290726Y448366D01*
X290800Y448414D01*
X290873Y448465D01*
X290943Y448519D01*
X291010Y448577D01*
X291076Y448637D01*
X291138Y448699D01*
X291198Y448765D01*
X291256Y448832D01*
X291310Y448902D01*
X291361Y448975D01*
X291409Y449049D01*
X291454Y449126D01*
X291495Y449204D01*
X291534Y449284D01*
X291568Y449365D01*
X291600Y449448D01*
X291627Y449533D01*
X291652Y449618D01*
X291672Y449704D01*
X291689Y449791D01*
X291702Y449879D01*
X291711Y449967D01*
X291717Y450055D01*
X291719Y450144D01*
X291719Y455366D01*
X291717Y455455D01*
X291711Y455543D01*
X291702Y455631D01*
X291689Y455719D01*
X291672Y455806D01*
X291652Y455892D01*
X291627Y455977D01*
X291600Y456062D01*
X291568Y456145D01*
X291534Y456226D01*
X291495Y456306D01*
X291454Y456384D01*
X291409Y456461D01*
X291361Y456535D01*
X291310Y456608D01*
X291256Y456678D01*
X291198Y456745D01*
X291138Y456811D01*
X291076Y456873D01*
X291010Y456933D01*
X290943Y456991D01*
X290873Y457045D01*
X290800Y457096D01*
X290726Y457144D01*
X290649Y457189D01*
X290571Y457230D01*
X290491Y457269D01*
X290410Y457303D01*
X290327Y457335D01*
X290242Y457362D01*
X290157Y457387D01*
X290071Y457407D01*
X289984Y457424D01*
X289896Y457437D01*
X289808Y457446D01*
X289720Y457452D01*
X289631Y457454D01*
X287542Y457454D01*
X284073Y448056D02*
X281463Y448056D01*
X281362Y448058D01*
X281261Y448064D01*
X281160Y448074D01*
X281060Y448087D01*
X280960Y448105D01*
X280861Y448126D01*
X280763Y448152D01*
X280666Y448181D01*
X280570Y448213D01*
X280476Y448250D01*
X280383Y448290D01*
X280291Y448334D01*
X280202Y448381D01*
X280114Y448432D01*
X280028Y448486D01*
X279945Y448543D01*
X279863Y448603D01*
X279785Y448667D01*
X279708Y448733D01*
X279635Y448803D01*
X279564Y448875D01*
X279496Y448950D01*
X279431Y449028D01*
X279369Y449108D01*
X279310Y449190D01*
X279254Y449275D01*
X279202Y449362D01*
X279153Y449450D01*
X279107Y449541D01*
X279066Y449633D01*
X279027Y449727D01*
X278993Y449822D01*
X278962Y449918D01*
X278935Y450016D01*
X278911Y450114D01*
X278892Y450214D01*
X278876Y450314D01*
X278864Y450414D01*
X278856Y450515D01*
X278852Y450616D01*
X278852Y450718D01*
X278856Y450819D01*
X278864Y450920D01*
X278876Y451020D01*
X278892Y451120D01*
X278911Y451220D01*
X278935Y451318D01*
X278962Y451416D01*
X278993Y451512D01*
X279027Y451607D01*
X279066Y451701D01*
X279107Y451793D01*
X279153Y451884D01*
X279202Y451973D01*
X279254Y452059D01*
X279310Y452144D01*
X279369Y452226D01*
X279431Y452306D01*
X279496Y452384D01*
X279564Y452459D01*
X279635Y452531D01*
X279708Y452601D01*
X279785Y452667D01*
X279863Y452731D01*
X279945Y452791D01*
X280028Y452848D01*
X280114Y452902D01*
X280202Y452953D01*
X280291Y453000D01*
X280383Y453044D01*
X280476Y453084D01*
X280570Y453121D01*
X280666Y453153D01*
X280763Y453182D01*
X280861Y453208D01*
X280960Y453229D01*
X281060Y453247D01*
X281160Y453260D01*
X281261Y453270D01*
X281362Y453276D01*
X281463Y453278D01*
X280941Y457454D02*
X284073Y457454D01*
X280941Y457454D02*
X280851Y457452D01*
X280762Y457446D01*
X280672Y457437D01*
X280583Y457423D01*
X280495Y457406D01*
X280408Y457385D01*
X280321Y457360D01*
X280236Y457331D01*
X280152Y457299D01*
X280070Y457264D01*
X279989Y457224D01*
X279910Y457182D01*
X279833Y457136D01*
X279758Y457086D01*
X279685Y457034D01*
X279614Y456978D01*
X279546Y456920D01*
X279481Y456858D01*
X279418Y456794D01*
X279358Y456727D01*
X279301Y456658D01*
X279247Y456586D01*
X279196Y456512D01*
X279148Y456436D01*
X279104Y456358D01*
X279063Y456278D01*
X279025Y456196D01*
X278991Y456113D01*
X278961Y456028D01*
X278934Y455942D01*
X278911Y455856D01*
X278892Y455768D01*
X278877Y455679D01*
X278865Y455590D01*
X278857Y455501D01*
X278853Y455411D01*
X278853Y455321D01*
X278857Y455231D01*
X278865Y455142D01*
X278877Y455053D01*
X278892Y454964D01*
X278911Y454876D01*
X278934Y454790D01*
X278961Y454704D01*
X278991Y454619D01*
X279025Y454536D01*
X279063Y454454D01*
X279104Y454374D01*
X279148Y454296D01*
X279196Y454220D01*
X279247Y454146D01*
X279301Y454074D01*
X279358Y454005D01*
X279418Y453938D01*
X279481Y453874D01*
X279546Y453812D01*
X279614Y453754D01*
X279685Y453698D01*
X279758Y453646D01*
X279833Y453596D01*
X279910Y453550D01*
X279989Y453508D01*
X280070Y453468D01*
X280152Y453433D01*
X280236Y453401D01*
X280321Y453372D01*
X280408Y453347D01*
X280495Y453326D01*
X280583Y453309D01*
X280672Y453295D01*
X280762Y453286D01*
X280851Y453280D01*
X280941Y453278D01*
X280941Y453277D02*
X283029Y453277D01*
X234696Y394154D02*
X234696Y392066D01*
X234698Y391977D01*
X234704Y391889D01*
X234713Y391801D01*
X234726Y391713D01*
X234743Y391626D01*
X234763Y391540D01*
X234788Y391455D01*
X234815Y391370D01*
X234847Y391287D01*
X234881Y391206D01*
X234920Y391126D01*
X234961Y391048D01*
X235006Y390971D01*
X235054Y390897D01*
X235105Y390824D01*
X235159Y390754D01*
X235217Y390687D01*
X235277Y390621D01*
X235339Y390559D01*
X235405Y390499D01*
X235472Y390441D01*
X235542Y390387D01*
X235615Y390336D01*
X235689Y390288D01*
X235766Y390243D01*
X235844Y390202D01*
X235924Y390163D01*
X236005Y390129D01*
X236088Y390097D01*
X236173Y390070D01*
X236258Y390045D01*
X236344Y390025D01*
X236431Y390008D01*
X236519Y389995D01*
X236607Y389986D01*
X236695Y389980D01*
X236784Y389978D01*
X236784Y389977D02*
X242006Y389977D01*
X242006Y389978D02*
X242097Y389980D01*
X242188Y389986D01*
X242279Y389996D01*
X242369Y390010D01*
X242458Y390027D01*
X242546Y390049D01*
X242634Y390075D01*
X242720Y390104D01*
X242805Y390137D01*
X242888Y390174D01*
X242970Y390214D01*
X243050Y390258D01*
X243128Y390305D01*
X243204Y390356D01*
X243277Y390409D01*
X243348Y390466D01*
X243417Y390527D01*
X243482Y390590D01*
X243545Y390655D01*
X243605Y390724D01*
X243663Y390795D01*
X243716Y390868D01*
X243767Y390944D01*
X243814Y391022D01*
X243858Y391102D01*
X243898Y391184D01*
X243935Y391267D01*
X243968Y391352D01*
X243997Y391438D01*
X244023Y391526D01*
X244045Y391614D01*
X244062Y391703D01*
X244076Y391793D01*
X244086Y391884D01*
X244092Y391975D01*
X244094Y392066D01*
X244094Y394154D01*
X244094Y399711D02*
X236784Y397623D01*
X236784Y402844D01*
X238873Y401278D02*
X234696Y401278D01*
X234696Y362404D02*
X234696Y360316D01*
X234698Y360227D01*
X234704Y360139D01*
X234713Y360051D01*
X234726Y359963D01*
X234743Y359876D01*
X234763Y359790D01*
X234788Y359705D01*
X234815Y359620D01*
X234847Y359537D01*
X234881Y359456D01*
X234920Y359376D01*
X234961Y359298D01*
X235006Y359221D01*
X235054Y359147D01*
X235105Y359074D01*
X235159Y359004D01*
X235217Y358937D01*
X235277Y358871D01*
X235339Y358809D01*
X235405Y358749D01*
X235472Y358691D01*
X235542Y358637D01*
X235615Y358586D01*
X235689Y358538D01*
X235766Y358493D01*
X235844Y358452D01*
X235924Y358413D01*
X236005Y358379D01*
X236088Y358347D01*
X236173Y358320D01*
X236258Y358295D01*
X236344Y358275D01*
X236431Y358258D01*
X236519Y358245D01*
X236607Y358236D01*
X236695Y358230D01*
X236784Y358228D01*
X236784Y358227D02*
X242006Y358227D01*
X242006Y358228D02*
X242097Y358230D01*
X242188Y358236D01*
X242279Y358246D01*
X242369Y358260D01*
X242458Y358277D01*
X242546Y358299D01*
X242634Y358325D01*
X242720Y358354D01*
X242805Y358387D01*
X242888Y358424D01*
X242970Y358464D01*
X243050Y358508D01*
X243128Y358555D01*
X243204Y358606D01*
X243277Y358659D01*
X243348Y358716D01*
X243417Y358777D01*
X243482Y358840D01*
X243545Y358905D01*
X243605Y358974D01*
X243663Y359045D01*
X243716Y359118D01*
X243767Y359194D01*
X243814Y359272D01*
X243858Y359352D01*
X243898Y359434D01*
X243935Y359517D01*
X243968Y359602D01*
X243997Y359688D01*
X244023Y359776D01*
X244045Y359864D01*
X244062Y359953D01*
X244076Y360043D01*
X244086Y360134D01*
X244092Y360225D01*
X244094Y360316D01*
X244094Y362404D01*
X234696Y365873D02*
X234696Y369006D01*
X234698Y369095D01*
X234704Y369183D01*
X234713Y369271D01*
X234726Y369359D01*
X234743Y369446D01*
X234763Y369532D01*
X234788Y369617D01*
X234815Y369702D01*
X234847Y369785D01*
X234881Y369866D01*
X234920Y369946D01*
X234961Y370024D01*
X235006Y370101D01*
X235054Y370175D01*
X235105Y370248D01*
X235159Y370318D01*
X235217Y370385D01*
X235277Y370451D01*
X235339Y370513D01*
X235405Y370573D01*
X235472Y370631D01*
X235542Y370685D01*
X235615Y370736D01*
X235689Y370784D01*
X235766Y370829D01*
X235844Y370870D01*
X235924Y370909D01*
X236005Y370943D01*
X236088Y370975D01*
X236173Y371002D01*
X236258Y371027D01*
X236344Y371047D01*
X236431Y371064D01*
X236519Y371077D01*
X236607Y371086D01*
X236695Y371092D01*
X236784Y371094D01*
X237829Y371094D01*
X237918Y371092D01*
X238006Y371086D01*
X238094Y371077D01*
X238182Y371064D01*
X238269Y371047D01*
X238355Y371027D01*
X238440Y371002D01*
X238525Y370975D01*
X238608Y370943D01*
X238689Y370909D01*
X238769Y370870D01*
X238847Y370829D01*
X238924Y370784D01*
X238998Y370736D01*
X239071Y370685D01*
X239141Y370631D01*
X239208Y370573D01*
X239274Y370513D01*
X239336Y370451D01*
X239396Y370385D01*
X239454Y370318D01*
X239508Y370248D01*
X239559Y370175D01*
X239607Y370101D01*
X239652Y370024D01*
X239693Y369946D01*
X239732Y369866D01*
X239766Y369785D01*
X239798Y369702D01*
X239825Y369617D01*
X239850Y369532D01*
X239870Y369446D01*
X239887Y369359D01*
X239900Y369271D01*
X239909Y369183D01*
X239915Y369095D01*
X239917Y369006D01*
X239917Y365873D01*
X244094Y365873D01*
X244094Y371094D01*
X285296Y323596D02*
X287384Y323596D01*
X287473Y323598D01*
X287561Y323604D01*
X287649Y323613D01*
X287737Y323626D01*
X287824Y323643D01*
X287910Y323663D01*
X287995Y323688D01*
X288080Y323715D01*
X288163Y323747D01*
X288244Y323781D01*
X288324Y323820D01*
X288402Y323861D01*
X288479Y323906D01*
X288553Y323954D01*
X288626Y324005D01*
X288696Y324059D01*
X288763Y324117D01*
X288829Y324177D01*
X288891Y324239D01*
X288951Y324305D01*
X289009Y324372D01*
X289063Y324442D01*
X289114Y324515D01*
X289162Y324589D01*
X289207Y324666D01*
X289248Y324744D01*
X289287Y324824D01*
X289321Y324905D01*
X289353Y324988D01*
X289380Y325073D01*
X289405Y325158D01*
X289425Y325244D01*
X289442Y325331D01*
X289455Y325419D01*
X289464Y325507D01*
X289470Y325595D01*
X289472Y325684D01*
X289473Y325684D02*
X289473Y330906D01*
X289472Y330906D02*
X289470Y330995D01*
X289464Y331083D01*
X289455Y331171D01*
X289442Y331259D01*
X289425Y331346D01*
X289405Y331432D01*
X289380Y331517D01*
X289353Y331602D01*
X289321Y331685D01*
X289287Y331766D01*
X289248Y331846D01*
X289207Y331924D01*
X289162Y332001D01*
X289114Y332075D01*
X289063Y332148D01*
X289009Y332218D01*
X288951Y332285D01*
X288891Y332351D01*
X288829Y332413D01*
X288763Y332473D01*
X288696Y332531D01*
X288626Y332585D01*
X288553Y332636D01*
X288479Y332684D01*
X288402Y332729D01*
X288324Y332770D01*
X288244Y332809D01*
X288163Y332843D01*
X288080Y332875D01*
X287995Y332902D01*
X287910Y332927D01*
X287824Y332947D01*
X287737Y332964D01*
X287649Y332977D01*
X287561Y332986D01*
X287473Y332992D01*
X287384Y332994D01*
X285296Y332994D01*
X281827Y328817D02*
X278694Y328817D01*
X278605Y328815D01*
X278517Y328809D01*
X278429Y328800D01*
X278341Y328787D01*
X278254Y328770D01*
X278168Y328750D01*
X278083Y328725D01*
X277998Y328698D01*
X277915Y328666D01*
X277834Y328632D01*
X277754Y328593D01*
X277676Y328552D01*
X277599Y328507D01*
X277525Y328459D01*
X277452Y328408D01*
X277382Y328354D01*
X277315Y328296D01*
X277249Y328236D01*
X277187Y328174D01*
X277127Y328108D01*
X277069Y328041D01*
X277015Y327971D01*
X276964Y327898D01*
X276916Y327824D01*
X276871Y327747D01*
X276830Y327669D01*
X276791Y327589D01*
X276757Y327508D01*
X276725Y327425D01*
X276698Y327340D01*
X276673Y327255D01*
X276653Y327169D01*
X276636Y327082D01*
X276623Y326994D01*
X276614Y326906D01*
X276608Y326818D01*
X276606Y326729D01*
X276606Y326207D01*
X276608Y326106D01*
X276614Y326005D01*
X276624Y325904D01*
X276637Y325804D01*
X276655Y325704D01*
X276676Y325605D01*
X276702Y325507D01*
X276731Y325410D01*
X276763Y325314D01*
X276800Y325220D01*
X276840Y325127D01*
X276884Y325035D01*
X276931Y324946D01*
X276982Y324858D01*
X277036Y324772D01*
X277093Y324689D01*
X277153Y324607D01*
X277217Y324529D01*
X277283Y324452D01*
X277353Y324379D01*
X277425Y324308D01*
X277500Y324240D01*
X277578Y324175D01*
X277658Y324113D01*
X277740Y324054D01*
X277825Y323998D01*
X277912Y323946D01*
X278000Y323897D01*
X278091Y323851D01*
X278183Y323810D01*
X278277Y323771D01*
X278372Y323737D01*
X278468Y323706D01*
X278566Y323679D01*
X278664Y323655D01*
X278764Y323636D01*
X278864Y323620D01*
X278964Y323608D01*
X279065Y323600D01*
X279166Y323596D01*
X279268Y323596D01*
X279369Y323600D01*
X279470Y323608D01*
X279570Y323620D01*
X279670Y323636D01*
X279770Y323655D01*
X279868Y323679D01*
X279966Y323706D01*
X280062Y323737D01*
X280157Y323771D01*
X280251Y323810D01*
X280343Y323851D01*
X280434Y323897D01*
X280522Y323946D01*
X280609Y323998D01*
X280694Y324054D01*
X280776Y324113D01*
X280856Y324175D01*
X280934Y324240D01*
X281009Y324308D01*
X281081Y324379D01*
X281151Y324452D01*
X281217Y324529D01*
X281281Y324607D01*
X281341Y324689D01*
X281398Y324772D01*
X281452Y324858D01*
X281503Y324946D01*
X281550Y325035D01*
X281594Y325127D01*
X281634Y325220D01*
X281671Y325314D01*
X281703Y325410D01*
X281732Y325507D01*
X281758Y325605D01*
X281779Y325704D01*
X281797Y325804D01*
X281810Y325904D01*
X281820Y326005D01*
X281826Y326106D01*
X281828Y326207D01*
X281827Y326207D02*
X281827Y328817D01*
X281825Y328943D01*
X281819Y329069D01*
X281810Y329195D01*
X281797Y329320D01*
X281779Y329445D01*
X281759Y329570D01*
X281734Y329694D01*
X281706Y329817D01*
X281674Y329939D01*
X281638Y330060D01*
X281599Y330180D01*
X281556Y330298D01*
X281509Y330415D01*
X281459Y330531D01*
X281405Y330646D01*
X281349Y330758D01*
X281288Y330869D01*
X281225Y330978D01*
X281158Y331085D01*
X281088Y331190D01*
X281014Y331293D01*
X280938Y331393D01*
X280859Y331491D01*
X280777Y331587D01*
X280691Y331680D01*
X280604Y331771D01*
X280513Y331858D01*
X280420Y331944D01*
X280324Y332026D01*
X280226Y332105D01*
X280126Y332181D01*
X280023Y332255D01*
X279918Y332325D01*
X279811Y332392D01*
X279702Y332455D01*
X279591Y332516D01*
X279479Y332572D01*
X279364Y332626D01*
X279248Y332676D01*
X279131Y332723D01*
X279013Y332766D01*
X278893Y332805D01*
X278772Y332841D01*
X278650Y332873D01*
X278527Y332901D01*
X278403Y332926D01*
X278278Y332946D01*
X278153Y332964D01*
X278028Y332977D01*
X277902Y332986D01*
X277776Y332992D01*
X277650Y332994D01*
X336096Y336931D02*
X338184Y336931D01*
X338273Y336933D01*
X338361Y336939D01*
X338449Y336948D01*
X338537Y336961D01*
X338624Y336978D01*
X338710Y336998D01*
X338795Y337023D01*
X338880Y337050D01*
X338963Y337082D01*
X339044Y337116D01*
X339124Y337155D01*
X339202Y337196D01*
X339279Y337241D01*
X339353Y337289D01*
X339426Y337340D01*
X339496Y337394D01*
X339563Y337452D01*
X339629Y337512D01*
X339691Y337574D01*
X339751Y337640D01*
X339809Y337707D01*
X339863Y337777D01*
X339914Y337850D01*
X339962Y337924D01*
X340007Y338001D01*
X340048Y338079D01*
X340087Y338159D01*
X340121Y338240D01*
X340153Y338323D01*
X340180Y338408D01*
X340205Y338493D01*
X340225Y338579D01*
X340242Y338666D01*
X340255Y338754D01*
X340264Y338842D01*
X340270Y338930D01*
X340272Y339019D01*
X340273Y339019D02*
X340273Y344241D01*
X340272Y344241D02*
X340270Y344330D01*
X340264Y344418D01*
X340255Y344506D01*
X340242Y344594D01*
X340225Y344681D01*
X340205Y344767D01*
X340180Y344852D01*
X340153Y344937D01*
X340121Y345020D01*
X340087Y345101D01*
X340048Y345181D01*
X340007Y345259D01*
X339962Y345336D01*
X339914Y345410D01*
X339863Y345483D01*
X339809Y345553D01*
X339751Y345620D01*
X339691Y345686D01*
X339629Y345748D01*
X339563Y345808D01*
X339496Y345866D01*
X339426Y345920D01*
X339353Y345971D01*
X339279Y346019D01*
X339202Y346064D01*
X339124Y346105D01*
X339044Y346144D01*
X338963Y346178D01*
X338880Y346210D01*
X338795Y346237D01*
X338710Y346262D01*
X338624Y346282D01*
X338537Y346299D01*
X338449Y346312D01*
X338361Y346321D01*
X338273Y346327D01*
X338184Y346329D01*
X336096Y346329D01*
X332627Y346329D02*
X332627Y345285D01*
X332627Y346329D02*
X327406Y346329D01*
X330017Y336931D01*
X374196Y438531D02*
X376284Y438531D01*
X376373Y438533D01*
X376461Y438539D01*
X376549Y438548D01*
X376637Y438561D01*
X376724Y438578D01*
X376810Y438598D01*
X376895Y438623D01*
X376980Y438650D01*
X377063Y438682D01*
X377144Y438716D01*
X377224Y438755D01*
X377302Y438796D01*
X377379Y438841D01*
X377453Y438889D01*
X377526Y438940D01*
X377596Y438994D01*
X377663Y439052D01*
X377729Y439112D01*
X377791Y439174D01*
X377851Y439240D01*
X377909Y439307D01*
X377963Y439377D01*
X378014Y439450D01*
X378062Y439524D01*
X378107Y439601D01*
X378148Y439679D01*
X378187Y439759D01*
X378221Y439840D01*
X378253Y439923D01*
X378280Y440008D01*
X378305Y440093D01*
X378325Y440179D01*
X378342Y440266D01*
X378355Y440354D01*
X378364Y440442D01*
X378370Y440530D01*
X378372Y440619D01*
X378373Y440619D02*
X378373Y445841D01*
X378372Y445841D02*
X378370Y445930D01*
X378364Y446018D01*
X378355Y446106D01*
X378342Y446194D01*
X378325Y446281D01*
X378305Y446367D01*
X378280Y446452D01*
X378253Y446537D01*
X378221Y446620D01*
X378187Y446701D01*
X378148Y446781D01*
X378107Y446859D01*
X378062Y446936D01*
X378014Y447010D01*
X377963Y447083D01*
X377909Y447153D01*
X377851Y447220D01*
X377791Y447286D01*
X377729Y447348D01*
X377663Y447408D01*
X377596Y447466D01*
X377526Y447520D01*
X377453Y447571D01*
X377379Y447619D01*
X377302Y447664D01*
X377224Y447705D01*
X377144Y447744D01*
X377063Y447778D01*
X376980Y447810D01*
X376895Y447837D01*
X376810Y447862D01*
X376724Y447882D01*
X376637Y447899D01*
X376549Y447912D01*
X376461Y447921D01*
X376373Y447927D01*
X376284Y447929D01*
X374196Y447929D01*
X370728Y441142D02*
X370726Y441243D01*
X370720Y441344D01*
X370710Y441445D01*
X370697Y441545D01*
X370679Y441645D01*
X370658Y441744D01*
X370632Y441842D01*
X370603Y441939D01*
X370571Y442035D01*
X370534Y442129D01*
X370494Y442222D01*
X370450Y442314D01*
X370403Y442403D01*
X370352Y442491D01*
X370298Y442577D01*
X370241Y442660D01*
X370181Y442742D01*
X370117Y442820D01*
X370051Y442897D01*
X369981Y442970D01*
X369909Y443041D01*
X369834Y443109D01*
X369756Y443174D01*
X369676Y443236D01*
X369594Y443295D01*
X369509Y443351D01*
X369423Y443403D01*
X369334Y443452D01*
X369243Y443498D01*
X369151Y443539D01*
X369057Y443578D01*
X368962Y443612D01*
X368866Y443643D01*
X368768Y443670D01*
X368670Y443694D01*
X368570Y443713D01*
X368470Y443729D01*
X368370Y443741D01*
X368269Y443749D01*
X368168Y443753D01*
X368066Y443753D01*
X367965Y443749D01*
X367864Y443741D01*
X367764Y443729D01*
X367664Y443713D01*
X367564Y443694D01*
X367466Y443670D01*
X367368Y443643D01*
X367272Y443612D01*
X367177Y443578D01*
X367083Y443539D01*
X366991Y443498D01*
X366900Y443452D01*
X366812Y443403D01*
X366725Y443351D01*
X366640Y443295D01*
X366558Y443236D01*
X366478Y443174D01*
X366400Y443109D01*
X366325Y443041D01*
X366253Y442970D01*
X366183Y442897D01*
X366117Y442820D01*
X366053Y442742D01*
X365993Y442660D01*
X365936Y442577D01*
X365882Y442491D01*
X365831Y442403D01*
X365784Y442314D01*
X365740Y442222D01*
X365700Y442129D01*
X365663Y442035D01*
X365631Y441939D01*
X365602Y441842D01*
X365576Y441744D01*
X365555Y441645D01*
X365537Y441545D01*
X365524Y441445D01*
X365514Y441344D01*
X365508Y441243D01*
X365506Y441142D01*
X365508Y441041D01*
X365514Y440940D01*
X365524Y440839D01*
X365537Y440739D01*
X365555Y440639D01*
X365576Y440540D01*
X365602Y440442D01*
X365631Y440345D01*
X365663Y440249D01*
X365700Y440155D01*
X365740Y440062D01*
X365784Y439970D01*
X365831Y439881D01*
X365882Y439793D01*
X365936Y439707D01*
X365993Y439624D01*
X366053Y439542D01*
X366117Y439464D01*
X366183Y439387D01*
X366253Y439314D01*
X366325Y439243D01*
X366400Y439175D01*
X366478Y439110D01*
X366558Y439048D01*
X366640Y438989D01*
X366725Y438933D01*
X366812Y438881D01*
X366900Y438832D01*
X366991Y438786D01*
X367083Y438745D01*
X367177Y438706D01*
X367272Y438672D01*
X367368Y438641D01*
X367466Y438614D01*
X367564Y438590D01*
X367664Y438571D01*
X367764Y438555D01*
X367864Y438543D01*
X367965Y438535D01*
X368066Y438531D01*
X368168Y438531D01*
X368269Y438535D01*
X368370Y438543D01*
X368470Y438555D01*
X368570Y438571D01*
X368670Y438590D01*
X368768Y438614D01*
X368866Y438641D01*
X368962Y438672D01*
X369057Y438706D01*
X369151Y438745D01*
X369243Y438786D01*
X369334Y438832D01*
X369422Y438881D01*
X369509Y438933D01*
X369594Y438989D01*
X369676Y439048D01*
X369756Y439110D01*
X369834Y439175D01*
X369909Y439243D01*
X369981Y439314D01*
X370051Y439387D01*
X370117Y439464D01*
X370181Y439542D01*
X370241Y439624D01*
X370298Y439707D01*
X370352Y439793D01*
X370403Y439881D01*
X370450Y439970D01*
X370494Y440062D01*
X370534Y440155D01*
X370571Y440249D01*
X370603Y440345D01*
X370632Y440442D01*
X370658Y440540D01*
X370679Y440639D01*
X370697Y440739D01*
X370710Y440839D01*
X370720Y440940D01*
X370726Y441041D01*
X370728Y441142D01*
X370205Y445841D02*
X370203Y445931D01*
X370197Y446020D01*
X370188Y446110D01*
X370174Y446199D01*
X370157Y446287D01*
X370136Y446374D01*
X370111Y446461D01*
X370082Y446546D01*
X370050Y446630D01*
X370015Y446712D01*
X369975Y446793D01*
X369933Y446872D01*
X369887Y446949D01*
X369837Y447024D01*
X369785Y447097D01*
X369729Y447168D01*
X369671Y447236D01*
X369609Y447301D01*
X369545Y447364D01*
X369478Y447424D01*
X369409Y447481D01*
X369337Y447535D01*
X369263Y447586D01*
X369187Y447634D01*
X369109Y447678D01*
X369029Y447719D01*
X368947Y447757D01*
X368864Y447791D01*
X368779Y447821D01*
X368693Y447848D01*
X368607Y447871D01*
X368519Y447890D01*
X368430Y447905D01*
X368341Y447917D01*
X368252Y447925D01*
X368162Y447929D01*
X368072Y447929D01*
X367982Y447925D01*
X367893Y447917D01*
X367804Y447905D01*
X367715Y447890D01*
X367627Y447871D01*
X367541Y447848D01*
X367455Y447821D01*
X367370Y447791D01*
X367287Y447757D01*
X367205Y447719D01*
X367125Y447678D01*
X367047Y447634D01*
X366971Y447586D01*
X366897Y447535D01*
X366825Y447481D01*
X366756Y447424D01*
X366689Y447364D01*
X366625Y447301D01*
X366563Y447236D01*
X366505Y447168D01*
X366449Y447097D01*
X366397Y447024D01*
X366347Y446949D01*
X366301Y446872D01*
X366259Y446793D01*
X366219Y446712D01*
X366184Y446630D01*
X366152Y446546D01*
X366123Y446461D01*
X366098Y446374D01*
X366077Y446287D01*
X366060Y446199D01*
X366046Y446110D01*
X366037Y446020D01*
X366031Y445931D01*
X366029Y445841D01*
X366031Y445751D01*
X366037Y445662D01*
X366046Y445572D01*
X366060Y445483D01*
X366077Y445395D01*
X366098Y445308D01*
X366123Y445221D01*
X366152Y445136D01*
X366184Y445052D01*
X366219Y444970D01*
X366259Y444889D01*
X366301Y444810D01*
X366347Y444733D01*
X366397Y444658D01*
X366449Y444585D01*
X366505Y444514D01*
X366563Y444446D01*
X366625Y444381D01*
X366689Y444318D01*
X366756Y444258D01*
X366825Y444201D01*
X366897Y444147D01*
X366971Y444096D01*
X367047Y444048D01*
X367125Y444004D01*
X367205Y443963D01*
X367287Y443925D01*
X367370Y443891D01*
X367455Y443861D01*
X367541Y443834D01*
X367627Y443811D01*
X367715Y443792D01*
X367804Y443777D01*
X367893Y443765D01*
X367982Y443757D01*
X368072Y443753D01*
X368162Y443753D01*
X368252Y443757D01*
X368341Y443765D01*
X368430Y443777D01*
X368519Y443792D01*
X368607Y443811D01*
X368693Y443834D01*
X368779Y443861D01*
X368864Y443891D01*
X368947Y443925D01*
X369029Y443963D01*
X369109Y444004D01*
X369187Y444048D01*
X369263Y444096D01*
X369337Y444147D01*
X369409Y444201D01*
X369478Y444258D01*
X369545Y444318D01*
X369609Y444381D01*
X369671Y444446D01*
X369729Y444514D01*
X369785Y444585D01*
X369837Y444658D01*
X369887Y444733D01*
X369933Y444810D01*
X369975Y444889D01*
X370015Y444970D01*
X370050Y445052D01*
X370082Y445136D01*
X370111Y445221D01*
X370136Y445308D01*
X370157Y445395D01*
X370174Y445483D01*
X370188Y445572D01*
X370197Y445662D01*
X370203Y445751D01*
X370205Y445841D01*
X224239Y368554D02*
X224239Y359156D01*
X224239Y368554D02*
X221628Y368554D01*
X221527Y368552D01*
X221426Y368546D01*
X221325Y368536D01*
X221225Y368523D01*
X221125Y368505D01*
X221026Y368484D01*
X220928Y368458D01*
X220831Y368429D01*
X220735Y368397D01*
X220641Y368360D01*
X220548Y368320D01*
X220456Y368276D01*
X220367Y368229D01*
X220279Y368178D01*
X220193Y368124D01*
X220110Y368067D01*
X220028Y368007D01*
X219950Y367943D01*
X219873Y367877D01*
X219800Y367807D01*
X219729Y367735D01*
X219661Y367660D01*
X219596Y367582D01*
X219534Y367502D01*
X219475Y367420D01*
X219419Y367335D01*
X219367Y367249D01*
X219318Y367160D01*
X219272Y367069D01*
X219231Y366977D01*
X219192Y366883D01*
X219158Y366788D01*
X219127Y366692D01*
X219100Y366594D01*
X219076Y366496D01*
X219057Y366396D01*
X219041Y366296D01*
X219029Y366196D01*
X219021Y366095D01*
X219017Y365994D01*
X219017Y365892D01*
X219021Y365791D01*
X219029Y365690D01*
X219041Y365590D01*
X219057Y365490D01*
X219076Y365390D01*
X219100Y365292D01*
X219127Y365194D01*
X219158Y365098D01*
X219192Y365003D01*
X219231Y364909D01*
X219272Y364817D01*
X219318Y364726D01*
X219367Y364638D01*
X219419Y364551D01*
X219475Y364466D01*
X219534Y364384D01*
X219596Y364304D01*
X219661Y364226D01*
X219729Y364151D01*
X219800Y364079D01*
X219873Y364009D01*
X219950Y363943D01*
X220028Y363879D01*
X220110Y363819D01*
X220193Y363762D01*
X220279Y363708D01*
X220367Y363657D01*
X220456Y363610D01*
X220548Y363566D01*
X220641Y363526D01*
X220735Y363489D01*
X220831Y363457D01*
X220928Y363428D01*
X221026Y363402D01*
X221125Y363381D01*
X221225Y363363D01*
X221325Y363350D01*
X221426Y363340D01*
X221527Y363334D01*
X221628Y363332D01*
X221628Y363333D02*
X224239Y363333D01*
X221106Y363333D02*
X219018Y359156D01*
X215152Y366466D02*
X212542Y368554D01*
X212542Y359156D01*
X215152Y359156D02*
X209931Y359156D01*
X1286256Y1038606D02*
X1295654Y1038606D01*
X1295654Y1041217D01*
X1295652Y1041318D01*
X1295646Y1041419D01*
X1295636Y1041520D01*
X1295623Y1041620D01*
X1295605Y1041720D01*
X1295584Y1041819D01*
X1295558Y1041917D01*
X1295529Y1042014D01*
X1295497Y1042110D01*
X1295460Y1042204D01*
X1295420Y1042297D01*
X1295376Y1042389D01*
X1295329Y1042478D01*
X1295278Y1042566D01*
X1295224Y1042652D01*
X1295167Y1042735D01*
X1295107Y1042817D01*
X1295043Y1042895D01*
X1294977Y1042972D01*
X1294907Y1043045D01*
X1294835Y1043116D01*
X1294760Y1043184D01*
X1294682Y1043249D01*
X1294602Y1043311D01*
X1294520Y1043370D01*
X1294435Y1043426D01*
X1294349Y1043478D01*
X1294260Y1043527D01*
X1294169Y1043573D01*
X1294077Y1043614D01*
X1293983Y1043653D01*
X1293888Y1043687D01*
X1293792Y1043718D01*
X1293694Y1043745D01*
X1293596Y1043769D01*
X1293496Y1043788D01*
X1293396Y1043804D01*
X1293296Y1043816D01*
X1293195Y1043824D01*
X1293094Y1043828D01*
X1292992Y1043828D01*
X1292891Y1043824D01*
X1292790Y1043816D01*
X1292690Y1043804D01*
X1292590Y1043788D01*
X1292490Y1043769D01*
X1292392Y1043745D01*
X1292294Y1043718D01*
X1292198Y1043687D01*
X1292103Y1043653D01*
X1292009Y1043614D01*
X1291917Y1043573D01*
X1291826Y1043527D01*
X1291738Y1043478D01*
X1291651Y1043426D01*
X1291566Y1043370D01*
X1291484Y1043311D01*
X1291404Y1043249D01*
X1291326Y1043184D01*
X1291251Y1043116D01*
X1291179Y1043045D01*
X1291109Y1042972D01*
X1291043Y1042895D01*
X1290979Y1042817D01*
X1290919Y1042735D01*
X1290862Y1042652D01*
X1290808Y1042566D01*
X1290757Y1042478D01*
X1290710Y1042389D01*
X1290666Y1042297D01*
X1290626Y1042204D01*
X1290589Y1042110D01*
X1290557Y1042014D01*
X1290528Y1041917D01*
X1290502Y1041819D01*
X1290481Y1041720D01*
X1290463Y1041620D01*
X1290450Y1041520D01*
X1290440Y1041419D01*
X1290434Y1041318D01*
X1290432Y1041217D01*
X1290433Y1041217D02*
X1290433Y1038606D01*
X1290433Y1041739D02*
X1286256Y1043827D01*
X1293566Y1047693D02*
X1295654Y1050303D01*
X1286256Y1050303D01*
X1286256Y1047693D02*
X1286256Y1052914D01*
X1290955Y1056837D02*
X1291140Y1056839D01*
X1291325Y1056846D01*
X1291509Y1056857D01*
X1291693Y1056872D01*
X1291877Y1056892D01*
X1292061Y1056916D01*
X1292243Y1056945D01*
X1292425Y1056978D01*
X1292606Y1057015D01*
X1292786Y1057057D01*
X1292966Y1057103D01*
X1293144Y1057153D01*
X1293320Y1057207D01*
X1293496Y1057266D01*
X1293670Y1057328D01*
X1293842Y1057395D01*
X1294013Y1057466D01*
X1294182Y1057541D01*
X1294349Y1057620D01*
X1294349Y1057619D02*
X1294429Y1057649D01*
X1294508Y1057682D01*
X1294585Y1057719D01*
X1294661Y1057759D01*
X1294735Y1057802D01*
X1294807Y1057848D01*
X1294876Y1057898D01*
X1294944Y1057950D01*
X1295009Y1058006D01*
X1295072Y1058064D01*
X1295131Y1058126D01*
X1295189Y1058189D01*
X1295243Y1058256D01*
X1295294Y1058324D01*
X1295342Y1058395D01*
X1295387Y1058468D01*
X1295429Y1058542D01*
X1295467Y1058619D01*
X1295502Y1058697D01*
X1295534Y1058776D01*
X1295562Y1058857D01*
X1295586Y1058939D01*
X1295607Y1059023D01*
X1295624Y1059106D01*
X1295637Y1059191D01*
X1295646Y1059276D01*
X1295652Y1059361D01*
X1295654Y1059447D01*
X1295652Y1059533D01*
X1295646Y1059618D01*
X1295637Y1059703D01*
X1295624Y1059788D01*
X1295607Y1059871D01*
X1295586Y1059955D01*
X1295562Y1060037D01*
X1295534Y1060118D01*
X1295502Y1060197D01*
X1295467Y1060275D01*
X1295429Y1060352D01*
X1295387Y1060426D01*
X1295342Y1060499D01*
X1295294Y1060570D01*
X1295243Y1060638D01*
X1295189Y1060705D01*
X1295131Y1060768D01*
X1295072Y1060830D01*
X1295009Y1060888D01*
X1294944Y1060944D01*
X1294876Y1060996D01*
X1294807Y1061046D01*
X1294735Y1061092D01*
X1294661Y1061135D01*
X1294585Y1061175D01*
X1294508Y1061212D01*
X1294429Y1061245D01*
X1294349Y1061275D01*
X1294182Y1061354D01*
X1294013Y1061429D01*
X1293842Y1061500D01*
X1293670Y1061567D01*
X1293496Y1061629D01*
X1293320Y1061688D01*
X1293144Y1061742D01*
X1292966Y1061792D01*
X1292786Y1061838D01*
X1292606Y1061880D01*
X1292425Y1061917D01*
X1292243Y1061950D01*
X1292061Y1061979D01*
X1291877Y1062003D01*
X1291693Y1062023D01*
X1291509Y1062038D01*
X1291325Y1062049D01*
X1291140Y1062056D01*
X1290955Y1062058D01*
X1290955Y1056837D02*
X1290770Y1056839D01*
X1290585Y1056846D01*
X1290401Y1056857D01*
X1290217Y1056872D01*
X1290033Y1056892D01*
X1289849Y1056916D01*
X1289667Y1056945D01*
X1289485Y1056978D01*
X1289304Y1057015D01*
X1289124Y1057057D01*
X1288944Y1057103D01*
X1288766Y1057153D01*
X1288590Y1057207D01*
X1288414Y1057266D01*
X1288240Y1057328D01*
X1288068Y1057395D01*
X1287897Y1057466D01*
X1287728Y1057541D01*
X1287561Y1057620D01*
X1287561Y1057619D02*
X1287481Y1057649D01*
X1287402Y1057682D01*
X1287325Y1057719D01*
X1287249Y1057759D01*
X1287175Y1057802D01*
X1287103Y1057848D01*
X1287034Y1057898D01*
X1286966Y1057951D01*
X1286901Y1058006D01*
X1286838Y1058065D01*
X1286779Y1058126D01*
X1286721Y1058189D01*
X1286667Y1058256D01*
X1286616Y1058324D01*
X1286568Y1058395D01*
X1286523Y1058468D01*
X1286481Y1058542D01*
X1286443Y1058619D01*
X1286408Y1058697D01*
X1286376Y1058776D01*
X1286348Y1058857D01*
X1286324Y1058939D01*
X1286303Y1059023D01*
X1286286Y1059106D01*
X1286273Y1059191D01*
X1286264Y1059276D01*
X1286258Y1059361D01*
X1286256Y1059447D01*
X1287561Y1061275D02*
X1287728Y1061354D01*
X1287897Y1061429D01*
X1288068Y1061500D01*
X1288240Y1061567D01*
X1288414Y1061629D01*
X1288590Y1061688D01*
X1288766Y1061742D01*
X1288944Y1061792D01*
X1289124Y1061838D01*
X1289304Y1061880D01*
X1289485Y1061917D01*
X1289667Y1061950D01*
X1289849Y1061979D01*
X1290033Y1062003D01*
X1290217Y1062023D01*
X1290401Y1062038D01*
X1290585Y1062049D01*
X1290770Y1062056D01*
X1290955Y1062058D01*
X1287561Y1061275D02*
X1287481Y1061245D01*
X1287402Y1061212D01*
X1287325Y1061175D01*
X1287249Y1061135D01*
X1287175Y1061092D01*
X1287103Y1061046D01*
X1287034Y1060996D01*
X1286966Y1060944D01*
X1286901Y1060888D01*
X1286838Y1060830D01*
X1286779Y1060768D01*
X1286721Y1060705D01*
X1286667Y1060638D01*
X1286616Y1060570D01*
X1286568Y1060499D01*
X1286523Y1060426D01*
X1286481Y1060352D01*
X1286443Y1060275D01*
X1286408Y1060197D01*
X1286376Y1060118D01*
X1286348Y1060037D01*
X1286324Y1059955D01*
X1286303Y1059871D01*
X1286286Y1059788D01*
X1286273Y1059703D01*
X1286264Y1059618D01*
X1286258Y1059533D01*
X1286256Y1059447D01*
X1288344Y1057359D02*
X1293566Y1061536D01*
X247904Y444881D02*
X238506Y444881D01*
X247904Y444881D02*
X247904Y447492D01*
X247902Y447593D01*
X247896Y447694D01*
X247886Y447795D01*
X247873Y447895D01*
X247855Y447995D01*
X247834Y448094D01*
X247808Y448192D01*
X247779Y448289D01*
X247747Y448385D01*
X247710Y448479D01*
X247670Y448572D01*
X247626Y448664D01*
X247579Y448753D01*
X247528Y448841D01*
X247474Y448927D01*
X247417Y449010D01*
X247357Y449092D01*
X247293Y449170D01*
X247227Y449247D01*
X247157Y449320D01*
X247085Y449391D01*
X247010Y449459D01*
X246932Y449524D01*
X246852Y449586D01*
X246770Y449645D01*
X246685Y449701D01*
X246599Y449753D01*
X246510Y449802D01*
X246419Y449848D01*
X246327Y449889D01*
X246233Y449928D01*
X246138Y449962D01*
X246042Y449993D01*
X245944Y450020D01*
X245846Y450044D01*
X245746Y450063D01*
X245646Y450079D01*
X245546Y450091D01*
X245445Y450099D01*
X245344Y450103D01*
X245242Y450103D01*
X245141Y450099D01*
X245040Y450091D01*
X244940Y450079D01*
X244840Y450063D01*
X244740Y450044D01*
X244642Y450020D01*
X244544Y449993D01*
X244448Y449962D01*
X244353Y449928D01*
X244259Y449889D01*
X244167Y449848D01*
X244076Y449802D01*
X243988Y449753D01*
X243901Y449701D01*
X243816Y449645D01*
X243734Y449586D01*
X243654Y449524D01*
X243576Y449459D01*
X243501Y449391D01*
X243429Y449320D01*
X243359Y449247D01*
X243293Y449170D01*
X243229Y449092D01*
X243169Y449010D01*
X243112Y448927D01*
X243058Y448841D01*
X243007Y448753D01*
X242960Y448664D01*
X242916Y448572D01*
X242876Y448479D01*
X242839Y448385D01*
X242807Y448289D01*
X242778Y448192D01*
X242752Y448094D01*
X242731Y447995D01*
X242713Y447895D01*
X242700Y447795D01*
X242690Y447694D01*
X242684Y447593D01*
X242682Y447492D01*
X242683Y447492D02*
X242683Y444881D01*
X242683Y448014D02*
X238506Y450102D01*
X245555Y459190D02*
X245650Y459188D01*
X245744Y459182D01*
X245838Y459173D01*
X245932Y459160D01*
X246025Y459143D01*
X246117Y459122D01*
X246209Y459097D01*
X246299Y459069D01*
X246388Y459037D01*
X246476Y459002D01*
X246562Y458963D01*
X246647Y458921D01*
X246730Y458875D01*
X246811Y458826D01*
X246890Y458774D01*
X246967Y458719D01*
X247041Y458660D01*
X247113Y458599D01*
X247183Y458535D01*
X247250Y458468D01*
X247314Y458398D01*
X247375Y458326D01*
X247434Y458252D01*
X247489Y458175D01*
X247541Y458096D01*
X247590Y458015D01*
X247636Y457932D01*
X247678Y457847D01*
X247717Y457761D01*
X247752Y457673D01*
X247784Y457584D01*
X247812Y457494D01*
X247837Y457402D01*
X247858Y457310D01*
X247875Y457217D01*
X247888Y457123D01*
X247897Y457029D01*
X247903Y456935D01*
X247905Y456840D01*
X247904Y456840D02*
X247902Y456732D01*
X247896Y456623D01*
X247886Y456515D01*
X247873Y456408D01*
X247855Y456301D01*
X247834Y456194D01*
X247809Y456089D01*
X247780Y455984D01*
X247748Y455881D01*
X247711Y455779D01*
X247671Y455678D01*
X247628Y455579D01*
X247581Y455481D01*
X247530Y455385D01*
X247476Y455291D01*
X247419Y455199D01*
X247358Y455109D01*
X247294Y455021D01*
X247228Y454936D01*
X247158Y454853D01*
X247085Y454773D01*
X247009Y454695D01*
X246931Y454620D01*
X246850Y454548D01*
X246766Y454479D01*
X246680Y454413D01*
X246592Y454350D01*
X246501Y454291D01*
X246409Y454234D01*
X246314Y454181D01*
X246218Y454132D01*
X246119Y454086D01*
X246020Y454043D01*
X245918Y454004D01*
X245816Y453969D01*
X243727Y458406D02*
X243796Y458475D01*
X243867Y458541D01*
X243940Y458605D01*
X244016Y458666D01*
X244095Y458724D01*
X244175Y458778D01*
X244258Y458830D01*
X244342Y458878D01*
X244428Y458924D01*
X244516Y458965D01*
X244606Y459004D01*
X244697Y459039D01*
X244789Y459070D01*
X244882Y459098D01*
X244976Y459122D01*
X245071Y459142D01*
X245167Y459159D01*
X245264Y459172D01*
X245361Y459181D01*
X245458Y459187D01*
X245555Y459189D01*
X243727Y458406D02*
X238506Y453968D01*
X238506Y459189D01*
X313944Y381254D02*
X313944Y371856D01*
X313944Y381254D02*
X311333Y381254D01*
X311232Y381252D01*
X311131Y381246D01*
X311030Y381236D01*
X310930Y381223D01*
X310830Y381205D01*
X310731Y381184D01*
X310633Y381158D01*
X310536Y381129D01*
X310440Y381097D01*
X310346Y381060D01*
X310253Y381020D01*
X310161Y380976D01*
X310072Y380929D01*
X309984Y380878D01*
X309898Y380824D01*
X309815Y380767D01*
X309733Y380707D01*
X309655Y380643D01*
X309578Y380577D01*
X309505Y380507D01*
X309434Y380435D01*
X309366Y380360D01*
X309301Y380282D01*
X309239Y380202D01*
X309180Y380120D01*
X309124Y380035D01*
X309072Y379949D01*
X309023Y379860D01*
X308977Y379769D01*
X308936Y379677D01*
X308897Y379583D01*
X308863Y379488D01*
X308832Y379392D01*
X308805Y379294D01*
X308781Y379196D01*
X308762Y379096D01*
X308746Y378996D01*
X308734Y378896D01*
X308726Y378795D01*
X308722Y378694D01*
X308722Y378592D01*
X308726Y378491D01*
X308734Y378390D01*
X308746Y378290D01*
X308762Y378190D01*
X308781Y378090D01*
X308805Y377992D01*
X308832Y377894D01*
X308863Y377798D01*
X308897Y377703D01*
X308936Y377609D01*
X308977Y377517D01*
X309023Y377426D01*
X309072Y377338D01*
X309124Y377251D01*
X309180Y377166D01*
X309239Y377084D01*
X309301Y377004D01*
X309366Y376926D01*
X309434Y376851D01*
X309505Y376779D01*
X309578Y376709D01*
X309655Y376643D01*
X309733Y376579D01*
X309815Y376519D01*
X309898Y376462D01*
X309984Y376408D01*
X310072Y376357D01*
X310161Y376310D01*
X310253Y376266D01*
X310346Y376226D01*
X310440Y376189D01*
X310536Y376157D01*
X310633Y376128D01*
X310731Y376102D01*
X310830Y376081D01*
X310930Y376063D01*
X311030Y376050D01*
X311131Y376040D01*
X311232Y376034D01*
X311333Y376032D01*
X311333Y376033D02*
X313944Y376033D01*
X310811Y376033D02*
X308723Y371856D01*
X304857Y371856D02*
X302247Y371856D01*
X302146Y371858D01*
X302045Y371864D01*
X301944Y371874D01*
X301844Y371887D01*
X301744Y371905D01*
X301645Y371926D01*
X301547Y371952D01*
X301450Y371981D01*
X301354Y372013D01*
X301260Y372050D01*
X301167Y372090D01*
X301075Y372134D01*
X300986Y372181D01*
X300898Y372232D01*
X300812Y372286D01*
X300729Y372343D01*
X300647Y372403D01*
X300569Y372467D01*
X300492Y372533D01*
X300419Y372603D01*
X300348Y372675D01*
X300280Y372750D01*
X300215Y372828D01*
X300153Y372908D01*
X300094Y372990D01*
X300038Y373075D01*
X299986Y373162D01*
X299937Y373250D01*
X299891Y373341D01*
X299850Y373433D01*
X299811Y373527D01*
X299777Y373622D01*
X299746Y373718D01*
X299719Y373816D01*
X299695Y373914D01*
X299676Y374014D01*
X299660Y374114D01*
X299648Y374214D01*
X299640Y374315D01*
X299636Y374416D01*
X299636Y374518D01*
X299640Y374619D01*
X299648Y374720D01*
X299660Y374820D01*
X299676Y374920D01*
X299695Y375020D01*
X299719Y375118D01*
X299746Y375216D01*
X299777Y375312D01*
X299811Y375407D01*
X299850Y375501D01*
X299891Y375593D01*
X299937Y375684D01*
X299986Y375773D01*
X300038Y375859D01*
X300094Y375944D01*
X300153Y376026D01*
X300215Y376106D01*
X300280Y376184D01*
X300348Y376259D01*
X300419Y376331D01*
X300492Y376401D01*
X300569Y376467D01*
X300647Y376531D01*
X300729Y376591D01*
X300812Y376648D01*
X300898Y376702D01*
X300986Y376753D01*
X301075Y376800D01*
X301167Y376844D01*
X301260Y376884D01*
X301354Y376921D01*
X301450Y376953D01*
X301547Y376982D01*
X301645Y377008D01*
X301744Y377029D01*
X301844Y377047D01*
X301944Y377060D01*
X302045Y377070D01*
X302146Y377076D01*
X302247Y377078D01*
X301724Y381254D02*
X304857Y381254D01*
X301724Y381254D02*
X301634Y381252D01*
X301545Y381246D01*
X301455Y381237D01*
X301366Y381223D01*
X301278Y381206D01*
X301191Y381185D01*
X301104Y381160D01*
X301019Y381131D01*
X300935Y381099D01*
X300853Y381064D01*
X300772Y381024D01*
X300693Y380982D01*
X300616Y380936D01*
X300541Y380886D01*
X300468Y380834D01*
X300397Y380778D01*
X300329Y380720D01*
X300264Y380658D01*
X300201Y380594D01*
X300141Y380527D01*
X300084Y380458D01*
X300030Y380386D01*
X299979Y380312D01*
X299931Y380236D01*
X299887Y380158D01*
X299846Y380078D01*
X299808Y379996D01*
X299774Y379913D01*
X299744Y379828D01*
X299717Y379742D01*
X299694Y379656D01*
X299675Y379568D01*
X299660Y379479D01*
X299648Y379390D01*
X299640Y379301D01*
X299636Y379211D01*
X299636Y379121D01*
X299640Y379031D01*
X299648Y378942D01*
X299660Y378853D01*
X299675Y378764D01*
X299694Y378676D01*
X299717Y378590D01*
X299744Y378504D01*
X299774Y378419D01*
X299808Y378336D01*
X299846Y378254D01*
X299887Y378174D01*
X299931Y378096D01*
X299979Y378020D01*
X300030Y377946D01*
X300084Y377874D01*
X300141Y377805D01*
X300201Y377738D01*
X300264Y377674D01*
X300329Y377612D01*
X300397Y377554D01*
X300468Y377498D01*
X300541Y377446D01*
X300616Y377396D01*
X300693Y377350D01*
X300772Y377308D01*
X300853Y377268D01*
X300935Y377233D01*
X301019Y377201D01*
X301104Y377172D01*
X301191Y377147D01*
X301278Y377126D01*
X301366Y377109D01*
X301455Y377095D01*
X301545Y377086D01*
X301634Y377080D01*
X301724Y377078D01*
X301724Y377077D02*
X303813Y377077D01*
X317119Y438531D02*
X317119Y447929D01*
X314508Y447929D01*
X314407Y447927D01*
X314306Y447921D01*
X314205Y447911D01*
X314105Y447898D01*
X314005Y447880D01*
X313906Y447859D01*
X313808Y447833D01*
X313711Y447804D01*
X313615Y447772D01*
X313521Y447735D01*
X313428Y447695D01*
X313336Y447651D01*
X313247Y447604D01*
X313159Y447553D01*
X313073Y447499D01*
X312990Y447442D01*
X312908Y447382D01*
X312830Y447318D01*
X312753Y447252D01*
X312680Y447182D01*
X312609Y447110D01*
X312541Y447035D01*
X312476Y446957D01*
X312414Y446877D01*
X312355Y446795D01*
X312299Y446710D01*
X312247Y446624D01*
X312198Y446535D01*
X312152Y446444D01*
X312111Y446352D01*
X312072Y446258D01*
X312038Y446163D01*
X312007Y446067D01*
X311980Y445969D01*
X311956Y445871D01*
X311937Y445771D01*
X311921Y445671D01*
X311909Y445571D01*
X311901Y445470D01*
X311897Y445369D01*
X311897Y445267D01*
X311901Y445166D01*
X311909Y445065D01*
X311921Y444965D01*
X311937Y444865D01*
X311956Y444765D01*
X311980Y444667D01*
X312007Y444569D01*
X312038Y444473D01*
X312072Y444378D01*
X312111Y444284D01*
X312152Y444192D01*
X312198Y444101D01*
X312247Y444013D01*
X312299Y443926D01*
X312355Y443841D01*
X312414Y443759D01*
X312476Y443679D01*
X312541Y443601D01*
X312609Y443526D01*
X312680Y443454D01*
X312753Y443384D01*
X312830Y443318D01*
X312908Y443254D01*
X312990Y443194D01*
X313073Y443137D01*
X313159Y443083D01*
X313247Y443032D01*
X313336Y442985D01*
X313428Y442941D01*
X313521Y442901D01*
X313615Y442864D01*
X313711Y442832D01*
X313808Y442803D01*
X313906Y442777D01*
X314005Y442756D01*
X314105Y442738D01*
X314205Y442725D01*
X314306Y442715D01*
X314407Y442709D01*
X314508Y442707D01*
X314508Y442708D02*
X317119Y442708D01*
X313986Y442708D02*
X311898Y438531D01*
X308032Y440619D02*
X305944Y447929D01*
X308032Y440619D02*
X302811Y440619D01*
X304377Y442708D02*
X304377Y438531D01*
X319489Y313944D02*
X319489Y304546D01*
X319489Y313944D02*
X316878Y313944D01*
X316777Y313942D01*
X316676Y313936D01*
X316575Y313926D01*
X316475Y313913D01*
X316375Y313895D01*
X316276Y313874D01*
X316178Y313848D01*
X316081Y313819D01*
X315985Y313787D01*
X315891Y313750D01*
X315798Y313710D01*
X315706Y313666D01*
X315617Y313619D01*
X315529Y313568D01*
X315443Y313514D01*
X315360Y313457D01*
X315278Y313397D01*
X315200Y313333D01*
X315123Y313267D01*
X315050Y313197D01*
X314979Y313125D01*
X314911Y313050D01*
X314846Y312972D01*
X314784Y312892D01*
X314725Y312810D01*
X314669Y312725D01*
X314617Y312639D01*
X314568Y312550D01*
X314522Y312459D01*
X314481Y312367D01*
X314442Y312273D01*
X314408Y312178D01*
X314377Y312082D01*
X314350Y311984D01*
X314326Y311886D01*
X314307Y311786D01*
X314291Y311686D01*
X314279Y311586D01*
X314271Y311485D01*
X314267Y311384D01*
X314267Y311282D01*
X314271Y311181D01*
X314279Y311080D01*
X314291Y310980D01*
X314307Y310880D01*
X314326Y310780D01*
X314350Y310682D01*
X314377Y310584D01*
X314408Y310488D01*
X314442Y310393D01*
X314481Y310299D01*
X314522Y310207D01*
X314568Y310116D01*
X314617Y310028D01*
X314669Y309941D01*
X314725Y309856D01*
X314784Y309774D01*
X314846Y309694D01*
X314911Y309616D01*
X314979Y309541D01*
X315050Y309469D01*
X315123Y309399D01*
X315200Y309333D01*
X315278Y309269D01*
X315360Y309209D01*
X315443Y309152D01*
X315529Y309098D01*
X315617Y309047D01*
X315706Y309000D01*
X315798Y308956D01*
X315891Y308916D01*
X315985Y308879D01*
X316081Y308847D01*
X316178Y308818D01*
X316276Y308792D01*
X316375Y308771D01*
X316475Y308753D01*
X316575Y308740D01*
X316676Y308730D01*
X316777Y308724D01*
X316878Y308722D01*
X316878Y308723D02*
X319489Y308723D01*
X316356Y308723D02*
X314268Y304546D01*
X310402Y304546D02*
X307269Y304546D01*
X307180Y304548D01*
X307092Y304554D01*
X307004Y304563D01*
X306916Y304576D01*
X306829Y304593D01*
X306743Y304613D01*
X306658Y304638D01*
X306573Y304665D01*
X306490Y304697D01*
X306409Y304731D01*
X306329Y304770D01*
X306251Y304811D01*
X306174Y304856D01*
X306100Y304904D01*
X306027Y304955D01*
X305957Y305009D01*
X305890Y305067D01*
X305824Y305127D01*
X305762Y305189D01*
X305702Y305255D01*
X305644Y305322D01*
X305590Y305392D01*
X305539Y305465D01*
X305491Y305539D01*
X305446Y305616D01*
X305405Y305694D01*
X305366Y305774D01*
X305332Y305855D01*
X305300Y305938D01*
X305273Y306023D01*
X305248Y306108D01*
X305228Y306194D01*
X305211Y306281D01*
X305198Y306369D01*
X305189Y306457D01*
X305183Y306545D01*
X305181Y306634D01*
X305181Y307679D01*
X305183Y307768D01*
X305189Y307856D01*
X305198Y307944D01*
X305211Y308032D01*
X305228Y308119D01*
X305248Y308205D01*
X305273Y308290D01*
X305300Y308375D01*
X305332Y308458D01*
X305366Y308539D01*
X305405Y308619D01*
X305446Y308697D01*
X305491Y308774D01*
X305539Y308848D01*
X305590Y308921D01*
X305644Y308991D01*
X305702Y309058D01*
X305762Y309124D01*
X305824Y309186D01*
X305890Y309246D01*
X305957Y309304D01*
X306027Y309358D01*
X306100Y309409D01*
X306174Y309457D01*
X306251Y309502D01*
X306329Y309543D01*
X306409Y309582D01*
X306490Y309616D01*
X306573Y309648D01*
X306658Y309675D01*
X306743Y309700D01*
X306829Y309720D01*
X306916Y309737D01*
X307004Y309750D01*
X307092Y309759D01*
X307180Y309765D01*
X307269Y309767D01*
X310402Y309767D01*
X310402Y313944D01*
X305181Y313944D01*
X341714Y324231D02*
X341714Y333629D01*
X339103Y333629D01*
X339002Y333627D01*
X338901Y333621D01*
X338800Y333611D01*
X338700Y333598D01*
X338600Y333580D01*
X338501Y333559D01*
X338403Y333533D01*
X338306Y333504D01*
X338210Y333472D01*
X338116Y333435D01*
X338023Y333395D01*
X337931Y333351D01*
X337842Y333304D01*
X337754Y333253D01*
X337668Y333199D01*
X337585Y333142D01*
X337503Y333082D01*
X337425Y333018D01*
X337348Y332952D01*
X337275Y332882D01*
X337204Y332810D01*
X337136Y332735D01*
X337071Y332657D01*
X337009Y332577D01*
X336950Y332495D01*
X336894Y332410D01*
X336842Y332324D01*
X336793Y332235D01*
X336747Y332144D01*
X336706Y332052D01*
X336667Y331958D01*
X336633Y331863D01*
X336602Y331767D01*
X336575Y331669D01*
X336551Y331571D01*
X336532Y331471D01*
X336516Y331371D01*
X336504Y331271D01*
X336496Y331170D01*
X336492Y331069D01*
X336492Y330967D01*
X336496Y330866D01*
X336504Y330765D01*
X336516Y330665D01*
X336532Y330565D01*
X336551Y330465D01*
X336575Y330367D01*
X336602Y330269D01*
X336633Y330173D01*
X336667Y330078D01*
X336706Y329984D01*
X336747Y329892D01*
X336793Y329801D01*
X336842Y329713D01*
X336894Y329626D01*
X336950Y329541D01*
X337009Y329459D01*
X337071Y329379D01*
X337136Y329301D01*
X337204Y329226D01*
X337275Y329154D01*
X337348Y329084D01*
X337425Y329018D01*
X337503Y328954D01*
X337585Y328894D01*
X337668Y328837D01*
X337754Y328783D01*
X337842Y328732D01*
X337931Y328685D01*
X338023Y328641D01*
X338116Y328601D01*
X338210Y328564D01*
X338306Y328532D01*
X338403Y328503D01*
X338501Y328477D01*
X338600Y328456D01*
X338700Y328438D01*
X338800Y328425D01*
X338901Y328415D01*
X339002Y328409D01*
X339103Y328407D01*
X339103Y328408D02*
X341714Y328408D01*
X338581Y328408D02*
X336493Y324231D01*
X332627Y329452D02*
X329494Y329452D01*
X329405Y329450D01*
X329317Y329444D01*
X329229Y329435D01*
X329141Y329422D01*
X329054Y329405D01*
X328968Y329385D01*
X328883Y329360D01*
X328798Y329333D01*
X328715Y329301D01*
X328634Y329267D01*
X328554Y329228D01*
X328476Y329187D01*
X328399Y329142D01*
X328325Y329094D01*
X328252Y329043D01*
X328182Y328989D01*
X328115Y328931D01*
X328049Y328871D01*
X327987Y328809D01*
X327927Y328743D01*
X327869Y328676D01*
X327815Y328606D01*
X327764Y328533D01*
X327716Y328459D01*
X327671Y328382D01*
X327630Y328304D01*
X327591Y328224D01*
X327557Y328143D01*
X327525Y328060D01*
X327498Y327975D01*
X327473Y327890D01*
X327453Y327804D01*
X327436Y327717D01*
X327423Y327629D01*
X327414Y327541D01*
X327408Y327453D01*
X327406Y327364D01*
X327406Y326842D01*
X327408Y326741D01*
X327414Y326640D01*
X327424Y326539D01*
X327437Y326439D01*
X327455Y326339D01*
X327476Y326240D01*
X327502Y326142D01*
X327531Y326045D01*
X327563Y325949D01*
X327600Y325855D01*
X327640Y325762D01*
X327684Y325670D01*
X327731Y325581D01*
X327782Y325493D01*
X327836Y325407D01*
X327893Y325324D01*
X327953Y325242D01*
X328017Y325164D01*
X328083Y325087D01*
X328153Y325014D01*
X328225Y324943D01*
X328300Y324875D01*
X328378Y324810D01*
X328458Y324748D01*
X328540Y324689D01*
X328625Y324633D01*
X328712Y324581D01*
X328800Y324532D01*
X328891Y324486D01*
X328983Y324445D01*
X329077Y324406D01*
X329172Y324372D01*
X329268Y324341D01*
X329366Y324314D01*
X329464Y324290D01*
X329564Y324271D01*
X329664Y324255D01*
X329764Y324243D01*
X329865Y324235D01*
X329966Y324231D01*
X330068Y324231D01*
X330169Y324235D01*
X330270Y324243D01*
X330370Y324255D01*
X330470Y324271D01*
X330570Y324290D01*
X330668Y324314D01*
X330766Y324341D01*
X330862Y324372D01*
X330957Y324406D01*
X331051Y324445D01*
X331143Y324486D01*
X331234Y324532D01*
X331322Y324581D01*
X331409Y324633D01*
X331494Y324689D01*
X331576Y324748D01*
X331656Y324810D01*
X331734Y324875D01*
X331809Y324943D01*
X331881Y325014D01*
X331951Y325087D01*
X332017Y325164D01*
X332081Y325242D01*
X332141Y325324D01*
X332198Y325407D01*
X332252Y325493D01*
X332303Y325581D01*
X332350Y325670D01*
X332394Y325762D01*
X332434Y325855D01*
X332471Y325949D01*
X332503Y326045D01*
X332532Y326142D01*
X332558Y326240D01*
X332579Y326339D01*
X332597Y326439D01*
X332610Y326539D01*
X332620Y326640D01*
X332626Y326741D01*
X332628Y326842D01*
X332627Y326842D02*
X332627Y329452D01*
X332625Y329578D01*
X332619Y329704D01*
X332610Y329830D01*
X332597Y329955D01*
X332579Y330080D01*
X332559Y330205D01*
X332534Y330329D01*
X332506Y330452D01*
X332474Y330574D01*
X332438Y330695D01*
X332399Y330815D01*
X332356Y330933D01*
X332309Y331050D01*
X332259Y331166D01*
X332205Y331281D01*
X332149Y331393D01*
X332088Y331504D01*
X332025Y331613D01*
X331958Y331720D01*
X331888Y331825D01*
X331814Y331928D01*
X331738Y332028D01*
X331659Y332126D01*
X331577Y332222D01*
X331491Y332315D01*
X331404Y332406D01*
X331313Y332493D01*
X331220Y332579D01*
X331124Y332661D01*
X331026Y332740D01*
X330926Y332816D01*
X330823Y332890D01*
X330718Y332960D01*
X330611Y333027D01*
X330502Y333090D01*
X330391Y333151D01*
X330279Y333207D01*
X330164Y333261D01*
X330048Y333311D01*
X329931Y333358D01*
X329813Y333401D01*
X329693Y333440D01*
X329572Y333476D01*
X329450Y333508D01*
X329327Y333536D01*
X329203Y333561D01*
X329078Y333581D01*
X328953Y333599D01*
X328828Y333612D01*
X328702Y333621D01*
X328576Y333627D01*
X328450Y333629D01*
X1158494Y1105281D02*
X1158494Y1114679D01*
X1155883Y1114679D01*
X1155782Y1114677D01*
X1155681Y1114671D01*
X1155580Y1114661D01*
X1155480Y1114648D01*
X1155380Y1114630D01*
X1155281Y1114609D01*
X1155183Y1114583D01*
X1155086Y1114554D01*
X1154990Y1114522D01*
X1154896Y1114485D01*
X1154803Y1114445D01*
X1154711Y1114401D01*
X1154622Y1114354D01*
X1154534Y1114303D01*
X1154448Y1114249D01*
X1154365Y1114192D01*
X1154283Y1114132D01*
X1154205Y1114068D01*
X1154128Y1114002D01*
X1154055Y1113932D01*
X1153984Y1113860D01*
X1153916Y1113785D01*
X1153851Y1113707D01*
X1153789Y1113627D01*
X1153730Y1113545D01*
X1153674Y1113460D01*
X1153622Y1113374D01*
X1153573Y1113285D01*
X1153527Y1113194D01*
X1153486Y1113102D01*
X1153447Y1113008D01*
X1153413Y1112913D01*
X1153382Y1112817D01*
X1153355Y1112719D01*
X1153331Y1112621D01*
X1153312Y1112521D01*
X1153296Y1112421D01*
X1153284Y1112321D01*
X1153276Y1112220D01*
X1153272Y1112119D01*
X1153272Y1112017D01*
X1153276Y1111916D01*
X1153284Y1111815D01*
X1153296Y1111715D01*
X1153312Y1111615D01*
X1153331Y1111515D01*
X1153355Y1111417D01*
X1153382Y1111319D01*
X1153413Y1111223D01*
X1153447Y1111128D01*
X1153486Y1111034D01*
X1153527Y1110942D01*
X1153573Y1110851D01*
X1153622Y1110763D01*
X1153674Y1110676D01*
X1153730Y1110591D01*
X1153789Y1110509D01*
X1153851Y1110429D01*
X1153916Y1110351D01*
X1153984Y1110276D01*
X1154055Y1110204D01*
X1154128Y1110134D01*
X1154205Y1110068D01*
X1154283Y1110004D01*
X1154365Y1109944D01*
X1154448Y1109887D01*
X1154534Y1109833D01*
X1154622Y1109782D01*
X1154711Y1109735D01*
X1154803Y1109691D01*
X1154896Y1109651D01*
X1154990Y1109614D01*
X1155086Y1109582D01*
X1155183Y1109553D01*
X1155281Y1109527D01*
X1155380Y1109506D01*
X1155480Y1109488D01*
X1155580Y1109475D01*
X1155681Y1109465D01*
X1155782Y1109459D01*
X1155883Y1109457D01*
X1155883Y1109458D02*
X1158494Y1109458D01*
X1155361Y1109458D02*
X1153273Y1105281D01*
X1149407Y1113635D02*
X1149407Y1114679D01*
X1144186Y1114679D01*
X1146797Y1105281D01*
X1067054Y1038606D02*
X1057656Y1038606D01*
X1067054Y1038606D02*
X1067054Y1041217D01*
X1067052Y1041318D01*
X1067046Y1041419D01*
X1067036Y1041520D01*
X1067023Y1041620D01*
X1067005Y1041720D01*
X1066984Y1041819D01*
X1066958Y1041917D01*
X1066929Y1042014D01*
X1066897Y1042110D01*
X1066860Y1042204D01*
X1066820Y1042297D01*
X1066776Y1042389D01*
X1066729Y1042478D01*
X1066678Y1042566D01*
X1066624Y1042652D01*
X1066567Y1042735D01*
X1066507Y1042817D01*
X1066443Y1042895D01*
X1066377Y1042972D01*
X1066307Y1043045D01*
X1066235Y1043116D01*
X1066160Y1043184D01*
X1066082Y1043249D01*
X1066002Y1043311D01*
X1065920Y1043370D01*
X1065835Y1043426D01*
X1065749Y1043478D01*
X1065660Y1043527D01*
X1065569Y1043573D01*
X1065477Y1043614D01*
X1065383Y1043653D01*
X1065288Y1043687D01*
X1065192Y1043718D01*
X1065094Y1043745D01*
X1064996Y1043769D01*
X1064896Y1043788D01*
X1064796Y1043804D01*
X1064696Y1043816D01*
X1064595Y1043824D01*
X1064494Y1043828D01*
X1064392Y1043828D01*
X1064291Y1043824D01*
X1064190Y1043816D01*
X1064090Y1043804D01*
X1063990Y1043788D01*
X1063890Y1043769D01*
X1063792Y1043745D01*
X1063694Y1043718D01*
X1063598Y1043687D01*
X1063503Y1043653D01*
X1063409Y1043614D01*
X1063317Y1043573D01*
X1063226Y1043527D01*
X1063138Y1043478D01*
X1063051Y1043426D01*
X1062966Y1043370D01*
X1062884Y1043311D01*
X1062804Y1043249D01*
X1062726Y1043184D01*
X1062651Y1043116D01*
X1062579Y1043045D01*
X1062509Y1042972D01*
X1062443Y1042895D01*
X1062379Y1042817D01*
X1062319Y1042735D01*
X1062262Y1042652D01*
X1062208Y1042566D01*
X1062157Y1042478D01*
X1062110Y1042389D01*
X1062066Y1042297D01*
X1062026Y1042204D01*
X1061989Y1042110D01*
X1061957Y1042014D01*
X1061928Y1041917D01*
X1061902Y1041819D01*
X1061881Y1041720D01*
X1061863Y1041620D01*
X1061850Y1041520D01*
X1061840Y1041419D01*
X1061834Y1041318D01*
X1061832Y1041217D01*
X1061833Y1041217D02*
X1061833Y1038606D01*
X1061833Y1041739D02*
X1057656Y1043827D01*
X1060267Y1047692D02*
X1060368Y1047694D01*
X1060469Y1047700D01*
X1060570Y1047710D01*
X1060670Y1047723D01*
X1060770Y1047741D01*
X1060869Y1047762D01*
X1060967Y1047788D01*
X1061064Y1047817D01*
X1061160Y1047849D01*
X1061254Y1047886D01*
X1061347Y1047926D01*
X1061439Y1047970D01*
X1061528Y1048017D01*
X1061616Y1048068D01*
X1061702Y1048122D01*
X1061785Y1048179D01*
X1061867Y1048239D01*
X1061945Y1048303D01*
X1062022Y1048369D01*
X1062095Y1048439D01*
X1062166Y1048511D01*
X1062234Y1048586D01*
X1062299Y1048664D01*
X1062361Y1048744D01*
X1062420Y1048826D01*
X1062476Y1048911D01*
X1062528Y1048998D01*
X1062577Y1049086D01*
X1062623Y1049177D01*
X1062664Y1049269D01*
X1062703Y1049363D01*
X1062737Y1049458D01*
X1062768Y1049554D01*
X1062795Y1049652D01*
X1062819Y1049750D01*
X1062838Y1049850D01*
X1062854Y1049950D01*
X1062866Y1050050D01*
X1062874Y1050151D01*
X1062878Y1050252D01*
X1062878Y1050354D01*
X1062874Y1050455D01*
X1062866Y1050556D01*
X1062854Y1050656D01*
X1062838Y1050756D01*
X1062819Y1050856D01*
X1062795Y1050954D01*
X1062768Y1051052D01*
X1062737Y1051148D01*
X1062703Y1051243D01*
X1062664Y1051337D01*
X1062623Y1051429D01*
X1062577Y1051520D01*
X1062528Y1051609D01*
X1062476Y1051695D01*
X1062420Y1051780D01*
X1062361Y1051862D01*
X1062299Y1051942D01*
X1062234Y1052020D01*
X1062166Y1052095D01*
X1062095Y1052167D01*
X1062022Y1052237D01*
X1061945Y1052303D01*
X1061867Y1052367D01*
X1061785Y1052427D01*
X1061702Y1052484D01*
X1061616Y1052538D01*
X1061528Y1052589D01*
X1061439Y1052636D01*
X1061347Y1052680D01*
X1061254Y1052720D01*
X1061160Y1052757D01*
X1061064Y1052789D01*
X1060967Y1052818D01*
X1060869Y1052844D01*
X1060770Y1052865D01*
X1060670Y1052883D01*
X1060570Y1052896D01*
X1060469Y1052906D01*
X1060368Y1052912D01*
X1060267Y1052914D01*
X1060166Y1052912D01*
X1060065Y1052906D01*
X1059964Y1052896D01*
X1059864Y1052883D01*
X1059764Y1052865D01*
X1059665Y1052844D01*
X1059567Y1052818D01*
X1059470Y1052789D01*
X1059374Y1052757D01*
X1059280Y1052720D01*
X1059187Y1052680D01*
X1059095Y1052636D01*
X1059006Y1052589D01*
X1058918Y1052538D01*
X1058832Y1052484D01*
X1058749Y1052427D01*
X1058667Y1052367D01*
X1058589Y1052303D01*
X1058512Y1052237D01*
X1058439Y1052167D01*
X1058368Y1052095D01*
X1058300Y1052020D01*
X1058235Y1051942D01*
X1058173Y1051862D01*
X1058114Y1051780D01*
X1058058Y1051695D01*
X1058006Y1051609D01*
X1057957Y1051520D01*
X1057911Y1051429D01*
X1057870Y1051337D01*
X1057831Y1051243D01*
X1057797Y1051148D01*
X1057766Y1051052D01*
X1057739Y1050954D01*
X1057715Y1050856D01*
X1057696Y1050756D01*
X1057680Y1050656D01*
X1057668Y1050556D01*
X1057660Y1050455D01*
X1057656Y1050354D01*
X1057656Y1050252D01*
X1057660Y1050151D01*
X1057668Y1050050D01*
X1057680Y1049950D01*
X1057696Y1049850D01*
X1057715Y1049750D01*
X1057739Y1049652D01*
X1057766Y1049554D01*
X1057797Y1049458D01*
X1057831Y1049363D01*
X1057870Y1049269D01*
X1057911Y1049177D01*
X1057957Y1049086D01*
X1058006Y1048998D01*
X1058058Y1048911D01*
X1058114Y1048826D01*
X1058173Y1048744D01*
X1058235Y1048664D01*
X1058300Y1048586D01*
X1058368Y1048511D01*
X1058439Y1048439D01*
X1058512Y1048369D01*
X1058589Y1048303D01*
X1058667Y1048239D01*
X1058749Y1048179D01*
X1058832Y1048122D01*
X1058918Y1048068D01*
X1059006Y1048017D01*
X1059095Y1047970D01*
X1059187Y1047926D01*
X1059280Y1047886D01*
X1059374Y1047849D01*
X1059470Y1047817D01*
X1059567Y1047788D01*
X1059665Y1047762D01*
X1059764Y1047741D01*
X1059864Y1047723D01*
X1059964Y1047710D01*
X1060065Y1047700D01*
X1060166Y1047694D01*
X1060267Y1047692D01*
X1064966Y1048215D02*
X1065056Y1048217D01*
X1065145Y1048223D01*
X1065235Y1048232D01*
X1065324Y1048246D01*
X1065412Y1048263D01*
X1065499Y1048284D01*
X1065586Y1048309D01*
X1065671Y1048338D01*
X1065755Y1048370D01*
X1065837Y1048405D01*
X1065918Y1048445D01*
X1065997Y1048487D01*
X1066074Y1048533D01*
X1066149Y1048583D01*
X1066222Y1048635D01*
X1066293Y1048691D01*
X1066361Y1048749D01*
X1066426Y1048811D01*
X1066489Y1048875D01*
X1066549Y1048942D01*
X1066606Y1049011D01*
X1066660Y1049083D01*
X1066711Y1049157D01*
X1066759Y1049233D01*
X1066803Y1049311D01*
X1066844Y1049391D01*
X1066882Y1049473D01*
X1066916Y1049556D01*
X1066946Y1049641D01*
X1066973Y1049727D01*
X1066996Y1049813D01*
X1067015Y1049901D01*
X1067030Y1049990D01*
X1067042Y1050079D01*
X1067050Y1050168D01*
X1067054Y1050258D01*
X1067054Y1050348D01*
X1067050Y1050438D01*
X1067042Y1050527D01*
X1067030Y1050616D01*
X1067015Y1050705D01*
X1066996Y1050793D01*
X1066973Y1050879D01*
X1066946Y1050965D01*
X1066916Y1051050D01*
X1066882Y1051133D01*
X1066844Y1051215D01*
X1066803Y1051295D01*
X1066759Y1051373D01*
X1066711Y1051449D01*
X1066660Y1051523D01*
X1066606Y1051595D01*
X1066549Y1051664D01*
X1066489Y1051731D01*
X1066426Y1051795D01*
X1066361Y1051857D01*
X1066293Y1051915D01*
X1066222Y1051971D01*
X1066149Y1052023D01*
X1066074Y1052073D01*
X1065997Y1052119D01*
X1065918Y1052161D01*
X1065837Y1052201D01*
X1065755Y1052236D01*
X1065671Y1052268D01*
X1065586Y1052297D01*
X1065499Y1052322D01*
X1065412Y1052343D01*
X1065324Y1052360D01*
X1065235Y1052374D01*
X1065145Y1052383D01*
X1065056Y1052389D01*
X1064966Y1052391D01*
X1064876Y1052389D01*
X1064787Y1052383D01*
X1064697Y1052374D01*
X1064608Y1052360D01*
X1064520Y1052343D01*
X1064433Y1052322D01*
X1064346Y1052297D01*
X1064261Y1052268D01*
X1064177Y1052236D01*
X1064095Y1052201D01*
X1064014Y1052161D01*
X1063935Y1052119D01*
X1063858Y1052073D01*
X1063783Y1052023D01*
X1063710Y1051971D01*
X1063639Y1051915D01*
X1063571Y1051857D01*
X1063506Y1051795D01*
X1063443Y1051731D01*
X1063383Y1051664D01*
X1063326Y1051595D01*
X1063272Y1051523D01*
X1063221Y1051449D01*
X1063173Y1051373D01*
X1063129Y1051295D01*
X1063088Y1051215D01*
X1063050Y1051133D01*
X1063016Y1051050D01*
X1062986Y1050965D01*
X1062959Y1050879D01*
X1062936Y1050793D01*
X1062917Y1050705D01*
X1062902Y1050616D01*
X1062890Y1050527D01*
X1062882Y1050438D01*
X1062878Y1050348D01*
X1062878Y1050258D01*
X1062882Y1050168D01*
X1062890Y1050079D01*
X1062902Y1049990D01*
X1062917Y1049901D01*
X1062936Y1049813D01*
X1062959Y1049727D01*
X1062986Y1049641D01*
X1063016Y1049556D01*
X1063050Y1049473D01*
X1063088Y1049391D01*
X1063129Y1049311D01*
X1063173Y1049233D01*
X1063221Y1049157D01*
X1063272Y1049083D01*
X1063326Y1049011D01*
X1063383Y1048942D01*
X1063443Y1048875D01*
X1063506Y1048811D01*
X1063571Y1048749D01*
X1063639Y1048691D01*
X1063710Y1048635D01*
X1063783Y1048583D01*
X1063858Y1048533D01*
X1063935Y1048487D01*
X1064014Y1048445D01*
X1064095Y1048405D01*
X1064177Y1048370D01*
X1064261Y1048338D01*
X1064346Y1048309D01*
X1064433Y1048284D01*
X1064520Y1048263D01*
X1064608Y1048246D01*
X1064697Y1048232D01*
X1064787Y1048223D01*
X1064876Y1048217D01*
X1064966Y1048215D01*
X1171956Y1038606D02*
X1181354Y1038606D01*
X1181354Y1041217D01*
X1181352Y1041318D01*
X1181346Y1041419D01*
X1181336Y1041520D01*
X1181323Y1041620D01*
X1181305Y1041720D01*
X1181284Y1041819D01*
X1181258Y1041917D01*
X1181229Y1042014D01*
X1181197Y1042110D01*
X1181160Y1042204D01*
X1181120Y1042297D01*
X1181076Y1042389D01*
X1181029Y1042478D01*
X1180978Y1042566D01*
X1180924Y1042652D01*
X1180867Y1042735D01*
X1180807Y1042817D01*
X1180743Y1042895D01*
X1180677Y1042972D01*
X1180607Y1043045D01*
X1180535Y1043116D01*
X1180460Y1043184D01*
X1180382Y1043249D01*
X1180302Y1043311D01*
X1180220Y1043370D01*
X1180135Y1043426D01*
X1180049Y1043478D01*
X1179960Y1043527D01*
X1179869Y1043573D01*
X1179777Y1043614D01*
X1179683Y1043653D01*
X1179588Y1043687D01*
X1179492Y1043718D01*
X1179394Y1043745D01*
X1179296Y1043769D01*
X1179196Y1043788D01*
X1179096Y1043804D01*
X1178996Y1043816D01*
X1178895Y1043824D01*
X1178794Y1043828D01*
X1178692Y1043828D01*
X1178591Y1043824D01*
X1178490Y1043816D01*
X1178390Y1043804D01*
X1178290Y1043788D01*
X1178190Y1043769D01*
X1178092Y1043745D01*
X1177994Y1043718D01*
X1177898Y1043687D01*
X1177803Y1043653D01*
X1177709Y1043614D01*
X1177617Y1043573D01*
X1177526Y1043527D01*
X1177438Y1043478D01*
X1177351Y1043426D01*
X1177266Y1043370D01*
X1177184Y1043311D01*
X1177104Y1043249D01*
X1177026Y1043184D01*
X1176951Y1043116D01*
X1176879Y1043045D01*
X1176809Y1042972D01*
X1176743Y1042895D01*
X1176679Y1042817D01*
X1176619Y1042735D01*
X1176562Y1042652D01*
X1176508Y1042566D01*
X1176457Y1042478D01*
X1176410Y1042389D01*
X1176366Y1042297D01*
X1176326Y1042204D01*
X1176289Y1042110D01*
X1176257Y1042014D01*
X1176228Y1041917D01*
X1176202Y1041819D01*
X1176181Y1041720D01*
X1176163Y1041620D01*
X1176150Y1041520D01*
X1176140Y1041419D01*
X1176134Y1041318D01*
X1176132Y1041217D01*
X1176133Y1041217D02*
X1176133Y1038606D01*
X1176133Y1041739D02*
X1171956Y1043827D01*
X1176133Y1049781D02*
X1176133Y1052914D01*
X1176133Y1049781D02*
X1176135Y1049692D01*
X1176141Y1049604D01*
X1176150Y1049516D01*
X1176163Y1049428D01*
X1176180Y1049341D01*
X1176200Y1049255D01*
X1176225Y1049170D01*
X1176252Y1049085D01*
X1176284Y1049002D01*
X1176318Y1048921D01*
X1176357Y1048841D01*
X1176398Y1048763D01*
X1176443Y1048686D01*
X1176491Y1048612D01*
X1176542Y1048539D01*
X1176596Y1048469D01*
X1176654Y1048402D01*
X1176714Y1048336D01*
X1176776Y1048274D01*
X1176842Y1048214D01*
X1176909Y1048156D01*
X1176979Y1048102D01*
X1177052Y1048051D01*
X1177126Y1048003D01*
X1177203Y1047958D01*
X1177281Y1047917D01*
X1177361Y1047878D01*
X1177442Y1047844D01*
X1177525Y1047812D01*
X1177610Y1047785D01*
X1177695Y1047760D01*
X1177781Y1047740D01*
X1177868Y1047723D01*
X1177956Y1047710D01*
X1178044Y1047701D01*
X1178132Y1047695D01*
X1178221Y1047693D01*
X1178743Y1047693D01*
X1178743Y1047692D02*
X1178844Y1047694D01*
X1178945Y1047700D01*
X1179046Y1047710D01*
X1179146Y1047723D01*
X1179246Y1047741D01*
X1179345Y1047762D01*
X1179443Y1047788D01*
X1179540Y1047817D01*
X1179636Y1047849D01*
X1179730Y1047886D01*
X1179823Y1047926D01*
X1179915Y1047970D01*
X1180004Y1048017D01*
X1180092Y1048068D01*
X1180178Y1048122D01*
X1180261Y1048179D01*
X1180343Y1048239D01*
X1180421Y1048303D01*
X1180498Y1048369D01*
X1180571Y1048439D01*
X1180642Y1048511D01*
X1180710Y1048586D01*
X1180775Y1048664D01*
X1180837Y1048744D01*
X1180896Y1048826D01*
X1180952Y1048911D01*
X1181004Y1048998D01*
X1181053Y1049086D01*
X1181099Y1049177D01*
X1181140Y1049269D01*
X1181179Y1049363D01*
X1181213Y1049458D01*
X1181244Y1049554D01*
X1181271Y1049652D01*
X1181295Y1049750D01*
X1181314Y1049850D01*
X1181330Y1049950D01*
X1181342Y1050050D01*
X1181350Y1050151D01*
X1181354Y1050252D01*
X1181354Y1050354D01*
X1181350Y1050455D01*
X1181342Y1050556D01*
X1181330Y1050656D01*
X1181314Y1050756D01*
X1181295Y1050856D01*
X1181271Y1050954D01*
X1181244Y1051052D01*
X1181213Y1051148D01*
X1181179Y1051243D01*
X1181140Y1051337D01*
X1181099Y1051429D01*
X1181053Y1051520D01*
X1181004Y1051609D01*
X1180952Y1051695D01*
X1180896Y1051780D01*
X1180837Y1051862D01*
X1180775Y1051942D01*
X1180710Y1052020D01*
X1180642Y1052095D01*
X1180571Y1052167D01*
X1180498Y1052237D01*
X1180421Y1052303D01*
X1180343Y1052367D01*
X1180261Y1052427D01*
X1180178Y1052484D01*
X1180092Y1052538D01*
X1180004Y1052589D01*
X1179915Y1052636D01*
X1179823Y1052680D01*
X1179730Y1052720D01*
X1179636Y1052757D01*
X1179540Y1052789D01*
X1179443Y1052818D01*
X1179345Y1052844D01*
X1179246Y1052865D01*
X1179146Y1052883D01*
X1179046Y1052896D01*
X1178945Y1052906D01*
X1178844Y1052912D01*
X1178743Y1052914D01*
X1176133Y1052914D01*
X1176007Y1052912D01*
X1175881Y1052906D01*
X1175755Y1052897D01*
X1175630Y1052884D01*
X1175505Y1052866D01*
X1175380Y1052846D01*
X1175256Y1052821D01*
X1175133Y1052793D01*
X1175011Y1052761D01*
X1174890Y1052725D01*
X1174770Y1052686D01*
X1174652Y1052643D01*
X1174535Y1052596D01*
X1174419Y1052546D01*
X1174304Y1052492D01*
X1174192Y1052436D01*
X1174081Y1052375D01*
X1173972Y1052312D01*
X1173865Y1052245D01*
X1173760Y1052175D01*
X1173657Y1052101D01*
X1173557Y1052025D01*
X1173459Y1051946D01*
X1173363Y1051864D01*
X1173270Y1051778D01*
X1173179Y1051691D01*
X1173092Y1051600D01*
X1173006Y1051507D01*
X1172924Y1051411D01*
X1172845Y1051313D01*
X1172769Y1051213D01*
X1172695Y1051110D01*
X1172625Y1051005D01*
X1172558Y1050898D01*
X1172495Y1050789D01*
X1172434Y1050678D01*
X1172378Y1050566D01*
X1172324Y1050451D01*
X1172274Y1050335D01*
X1172227Y1050218D01*
X1172184Y1050100D01*
X1172145Y1049980D01*
X1172109Y1049859D01*
X1172077Y1049737D01*
X1172049Y1049614D01*
X1172024Y1049490D01*
X1172004Y1049365D01*
X1171986Y1049240D01*
X1171973Y1049115D01*
X1171964Y1048989D01*
X1171958Y1048863D01*
X1171956Y1048737D01*
D11*
X1176020Y1073150D02*
X1176020Y1111250D01*
X1275080Y1111250D02*
X1275080Y1073150D01*
X1242060Y1073150D01*
X1209040Y1073150D02*
X1209040Y1078230D01*
X1242060Y1078230D01*
X1242060Y1073150D01*
X1209040Y1073150D02*
X1176020Y1073150D01*
X1209040Y1073150D02*
X1242060Y1073150D01*
X1209040Y1111250D02*
X1176020Y1111250D01*
X1242060Y1111250D02*
X1242060Y1106170D01*
X1209040Y1106170D01*
X1209040Y1111250D01*
X1242060Y1111250D02*
X1275080Y1111250D01*
X1242060Y1111250D02*
X1209040Y1111250D01*
X1206500Y1084580D02*
X1244600Y1084580D01*
X1244600Y1099820D01*
X1206500Y1099820D01*
X1206500Y1084580D01*
D12*
X1223645Y1092200D03*
X1217295Y1092200D03*
X1210945Y1092200D03*
D13*
X1246505Y1117600D02*
X1246507Y1117500D01*
X1246513Y1117401D01*
X1246523Y1117301D01*
X1246536Y1117203D01*
X1246554Y1117104D01*
X1246575Y1117007D01*
X1246600Y1116911D01*
X1246629Y1116815D01*
X1246662Y1116721D01*
X1246698Y1116628D01*
X1246738Y1116537D01*
X1246782Y1116447D01*
X1246829Y1116359D01*
X1246879Y1116273D01*
X1246933Y1116189D01*
X1246990Y1116107D01*
X1247050Y1116028D01*
X1247114Y1115950D01*
X1247180Y1115876D01*
X1247249Y1115804D01*
X1247321Y1115735D01*
X1247395Y1115669D01*
X1247473Y1115605D01*
X1247552Y1115545D01*
X1247634Y1115488D01*
X1247718Y1115434D01*
X1247804Y1115384D01*
X1247892Y1115337D01*
X1247982Y1115293D01*
X1248073Y1115253D01*
X1248166Y1115217D01*
X1248260Y1115184D01*
X1248356Y1115155D01*
X1248452Y1115130D01*
X1248549Y1115109D01*
X1248648Y1115091D01*
X1248746Y1115078D01*
X1248846Y1115068D01*
X1248945Y1115062D01*
X1249045Y1115060D01*
X1249186Y1115062D01*
X1249327Y1115067D01*
X1249468Y1115077D01*
X1249609Y1115090D01*
X1249749Y1115106D01*
X1249889Y1115127D01*
X1250028Y1115151D01*
X1250167Y1115179D01*
X1250304Y1115210D01*
X1250441Y1115245D01*
X1250577Y1115283D01*
X1250712Y1115325D01*
X1250845Y1115371D01*
X1250978Y1115420D01*
X1251109Y1115473D01*
X1251238Y1115529D01*
X1251367Y1115588D01*
X1251493Y1115651D01*
X1251618Y1115717D01*
X1251741Y1115786D01*
X1251862Y1115859D01*
X1251981Y1115935D01*
X1252099Y1116014D01*
X1252214Y1116095D01*
X1252326Y1116180D01*
X1252437Y1116268D01*
X1252545Y1116359D01*
X1252651Y1116452D01*
X1252754Y1116549D01*
X1252855Y1116648D01*
X1252538Y1123950D02*
X1252536Y1124050D01*
X1252530Y1124149D01*
X1252520Y1124249D01*
X1252507Y1124347D01*
X1252489Y1124446D01*
X1252468Y1124543D01*
X1252443Y1124639D01*
X1252414Y1124735D01*
X1252381Y1124829D01*
X1252345Y1124922D01*
X1252305Y1125013D01*
X1252261Y1125103D01*
X1252214Y1125191D01*
X1252164Y1125277D01*
X1252110Y1125361D01*
X1252053Y1125443D01*
X1251993Y1125522D01*
X1251929Y1125600D01*
X1251863Y1125674D01*
X1251794Y1125746D01*
X1251722Y1125815D01*
X1251648Y1125881D01*
X1251570Y1125945D01*
X1251491Y1126005D01*
X1251409Y1126062D01*
X1251325Y1126116D01*
X1251239Y1126166D01*
X1251151Y1126213D01*
X1251061Y1126257D01*
X1250970Y1126297D01*
X1250877Y1126333D01*
X1250783Y1126366D01*
X1250687Y1126395D01*
X1250591Y1126420D01*
X1250494Y1126441D01*
X1250395Y1126459D01*
X1250297Y1126472D01*
X1250197Y1126482D01*
X1250098Y1126488D01*
X1249998Y1126490D01*
X1249998Y1126491D02*
X1249865Y1126489D01*
X1249732Y1126484D01*
X1249599Y1126474D01*
X1249466Y1126461D01*
X1249334Y1126444D01*
X1249202Y1126424D01*
X1249071Y1126400D01*
X1248941Y1126372D01*
X1248811Y1126341D01*
X1248683Y1126306D01*
X1248555Y1126267D01*
X1248429Y1126225D01*
X1248304Y1126179D01*
X1248180Y1126130D01*
X1248057Y1126078D01*
X1247936Y1126022D01*
X1247817Y1125962D01*
X1247699Y1125900D01*
X1247584Y1125834D01*
X1247470Y1125765D01*
X1247358Y1125692D01*
X1247248Y1125617D01*
X1247140Y1125538D01*
X1251268Y1121727D02*
X1251352Y1121779D01*
X1251435Y1121834D01*
X1251515Y1121893D01*
X1251593Y1121954D01*
X1251668Y1122018D01*
X1251741Y1122086D01*
X1251812Y1122156D01*
X1251879Y1122228D01*
X1251944Y1122303D01*
X1252006Y1122381D01*
X1252065Y1122461D01*
X1252121Y1122543D01*
X1252173Y1122627D01*
X1252222Y1122713D01*
X1252268Y1122801D01*
X1252311Y1122891D01*
X1252350Y1122982D01*
X1252385Y1123075D01*
X1252417Y1123169D01*
X1252445Y1123264D01*
X1252470Y1123360D01*
X1252490Y1123457D01*
X1252508Y1123555D01*
X1252521Y1123653D01*
X1252530Y1123752D01*
X1252536Y1123851D01*
X1252538Y1123950D01*
X1247775Y1119823D02*
X1247691Y1119771D01*
X1247608Y1119716D01*
X1247528Y1119657D01*
X1247450Y1119596D01*
X1247375Y1119532D01*
X1247302Y1119464D01*
X1247231Y1119394D01*
X1247164Y1119322D01*
X1247099Y1119247D01*
X1247037Y1119169D01*
X1246978Y1119089D01*
X1246922Y1119007D01*
X1246870Y1118923D01*
X1246821Y1118837D01*
X1246775Y1118749D01*
X1246732Y1118659D01*
X1246693Y1118568D01*
X1246658Y1118475D01*
X1246626Y1118381D01*
X1246598Y1118286D01*
X1246573Y1118190D01*
X1246553Y1118093D01*
X1246535Y1117995D01*
X1246522Y1117897D01*
X1246513Y1117798D01*
X1246507Y1117699D01*
X1246505Y1117600D01*
X1247775Y1119823D02*
X1251268Y1121728D01*
X1241400Y1115060D02*
X1236320Y1115060D01*
X1241400Y1115060D02*
X1241400Y1126490D01*
X1236320Y1126490D01*
X1237590Y1121410D02*
X1241400Y1121410D01*
X1231494Y1126490D02*
X1231494Y1115060D01*
X1226414Y1115060D01*
X1222502Y1113790D02*
X1217422Y1113790D01*
X1212444Y1115060D02*
X1207364Y1115060D01*
X1212444Y1115060D02*
X1212444Y1126490D01*
X1207364Y1126490D01*
X1208634Y1121410D02*
X1212444Y1121410D01*
X1202194Y1123315D02*
X1202194Y1118235D01*
X1202194Y1123315D02*
X1202192Y1123426D01*
X1202186Y1123536D01*
X1202177Y1123647D01*
X1202163Y1123757D01*
X1202146Y1123866D01*
X1202125Y1123975D01*
X1202100Y1124083D01*
X1202071Y1124190D01*
X1202039Y1124296D01*
X1202003Y1124401D01*
X1201963Y1124504D01*
X1201920Y1124606D01*
X1201873Y1124707D01*
X1201822Y1124806D01*
X1201769Y1124903D01*
X1201712Y1124997D01*
X1201651Y1125090D01*
X1201588Y1125181D01*
X1201521Y1125270D01*
X1201451Y1125356D01*
X1201378Y1125439D01*
X1201303Y1125521D01*
X1201225Y1125599D01*
X1201143Y1125674D01*
X1201060Y1125747D01*
X1200974Y1125817D01*
X1200885Y1125884D01*
X1200794Y1125947D01*
X1200701Y1126008D01*
X1200607Y1126065D01*
X1200510Y1126118D01*
X1200411Y1126169D01*
X1200310Y1126216D01*
X1200208Y1126259D01*
X1200105Y1126299D01*
X1200000Y1126335D01*
X1199894Y1126367D01*
X1199787Y1126396D01*
X1199679Y1126421D01*
X1199570Y1126442D01*
X1199461Y1126459D01*
X1199351Y1126473D01*
X1199240Y1126482D01*
X1199130Y1126488D01*
X1199019Y1126490D01*
X1198908Y1126488D01*
X1198798Y1126482D01*
X1198687Y1126473D01*
X1198577Y1126459D01*
X1198468Y1126442D01*
X1198359Y1126421D01*
X1198251Y1126396D01*
X1198144Y1126367D01*
X1198038Y1126335D01*
X1197933Y1126299D01*
X1197830Y1126259D01*
X1197728Y1126216D01*
X1197627Y1126169D01*
X1197528Y1126118D01*
X1197432Y1126065D01*
X1197337Y1126008D01*
X1197244Y1125947D01*
X1197153Y1125884D01*
X1197064Y1125817D01*
X1196978Y1125747D01*
X1196895Y1125674D01*
X1196813Y1125599D01*
X1196735Y1125521D01*
X1196660Y1125439D01*
X1196587Y1125356D01*
X1196517Y1125270D01*
X1196450Y1125181D01*
X1196387Y1125090D01*
X1196326Y1124997D01*
X1196269Y1124903D01*
X1196216Y1124806D01*
X1196165Y1124707D01*
X1196118Y1124606D01*
X1196075Y1124504D01*
X1196035Y1124401D01*
X1195999Y1124296D01*
X1195967Y1124190D01*
X1195938Y1124083D01*
X1195913Y1123975D01*
X1195892Y1123866D01*
X1195875Y1123757D01*
X1195861Y1123647D01*
X1195852Y1123536D01*
X1195846Y1123426D01*
X1195844Y1123315D01*
X1195844Y1118235D01*
X1195846Y1118124D01*
X1195852Y1118014D01*
X1195861Y1117903D01*
X1195875Y1117793D01*
X1195892Y1117684D01*
X1195913Y1117575D01*
X1195938Y1117467D01*
X1195967Y1117360D01*
X1195999Y1117254D01*
X1196035Y1117149D01*
X1196075Y1117046D01*
X1196118Y1116944D01*
X1196165Y1116843D01*
X1196216Y1116744D01*
X1196269Y1116648D01*
X1196326Y1116553D01*
X1196387Y1116460D01*
X1196450Y1116369D01*
X1196517Y1116280D01*
X1196587Y1116194D01*
X1196660Y1116111D01*
X1196735Y1116029D01*
X1196813Y1115951D01*
X1196895Y1115876D01*
X1196978Y1115803D01*
X1197064Y1115733D01*
X1197153Y1115666D01*
X1197244Y1115603D01*
X1197337Y1115542D01*
X1197432Y1115485D01*
X1197528Y1115432D01*
X1197627Y1115381D01*
X1197728Y1115334D01*
X1197830Y1115291D01*
X1197933Y1115251D01*
X1198038Y1115215D01*
X1198144Y1115183D01*
X1198251Y1115154D01*
X1198359Y1115129D01*
X1198468Y1115108D01*
X1198577Y1115091D01*
X1198687Y1115077D01*
X1198798Y1115068D01*
X1198908Y1115062D01*
X1199019Y1115060D01*
X1199130Y1115062D01*
X1199240Y1115068D01*
X1199351Y1115077D01*
X1199461Y1115091D01*
X1199570Y1115108D01*
X1199679Y1115129D01*
X1199787Y1115154D01*
X1199894Y1115183D01*
X1200000Y1115215D01*
X1200105Y1115251D01*
X1200208Y1115291D01*
X1200310Y1115334D01*
X1200411Y1115381D01*
X1200510Y1115432D01*
X1200607Y1115485D01*
X1200701Y1115542D01*
X1200794Y1115603D01*
X1200885Y1115666D01*
X1200974Y1115733D01*
X1201060Y1115803D01*
X1201143Y1115876D01*
X1201225Y1115951D01*
X1201303Y1116029D01*
X1201378Y1116111D01*
X1201451Y1116194D01*
X1201521Y1116280D01*
X1201588Y1116369D01*
X1201651Y1116460D01*
X1201712Y1116553D01*
X1201769Y1116648D01*
X1201822Y1116744D01*
X1201873Y1116843D01*
X1201920Y1116944D01*
X1201963Y1117046D01*
X1202003Y1117149D01*
X1202039Y1117254D01*
X1202071Y1117360D01*
X1202100Y1117467D01*
X1202125Y1117575D01*
X1202146Y1117684D01*
X1202163Y1117793D01*
X1202177Y1117903D01*
X1202186Y1118014D01*
X1202192Y1118124D01*
X1202194Y1118235D01*
X1197114Y1117600D02*
X1194574Y1115060D01*
D14*
X1309869Y1043606D02*
X1309869Y988394D01*
X1329906Y988394D01*
X1329906Y984238D01*
X1349646Y984238D01*
X1349646Y988394D01*
X1369831Y988394D01*
X1369831Y1043606D01*
X1353208Y1043606D01*
X1352020Y1044794D01*
X1327828Y1044794D01*
X1326640Y1043606D01*
X1309869Y1043606D01*
X1367456Y1005314D02*
X1367456Y988839D01*
X1367456Y1005314D02*
X1366417Y1005314D01*
X1366417Y1026835D01*
X1369237Y1026835D01*
X1367456Y1027280D02*
X1367456Y1043012D01*
X1367456Y1005314D02*
X1369385Y1005314D01*
X1312244Y1005314D02*
X1312244Y988839D01*
X1312244Y1005314D02*
X1313283Y1005314D01*
X1313283Y1026835D01*
X1310463Y1026835D01*
X1312244Y1027280D02*
X1312244Y1043012D01*
X1312244Y1005314D02*
X1310314Y1005314D01*
X1327086Y1016000D02*
X1327090Y1016313D01*
X1327101Y1016626D01*
X1327121Y1016939D01*
X1327147Y1017251D01*
X1327182Y1017562D01*
X1327224Y1017873D01*
X1327274Y1018182D01*
X1327331Y1018490D01*
X1327396Y1018797D01*
X1327469Y1019101D01*
X1327548Y1019404D01*
X1327636Y1019705D01*
X1327730Y1020004D01*
X1327832Y1020300D01*
X1327941Y1020594D01*
X1328058Y1020885D01*
X1328181Y1021173D01*
X1328311Y1021457D01*
X1328449Y1021739D01*
X1328593Y1022017D01*
X1328744Y1022291D01*
X1328902Y1022562D01*
X1329066Y1022829D01*
X1329237Y1023091D01*
X1329414Y1023350D01*
X1329598Y1023604D01*
X1329788Y1023853D01*
X1329983Y1024097D01*
X1330185Y1024337D01*
X1330392Y1024572D01*
X1330606Y1024801D01*
X1330824Y1025026D01*
X1331049Y1025244D01*
X1331278Y1025458D01*
X1331513Y1025665D01*
X1331753Y1025867D01*
X1331997Y1026062D01*
X1332246Y1026252D01*
X1332500Y1026436D01*
X1332759Y1026613D01*
X1333021Y1026784D01*
X1333288Y1026948D01*
X1333559Y1027106D01*
X1333833Y1027257D01*
X1334111Y1027401D01*
X1334393Y1027539D01*
X1334677Y1027669D01*
X1334965Y1027792D01*
X1335256Y1027909D01*
X1335550Y1028018D01*
X1335846Y1028120D01*
X1336145Y1028214D01*
X1336446Y1028302D01*
X1336749Y1028381D01*
X1337053Y1028454D01*
X1337360Y1028519D01*
X1337668Y1028576D01*
X1337977Y1028626D01*
X1338288Y1028668D01*
X1338599Y1028703D01*
X1338911Y1028729D01*
X1339224Y1028749D01*
X1339537Y1028760D01*
X1339850Y1028764D01*
X1340163Y1028760D01*
X1340476Y1028749D01*
X1340789Y1028729D01*
X1341101Y1028703D01*
X1341412Y1028668D01*
X1341723Y1028626D01*
X1342032Y1028576D01*
X1342340Y1028519D01*
X1342647Y1028454D01*
X1342951Y1028381D01*
X1343254Y1028302D01*
X1343555Y1028214D01*
X1343854Y1028120D01*
X1344150Y1028018D01*
X1344444Y1027909D01*
X1344735Y1027792D01*
X1345023Y1027669D01*
X1345307Y1027539D01*
X1345589Y1027401D01*
X1345867Y1027257D01*
X1346141Y1027106D01*
X1346412Y1026948D01*
X1346679Y1026784D01*
X1346941Y1026613D01*
X1347200Y1026436D01*
X1347454Y1026252D01*
X1347703Y1026062D01*
X1347947Y1025867D01*
X1348187Y1025665D01*
X1348422Y1025458D01*
X1348651Y1025244D01*
X1348876Y1025026D01*
X1349094Y1024801D01*
X1349308Y1024572D01*
X1349515Y1024337D01*
X1349717Y1024097D01*
X1349912Y1023853D01*
X1350102Y1023604D01*
X1350286Y1023350D01*
X1350463Y1023091D01*
X1350634Y1022829D01*
X1350798Y1022562D01*
X1350956Y1022291D01*
X1351107Y1022017D01*
X1351251Y1021739D01*
X1351389Y1021457D01*
X1351519Y1021173D01*
X1351642Y1020885D01*
X1351759Y1020594D01*
X1351868Y1020300D01*
X1351970Y1020004D01*
X1352064Y1019705D01*
X1352152Y1019404D01*
X1352231Y1019101D01*
X1352304Y1018797D01*
X1352369Y1018490D01*
X1352426Y1018182D01*
X1352476Y1017873D01*
X1352518Y1017562D01*
X1352553Y1017251D01*
X1352579Y1016939D01*
X1352599Y1016626D01*
X1352610Y1016313D01*
X1352614Y1016000D01*
X1352610Y1015687D01*
X1352599Y1015374D01*
X1352579Y1015061D01*
X1352553Y1014749D01*
X1352518Y1014438D01*
X1352476Y1014127D01*
X1352426Y1013818D01*
X1352369Y1013510D01*
X1352304Y1013203D01*
X1352231Y1012899D01*
X1352152Y1012596D01*
X1352064Y1012295D01*
X1351970Y1011996D01*
X1351868Y1011700D01*
X1351759Y1011406D01*
X1351642Y1011115D01*
X1351519Y1010827D01*
X1351389Y1010543D01*
X1351251Y1010261D01*
X1351107Y1009983D01*
X1350956Y1009709D01*
X1350798Y1009438D01*
X1350634Y1009171D01*
X1350463Y1008909D01*
X1350286Y1008650D01*
X1350102Y1008396D01*
X1349912Y1008147D01*
X1349717Y1007903D01*
X1349515Y1007663D01*
X1349308Y1007428D01*
X1349094Y1007199D01*
X1348876Y1006974D01*
X1348651Y1006756D01*
X1348422Y1006542D01*
X1348187Y1006335D01*
X1347947Y1006133D01*
X1347703Y1005938D01*
X1347454Y1005748D01*
X1347200Y1005564D01*
X1346941Y1005387D01*
X1346679Y1005216D01*
X1346412Y1005052D01*
X1346141Y1004894D01*
X1345867Y1004743D01*
X1345589Y1004599D01*
X1345307Y1004461D01*
X1345023Y1004331D01*
X1344735Y1004208D01*
X1344444Y1004091D01*
X1344150Y1003982D01*
X1343854Y1003880D01*
X1343555Y1003786D01*
X1343254Y1003698D01*
X1342951Y1003619D01*
X1342647Y1003546D01*
X1342340Y1003481D01*
X1342032Y1003424D01*
X1341723Y1003374D01*
X1341412Y1003332D01*
X1341101Y1003297D01*
X1340789Y1003271D01*
X1340476Y1003251D01*
X1340163Y1003240D01*
X1339850Y1003236D01*
X1339537Y1003240D01*
X1339224Y1003251D01*
X1338911Y1003271D01*
X1338599Y1003297D01*
X1338288Y1003332D01*
X1337977Y1003374D01*
X1337668Y1003424D01*
X1337360Y1003481D01*
X1337053Y1003546D01*
X1336749Y1003619D01*
X1336446Y1003698D01*
X1336145Y1003786D01*
X1335846Y1003880D01*
X1335550Y1003982D01*
X1335256Y1004091D01*
X1334965Y1004208D01*
X1334677Y1004331D01*
X1334393Y1004461D01*
X1334111Y1004599D01*
X1333833Y1004743D01*
X1333559Y1004894D01*
X1333288Y1005052D01*
X1333021Y1005216D01*
X1332759Y1005387D01*
X1332500Y1005564D01*
X1332246Y1005748D01*
X1331997Y1005938D01*
X1331753Y1006133D01*
X1331513Y1006335D01*
X1331278Y1006542D01*
X1331049Y1006756D01*
X1330824Y1006974D01*
X1330606Y1007199D01*
X1330392Y1007428D01*
X1330185Y1007663D01*
X1329983Y1007903D01*
X1329788Y1008147D01*
X1329598Y1008396D01*
X1329414Y1008650D01*
X1329237Y1008909D01*
X1329066Y1009171D01*
X1328902Y1009438D01*
X1328744Y1009709D01*
X1328593Y1009983D01*
X1328449Y1010261D01*
X1328311Y1010543D01*
X1328181Y1010827D01*
X1328058Y1011115D01*
X1327941Y1011406D01*
X1327832Y1011700D01*
X1327730Y1011996D01*
X1327636Y1012295D01*
X1327548Y1012596D01*
X1327469Y1012899D01*
X1327396Y1013203D01*
X1327331Y1013510D01*
X1327274Y1013818D01*
X1327224Y1014127D01*
X1327182Y1014438D01*
X1327147Y1014749D01*
X1327121Y1015061D01*
X1327101Y1015374D01*
X1327090Y1015687D01*
X1327086Y1016000D01*
X1323375Y1016000D02*
X1323380Y1016404D01*
X1323395Y1016808D01*
X1323420Y1017212D01*
X1323454Y1017615D01*
X1323499Y1018017D01*
X1323553Y1018417D01*
X1323618Y1018817D01*
X1323692Y1019214D01*
X1323775Y1019610D01*
X1323869Y1020003D01*
X1323972Y1020394D01*
X1324084Y1020782D01*
X1324207Y1021168D01*
X1324338Y1021550D01*
X1324479Y1021929D01*
X1324629Y1022305D01*
X1324788Y1022676D01*
X1324957Y1023044D01*
X1325134Y1023407D01*
X1325320Y1023766D01*
X1325515Y1024120D01*
X1325719Y1024470D01*
X1325931Y1024814D01*
X1326152Y1025153D01*
X1326380Y1025486D01*
X1326617Y1025814D01*
X1326862Y1026136D01*
X1327115Y1026452D01*
X1327375Y1026761D01*
X1327643Y1027064D01*
X1327918Y1027360D01*
X1328200Y1027650D01*
X1328490Y1027932D01*
X1328786Y1028207D01*
X1329089Y1028475D01*
X1329398Y1028735D01*
X1329714Y1028988D01*
X1330036Y1029233D01*
X1330364Y1029470D01*
X1330697Y1029698D01*
X1331036Y1029919D01*
X1331380Y1030131D01*
X1331730Y1030335D01*
X1332084Y1030530D01*
X1332443Y1030716D01*
X1332806Y1030893D01*
X1333174Y1031062D01*
X1333545Y1031221D01*
X1333921Y1031371D01*
X1334300Y1031512D01*
X1334682Y1031643D01*
X1335068Y1031766D01*
X1335456Y1031878D01*
X1335847Y1031981D01*
X1336240Y1032075D01*
X1336636Y1032158D01*
X1337033Y1032232D01*
X1337433Y1032297D01*
X1337833Y1032351D01*
X1338235Y1032396D01*
X1338638Y1032430D01*
X1339042Y1032455D01*
X1339446Y1032470D01*
X1339850Y1032475D01*
X1340254Y1032470D01*
X1340658Y1032455D01*
X1341062Y1032430D01*
X1341465Y1032396D01*
X1341867Y1032351D01*
X1342267Y1032297D01*
X1342667Y1032232D01*
X1343064Y1032158D01*
X1343460Y1032075D01*
X1343853Y1031981D01*
X1344244Y1031878D01*
X1344632Y1031766D01*
X1345018Y1031643D01*
X1345400Y1031512D01*
X1345779Y1031371D01*
X1346155Y1031221D01*
X1346526Y1031062D01*
X1346894Y1030893D01*
X1347257Y1030716D01*
X1347616Y1030530D01*
X1347970Y1030335D01*
X1348320Y1030131D01*
X1348664Y1029919D01*
X1349003Y1029698D01*
X1349336Y1029470D01*
X1349664Y1029233D01*
X1349986Y1028988D01*
X1350302Y1028735D01*
X1350611Y1028475D01*
X1350914Y1028207D01*
X1351210Y1027932D01*
X1351500Y1027650D01*
X1351782Y1027360D01*
X1352057Y1027064D01*
X1352325Y1026761D01*
X1352585Y1026452D01*
X1352838Y1026136D01*
X1353083Y1025814D01*
X1353320Y1025486D01*
X1353548Y1025153D01*
X1353769Y1024814D01*
X1353981Y1024470D01*
X1354185Y1024120D01*
X1354380Y1023766D01*
X1354566Y1023407D01*
X1354743Y1023044D01*
X1354912Y1022676D01*
X1355071Y1022305D01*
X1355221Y1021929D01*
X1355362Y1021550D01*
X1355493Y1021168D01*
X1355616Y1020782D01*
X1355728Y1020394D01*
X1355831Y1020003D01*
X1355925Y1019610D01*
X1356008Y1019214D01*
X1356082Y1018817D01*
X1356147Y1018417D01*
X1356201Y1018017D01*
X1356246Y1017615D01*
X1356280Y1017212D01*
X1356305Y1016808D01*
X1356320Y1016404D01*
X1356325Y1016000D01*
X1356320Y1015596D01*
X1356305Y1015192D01*
X1356280Y1014788D01*
X1356246Y1014385D01*
X1356201Y1013983D01*
X1356147Y1013583D01*
X1356082Y1013183D01*
X1356008Y1012786D01*
X1355925Y1012390D01*
X1355831Y1011997D01*
X1355728Y1011606D01*
X1355616Y1011218D01*
X1355493Y1010832D01*
X1355362Y1010450D01*
X1355221Y1010071D01*
X1355071Y1009695D01*
X1354912Y1009324D01*
X1354743Y1008956D01*
X1354566Y1008593D01*
X1354380Y1008234D01*
X1354185Y1007880D01*
X1353981Y1007530D01*
X1353769Y1007186D01*
X1353548Y1006847D01*
X1353320Y1006514D01*
X1353083Y1006186D01*
X1352838Y1005864D01*
X1352585Y1005548D01*
X1352325Y1005239D01*
X1352057Y1004936D01*
X1351782Y1004640D01*
X1351500Y1004350D01*
X1351210Y1004068D01*
X1350914Y1003793D01*
X1350611Y1003525D01*
X1350302Y1003265D01*
X1349986Y1003012D01*
X1349664Y1002767D01*
X1349336Y1002530D01*
X1349003Y1002302D01*
X1348664Y1002081D01*
X1348320Y1001869D01*
X1347970Y1001665D01*
X1347616Y1001470D01*
X1347257Y1001284D01*
X1346894Y1001107D01*
X1346526Y1000938D01*
X1346155Y1000779D01*
X1345779Y1000629D01*
X1345400Y1000488D01*
X1345018Y1000357D01*
X1344632Y1000234D01*
X1344244Y1000122D01*
X1343853Y1000019D01*
X1343460Y999925D01*
X1343064Y999842D01*
X1342667Y999768D01*
X1342267Y999703D01*
X1341867Y999649D01*
X1341465Y999604D01*
X1341062Y999570D01*
X1340658Y999545D01*
X1340254Y999530D01*
X1339850Y999525D01*
X1339446Y999530D01*
X1339042Y999545D01*
X1338638Y999570D01*
X1338235Y999604D01*
X1337833Y999649D01*
X1337433Y999703D01*
X1337033Y999768D01*
X1336636Y999842D01*
X1336240Y999925D01*
X1335847Y1000019D01*
X1335456Y1000122D01*
X1335068Y1000234D01*
X1334682Y1000357D01*
X1334300Y1000488D01*
X1333921Y1000629D01*
X1333545Y1000779D01*
X1333174Y1000938D01*
X1332806Y1001107D01*
X1332443Y1001284D01*
X1332084Y1001470D01*
X1331730Y1001665D01*
X1331380Y1001869D01*
X1331036Y1002081D01*
X1330697Y1002302D01*
X1330364Y1002530D01*
X1330036Y1002767D01*
X1329714Y1003012D01*
X1329398Y1003265D01*
X1329089Y1003525D01*
X1328786Y1003793D01*
X1328490Y1004068D01*
X1328200Y1004350D01*
X1327918Y1004640D01*
X1327643Y1004936D01*
X1327375Y1005239D01*
X1327115Y1005548D01*
X1326862Y1005864D01*
X1326617Y1006186D01*
X1326380Y1006514D01*
X1326152Y1006847D01*
X1325931Y1007186D01*
X1325719Y1007530D01*
X1325515Y1007880D01*
X1325320Y1008234D01*
X1325134Y1008593D01*
X1324957Y1008956D01*
X1324788Y1009324D01*
X1324629Y1009695D01*
X1324479Y1010071D01*
X1324338Y1010450D01*
X1324207Y1010832D01*
X1324084Y1011218D01*
X1323972Y1011606D01*
X1323869Y1011997D01*
X1323775Y1012390D01*
X1323692Y1012786D01*
X1323618Y1013183D01*
X1323553Y1013583D01*
X1323499Y1013983D01*
X1323454Y1014385D01*
X1323420Y1014788D01*
X1323395Y1015192D01*
X1323380Y1015596D01*
X1323375Y1016000D01*
D15*
X1319294Y1046501D03*
D16*
X1360332Y1046575D03*
D17*
X1319294Y985426D03*
D18*
X1339776Y983422D03*
D19*
X1360258Y985500D03*
D14*
X1375283Y991828D02*
X1375285Y991927D01*
X1375291Y992027D01*
X1375300Y992126D01*
X1375313Y992224D01*
X1375330Y992322D01*
X1375351Y992420D01*
X1375376Y992516D01*
X1375404Y992611D01*
X1375436Y992705D01*
X1375471Y992798D01*
X1375510Y992890D01*
X1375553Y992980D01*
X1375598Y993068D01*
X1375648Y993155D01*
X1375700Y993239D01*
X1375756Y993322D01*
X1375814Y993402D01*
X1375876Y993480D01*
X1375941Y993555D01*
X1376009Y993628D01*
X1376079Y993698D01*
X1376152Y993766D01*
X1376227Y993831D01*
X1376305Y993893D01*
X1376385Y993951D01*
X1376468Y994007D01*
X1376552Y994059D01*
X1376639Y994109D01*
X1376727Y994154D01*
X1376817Y994197D01*
X1376909Y994236D01*
X1377002Y994271D01*
X1377096Y994303D01*
X1377191Y994331D01*
X1377287Y994356D01*
X1377385Y994377D01*
X1377483Y994394D01*
X1377581Y994407D01*
X1377680Y994416D01*
X1377780Y994422D01*
X1377879Y994424D01*
X1375283Y991828D02*
X1375285Y991684D01*
X1375291Y991539D01*
X1375300Y991395D01*
X1375313Y991252D01*
X1375330Y991108D01*
X1375351Y990965D01*
X1375376Y990823D01*
X1375404Y990682D01*
X1375436Y990541D01*
X1375472Y990401D01*
X1375511Y990262D01*
X1375554Y990124D01*
X1375601Y989988D01*
X1375651Y989852D01*
X1375705Y989718D01*
X1375762Y989586D01*
X1375823Y989455D01*
X1375887Y989326D01*
X1375955Y989198D01*
X1376025Y989072D01*
X1376100Y988948D01*
X1376177Y988827D01*
X1376258Y988707D01*
X1376341Y988589D01*
X1376428Y988474D01*
X1376518Y988361D01*
X1376611Y988250D01*
X1376706Y988142D01*
X1376805Y988036D01*
X1376906Y987933D01*
X1384371Y988258D02*
X1384470Y988260D01*
X1384570Y988266D01*
X1384669Y988275D01*
X1384767Y988288D01*
X1384865Y988305D01*
X1384963Y988326D01*
X1385059Y988351D01*
X1385154Y988379D01*
X1385248Y988411D01*
X1385341Y988446D01*
X1385433Y988485D01*
X1385523Y988528D01*
X1385611Y988573D01*
X1385698Y988623D01*
X1385782Y988675D01*
X1385865Y988731D01*
X1385945Y988789D01*
X1386023Y988851D01*
X1386098Y988916D01*
X1386171Y988984D01*
X1386241Y989054D01*
X1386309Y989127D01*
X1386374Y989202D01*
X1386436Y989280D01*
X1386494Y989360D01*
X1386550Y989443D01*
X1386602Y989527D01*
X1386652Y989614D01*
X1386697Y989702D01*
X1386740Y989792D01*
X1386779Y989884D01*
X1386814Y989977D01*
X1386846Y990071D01*
X1386874Y990166D01*
X1386899Y990263D01*
X1386920Y990360D01*
X1386937Y990458D01*
X1386950Y990556D01*
X1386959Y990655D01*
X1386965Y990755D01*
X1386967Y990854D01*
X1386965Y990990D01*
X1386959Y991126D01*
X1386950Y991262D01*
X1386937Y991398D01*
X1386919Y991533D01*
X1386899Y991667D01*
X1386874Y991801D01*
X1386846Y991935D01*
X1386813Y992067D01*
X1386778Y992198D01*
X1386738Y992329D01*
X1386695Y992458D01*
X1386649Y992586D01*
X1386598Y992712D01*
X1386545Y992838D01*
X1386487Y992961D01*
X1386427Y993083D01*
X1386363Y993203D01*
X1386295Y993322D01*
X1386225Y993438D01*
X1386151Y993552D01*
X1386074Y993665D01*
X1385993Y993775D01*
X1382099Y989556D02*
X1382152Y989470D01*
X1382209Y989386D01*
X1382268Y989304D01*
X1382331Y989224D01*
X1382397Y989147D01*
X1382465Y989072D01*
X1382537Y989000D01*
X1382611Y988931D01*
X1382688Y988865D01*
X1382767Y988802D01*
X1382849Y988742D01*
X1382933Y988685D01*
X1383019Y988631D01*
X1383107Y988581D01*
X1383197Y988534D01*
X1383288Y988490D01*
X1383382Y988451D01*
X1383476Y988414D01*
X1383572Y988382D01*
X1383670Y988353D01*
X1383768Y988328D01*
X1383867Y988307D01*
X1383967Y988289D01*
X1384067Y988276D01*
X1384168Y988266D01*
X1384270Y988260D01*
X1384371Y988258D01*
X1380151Y993126D02*
X1380098Y993212D01*
X1380041Y993296D01*
X1379982Y993378D01*
X1379919Y993458D01*
X1379853Y993535D01*
X1379785Y993610D01*
X1379713Y993682D01*
X1379639Y993751D01*
X1379562Y993817D01*
X1379483Y993880D01*
X1379401Y993940D01*
X1379317Y993997D01*
X1379231Y994051D01*
X1379143Y994101D01*
X1379053Y994148D01*
X1378962Y994192D01*
X1378868Y994231D01*
X1378774Y994268D01*
X1378678Y994300D01*
X1378580Y994329D01*
X1378482Y994354D01*
X1378383Y994375D01*
X1378283Y994393D01*
X1378183Y994406D01*
X1378082Y994416D01*
X1377980Y994422D01*
X1377879Y994424D01*
X1380151Y993126D02*
X1382099Y989556D01*
X1375283Y999386D02*
X1375283Y1004578D01*
X1375283Y999386D02*
X1386967Y999386D01*
X1386967Y1004578D01*
X1381774Y1003280D02*
X1381774Y999386D01*
X1386967Y1009292D02*
X1375283Y1009292D01*
X1375283Y1014484D01*
X1373985Y1018300D02*
X1373985Y1023493D01*
X1375283Y1028319D02*
X1386967Y1028319D01*
X1381774Y1028319D02*
X1381774Y1034810D01*
X1386967Y1034810D02*
X1375283Y1034810D01*
X1384371Y1040130D02*
X1386967Y1043375D01*
X1375283Y1043375D01*
X1375283Y1040130D02*
X1375283Y1046621D01*
X1195569Y1043606D02*
X1195569Y988394D01*
X1215606Y988394D01*
X1215606Y984238D01*
X1235346Y984238D01*
X1235346Y988394D01*
X1255531Y988394D01*
X1255531Y1043606D01*
X1238908Y1043606D01*
X1237720Y1044794D01*
X1213528Y1044794D01*
X1212340Y1043606D01*
X1195569Y1043606D01*
X1253156Y1005314D02*
X1253156Y988839D01*
X1253156Y1005314D02*
X1252117Y1005314D01*
X1252117Y1026835D01*
X1254937Y1026835D01*
X1253156Y1027280D02*
X1253156Y1043012D01*
X1253156Y1005314D02*
X1255085Y1005314D01*
X1197944Y1005314D02*
X1197944Y988839D01*
X1197944Y1005314D02*
X1198983Y1005314D01*
X1198983Y1026835D01*
X1196163Y1026835D01*
X1197944Y1027280D02*
X1197944Y1043012D01*
X1197944Y1005314D02*
X1196014Y1005314D01*
X1212786Y1016000D02*
X1212790Y1016313D01*
X1212801Y1016626D01*
X1212821Y1016939D01*
X1212847Y1017251D01*
X1212882Y1017562D01*
X1212924Y1017873D01*
X1212974Y1018182D01*
X1213031Y1018490D01*
X1213096Y1018797D01*
X1213169Y1019101D01*
X1213248Y1019404D01*
X1213336Y1019705D01*
X1213430Y1020004D01*
X1213532Y1020300D01*
X1213641Y1020594D01*
X1213758Y1020885D01*
X1213881Y1021173D01*
X1214011Y1021457D01*
X1214149Y1021739D01*
X1214293Y1022017D01*
X1214444Y1022291D01*
X1214602Y1022562D01*
X1214766Y1022829D01*
X1214937Y1023091D01*
X1215114Y1023350D01*
X1215298Y1023604D01*
X1215488Y1023853D01*
X1215683Y1024097D01*
X1215885Y1024337D01*
X1216092Y1024572D01*
X1216306Y1024801D01*
X1216524Y1025026D01*
X1216749Y1025244D01*
X1216978Y1025458D01*
X1217213Y1025665D01*
X1217453Y1025867D01*
X1217697Y1026062D01*
X1217946Y1026252D01*
X1218200Y1026436D01*
X1218459Y1026613D01*
X1218721Y1026784D01*
X1218988Y1026948D01*
X1219259Y1027106D01*
X1219533Y1027257D01*
X1219811Y1027401D01*
X1220093Y1027539D01*
X1220377Y1027669D01*
X1220665Y1027792D01*
X1220956Y1027909D01*
X1221250Y1028018D01*
X1221546Y1028120D01*
X1221845Y1028214D01*
X1222146Y1028302D01*
X1222449Y1028381D01*
X1222753Y1028454D01*
X1223060Y1028519D01*
X1223368Y1028576D01*
X1223677Y1028626D01*
X1223988Y1028668D01*
X1224299Y1028703D01*
X1224611Y1028729D01*
X1224924Y1028749D01*
X1225237Y1028760D01*
X1225550Y1028764D01*
X1225863Y1028760D01*
X1226176Y1028749D01*
X1226489Y1028729D01*
X1226801Y1028703D01*
X1227112Y1028668D01*
X1227423Y1028626D01*
X1227732Y1028576D01*
X1228040Y1028519D01*
X1228347Y1028454D01*
X1228651Y1028381D01*
X1228954Y1028302D01*
X1229255Y1028214D01*
X1229554Y1028120D01*
X1229850Y1028018D01*
X1230144Y1027909D01*
X1230435Y1027792D01*
X1230723Y1027669D01*
X1231007Y1027539D01*
X1231289Y1027401D01*
X1231567Y1027257D01*
X1231841Y1027106D01*
X1232112Y1026948D01*
X1232379Y1026784D01*
X1232641Y1026613D01*
X1232900Y1026436D01*
X1233154Y1026252D01*
X1233403Y1026062D01*
X1233647Y1025867D01*
X1233887Y1025665D01*
X1234122Y1025458D01*
X1234351Y1025244D01*
X1234576Y1025026D01*
X1234794Y1024801D01*
X1235008Y1024572D01*
X1235215Y1024337D01*
X1235417Y1024097D01*
X1235612Y1023853D01*
X1235802Y1023604D01*
X1235986Y1023350D01*
X1236163Y1023091D01*
X1236334Y1022829D01*
X1236498Y1022562D01*
X1236656Y1022291D01*
X1236807Y1022017D01*
X1236951Y1021739D01*
X1237089Y1021457D01*
X1237219Y1021173D01*
X1237342Y1020885D01*
X1237459Y1020594D01*
X1237568Y1020300D01*
X1237670Y1020004D01*
X1237764Y1019705D01*
X1237852Y1019404D01*
X1237931Y1019101D01*
X1238004Y1018797D01*
X1238069Y1018490D01*
X1238126Y1018182D01*
X1238176Y1017873D01*
X1238218Y1017562D01*
X1238253Y1017251D01*
X1238279Y1016939D01*
X1238299Y1016626D01*
X1238310Y1016313D01*
X1238314Y1016000D01*
X1238310Y1015687D01*
X1238299Y1015374D01*
X1238279Y1015061D01*
X1238253Y1014749D01*
X1238218Y1014438D01*
X1238176Y1014127D01*
X1238126Y1013818D01*
X1238069Y1013510D01*
X1238004Y1013203D01*
X1237931Y1012899D01*
X1237852Y1012596D01*
X1237764Y1012295D01*
X1237670Y1011996D01*
X1237568Y1011700D01*
X1237459Y1011406D01*
X1237342Y1011115D01*
X1237219Y1010827D01*
X1237089Y1010543D01*
X1236951Y1010261D01*
X1236807Y1009983D01*
X1236656Y1009709D01*
X1236498Y1009438D01*
X1236334Y1009171D01*
X1236163Y1008909D01*
X1235986Y1008650D01*
X1235802Y1008396D01*
X1235612Y1008147D01*
X1235417Y1007903D01*
X1235215Y1007663D01*
X1235008Y1007428D01*
X1234794Y1007199D01*
X1234576Y1006974D01*
X1234351Y1006756D01*
X1234122Y1006542D01*
X1233887Y1006335D01*
X1233647Y1006133D01*
X1233403Y1005938D01*
X1233154Y1005748D01*
X1232900Y1005564D01*
X1232641Y1005387D01*
X1232379Y1005216D01*
X1232112Y1005052D01*
X1231841Y1004894D01*
X1231567Y1004743D01*
X1231289Y1004599D01*
X1231007Y1004461D01*
X1230723Y1004331D01*
X1230435Y1004208D01*
X1230144Y1004091D01*
X1229850Y1003982D01*
X1229554Y1003880D01*
X1229255Y1003786D01*
X1228954Y1003698D01*
X1228651Y1003619D01*
X1228347Y1003546D01*
X1228040Y1003481D01*
X1227732Y1003424D01*
X1227423Y1003374D01*
X1227112Y1003332D01*
X1226801Y1003297D01*
X1226489Y1003271D01*
X1226176Y1003251D01*
X1225863Y1003240D01*
X1225550Y1003236D01*
X1225237Y1003240D01*
X1224924Y1003251D01*
X1224611Y1003271D01*
X1224299Y1003297D01*
X1223988Y1003332D01*
X1223677Y1003374D01*
X1223368Y1003424D01*
X1223060Y1003481D01*
X1222753Y1003546D01*
X1222449Y1003619D01*
X1222146Y1003698D01*
X1221845Y1003786D01*
X1221546Y1003880D01*
X1221250Y1003982D01*
X1220956Y1004091D01*
X1220665Y1004208D01*
X1220377Y1004331D01*
X1220093Y1004461D01*
X1219811Y1004599D01*
X1219533Y1004743D01*
X1219259Y1004894D01*
X1218988Y1005052D01*
X1218721Y1005216D01*
X1218459Y1005387D01*
X1218200Y1005564D01*
X1217946Y1005748D01*
X1217697Y1005938D01*
X1217453Y1006133D01*
X1217213Y1006335D01*
X1216978Y1006542D01*
X1216749Y1006756D01*
X1216524Y1006974D01*
X1216306Y1007199D01*
X1216092Y1007428D01*
X1215885Y1007663D01*
X1215683Y1007903D01*
X1215488Y1008147D01*
X1215298Y1008396D01*
X1215114Y1008650D01*
X1214937Y1008909D01*
X1214766Y1009171D01*
X1214602Y1009438D01*
X1214444Y1009709D01*
X1214293Y1009983D01*
X1214149Y1010261D01*
X1214011Y1010543D01*
X1213881Y1010827D01*
X1213758Y1011115D01*
X1213641Y1011406D01*
X1213532Y1011700D01*
X1213430Y1011996D01*
X1213336Y1012295D01*
X1213248Y1012596D01*
X1213169Y1012899D01*
X1213096Y1013203D01*
X1213031Y1013510D01*
X1212974Y1013818D01*
X1212924Y1014127D01*
X1212882Y1014438D01*
X1212847Y1014749D01*
X1212821Y1015061D01*
X1212801Y1015374D01*
X1212790Y1015687D01*
X1212786Y1016000D01*
X1209075Y1016000D02*
X1209080Y1016404D01*
X1209095Y1016808D01*
X1209120Y1017212D01*
X1209154Y1017615D01*
X1209199Y1018017D01*
X1209253Y1018417D01*
X1209318Y1018817D01*
X1209392Y1019214D01*
X1209475Y1019610D01*
X1209569Y1020003D01*
X1209672Y1020394D01*
X1209784Y1020782D01*
X1209907Y1021168D01*
X1210038Y1021550D01*
X1210179Y1021929D01*
X1210329Y1022305D01*
X1210488Y1022676D01*
X1210657Y1023044D01*
X1210834Y1023407D01*
X1211020Y1023766D01*
X1211215Y1024120D01*
X1211419Y1024470D01*
X1211631Y1024814D01*
X1211852Y1025153D01*
X1212080Y1025486D01*
X1212317Y1025814D01*
X1212562Y1026136D01*
X1212815Y1026452D01*
X1213075Y1026761D01*
X1213343Y1027064D01*
X1213618Y1027360D01*
X1213900Y1027650D01*
X1214190Y1027932D01*
X1214486Y1028207D01*
X1214789Y1028475D01*
X1215098Y1028735D01*
X1215414Y1028988D01*
X1215736Y1029233D01*
X1216064Y1029470D01*
X1216397Y1029698D01*
X1216736Y1029919D01*
X1217080Y1030131D01*
X1217430Y1030335D01*
X1217784Y1030530D01*
X1218143Y1030716D01*
X1218506Y1030893D01*
X1218874Y1031062D01*
X1219245Y1031221D01*
X1219621Y1031371D01*
X1220000Y1031512D01*
X1220382Y1031643D01*
X1220768Y1031766D01*
X1221156Y1031878D01*
X1221547Y1031981D01*
X1221940Y1032075D01*
X1222336Y1032158D01*
X1222733Y1032232D01*
X1223133Y1032297D01*
X1223533Y1032351D01*
X1223935Y1032396D01*
X1224338Y1032430D01*
X1224742Y1032455D01*
X1225146Y1032470D01*
X1225550Y1032475D01*
X1225954Y1032470D01*
X1226358Y1032455D01*
X1226762Y1032430D01*
X1227165Y1032396D01*
X1227567Y1032351D01*
X1227967Y1032297D01*
X1228367Y1032232D01*
X1228764Y1032158D01*
X1229160Y1032075D01*
X1229553Y1031981D01*
X1229944Y1031878D01*
X1230332Y1031766D01*
X1230718Y1031643D01*
X1231100Y1031512D01*
X1231479Y1031371D01*
X1231855Y1031221D01*
X1232226Y1031062D01*
X1232594Y1030893D01*
X1232957Y1030716D01*
X1233316Y1030530D01*
X1233670Y1030335D01*
X1234020Y1030131D01*
X1234364Y1029919D01*
X1234703Y1029698D01*
X1235036Y1029470D01*
X1235364Y1029233D01*
X1235686Y1028988D01*
X1236002Y1028735D01*
X1236311Y1028475D01*
X1236614Y1028207D01*
X1236910Y1027932D01*
X1237200Y1027650D01*
X1237482Y1027360D01*
X1237757Y1027064D01*
X1238025Y1026761D01*
X1238285Y1026452D01*
X1238538Y1026136D01*
X1238783Y1025814D01*
X1239020Y1025486D01*
X1239248Y1025153D01*
X1239469Y1024814D01*
X1239681Y1024470D01*
X1239885Y1024120D01*
X1240080Y1023766D01*
X1240266Y1023407D01*
X1240443Y1023044D01*
X1240612Y1022676D01*
X1240771Y1022305D01*
X1240921Y1021929D01*
X1241062Y1021550D01*
X1241193Y1021168D01*
X1241316Y1020782D01*
X1241428Y1020394D01*
X1241531Y1020003D01*
X1241625Y1019610D01*
X1241708Y1019214D01*
X1241782Y1018817D01*
X1241847Y1018417D01*
X1241901Y1018017D01*
X1241946Y1017615D01*
X1241980Y1017212D01*
X1242005Y1016808D01*
X1242020Y1016404D01*
X1242025Y1016000D01*
X1242020Y1015596D01*
X1242005Y1015192D01*
X1241980Y1014788D01*
X1241946Y1014385D01*
X1241901Y1013983D01*
X1241847Y1013583D01*
X1241782Y1013183D01*
X1241708Y1012786D01*
X1241625Y1012390D01*
X1241531Y1011997D01*
X1241428Y1011606D01*
X1241316Y1011218D01*
X1241193Y1010832D01*
X1241062Y1010450D01*
X1240921Y1010071D01*
X1240771Y1009695D01*
X1240612Y1009324D01*
X1240443Y1008956D01*
X1240266Y1008593D01*
X1240080Y1008234D01*
X1239885Y1007880D01*
X1239681Y1007530D01*
X1239469Y1007186D01*
X1239248Y1006847D01*
X1239020Y1006514D01*
X1238783Y1006186D01*
X1238538Y1005864D01*
X1238285Y1005548D01*
X1238025Y1005239D01*
X1237757Y1004936D01*
X1237482Y1004640D01*
X1237200Y1004350D01*
X1236910Y1004068D01*
X1236614Y1003793D01*
X1236311Y1003525D01*
X1236002Y1003265D01*
X1235686Y1003012D01*
X1235364Y1002767D01*
X1235036Y1002530D01*
X1234703Y1002302D01*
X1234364Y1002081D01*
X1234020Y1001869D01*
X1233670Y1001665D01*
X1233316Y1001470D01*
X1232957Y1001284D01*
X1232594Y1001107D01*
X1232226Y1000938D01*
X1231855Y1000779D01*
X1231479Y1000629D01*
X1231100Y1000488D01*
X1230718Y1000357D01*
X1230332Y1000234D01*
X1229944Y1000122D01*
X1229553Y1000019D01*
X1229160Y999925D01*
X1228764Y999842D01*
X1228367Y999768D01*
X1227967Y999703D01*
X1227567Y999649D01*
X1227165Y999604D01*
X1226762Y999570D01*
X1226358Y999545D01*
X1225954Y999530D01*
X1225550Y999525D01*
X1225146Y999530D01*
X1224742Y999545D01*
X1224338Y999570D01*
X1223935Y999604D01*
X1223533Y999649D01*
X1223133Y999703D01*
X1222733Y999768D01*
X1222336Y999842D01*
X1221940Y999925D01*
X1221547Y1000019D01*
X1221156Y1000122D01*
X1220768Y1000234D01*
X1220382Y1000357D01*
X1220000Y1000488D01*
X1219621Y1000629D01*
X1219245Y1000779D01*
X1218874Y1000938D01*
X1218506Y1001107D01*
X1218143Y1001284D01*
X1217784Y1001470D01*
X1217430Y1001665D01*
X1217080Y1001869D01*
X1216736Y1002081D01*
X1216397Y1002302D01*
X1216064Y1002530D01*
X1215736Y1002767D01*
X1215414Y1003012D01*
X1215098Y1003265D01*
X1214789Y1003525D01*
X1214486Y1003793D01*
X1214190Y1004068D01*
X1213900Y1004350D01*
X1213618Y1004640D01*
X1213343Y1004936D01*
X1213075Y1005239D01*
X1212815Y1005548D01*
X1212562Y1005864D01*
X1212317Y1006186D01*
X1212080Y1006514D01*
X1211852Y1006847D01*
X1211631Y1007186D01*
X1211419Y1007530D01*
X1211215Y1007880D01*
X1211020Y1008234D01*
X1210834Y1008593D01*
X1210657Y1008956D01*
X1210488Y1009324D01*
X1210329Y1009695D01*
X1210179Y1010071D01*
X1210038Y1010450D01*
X1209907Y1010832D01*
X1209784Y1011218D01*
X1209672Y1011606D01*
X1209569Y1011997D01*
X1209475Y1012390D01*
X1209392Y1012786D01*
X1209318Y1013183D01*
X1209253Y1013583D01*
X1209199Y1013983D01*
X1209154Y1014385D01*
X1209120Y1014788D01*
X1209095Y1015192D01*
X1209080Y1015596D01*
X1209075Y1016000D01*
D15*
X1204994Y1046501D03*
D16*
X1246032Y1046575D03*
D17*
X1204994Y985426D03*
D18*
X1225476Y983422D03*
D19*
X1245958Y985500D03*
D14*
X1260983Y991828D02*
X1260985Y991927D01*
X1260991Y992027D01*
X1261000Y992126D01*
X1261013Y992224D01*
X1261030Y992322D01*
X1261051Y992420D01*
X1261076Y992516D01*
X1261104Y992611D01*
X1261136Y992705D01*
X1261171Y992798D01*
X1261210Y992890D01*
X1261253Y992980D01*
X1261298Y993068D01*
X1261348Y993155D01*
X1261400Y993239D01*
X1261456Y993322D01*
X1261514Y993402D01*
X1261576Y993480D01*
X1261641Y993555D01*
X1261709Y993628D01*
X1261779Y993698D01*
X1261852Y993766D01*
X1261927Y993831D01*
X1262005Y993893D01*
X1262085Y993951D01*
X1262168Y994007D01*
X1262252Y994059D01*
X1262339Y994109D01*
X1262427Y994154D01*
X1262517Y994197D01*
X1262609Y994236D01*
X1262702Y994271D01*
X1262796Y994303D01*
X1262891Y994331D01*
X1262987Y994356D01*
X1263085Y994377D01*
X1263183Y994394D01*
X1263281Y994407D01*
X1263380Y994416D01*
X1263480Y994422D01*
X1263579Y994424D01*
X1260983Y991828D02*
X1260985Y991684D01*
X1260991Y991539D01*
X1261000Y991395D01*
X1261013Y991252D01*
X1261030Y991108D01*
X1261051Y990965D01*
X1261076Y990823D01*
X1261104Y990682D01*
X1261136Y990541D01*
X1261172Y990401D01*
X1261211Y990262D01*
X1261254Y990124D01*
X1261301Y989988D01*
X1261351Y989852D01*
X1261405Y989718D01*
X1261462Y989586D01*
X1261523Y989455D01*
X1261587Y989326D01*
X1261655Y989198D01*
X1261725Y989072D01*
X1261800Y988948D01*
X1261877Y988827D01*
X1261958Y988707D01*
X1262041Y988589D01*
X1262128Y988474D01*
X1262218Y988361D01*
X1262311Y988250D01*
X1262406Y988142D01*
X1262505Y988036D01*
X1262606Y987933D01*
X1270071Y988258D02*
X1270170Y988260D01*
X1270270Y988266D01*
X1270369Y988275D01*
X1270467Y988288D01*
X1270565Y988305D01*
X1270663Y988326D01*
X1270759Y988351D01*
X1270854Y988379D01*
X1270948Y988411D01*
X1271041Y988446D01*
X1271133Y988485D01*
X1271223Y988528D01*
X1271311Y988573D01*
X1271398Y988623D01*
X1271482Y988675D01*
X1271565Y988731D01*
X1271645Y988789D01*
X1271723Y988851D01*
X1271798Y988916D01*
X1271871Y988984D01*
X1271941Y989054D01*
X1272009Y989127D01*
X1272074Y989202D01*
X1272136Y989280D01*
X1272194Y989360D01*
X1272250Y989443D01*
X1272302Y989527D01*
X1272352Y989614D01*
X1272397Y989702D01*
X1272440Y989792D01*
X1272479Y989884D01*
X1272514Y989977D01*
X1272546Y990071D01*
X1272574Y990166D01*
X1272599Y990263D01*
X1272620Y990360D01*
X1272637Y990458D01*
X1272650Y990556D01*
X1272659Y990655D01*
X1272665Y990755D01*
X1272667Y990854D01*
X1272665Y990990D01*
X1272659Y991126D01*
X1272650Y991262D01*
X1272637Y991398D01*
X1272619Y991533D01*
X1272599Y991667D01*
X1272574Y991801D01*
X1272546Y991935D01*
X1272513Y992067D01*
X1272478Y992198D01*
X1272438Y992329D01*
X1272395Y992458D01*
X1272349Y992586D01*
X1272298Y992712D01*
X1272245Y992838D01*
X1272187Y992961D01*
X1272127Y993083D01*
X1272063Y993203D01*
X1271995Y993322D01*
X1271925Y993438D01*
X1271851Y993552D01*
X1271774Y993665D01*
X1271693Y993775D01*
X1267799Y989556D02*
X1267852Y989470D01*
X1267909Y989386D01*
X1267968Y989304D01*
X1268031Y989224D01*
X1268097Y989147D01*
X1268165Y989072D01*
X1268237Y989000D01*
X1268311Y988931D01*
X1268388Y988865D01*
X1268467Y988802D01*
X1268549Y988742D01*
X1268633Y988685D01*
X1268719Y988631D01*
X1268807Y988581D01*
X1268897Y988534D01*
X1268988Y988490D01*
X1269082Y988451D01*
X1269176Y988414D01*
X1269272Y988382D01*
X1269370Y988353D01*
X1269468Y988328D01*
X1269567Y988307D01*
X1269667Y988289D01*
X1269767Y988276D01*
X1269868Y988266D01*
X1269970Y988260D01*
X1270071Y988258D01*
X1265851Y993126D02*
X1265798Y993212D01*
X1265741Y993296D01*
X1265682Y993378D01*
X1265619Y993458D01*
X1265553Y993535D01*
X1265485Y993610D01*
X1265413Y993682D01*
X1265339Y993751D01*
X1265262Y993817D01*
X1265183Y993880D01*
X1265101Y993940D01*
X1265017Y993997D01*
X1264931Y994051D01*
X1264843Y994101D01*
X1264753Y994148D01*
X1264662Y994192D01*
X1264568Y994231D01*
X1264474Y994268D01*
X1264378Y994300D01*
X1264280Y994329D01*
X1264182Y994354D01*
X1264083Y994375D01*
X1263983Y994393D01*
X1263883Y994406D01*
X1263782Y994416D01*
X1263680Y994422D01*
X1263579Y994424D01*
X1265851Y993126D02*
X1267799Y989556D01*
X1260983Y999386D02*
X1260983Y1004578D01*
X1260983Y999386D02*
X1272667Y999386D01*
X1272667Y1004578D01*
X1267474Y1003280D02*
X1267474Y999386D01*
X1272667Y1009292D02*
X1260983Y1009292D01*
X1260983Y1014484D01*
X1259685Y1018300D02*
X1259685Y1023493D01*
X1260983Y1028319D02*
X1272667Y1028319D01*
X1267474Y1028319D02*
X1267474Y1034810D01*
X1272667Y1034810D02*
X1260983Y1034810D01*
X1272667Y1043700D02*
X1272665Y1043807D01*
X1272659Y1043913D01*
X1272649Y1044019D01*
X1272636Y1044125D01*
X1272618Y1044231D01*
X1272597Y1044335D01*
X1272572Y1044439D01*
X1272543Y1044542D01*
X1272511Y1044643D01*
X1272474Y1044743D01*
X1272434Y1044842D01*
X1272391Y1044940D01*
X1272344Y1045036D01*
X1272293Y1045130D01*
X1272239Y1045222D01*
X1272182Y1045312D01*
X1272122Y1045400D01*
X1272058Y1045485D01*
X1271991Y1045568D01*
X1271921Y1045649D01*
X1271849Y1045727D01*
X1271773Y1045803D01*
X1271695Y1045875D01*
X1271614Y1045945D01*
X1271531Y1046012D01*
X1271446Y1046076D01*
X1271358Y1046136D01*
X1271268Y1046193D01*
X1271176Y1046247D01*
X1271082Y1046298D01*
X1270986Y1046345D01*
X1270888Y1046388D01*
X1270789Y1046428D01*
X1270689Y1046465D01*
X1270588Y1046497D01*
X1270485Y1046526D01*
X1270381Y1046551D01*
X1270277Y1046572D01*
X1270171Y1046590D01*
X1270065Y1046603D01*
X1269959Y1046613D01*
X1269853Y1046619D01*
X1269746Y1046621D01*
X1272667Y1043700D02*
X1272665Y1043579D01*
X1272659Y1043458D01*
X1272649Y1043338D01*
X1272636Y1043217D01*
X1272618Y1043098D01*
X1272597Y1042978D01*
X1272572Y1042860D01*
X1272543Y1042743D01*
X1272510Y1042626D01*
X1272474Y1042511D01*
X1272433Y1042397D01*
X1272390Y1042284D01*
X1272342Y1042172D01*
X1272291Y1042063D01*
X1272236Y1041955D01*
X1272178Y1041848D01*
X1272117Y1041744D01*
X1272052Y1041642D01*
X1271984Y1041542D01*
X1271913Y1041444D01*
X1271839Y1041348D01*
X1271762Y1041255D01*
X1271681Y1041165D01*
X1271598Y1041077D01*
X1271512Y1040992D01*
X1271423Y1040909D01*
X1271332Y1040830D01*
X1271238Y1040753D01*
X1271142Y1040680D01*
X1271044Y1040610D01*
X1270943Y1040543D01*
X1270840Y1040479D01*
X1270735Y1040419D01*
X1270628Y1040362D01*
X1270520Y1040308D01*
X1270410Y1040258D01*
X1270298Y1040212D01*
X1270185Y1040169D01*
X1270070Y1040130D01*
X1267474Y1045648D02*
X1267551Y1045727D01*
X1267632Y1045803D01*
X1267715Y1045876D01*
X1267800Y1045946D01*
X1267888Y1046013D01*
X1267978Y1046077D01*
X1268070Y1046137D01*
X1268165Y1046194D01*
X1268261Y1046248D01*
X1268359Y1046299D01*
X1268459Y1046346D01*
X1268561Y1046390D01*
X1268664Y1046430D01*
X1268768Y1046466D01*
X1268874Y1046498D01*
X1268980Y1046527D01*
X1269088Y1046552D01*
X1269196Y1046574D01*
X1269306Y1046591D01*
X1269415Y1046605D01*
X1269525Y1046614D01*
X1269636Y1046620D01*
X1269746Y1046622D01*
X1267474Y1045647D02*
X1260983Y1040130D01*
X1260983Y1046621D01*
X1081269Y1043606D02*
X1081269Y988394D01*
X1101306Y988394D01*
X1101306Y984238D01*
X1121046Y984238D01*
X1121046Y988394D01*
X1141231Y988394D01*
X1141231Y1043606D01*
X1124608Y1043606D01*
X1123420Y1044794D01*
X1099228Y1044794D01*
X1098040Y1043606D01*
X1081269Y1043606D01*
X1138856Y1005314D02*
X1138856Y988839D01*
X1138856Y1005314D02*
X1137817Y1005314D01*
X1137817Y1026835D01*
X1140637Y1026835D01*
X1138856Y1027280D02*
X1138856Y1043012D01*
X1138856Y1005314D02*
X1140785Y1005314D01*
X1083644Y1005314D02*
X1083644Y988839D01*
X1083644Y1005314D02*
X1084683Y1005314D01*
X1084683Y1026835D01*
X1081863Y1026835D01*
X1083644Y1027280D02*
X1083644Y1043012D01*
X1083644Y1005314D02*
X1081714Y1005314D01*
X1098486Y1016000D02*
X1098490Y1016313D01*
X1098501Y1016626D01*
X1098521Y1016939D01*
X1098547Y1017251D01*
X1098582Y1017562D01*
X1098624Y1017873D01*
X1098674Y1018182D01*
X1098731Y1018490D01*
X1098796Y1018797D01*
X1098869Y1019101D01*
X1098948Y1019404D01*
X1099036Y1019705D01*
X1099130Y1020004D01*
X1099232Y1020300D01*
X1099341Y1020594D01*
X1099458Y1020885D01*
X1099581Y1021173D01*
X1099711Y1021457D01*
X1099849Y1021739D01*
X1099993Y1022017D01*
X1100144Y1022291D01*
X1100302Y1022562D01*
X1100466Y1022829D01*
X1100637Y1023091D01*
X1100814Y1023350D01*
X1100998Y1023604D01*
X1101188Y1023853D01*
X1101383Y1024097D01*
X1101585Y1024337D01*
X1101792Y1024572D01*
X1102006Y1024801D01*
X1102224Y1025026D01*
X1102449Y1025244D01*
X1102678Y1025458D01*
X1102913Y1025665D01*
X1103153Y1025867D01*
X1103397Y1026062D01*
X1103646Y1026252D01*
X1103900Y1026436D01*
X1104159Y1026613D01*
X1104421Y1026784D01*
X1104688Y1026948D01*
X1104959Y1027106D01*
X1105233Y1027257D01*
X1105511Y1027401D01*
X1105793Y1027539D01*
X1106077Y1027669D01*
X1106365Y1027792D01*
X1106656Y1027909D01*
X1106950Y1028018D01*
X1107246Y1028120D01*
X1107545Y1028214D01*
X1107846Y1028302D01*
X1108149Y1028381D01*
X1108453Y1028454D01*
X1108760Y1028519D01*
X1109068Y1028576D01*
X1109377Y1028626D01*
X1109688Y1028668D01*
X1109999Y1028703D01*
X1110311Y1028729D01*
X1110624Y1028749D01*
X1110937Y1028760D01*
X1111250Y1028764D01*
X1111563Y1028760D01*
X1111876Y1028749D01*
X1112189Y1028729D01*
X1112501Y1028703D01*
X1112812Y1028668D01*
X1113123Y1028626D01*
X1113432Y1028576D01*
X1113740Y1028519D01*
X1114047Y1028454D01*
X1114351Y1028381D01*
X1114654Y1028302D01*
X1114955Y1028214D01*
X1115254Y1028120D01*
X1115550Y1028018D01*
X1115844Y1027909D01*
X1116135Y1027792D01*
X1116423Y1027669D01*
X1116707Y1027539D01*
X1116989Y1027401D01*
X1117267Y1027257D01*
X1117541Y1027106D01*
X1117812Y1026948D01*
X1118079Y1026784D01*
X1118341Y1026613D01*
X1118600Y1026436D01*
X1118854Y1026252D01*
X1119103Y1026062D01*
X1119347Y1025867D01*
X1119587Y1025665D01*
X1119822Y1025458D01*
X1120051Y1025244D01*
X1120276Y1025026D01*
X1120494Y1024801D01*
X1120708Y1024572D01*
X1120915Y1024337D01*
X1121117Y1024097D01*
X1121312Y1023853D01*
X1121502Y1023604D01*
X1121686Y1023350D01*
X1121863Y1023091D01*
X1122034Y1022829D01*
X1122198Y1022562D01*
X1122356Y1022291D01*
X1122507Y1022017D01*
X1122651Y1021739D01*
X1122789Y1021457D01*
X1122919Y1021173D01*
X1123042Y1020885D01*
X1123159Y1020594D01*
X1123268Y1020300D01*
X1123370Y1020004D01*
X1123464Y1019705D01*
X1123552Y1019404D01*
X1123631Y1019101D01*
X1123704Y1018797D01*
X1123769Y1018490D01*
X1123826Y1018182D01*
X1123876Y1017873D01*
X1123918Y1017562D01*
X1123953Y1017251D01*
X1123979Y1016939D01*
X1123999Y1016626D01*
X1124010Y1016313D01*
X1124014Y1016000D01*
X1124010Y1015687D01*
X1123999Y1015374D01*
X1123979Y1015061D01*
X1123953Y1014749D01*
X1123918Y1014438D01*
X1123876Y1014127D01*
X1123826Y1013818D01*
X1123769Y1013510D01*
X1123704Y1013203D01*
X1123631Y1012899D01*
X1123552Y1012596D01*
X1123464Y1012295D01*
X1123370Y1011996D01*
X1123268Y1011700D01*
X1123159Y1011406D01*
X1123042Y1011115D01*
X1122919Y1010827D01*
X1122789Y1010543D01*
X1122651Y1010261D01*
X1122507Y1009983D01*
X1122356Y1009709D01*
X1122198Y1009438D01*
X1122034Y1009171D01*
X1121863Y1008909D01*
X1121686Y1008650D01*
X1121502Y1008396D01*
X1121312Y1008147D01*
X1121117Y1007903D01*
X1120915Y1007663D01*
X1120708Y1007428D01*
X1120494Y1007199D01*
X1120276Y1006974D01*
X1120051Y1006756D01*
X1119822Y1006542D01*
X1119587Y1006335D01*
X1119347Y1006133D01*
X1119103Y1005938D01*
X1118854Y1005748D01*
X1118600Y1005564D01*
X1118341Y1005387D01*
X1118079Y1005216D01*
X1117812Y1005052D01*
X1117541Y1004894D01*
X1117267Y1004743D01*
X1116989Y1004599D01*
X1116707Y1004461D01*
X1116423Y1004331D01*
X1116135Y1004208D01*
X1115844Y1004091D01*
X1115550Y1003982D01*
X1115254Y1003880D01*
X1114955Y1003786D01*
X1114654Y1003698D01*
X1114351Y1003619D01*
X1114047Y1003546D01*
X1113740Y1003481D01*
X1113432Y1003424D01*
X1113123Y1003374D01*
X1112812Y1003332D01*
X1112501Y1003297D01*
X1112189Y1003271D01*
X1111876Y1003251D01*
X1111563Y1003240D01*
X1111250Y1003236D01*
X1110937Y1003240D01*
X1110624Y1003251D01*
X1110311Y1003271D01*
X1109999Y1003297D01*
X1109688Y1003332D01*
X1109377Y1003374D01*
X1109068Y1003424D01*
X1108760Y1003481D01*
X1108453Y1003546D01*
X1108149Y1003619D01*
X1107846Y1003698D01*
X1107545Y1003786D01*
X1107246Y1003880D01*
X1106950Y1003982D01*
X1106656Y1004091D01*
X1106365Y1004208D01*
X1106077Y1004331D01*
X1105793Y1004461D01*
X1105511Y1004599D01*
X1105233Y1004743D01*
X1104959Y1004894D01*
X1104688Y1005052D01*
X1104421Y1005216D01*
X1104159Y1005387D01*
X1103900Y1005564D01*
X1103646Y1005748D01*
X1103397Y1005938D01*
X1103153Y1006133D01*
X1102913Y1006335D01*
X1102678Y1006542D01*
X1102449Y1006756D01*
X1102224Y1006974D01*
X1102006Y1007199D01*
X1101792Y1007428D01*
X1101585Y1007663D01*
X1101383Y1007903D01*
X1101188Y1008147D01*
X1100998Y1008396D01*
X1100814Y1008650D01*
X1100637Y1008909D01*
X1100466Y1009171D01*
X1100302Y1009438D01*
X1100144Y1009709D01*
X1099993Y1009983D01*
X1099849Y1010261D01*
X1099711Y1010543D01*
X1099581Y1010827D01*
X1099458Y1011115D01*
X1099341Y1011406D01*
X1099232Y1011700D01*
X1099130Y1011996D01*
X1099036Y1012295D01*
X1098948Y1012596D01*
X1098869Y1012899D01*
X1098796Y1013203D01*
X1098731Y1013510D01*
X1098674Y1013818D01*
X1098624Y1014127D01*
X1098582Y1014438D01*
X1098547Y1014749D01*
X1098521Y1015061D01*
X1098501Y1015374D01*
X1098490Y1015687D01*
X1098486Y1016000D01*
X1094775Y1016000D02*
X1094780Y1016404D01*
X1094795Y1016808D01*
X1094820Y1017212D01*
X1094854Y1017615D01*
X1094899Y1018017D01*
X1094953Y1018417D01*
X1095018Y1018817D01*
X1095092Y1019214D01*
X1095175Y1019610D01*
X1095269Y1020003D01*
X1095372Y1020394D01*
X1095484Y1020782D01*
X1095607Y1021168D01*
X1095738Y1021550D01*
X1095879Y1021929D01*
X1096029Y1022305D01*
X1096188Y1022676D01*
X1096357Y1023044D01*
X1096534Y1023407D01*
X1096720Y1023766D01*
X1096915Y1024120D01*
X1097119Y1024470D01*
X1097331Y1024814D01*
X1097552Y1025153D01*
X1097780Y1025486D01*
X1098017Y1025814D01*
X1098262Y1026136D01*
X1098515Y1026452D01*
X1098775Y1026761D01*
X1099043Y1027064D01*
X1099318Y1027360D01*
X1099600Y1027650D01*
X1099890Y1027932D01*
X1100186Y1028207D01*
X1100489Y1028475D01*
X1100798Y1028735D01*
X1101114Y1028988D01*
X1101436Y1029233D01*
X1101764Y1029470D01*
X1102097Y1029698D01*
X1102436Y1029919D01*
X1102780Y1030131D01*
X1103130Y1030335D01*
X1103484Y1030530D01*
X1103843Y1030716D01*
X1104206Y1030893D01*
X1104574Y1031062D01*
X1104945Y1031221D01*
X1105321Y1031371D01*
X1105700Y1031512D01*
X1106082Y1031643D01*
X1106468Y1031766D01*
X1106856Y1031878D01*
X1107247Y1031981D01*
X1107640Y1032075D01*
X1108036Y1032158D01*
X1108433Y1032232D01*
X1108833Y1032297D01*
X1109233Y1032351D01*
X1109635Y1032396D01*
X1110038Y1032430D01*
X1110442Y1032455D01*
X1110846Y1032470D01*
X1111250Y1032475D01*
X1111654Y1032470D01*
X1112058Y1032455D01*
X1112462Y1032430D01*
X1112865Y1032396D01*
X1113267Y1032351D01*
X1113667Y1032297D01*
X1114067Y1032232D01*
X1114464Y1032158D01*
X1114860Y1032075D01*
X1115253Y1031981D01*
X1115644Y1031878D01*
X1116032Y1031766D01*
X1116418Y1031643D01*
X1116800Y1031512D01*
X1117179Y1031371D01*
X1117555Y1031221D01*
X1117926Y1031062D01*
X1118294Y1030893D01*
X1118657Y1030716D01*
X1119016Y1030530D01*
X1119370Y1030335D01*
X1119720Y1030131D01*
X1120064Y1029919D01*
X1120403Y1029698D01*
X1120736Y1029470D01*
X1121064Y1029233D01*
X1121386Y1028988D01*
X1121702Y1028735D01*
X1122011Y1028475D01*
X1122314Y1028207D01*
X1122610Y1027932D01*
X1122900Y1027650D01*
X1123182Y1027360D01*
X1123457Y1027064D01*
X1123725Y1026761D01*
X1123985Y1026452D01*
X1124238Y1026136D01*
X1124483Y1025814D01*
X1124720Y1025486D01*
X1124948Y1025153D01*
X1125169Y1024814D01*
X1125381Y1024470D01*
X1125585Y1024120D01*
X1125780Y1023766D01*
X1125966Y1023407D01*
X1126143Y1023044D01*
X1126312Y1022676D01*
X1126471Y1022305D01*
X1126621Y1021929D01*
X1126762Y1021550D01*
X1126893Y1021168D01*
X1127016Y1020782D01*
X1127128Y1020394D01*
X1127231Y1020003D01*
X1127325Y1019610D01*
X1127408Y1019214D01*
X1127482Y1018817D01*
X1127547Y1018417D01*
X1127601Y1018017D01*
X1127646Y1017615D01*
X1127680Y1017212D01*
X1127705Y1016808D01*
X1127720Y1016404D01*
X1127725Y1016000D01*
X1127720Y1015596D01*
X1127705Y1015192D01*
X1127680Y1014788D01*
X1127646Y1014385D01*
X1127601Y1013983D01*
X1127547Y1013583D01*
X1127482Y1013183D01*
X1127408Y1012786D01*
X1127325Y1012390D01*
X1127231Y1011997D01*
X1127128Y1011606D01*
X1127016Y1011218D01*
X1126893Y1010832D01*
X1126762Y1010450D01*
X1126621Y1010071D01*
X1126471Y1009695D01*
X1126312Y1009324D01*
X1126143Y1008956D01*
X1125966Y1008593D01*
X1125780Y1008234D01*
X1125585Y1007880D01*
X1125381Y1007530D01*
X1125169Y1007186D01*
X1124948Y1006847D01*
X1124720Y1006514D01*
X1124483Y1006186D01*
X1124238Y1005864D01*
X1123985Y1005548D01*
X1123725Y1005239D01*
X1123457Y1004936D01*
X1123182Y1004640D01*
X1122900Y1004350D01*
X1122610Y1004068D01*
X1122314Y1003793D01*
X1122011Y1003525D01*
X1121702Y1003265D01*
X1121386Y1003012D01*
X1121064Y1002767D01*
X1120736Y1002530D01*
X1120403Y1002302D01*
X1120064Y1002081D01*
X1119720Y1001869D01*
X1119370Y1001665D01*
X1119016Y1001470D01*
X1118657Y1001284D01*
X1118294Y1001107D01*
X1117926Y1000938D01*
X1117555Y1000779D01*
X1117179Y1000629D01*
X1116800Y1000488D01*
X1116418Y1000357D01*
X1116032Y1000234D01*
X1115644Y1000122D01*
X1115253Y1000019D01*
X1114860Y999925D01*
X1114464Y999842D01*
X1114067Y999768D01*
X1113667Y999703D01*
X1113267Y999649D01*
X1112865Y999604D01*
X1112462Y999570D01*
X1112058Y999545D01*
X1111654Y999530D01*
X1111250Y999525D01*
X1110846Y999530D01*
X1110442Y999545D01*
X1110038Y999570D01*
X1109635Y999604D01*
X1109233Y999649D01*
X1108833Y999703D01*
X1108433Y999768D01*
X1108036Y999842D01*
X1107640Y999925D01*
X1107247Y1000019D01*
X1106856Y1000122D01*
X1106468Y1000234D01*
X1106082Y1000357D01*
X1105700Y1000488D01*
X1105321Y1000629D01*
X1104945Y1000779D01*
X1104574Y1000938D01*
X1104206Y1001107D01*
X1103843Y1001284D01*
X1103484Y1001470D01*
X1103130Y1001665D01*
X1102780Y1001869D01*
X1102436Y1002081D01*
X1102097Y1002302D01*
X1101764Y1002530D01*
X1101436Y1002767D01*
X1101114Y1003012D01*
X1100798Y1003265D01*
X1100489Y1003525D01*
X1100186Y1003793D01*
X1099890Y1004068D01*
X1099600Y1004350D01*
X1099318Y1004640D01*
X1099043Y1004936D01*
X1098775Y1005239D01*
X1098515Y1005548D01*
X1098262Y1005864D01*
X1098017Y1006186D01*
X1097780Y1006514D01*
X1097552Y1006847D01*
X1097331Y1007186D01*
X1097119Y1007530D01*
X1096915Y1007880D01*
X1096720Y1008234D01*
X1096534Y1008593D01*
X1096357Y1008956D01*
X1096188Y1009324D01*
X1096029Y1009695D01*
X1095879Y1010071D01*
X1095738Y1010450D01*
X1095607Y1010832D01*
X1095484Y1011218D01*
X1095372Y1011606D01*
X1095269Y1011997D01*
X1095175Y1012390D01*
X1095092Y1012786D01*
X1095018Y1013183D01*
X1094953Y1013583D01*
X1094899Y1013983D01*
X1094854Y1014385D01*
X1094820Y1014788D01*
X1094795Y1015192D01*
X1094780Y1015596D01*
X1094775Y1016000D01*
D15*
X1090694Y1046501D03*
D16*
X1131732Y1046575D03*
D17*
X1090694Y985426D03*
D18*
X1111176Y983422D03*
D19*
X1131658Y985500D03*
D14*
X1146683Y991828D02*
X1146685Y991927D01*
X1146691Y992027D01*
X1146700Y992126D01*
X1146713Y992224D01*
X1146730Y992322D01*
X1146751Y992420D01*
X1146776Y992516D01*
X1146804Y992611D01*
X1146836Y992705D01*
X1146871Y992798D01*
X1146910Y992890D01*
X1146953Y992980D01*
X1146998Y993068D01*
X1147048Y993155D01*
X1147100Y993239D01*
X1147156Y993322D01*
X1147214Y993402D01*
X1147276Y993480D01*
X1147341Y993555D01*
X1147409Y993628D01*
X1147479Y993698D01*
X1147552Y993766D01*
X1147627Y993831D01*
X1147705Y993893D01*
X1147785Y993951D01*
X1147868Y994007D01*
X1147952Y994059D01*
X1148039Y994109D01*
X1148127Y994154D01*
X1148217Y994197D01*
X1148309Y994236D01*
X1148402Y994271D01*
X1148496Y994303D01*
X1148591Y994331D01*
X1148687Y994356D01*
X1148785Y994377D01*
X1148883Y994394D01*
X1148981Y994407D01*
X1149080Y994416D01*
X1149180Y994422D01*
X1149279Y994424D01*
X1146683Y991828D02*
X1146685Y991684D01*
X1146691Y991539D01*
X1146700Y991395D01*
X1146713Y991252D01*
X1146730Y991108D01*
X1146751Y990965D01*
X1146776Y990823D01*
X1146804Y990682D01*
X1146836Y990541D01*
X1146872Y990401D01*
X1146911Y990262D01*
X1146954Y990124D01*
X1147001Y989988D01*
X1147051Y989852D01*
X1147105Y989718D01*
X1147162Y989586D01*
X1147223Y989455D01*
X1147287Y989326D01*
X1147355Y989198D01*
X1147425Y989072D01*
X1147500Y988948D01*
X1147577Y988827D01*
X1147658Y988707D01*
X1147741Y988589D01*
X1147828Y988474D01*
X1147918Y988361D01*
X1148011Y988250D01*
X1148106Y988142D01*
X1148205Y988036D01*
X1148306Y987933D01*
X1155771Y988258D02*
X1155870Y988260D01*
X1155970Y988266D01*
X1156069Y988275D01*
X1156167Y988288D01*
X1156265Y988305D01*
X1156363Y988326D01*
X1156459Y988351D01*
X1156554Y988379D01*
X1156648Y988411D01*
X1156741Y988446D01*
X1156833Y988485D01*
X1156923Y988528D01*
X1157011Y988573D01*
X1157098Y988623D01*
X1157182Y988675D01*
X1157265Y988731D01*
X1157345Y988789D01*
X1157423Y988851D01*
X1157498Y988916D01*
X1157571Y988984D01*
X1157641Y989054D01*
X1157709Y989127D01*
X1157774Y989202D01*
X1157836Y989280D01*
X1157894Y989360D01*
X1157950Y989443D01*
X1158002Y989527D01*
X1158052Y989614D01*
X1158097Y989702D01*
X1158140Y989792D01*
X1158179Y989884D01*
X1158214Y989977D01*
X1158246Y990071D01*
X1158274Y990166D01*
X1158299Y990263D01*
X1158320Y990360D01*
X1158337Y990458D01*
X1158350Y990556D01*
X1158359Y990655D01*
X1158365Y990755D01*
X1158367Y990854D01*
X1158365Y990990D01*
X1158359Y991126D01*
X1158350Y991262D01*
X1158337Y991398D01*
X1158319Y991533D01*
X1158299Y991667D01*
X1158274Y991801D01*
X1158246Y991935D01*
X1158213Y992067D01*
X1158178Y992198D01*
X1158138Y992329D01*
X1158095Y992458D01*
X1158049Y992586D01*
X1157998Y992712D01*
X1157945Y992838D01*
X1157887Y992961D01*
X1157827Y993083D01*
X1157763Y993203D01*
X1157695Y993322D01*
X1157625Y993438D01*
X1157551Y993552D01*
X1157474Y993665D01*
X1157393Y993775D01*
X1153499Y989556D02*
X1153552Y989470D01*
X1153609Y989386D01*
X1153668Y989304D01*
X1153731Y989224D01*
X1153797Y989147D01*
X1153865Y989072D01*
X1153937Y989000D01*
X1154011Y988931D01*
X1154088Y988865D01*
X1154167Y988802D01*
X1154249Y988742D01*
X1154333Y988685D01*
X1154419Y988631D01*
X1154507Y988581D01*
X1154597Y988534D01*
X1154688Y988490D01*
X1154782Y988451D01*
X1154876Y988414D01*
X1154972Y988382D01*
X1155070Y988353D01*
X1155168Y988328D01*
X1155267Y988307D01*
X1155367Y988289D01*
X1155467Y988276D01*
X1155568Y988266D01*
X1155670Y988260D01*
X1155771Y988258D01*
X1151551Y993126D02*
X1151498Y993212D01*
X1151441Y993296D01*
X1151382Y993378D01*
X1151319Y993458D01*
X1151253Y993535D01*
X1151185Y993610D01*
X1151113Y993682D01*
X1151039Y993751D01*
X1150962Y993817D01*
X1150883Y993880D01*
X1150801Y993940D01*
X1150717Y993997D01*
X1150631Y994051D01*
X1150543Y994101D01*
X1150453Y994148D01*
X1150362Y994192D01*
X1150268Y994231D01*
X1150174Y994268D01*
X1150078Y994300D01*
X1149980Y994329D01*
X1149882Y994354D01*
X1149783Y994375D01*
X1149683Y994393D01*
X1149583Y994406D01*
X1149482Y994416D01*
X1149380Y994422D01*
X1149279Y994424D01*
X1151551Y993126D02*
X1153499Y989556D01*
X1146683Y999386D02*
X1146683Y1004578D01*
X1146683Y999386D02*
X1158367Y999386D01*
X1158367Y1004578D01*
X1153174Y1003280D02*
X1153174Y999386D01*
X1158367Y1009292D02*
X1146683Y1009292D01*
X1146683Y1014484D01*
X1145385Y1018300D02*
X1145385Y1023493D01*
X1146683Y1028319D02*
X1158367Y1028319D01*
X1153174Y1028319D02*
X1153174Y1034810D01*
X1158367Y1034810D02*
X1146683Y1034810D01*
X1146683Y1040130D02*
X1146683Y1043375D01*
X1146685Y1043488D01*
X1146691Y1043601D01*
X1146701Y1043714D01*
X1146715Y1043827D01*
X1146732Y1043939D01*
X1146754Y1044050D01*
X1146779Y1044160D01*
X1146809Y1044270D01*
X1146842Y1044378D01*
X1146879Y1044485D01*
X1146919Y1044591D01*
X1146964Y1044695D01*
X1147012Y1044798D01*
X1147063Y1044899D01*
X1147118Y1044998D01*
X1147176Y1045095D01*
X1147238Y1045190D01*
X1147303Y1045283D01*
X1147371Y1045373D01*
X1147442Y1045461D01*
X1147517Y1045547D01*
X1147594Y1045630D01*
X1147674Y1045710D01*
X1147757Y1045787D01*
X1147843Y1045862D01*
X1147931Y1045933D01*
X1148021Y1046001D01*
X1148114Y1046066D01*
X1148209Y1046128D01*
X1148306Y1046186D01*
X1148405Y1046241D01*
X1148506Y1046292D01*
X1148609Y1046340D01*
X1148713Y1046385D01*
X1148819Y1046425D01*
X1148926Y1046462D01*
X1149034Y1046495D01*
X1149144Y1046525D01*
X1149254Y1046550D01*
X1149365Y1046572D01*
X1149477Y1046589D01*
X1149590Y1046603D01*
X1149703Y1046613D01*
X1149816Y1046619D01*
X1149929Y1046621D01*
X1150042Y1046619D01*
X1150155Y1046613D01*
X1150268Y1046603D01*
X1150381Y1046589D01*
X1150493Y1046572D01*
X1150604Y1046550D01*
X1150714Y1046525D01*
X1150824Y1046495D01*
X1150932Y1046462D01*
X1151039Y1046425D01*
X1151145Y1046385D01*
X1151249Y1046340D01*
X1151352Y1046292D01*
X1151453Y1046241D01*
X1151552Y1046186D01*
X1151649Y1046128D01*
X1151744Y1046066D01*
X1151837Y1046001D01*
X1151927Y1045933D01*
X1152015Y1045862D01*
X1152101Y1045787D01*
X1152184Y1045710D01*
X1152264Y1045630D01*
X1152341Y1045547D01*
X1152416Y1045461D01*
X1152487Y1045373D01*
X1152555Y1045283D01*
X1152620Y1045190D01*
X1152682Y1045095D01*
X1152740Y1044998D01*
X1152795Y1044899D01*
X1152846Y1044798D01*
X1152894Y1044695D01*
X1152939Y1044591D01*
X1152979Y1044485D01*
X1153016Y1044378D01*
X1153049Y1044270D01*
X1153079Y1044160D01*
X1153104Y1044050D01*
X1153126Y1043939D01*
X1153143Y1043827D01*
X1153157Y1043714D01*
X1153167Y1043601D01*
X1153173Y1043488D01*
X1153175Y1043375D01*
X1158367Y1044025D02*
X1158367Y1040130D01*
X1158367Y1044025D02*
X1158365Y1044126D01*
X1158359Y1044226D01*
X1158349Y1044326D01*
X1158336Y1044426D01*
X1158318Y1044525D01*
X1158297Y1044624D01*
X1158272Y1044721D01*
X1158243Y1044818D01*
X1158210Y1044913D01*
X1158174Y1045007D01*
X1158134Y1045099D01*
X1158091Y1045190D01*
X1158044Y1045279D01*
X1157994Y1045366D01*
X1157940Y1045452D01*
X1157883Y1045535D01*
X1157823Y1045615D01*
X1157760Y1045694D01*
X1157693Y1045770D01*
X1157624Y1045843D01*
X1157552Y1045913D01*
X1157478Y1045981D01*
X1157401Y1046046D01*
X1157321Y1046107D01*
X1157239Y1046166D01*
X1157155Y1046221D01*
X1157069Y1046273D01*
X1156981Y1046322D01*
X1156891Y1046367D01*
X1156799Y1046409D01*
X1156706Y1046447D01*
X1156611Y1046481D01*
X1156516Y1046512D01*
X1156419Y1046539D01*
X1156321Y1046562D01*
X1156222Y1046582D01*
X1156122Y1046597D01*
X1156022Y1046609D01*
X1155922Y1046617D01*
X1155821Y1046621D01*
X1155721Y1046621D01*
X1155620Y1046617D01*
X1155520Y1046609D01*
X1155420Y1046597D01*
X1155320Y1046582D01*
X1155221Y1046562D01*
X1155123Y1046539D01*
X1155026Y1046512D01*
X1154931Y1046481D01*
X1154836Y1046447D01*
X1154743Y1046409D01*
X1154651Y1046367D01*
X1154561Y1046322D01*
X1154473Y1046273D01*
X1154387Y1046221D01*
X1154303Y1046166D01*
X1154221Y1046107D01*
X1154141Y1046046D01*
X1154064Y1045981D01*
X1153990Y1045913D01*
X1153918Y1045843D01*
X1153849Y1045770D01*
X1153782Y1045694D01*
X1153719Y1045615D01*
X1153659Y1045535D01*
X1153602Y1045452D01*
X1153548Y1045366D01*
X1153498Y1045279D01*
X1153451Y1045190D01*
X1153408Y1045099D01*
X1153368Y1045007D01*
X1153332Y1044913D01*
X1153299Y1044818D01*
X1153270Y1044721D01*
X1153245Y1044624D01*
X1153224Y1044525D01*
X1153206Y1044426D01*
X1153193Y1044326D01*
X1153183Y1044226D01*
X1153177Y1044126D01*
X1153175Y1044025D01*
X1153174Y1044025D02*
X1153174Y1041428D01*
D10*
X359156Y388733D02*
X359156Y386644D01*
X359158Y386555D01*
X359164Y386467D01*
X359173Y386379D01*
X359186Y386291D01*
X359203Y386204D01*
X359223Y386118D01*
X359248Y386033D01*
X359275Y385948D01*
X359307Y385865D01*
X359341Y385784D01*
X359380Y385704D01*
X359421Y385626D01*
X359466Y385549D01*
X359514Y385475D01*
X359565Y385402D01*
X359619Y385332D01*
X359677Y385265D01*
X359737Y385199D01*
X359799Y385137D01*
X359865Y385077D01*
X359932Y385019D01*
X360002Y384965D01*
X360075Y384914D01*
X360149Y384866D01*
X360226Y384821D01*
X360304Y384780D01*
X360384Y384741D01*
X360465Y384707D01*
X360548Y384675D01*
X360633Y384648D01*
X360718Y384623D01*
X360804Y384603D01*
X360891Y384586D01*
X360979Y384573D01*
X361067Y384564D01*
X361155Y384558D01*
X361244Y384556D01*
X366466Y384556D01*
X366557Y384558D01*
X366648Y384564D01*
X366739Y384574D01*
X366829Y384588D01*
X366918Y384605D01*
X367006Y384627D01*
X367094Y384653D01*
X367180Y384682D01*
X367265Y384715D01*
X367348Y384752D01*
X367430Y384792D01*
X367510Y384836D01*
X367588Y384883D01*
X367664Y384934D01*
X367737Y384987D01*
X367808Y385044D01*
X367877Y385105D01*
X367942Y385168D01*
X368005Y385233D01*
X368065Y385302D01*
X368123Y385373D01*
X368176Y385446D01*
X368227Y385522D01*
X368274Y385600D01*
X368318Y385680D01*
X368358Y385762D01*
X368395Y385845D01*
X368428Y385930D01*
X368457Y386016D01*
X368483Y386104D01*
X368505Y386192D01*
X368522Y386281D01*
X368536Y386371D01*
X368546Y386462D01*
X368552Y386553D01*
X368554Y386644D01*
X368554Y388733D01*
X366466Y392202D02*
X368554Y394812D01*
X359156Y394812D01*
X359156Y392202D02*
X359156Y397423D01*
X359156Y401346D02*
X359156Y403956D01*
X359158Y404057D01*
X359164Y404158D01*
X359174Y404259D01*
X359187Y404359D01*
X359205Y404459D01*
X359226Y404558D01*
X359252Y404656D01*
X359281Y404753D01*
X359313Y404849D01*
X359350Y404943D01*
X359390Y405036D01*
X359434Y405128D01*
X359481Y405217D01*
X359532Y405305D01*
X359586Y405391D01*
X359643Y405474D01*
X359703Y405556D01*
X359767Y405634D01*
X359833Y405711D01*
X359903Y405784D01*
X359975Y405855D01*
X360050Y405923D01*
X360128Y405988D01*
X360208Y406050D01*
X360290Y406109D01*
X360375Y406165D01*
X360462Y406217D01*
X360550Y406266D01*
X360641Y406312D01*
X360733Y406353D01*
X360827Y406392D01*
X360922Y406426D01*
X361018Y406457D01*
X361116Y406484D01*
X361214Y406508D01*
X361314Y406527D01*
X361414Y406543D01*
X361514Y406555D01*
X361615Y406563D01*
X361716Y406567D01*
X361818Y406567D01*
X361919Y406563D01*
X362020Y406555D01*
X362120Y406543D01*
X362220Y406527D01*
X362320Y406508D01*
X362418Y406484D01*
X362516Y406457D01*
X362612Y406426D01*
X362707Y406392D01*
X362801Y406353D01*
X362893Y406312D01*
X362984Y406266D01*
X363073Y406217D01*
X363159Y406165D01*
X363244Y406109D01*
X363326Y406050D01*
X363406Y405988D01*
X363484Y405923D01*
X363559Y405855D01*
X363631Y405784D01*
X363701Y405711D01*
X363767Y405634D01*
X363831Y405556D01*
X363891Y405474D01*
X363948Y405391D01*
X364002Y405305D01*
X364053Y405217D01*
X364100Y405128D01*
X364144Y405036D01*
X364184Y404943D01*
X364221Y404849D01*
X364253Y404753D01*
X364282Y404656D01*
X364308Y404558D01*
X364329Y404459D01*
X364347Y404359D01*
X364360Y404259D01*
X364370Y404158D01*
X364376Y404057D01*
X364378Y403956D01*
X368554Y404478D02*
X368554Y401346D01*
X368554Y404478D02*
X368552Y404568D01*
X368546Y404657D01*
X368537Y404747D01*
X368523Y404836D01*
X368506Y404924D01*
X368485Y405011D01*
X368460Y405098D01*
X368431Y405183D01*
X368399Y405267D01*
X368364Y405349D01*
X368324Y405430D01*
X368282Y405509D01*
X368236Y405586D01*
X368186Y405661D01*
X368134Y405734D01*
X368078Y405805D01*
X368020Y405873D01*
X367958Y405938D01*
X367894Y406001D01*
X367827Y406061D01*
X367758Y406118D01*
X367686Y406172D01*
X367612Y406223D01*
X367536Y406271D01*
X367458Y406315D01*
X367378Y406356D01*
X367296Y406394D01*
X367213Y406428D01*
X367128Y406458D01*
X367042Y406485D01*
X366956Y406508D01*
X366868Y406527D01*
X366779Y406542D01*
X366690Y406554D01*
X366601Y406562D01*
X366511Y406566D01*
X366421Y406566D01*
X366331Y406562D01*
X366242Y406554D01*
X366153Y406542D01*
X366064Y406527D01*
X365976Y406508D01*
X365890Y406485D01*
X365804Y406458D01*
X365719Y406428D01*
X365636Y406394D01*
X365554Y406356D01*
X365474Y406315D01*
X365396Y406271D01*
X365320Y406223D01*
X365246Y406172D01*
X365174Y406118D01*
X365105Y406061D01*
X365038Y406001D01*
X364974Y405938D01*
X364912Y405873D01*
X364854Y405805D01*
X364798Y405734D01*
X364746Y405661D01*
X364696Y405586D01*
X364650Y405509D01*
X364608Y405430D01*
X364568Y405349D01*
X364533Y405267D01*
X364501Y405183D01*
X364472Y405098D01*
X364447Y405011D01*
X364426Y404924D01*
X364409Y404836D01*
X364395Y404747D01*
X364386Y404657D01*
X364380Y404568D01*
X364378Y404478D01*
X364377Y404478D02*
X364377Y402390D01*
M02*
