G04 EAGLE Gerber RS-274X export*
G75*
%MOMM*%
%FSLAX34Y34*%
%LPD*%
%INSolderpaste Top*%
%IPPOS*%
%AMOC8*
5,1,8,0,0,1.08239X$1,22.5*%
G01*
%ADD10R,0.700000X0.900000*%
%ADD11R,0.900000X0.700000*%
%ADD12R,1.400000X1.600000*%
%ADD13R,1.600000X1.400000*%
%ADD14R,1.320800X0.177800*%
%ADD15R,0.600000X2.200000*%
%ADD16R,6.200000X5.800000*%
%ADD17R,3.000000X1.600000*%
%ADD18R,1.651900X0.280000*%
%ADD19R,0.280000X1.651900*%


D10*
X238275Y1098550D03*
X225275Y1098550D03*
D11*
X203200Y1044425D03*
X203200Y1057425D03*
D12*
X1114425Y1004175D03*
X1114425Y1034175D03*
D11*
X1130300Y1009500D03*
X1130300Y1022500D03*
D13*
X246775Y1120775D03*
X216775Y1120775D03*
D12*
X177800Y1035925D03*
X177800Y1065925D03*
D14*
X98072Y845820D03*
X98072Y840740D03*
X98072Y835660D03*
X98072Y830834D03*
X98072Y825754D03*
X97818Y820674D03*
X98072Y815848D03*
X98326Y810768D03*
X97818Y805688D03*
X97818Y800608D03*
X98072Y795782D03*
X97818Y790702D03*
X97818Y785876D03*
X98072Y780796D03*
X98072Y775716D03*
X98072Y770890D03*
X98072Y765810D03*
X98072Y760730D03*
X97818Y755650D03*
X98072Y648970D03*
X98072Y643890D03*
X98072Y638810D03*
X98072Y633984D03*
X98072Y628904D03*
X97818Y623824D03*
X98072Y618998D03*
X98326Y613918D03*
X97818Y608838D03*
X97818Y603758D03*
X98072Y598932D03*
X97818Y593852D03*
X97818Y589026D03*
X98072Y583946D03*
X98072Y578866D03*
X98072Y574040D03*
X98072Y568960D03*
X98072Y563880D03*
X97818Y558800D03*
X98072Y448945D03*
X98072Y443865D03*
X98072Y438785D03*
X98072Y433959D03*
X98072Y428879D03*
X97818Y423799D03*
X98072Y418973D03*
X98326Y413893D03*
X97818Y408813D03*
X97818Y403733D03*
X98072Y398907D03*
X97818Y393827D03*
X97818Y389001D03*
X98072Y383921D03*
X98072Y378841D03*
X98072Y374015D03*
X98072Y368935D03*
X98072Y363855D03*
X97818Y358775D03*
X98072Y144145D03*
X98072Y139065D03*
X98072Y133985D03*
X98072Y129159D03*
X98072Y124079D03*
X97818Y118999D03*
X98072Y114173D03*
X98326Y109093D03*
X97818Y104013D03*
X97818Y98933D03*
X98072Y94107D03*
X97818Y89027D03*
X97818Y84201D03*
X98072Y79121D03*
X98072Y74041D03*
X98072Y69215D03*
X98072Y64135D03*
X98072Y59055D03*
X97818Y53975D03*
D15*
X1155700Y990000D03*
X1155700Y1042000D03*
X1143000Y990000D03*
X1168400Y990000D03*
X1181100Y990000D03*
X1143000Y1042000D03*
X1168400Y1042000D03*
X1181100Y1042000D03*
D16*
X277800Y1050925D03*
D17*
X206000Y1073725D03*
X206000Y1028125D03*
D18*
X245308Y428025D03*
X245308Y423025D03*
X245308Y418025D03*
X245308Y413025D03*
X245308Y408025D03*
X245308Y403025D03*
X245308Y398025D03*
X245308Y393025D03*
X245308Y388025D03*
X245308Y383025D03*
X245308Y378025D03*
X245308Y373025D03*
X245308Y368025D03*
X245308Y363025D03*
X245308Y358025D03*
X245308Y353025D03*
D19*
X264125Y334208D03*
X269125Y334208D03*
X274125Y334208D03*
X279125Y334208D03*
X284125Y334208D03*
X289125Y334208D03*
X294125Y334208D03*
X299125Y334208D03*
X304125Y334208D03*
X309125Y334208D03*
X314125Y334208D03*
X319125Y334208D03*
X324125Y334208D03*
X329125Y334208D03*
X334125Y334208D03*
X339125Y334208D03*
D18*
X357942Y353025D03*
X357942Y358025D03*
X357942Y363025D03*
X357942Y368025D03*
X357942Y373025D03*
X357942Y378025D03*
X357942Y383025D03*
X357942Y388025D03*
X357942Y393025D03*
X357942Y398025D03*
X357942Y403025D03*
X357942Y408025D03*
X357942Y413025D03*
X357942Y418025D03*
X357942Y423025D03*
X357942Y428025D03*
D19*
X339125Y446842D03*
X334125Y446842D03*
X329125Y446842D03*
X324125Y446842D03*
X319125Y446842D03*
X314125Y446842D03*
X309125Y446842D03*
X304125Y446842D03*
X299125Y446842D03*
X294125Y446842D03*
X289125Y446842D03*
X284125Y446842D03*
X279125Y446842D03*
X274125Y446842D03*
X269125Y446842D03*
X264125Y446842D03*
M02*
