G04 EAGLE Gerber RS-274X export*
G75*
%MOMM*%
%FSLAX34Y34*%
%LPD*%
%INSoldermask Top*%
%IPPOS*%
%AMOC8*
5,1,8,0,0,1.08239X$1,22.5*%
G01*
%ADD10R,0.903200X1.103200*%
%ADD11R,1.103200X0.903200*%
%ADD12R,1.603200X1.803200*%
%ADD13R,1.803200X1.603200*%
%ADD14C,2.203200*%
%ADD15C,1.203200*%
%ADD16C,0.500000*%
%ADD17R,2.103200X0.503200*%
%ADD18C,2.153200*%
%ADD19R,0.803200X2.403200*%
%ADD20R,6.403200X6.003200*%
%ADD21R,3.203200X1.803200*%
%ADD22C,1.422400*%
%ADD23C,6.654800*%
%ADD24R,1.855100X0.483200*%
%ADD25R,0.483200X1.855100*%
%ADD26C,0.959600*%


D10*
X238275Y1098550D03*
X225275Y1098550D03*
D11*
X203200Y1044425D03*
X203200Y1057425D03*
D12*
X1114425Y1004175D03*
X1114425Y1034175D03*
D11*
X1130300Y1009500D03*
X1130300Y1022500D03*
D13*
X246775Y1120775D03*
X216775Y1120775D03*
D12*
X177800Y1035925D03*
X177800Y1065925D03*
D14*
X142125Y1064100D02*
X142125Y1044100D01*
X81125Y1044100D02*
X81125Y1064100D01*
X101125Y1006100D02*
X121125Y1006100D01*
D15*
X977900Y1117600D03*
D16*
X977900Y1125100D02*
X977719Y1125098D01*
X977538Y1125091D01*
X977357Y1125080D01*
X977176Y1125065D01*
X976996Y1125045D01*
X976816Y1125021D01*
X976637Y1124993D01*
X976459Y1124960D01*
X976282Y1124923D01*
X976105Y1124882D01*
X975930Y1124837D01*
X975755Y1124787D01*
X975582Y1124733D01*
X975411Y1124675D01*
X975240Y1124613D01*
X975072Y1124546D01*
X974905Y1124476D01*
X974739Y1124402D01*
X974576Y1124323D01*
X974415Y1124241D01*
X974255Y1124155D01*
X974098Y1124065D01*
X973943Y1123971D01*
X973790Y1123874D01*
X973640Y1123772D01*
X973492Y1123668D01*
X973346Y1123559D01*
X973204Y1123448D01*
X973064Y1123332D01*
X972927Y1123214D01*
X972792Y1123092D01*
X972661Y1122967D01*
X972533Y1122839D01*
X972408Y1122708D01*
X972286Y1122573D01*
X972168Y1122436D01*
X972052Y1122296D01*
X971941Y1122154D01*
X971832Y1122008D01*
X971728Y1121860D01*
X971626Y1121710D01*
X971529Y1121557D01*
X971435Y1121402D01*
X971345Y1121245D01*
X971259Y1121085D01*
X971177Y1120924D01*
X971098Y1120761D01*
X971024Y1120595D01*
X970954Y1120428D01*
X970887Y1120260D01*
X970825Y1120089D01*
X970767Y1119918D01*
X970713Y1119745D01*
X970663Y1119570D01*
X970618Y1119395D01*
X970577Y1119218D01*
X970540Y1119041D01*
X970507Y1118863D01*
X970479Y1118684D01*
X970455Y1118504D01*
X970435Y1118324D01*
X970420Y1118143D01*
X970409Y1117962D01*
X970402Y1117781D01*
X970400Y1117600D01*
X977900Y1125100D02*
X978081Y1125098D01*
X978262Y1125091D01*
X978443Y1125080D01*
X978624Y1125065D01*
X978804Y1125045D01*
X978984Y1125021D01*
X979163Y1124993D01*
X979341Y1124960D01*
X979518Y1124923D01*
X979695Y1124882D01*
X979870Y1124837D01*
X980045Y1124787D01*
X980218Y1124733D01*
X980389Y1124675D01*
X980560Y1124613D01*
X980728Y1124546D01*
X980895Y1124476D01*
X981061Y1124402D01*
X981224Y1124323D01*
X981385Y1124241D01*
X981545Y1124155D01*
X981702Y1124065D01*
X981857Y1123971D01*
X982010Y1123874D01*
X982160Y1123772D01*
X982308Y1123668D01*
X982454Y1123559D01*
X982596Y1123448D01*
X982736Y1123332D01*
X982873Y1123214D01*
X983008Y1123092D01*
X983139Y1122967D01*
X983267Y1122839D01*
X983392Y1122708D01*
X983514Y1122573D01*
X983632Y1122436D01*
X983748Y1122296D01*
X983859Y1122154D01*
X983968Y1122008D01*
X984072Y1121860D01*
X984174Y1121710D01*
X984271Y1121557D01*
X984365Y1121402D01*
X984455Y1121245D01*
X984541Y1121085D01*
X984623Y1120924D01*
X984702Y1120761D01*
X984776Y1120595D01*
X984846Y1120428D01*
X984913Y1120260D01*
X984975Y1120089D01*
X985033Y1119918D01*
X985087Y1119745D01*
X985137Y1119570D01*
X985182Y1119395D01*
X985223Y1119218D01*
X985260Y1119041D01*
X985293Y1118863D01*
X985321Y1118684D01*
X985345Y1118504D01*
X985365Y1118324D01*
X985380Y1118143D01*
X985391Y1117962D01*
X985398Y1117781D01*
X985400Y1117600D01*
X985398Y1117419D01*
X985391Y1117238D01*
X985380Y1117057D01*
X985365Y1116876D01*
X985345Y1116696D01*
X985321Y1116516D01*
X985293Y1116337D01*
X985260Y1116159D01*
X985223Y1115982D01*
X985182Y1115805D01*
X985137Y1115630D01*
X985087Y1115455D01*
X985033Y1115282D01*
X984975Y1115111D01*
X984913Y1114940D01*
X984846Y1114772D01*
X984776Y1114605D01*
X984702Y1114439D01*
X984623Y1114276D01*
X984541Y1114115D01*
X984455Y1113955D01*
X984365Y1113798D01*
X984271Y1113643D01*
X984174Y1113490D01*
X984072Y1113340D01*
X983968Y1113192D01*
X983859Y1113046D01*
X983748Y1112904D01*
X983632Y1112764D01*
X983514Y1112627D01*
X983392Y1112492D01*
X983267Y1112361D01*
X983139Y1112233D01*
X983008Y1112108D01*
X982873Y1111986D01*
X982736Y1111868D01*
X982596Y1111752D01*
X982454Y1111641D01*
X982308Y1111532D01*
X982160Y1111428D01*
X982010Y1111326D01*
X981857Y1111229D01*
X981702Y1111135D01*
X981545Y1111045D01*
X981385Y1110959D01*
X981224Y1110877D01*
X981061Y1110798D01*
X980895Y1110724D01*
X980728Y1110654D01*
X980560Y1110587D01*
X980389Y1110525D01*
X980218Y1110467D01*
X980045Y1110413D01*
X979870Y1110363D01*
X979695Y1110318D01*
X979518Y1110277D01*
X979341Y1110240D01*
X979163Y1110207D01*
X978984Y1110179D01*
X978804Y1110155D01*
X978624Y1110135D01*
X978443Y1110120D01*
X978262Y1110109D01*
X978081Y1110102D01*
X977900Y1110100D01*
X977719Y1110102D01*
X977538Y1110109D01*
X977357Y1110120D01*
X977176Y1110135D01*
X976996Y1110155D01*
X976816Y1110179D01*
X976637Y1110207D01*
X976459Y1110240D01*
X976282Y1110277D01*
X976105Y1110318D01*
X975930Y1110363D01*
X975755Y1110413D01*
X975582Y1110467D01*
X975411Y1110525D01*
X975240Y1110587D01*
X975072Y1110654D01*
X974905Y1110724D01*
X974739Y1110798D01*
X974576Y1110877D01*
X974415Y1110959D01*
X974255Y1111045D01*
X974098Y1111135D01*
X973943Y1111229D01*
X973790Y1111326D01*
X973640Y1111428D01*
X973492Y1111532D01*
X973346Y1111641D01*
X973204Y1111752D01*
X973064Y1111868D01*
X972927Y1111986D01*
X972792Y1112108D01*
X972661Y1112233D01*
X972533Y1112361D01*
X972408Y1112492D01*
X972286Y1112627D01*
X972168Y1112764D01*
X972052Y1112904D01*
X971941Y1113046D01*
X971832Y1113192D01*
X971728Y1113340D01*
X971626Y1113490D01*
X971529Y1113643D01*
X971435Y1113798D01*
X971345Y1113955D01*
X971259Y1114115D01*
X971177Y1114276D01*
X971098Y1114439D01*
X971024Y1114605D01*
X970954Y1114772D01*
X970887Y1114940D01*
X970825Y1115111D01*
X970767Y1115282D01*
X970713Y1115455D01*
X970663Y1115630D01*
X970618Y1115805D01*
X970577Y1115982D01*
X970540Y1116159D01*
X970507Y1116337D01*
X970479Y1116516D01*
X970455Y1116696D01*
X970435Y1116876D01*
X970420Y1117057D01*
X970409Y1117238D01*
X970402Y1117419D01*
X970400Y1117600D01*
D15*
X1473200Y971550D03*
D16*
X1473200Y979050D02*
X1473019Y979048D01*
X1472838Y979041D01*
X1472657Y979030D01*
X1472476Y979015D01*
X1472296Y978995D01*
X1472116Y978971D01*
X1471937Y978943D01*
X1471759Y978910D01*
X1471582Y978873D01*
X1471405Y978832D01*
X1471230Y978787D01*
X1471055Y978737D01*
X1470882Y978683D01*
X1470711Y978625D01*
X1470540Y978563D01*
X1470372Y978496D01*
X1470205Y978426D01*
X1470039Y978352D01*
X1469876Y978273D01*
X1469715Y978191D01*
X1469555Y978105D01*
X1469398Y978015D01*
X1469243Y977921D01*
X1469090Y977824D01*
X1468940Y977722D01*
X1468792Y977618D01*
X1468646Y977509D01*
X1468504Y977398D01*
X1468364Y977282D01*
X1468227Y977164D01*
X1468092Y977042D01*
X1467961Y976917D01*
X1467833Y976789D01*
X1467708Y976658D01*
X1467586Y976523D01*
X1467468Y976386D01*
X1467352Y976246D01*
X1467241Y976104D01*
X1467132Y975958D01*
X1467028Y975810D01*
X1466926Y975660D01*
X1466829Y975507D01*
X1466735Y975352D01*
X1466645Y975195D01*
X1466559Y975035D01*
X1466477Y974874D01*
X1466398Y974711D01*
X1466324Y974545D01*
X1466254Y974378D01*
X1466187Y974210D01*
X1466125Y974039D01*
X1466067Y973868D01*
X1466013Y973695D01*
X1465963Y973520D01*
X1465918Y973345D01*
X1465877Y973168D01*
X1465840Y972991D01*
X1465807Y972813D01*
X1465779Y972634D01*
X1465755Y972454D01*
X1465735Y972274D01*
X1465720Y972093D01*
X1465709Y971912D01*
X1465702Y971731D01*
X1465700Y971550D01*
X1473200Y979050D02*
X1473381Y979048D01*
X1473562Y979041D01*
X1473743Y979030D01*
X1473924Y979015D01*
X1474104Y978995D01*
X1474284Y978971D01*
X1474463Y978943D01*
X1474641Y978910D01*
X1474818Y978873D01*
X1474995Y978832D01*
X1475170Y978787D01*
X1475345Y978737D01*
X1475518Y978683D01*
X1475689Y978625D01*
X1475860Y978563D01*
X1476028Y978496D01*
X1476195Y978426D01*
X1476361Y978352D01*
X1476524Y978273D01*
X1476685Y978191D01*
X1476845Y978105D01*
X1477002Y978015D01*
X1477157Y977921D01*
X1477310Y977824D01*
X1477460Y977722D01*
X1477608Y977618D01*
X1477754Y977509D01*
X1477896Y977398D01*
X1478036Y977282D01*
X1478173Y977164D01*
X1478308Y977042D01*
X1478439Y976917D01*
X1478567Y976789D01*
X1478692Y976658D01*
X1478814Y976523D01*
X1478932Y976386D01*
X1479048Y976246D01*
X1479159Y976104D01*
X1479268Y975958D01*
X1479372Y975810D01*
X1479474Y975660D01*
X1479571Y975507D01*
X1479665Y975352D01*
X1479755Y975195D01*
X1479841Y975035D01*
X1479923Y974874D01*
X1480002Y974711D01*
X1480076Y974545D01*
X1480146Y974378D01*
X1480213Y974210D01*
X1480275Y974039D01*
X1480333Y973868D01*
X1480387Y973695D01*
X1480437Y973520D01*
X1480482Y973345D01*
X1480523Y973168D01*
X1480560Y972991D01*
X1480593Y972813D01*
X1480621Y972634D01*
X1480645Y972454D01*
X1480665Y972274D01*
X1480680Y972093D01*
X1480691Y971912D01*
X1480698Y971731D01*
X1480700Y971550D01*
X1480698Y971369D01*
X1480691Y971188D01*
X1480680Y971007D01*
X1480665Y970826D01*
X1480645Y970646D01*
X1480621Y970466D01*
X1480593Y970287D01*
X1480560Y970109D01*
X1480523Y969932D01*
X1480482Y969755D01*
X1480437Y969580D01*
X1480387Y969405D01*
X1480333Y969232D01*
X1480275Y969061D01*
X1480213Y968890D01*
X1480146Y968722D01*
X1480076Y968555D01*
X1480002Y968389D01*
X1479923Y968226D01*
X1479841Y968065D01*
X1479755Y967905D01*
X1479665Y967748D01*
X1479571Y967593D01*
X1479474Y967440D01*
X1479372Y967290D01*
X1479268Y967142D01*
X1479159Y966996D01*
X1479048Y966854D01*
X1478932Y966714D01*
X1478814Y966577D01*
X1478692Y966442D01*
X1478567Y966311D01*
X1478439Y966183D01*
X1478308Y966058D01*
X1478173Y965936D01*
X1478036Y965818D01*
X1477896Y965702D01*
X1477754Y965591D01*
X1477608Y965482D01*
X1477460Y965378D01*
X1477310Y965276D01*
X1477157Y965179D01*
X1477002Y965085D01*
X1476845Y964995D01*
X1476685Y964909D01*
X1476524Y964827D01*
X1476361Y964748D01*
X1476195Y964674D01*
X1476028Y964604D01*
X1475860Y964537D01*
X1475689Y964475D01*
X1475518Y964417D01*
X1475345Y964363D01*
X1475170Y964313D01*
X1474995Y964268D01*
X1474818Y964227D01*
X1474641Y964190D01*
X1474463Y964157D01*
X1474284Y964129D01*
X1474104Y964105D01*
X1473924Y964085D01*
X1473743Y964070D01*
X1473562Y964059D01*
X1473381Y964052D01*
X1473200Y964050D01*
X1473019Y964052D01*
X1472838Y964059D01*
X1472657Y964070D01*
X1472476Y964085D01*
X1472296Y964105D01*
X1472116Y964129D01*
X1471937Y964157D01*
X1471759Y964190D01*
X1471582Y964227D01*
X1471405Y964268D01*
X1471230Y964313D01*
X1471055Y964363D01*
X1470882Y964417D01*
X1470711Y964475D01*
X1470540Y964537D01*
X1470372Y964604D01*
X1470205Y964674D01*
X1470039Y964748D01*
X1469876Y964827D01*
X1469715Y964909D01*
X1469555Y964995D01*
X1469398Y965085D01*
X1469243Y965179D01*
X1469090Y965276D01*
X1468940Y965378D01*
X1468792Y965482D01*
X1468646Y965591D01*
X1468504Y965702D01*
X1468364Y965818D01*
X1468227Y965936D01*
X1468092Y966058D01*
X1467961Y966183D01*
X1467833Y966311D01*
X1467708Y966442D01*
X1467586Y966577D01*
X1467468Y966714D01*
X1467352Y966854D01*
X1467241Y966996D01*
X1467132Y967142D01*
X1467028Y967290D01*
X1466926Y967440D01*
X1466829Y967593D01*
X1466735Y967748D01*
X1466645Y967905D01*
X1466559Y968065D01*
X1466477Y968226D01*
X1466398Y968389D01*
X1466324Y968555D01*
X1466254Y968722D01*
X1466187Y968890D01*
X1466125Y969061D01*
X1466067Y969232D01*
X1466013Y969405D01*
X1465963Y969580D01*
X1465918Y969755D01*
X1465877Y969932D01*
X1465840Y970109D01*
X1465807Y970287D01*
X1465779Y970466D01*
X1465755Y970646D01*
X1465735Y970826D01*
X1465720Y971007D01*
X1465709Y971188D01*
X1465702Y971369D01*
X1465700Y971550D01*
D15*
X977900Y971550D03*
D16*
X977900Y979050D02*
X977719Y979048D01*
X977538Y979041D01*
X977357Y979030D01*
X977176Y979015D01*
X976996Y978995D01*
X976816Y978971D01*
X976637Y978943D01*
X976459Y978910D01*
X976282Y978873D01*
X976105Y978832D01*
X975930Y978787D01*
X975755Y978737D01*
X975582Y978683D01*
X975411Y978625D01*
X975240Y978563D01*
X975072Y978496D01*
X974905Y978426D01*
X974739Y978352D01*
X974576Y978273D01*
X974415Y978191D01*
X974255Y978105D01*
X974098Y978015D01*
X973943Y977921D01*
X973790Y977824D01*
X973640Y977722D01*
X973492Y977618D01*
X973346Y977509D01*
X973204Y977398D01*
X973064Y977282D01*
X972927Y977164D01*
X972792Y977042D01*
X972661Y976917D01*
X972533Y976789D01*
X972408Y976658D01*
X972286Y976523D01*
X972168Y976386D01*
X972052Y976246D01*
X971941Y976104D01*
X971832Y975958D01*
X971728Y975810D01*
X971626Y975660D01*
X971529Y975507D01*
X971435Y975352D01*
X971345Y975195D01*
X971259Y975035D01*
X971177Y974874D01*
X971098Y974711D01*
X971024Y974545D01*
X970954Y974378D01*
X970887Y974210D01*
X970825Y974039D01*
X970767Y973868D01*
X970713Y973695D01*
X970663Y973520D01*
X970618Y973345D01*
X970577Y973168D01*
X970540Y972991D01*
X970507Y972813D01*
X970479Y972634D01*
X970455Y972454D01*
X970435Y972274D01*
X970420Y972093D01*
X970409Y971912D01*
X970402Y971731D01*
X970400Y971550D01*
X977900Y979050D02*
X978081Y979048D01*
X978262Y979041D01*
X978443Y979030D01*
X978624Y979015D01*
X978804Y978995D01*
X978984Y978971D01*
X979163Y978943D01*
X979341Y978910D01*
X979518Y978873D01*
X979695Y978832D01*
X979870Y978787D01*
X980045Y978737D01*
X980218Y978683D01*
X980389Y978625D01*
X980560Y978563D01*
X980728Y978496D01*
X980895Y978426D01*
X981061Y978352D01*
X981224Y978273D01*
X981385Y978191D01*
X981545Y978105D01*
X981702Y978015D01*
X981857Y977921D01*
X982010Y977824D01*
X982160Y977722D01*
X982308Y977618D01*
X982454Y977509D01*
X982596Y977398D01*
X982736Y977282D01*
X982873Y977164D01*
X983008Y977042D01*
X983139Y976917D01*
X983267Y976789D01*
X983392Y976658D01*
X983514Y976523D01*
X983632Y976386D01*
X983748Y976246D01*
X983859Y976104D01*
X983968Y975958D01*
X984072Y975810D01*
X984174Y975660D01*
X984271Y975507D01*
X984365Y975352D01*
X984455Y975195D01*
X984541Y975035D01*
X984623Y974874D01*
X984702Y974711D01*
X984776Y974545D01*
X984846Y974378D01*
X984913Y974210D01*
X984975Y974039D01*
X985033Y973868D01*
X985087Y973695D01*
X985137Y973520D01*
X985182Y973345D01*
X985223Y973168D01*
X985260Y972991D01*
X985293Y972813D01*
X985321Y972634D01*
X985345Y972454D01*
X985365Y972274D01*
X985380Y972093D01*
X985391Y971912D01*
X985398Y971731D01*
X985400Y971550D01*
X985398Y971369D01*
X985391Y971188D01*
X985380Y971007D01*
X985365Y970826D01*
X985345Y970646D01*
X985321Y970466D01*
X985293Y970287D01*
X985260Y970109D01*
X985223Y969932D01*
X985182Y969755D01*
X985137Y969580D01*
X985087Y969405D01*
X985033Y969232D01*
X984975Y969061D01*
X984913Y968890D01*
X984846Y968722D01*
X984776Y968555D01*
X984702Y968389D01*
X984623Y968226D01*
X984541Y968065D01*
X984455Y967905D01*
X984365Y967748D01*
X984271Y967593D01*
X984174Y967440D01*
X984072Y967290D01*
X983968Y967142D01*
X983859Y966996D01*
X983748Y966854D01*
X983632Y966714D01*
X983514Y966577D01*
X983392Y966442D01*
X983267Y966311D01*
X983139Y966183D01*
X983008Y966058D01*
X982873Y965936D01*
X982736Y965818D01*
X982596Y965702D01*
X982454Y965591D01*
X982308Y965482D01*
X982160Y965378D01*
X982010Y965276D01*
X981857Y965179D01*
X981702Y965085D01*
X981545Y964995D01*
X981385Y964909D01*
X981224Y964827D01*
X981061Y964748D01*
X980895Y964674D01*
X980728Y964604D01*
X980560Y964537D01*
X980389Y964475D01*
X980218Y964417D01*
X980045Y964363D01*
X979870Y964313D01*
X979695Y964268D01*
X979518Y964227D01*
X979341Y964190D01*
X979163Y964157D01*
X978984Y964129D01*
X978804Y964105D01*
X978624Y964085D01*
X978443Y964070D01*
X978262Y964059D01*
X978081Y964052D01*
X977900Y964050D01*
X977719Y964052D01*
X977538Y964059D01*
X977357Y964070D01*
X977176Y964085D01*
X976996Y964105D01*
X976816Y964129D01*
X976637Y964157D01*
X976459Y964190D01*
X976282Y964227D01*
X976105Y964268D01*
X975930Y964313D01*
X975755Y964363D01*
X975582Y964417D01*
X975411Y964475D01*
X975240Y964537D01*
X975072Y964604D01*
X974905Y964674D01*
X974739Y964748D01*
X974576Y964827D01*
X974415Y964909D01*
X974255Y964995D01*
X974098Y965085D01*
X973943Y965179D01*
X973790Y965276D01*
X973640Y965378D01*
X973492Y965482D01*
X973346Y965591D01*
X973204Y965702D01*
X973064Y965818D01*
X972927Y965936D01*
X972792Y966058D01*
X972661Y966183D01*
X972533Y966311D01*
X972408Y966442D01*
X972286Y966577D01*
X972168Y966714D01*
X972052Y966854D01*
X971941Y966996D01*
X971832Y967142D01*
X971728Y967290D01*
X971626Y967440D01*
X971529Y967593D01*
X971435Y967748D01*
X971345Y967905D01*
X971259Y968065D01*
X971177Y968226D01*
X971098Y968389D01*
X971024Y968555D01*
X970954Y968722D01*
X970887Y968890D01*
X970825Y969061D01*
X970767Y969232D01*
X970713Y969405D01*
X970663Y969580D01*
X970618Y969755D01*
X970577Y969932D01*
X970540Y970109D01*
X970507Y970287D01*
X970479Y970466D01*
X970455Y970646D01*
X970435Y970826D01*
X970420Y971007D01*
X970409Y971188D01*
X970402Y971369D01*
X970400Y971550D01*
D15*
X476250Y1117600D03*
D16*
X476250Y1125100D02*
X476069Y1125098D01*
X475888Y1125091D01*
X475707Y1125080D01*
X475526Y1125065D01*
X475346Y1125045D01*
X475166Y1125021D01*
X474987Y1124993D01*
X474809Y1124960D01*
X474632Y1124923D01*
X474455Y1124882D01*
X474280Y1124837D01*
X474105Y1124787D01*
X473932Y1124733D01*
X473761Y1124675D01*
X473590Y1124613D01*
X473422Y1124546D01*
X473255Y1124476D01*
X473089Y1124402D01*
X472926Y1124323D01*
X472765Y1124241D01*
X472605Y1124155D01*
X472448Y1124065D01*
X472293Y1123971D01*
X472140Y1123874D01*
X471990Y1123772D01*
X471842Y1123668D01*
X471696Y1123559D01*
X471554Y1123448D01*
X471414Y1123332D01*
X471277Y1123214D01*
X471142Y1123092D01*
X471011Y1122967D01*
X470883Y1122839D01*
X470758Y1122708D01*
X470636Y1122573D01*
X470518Y1122436D01*
X470402Y1122296D01*
X470291Y1122154D01*
X470182Y1122008D01*
X470078Y1121860D01*
X469976Y1121710D01*
X469879Y1121557D01*
X469785Y1121402D01*
X469695Y1121245D01*
X469609Y1121085D01*
X469527Y1120924D01*
X469448Y1120761D01*
X469374Y1120595D01*
X469304Y1120428D01*
X469237Y1120260D01*
X469175Y1120089D01*
X469117Y1119918D01*
X469063Y1119745D01*
X469013Y1119570D01*
X468968Y1119395D01*
X468927Y1119218D01*
X468890Y1119041D01*
X468857Y1118863D01*
X468829Y1118684D01*
X468805Y1118504D01*
X468785Y1118324D01*
X468770Y1118143D01*
X468759Y1117962D01*
X468752Y1117781D01*
X468750Y1117600D01*
X476250Y1125100D02*
X476431Y1125098D01*
X476612Y1125091D01*
X476793Y1125080D01*
X476974Y1125065D01*
X477154Y1125045D01*
X477334Y1125021D01*
X477513Y1124993D01*
X477691Y1124960D01*
X477868Y1124923D01*
X478045Y1124882D01*
X478220Y1124837D01*
X478395Y1124787D01*
X478568Y1124733D01*
X478739Y1124675D01*
X478910Y1124613D01*
X479078Y1124546D01*
X479245Y1124476D01*
X479411Y1124402D01*
X479574Y1124323D01*
X479735Y1124241D01*
X479895Y1124155D01*
X480052Y1124065D01*
X480207Y1123971D01*
X480360Y1123874D01*
X480510Y1123772D01*
X480658Y1123668D01*
X480804Y1123559D01*
X480946Y1123448D01*
X481086Y1123332D01*
X481223Y1123214D01*
X481358Y1123092D01*
X481489Y1122967D01*
X481617Y1122839D01*
X481742Y1122708D01*
X481864Y1122573D01*
X481982Y1122436D01*
X482098Y1122296D01*
X482209Y1122154D01*
X482318Y1122008D01*
X482422Y1121860D01*
X482524Y1121710D01*
X482621Y1121557D01*
X482715Y1121402D01*
X482805Y1121245D01*
X482891Y1121085D01*
X482973Y1120924D01*
X483052Y1120761D01*
X483126Y1120595D01*
X483196Y1120428D01*
X483263Y1120260D01*
X483325Y1120089D01*
X483383Y1119918D01*
X483437Y1119745D01*
X483487Y1119570D01*
X483532Y1119395D01*
X483573Y1119218D01*
X483610Y1119041D01*
X483643Y1118863D01*
X483671Y1118684D01*
X483695Y1118504D01*
X483715Y1118324D01*
X483730Y1118143D01*
X483741Y1117962D01*
X483748Y1117781D01*
X483750Y1117600D01*
X483748Y1117419D01*
X483741Y1117238D01*
X483730Y1117057D01*
X483715Y1116876D01*
X483695Y1116696D01*
X483671Y1116516D01*
X483643Y1116337D01*
X483610Y1116159D01*
X483573Y1115982D01*
X483532Y1115805D01*
X483487Y1115630D01*
X483437Y1115455D01*
X483383Y1115282D01*
X483325Y1115111D01*
X483263Y1114940D01*
X483196Y1114772D01*
X483126Y1114605D01*
X483052Y1114439D01*
X482973Y1114276D01*
X482891Y1114115D01*
X482805Y1113955D01*
X482715Y1113798D01*
X482621Y1113643D01*
X482524Y1113490D01*
X482422Y1113340D01*
X482318Y1113192D01*
X482209Y1113046D01*
X482098Y1112904D01*
X481982Y1112764D01*
X481864Y1112627D01*
X481742Y1112492D01*
X481617Y1112361D01*
X481489Y1112233D01*
X481358Y1112108D01*
X481223Y1111986D01*
X481086Y1111868D01*
X480946Y1111752D01*
X480804Y1111641D01*
X480658Y1111532D01*
X480510Y1111428D01*
X480360Y1111326D01*
X480207Y1111229D01*
X480052Y1111135D01*
X479895Y1111045D01*
X479735Y1110959D01*
X479574Y1110877D01*
X479411Y1110798D01*
X479245Y1110724D01*
X479078Y1110654D01*
X478910Y1110587D01*
X478739Y1110525D01*
X478568Y1110467D01*
X478395Y1110413D01*
X478220Y1110363D01*
X478045Y1110318D01*
X477868Y1110277D01*
X477691Y1110240D01*
X477513Y1110207D01*
X477334Y1110179D01*
X477154Y1110155D01*
X476974Y1110135D01*
X476793Y1110120D01*
X476612Y1110109D01*
X476431Y1110102D01*
X476250Y1110100D01*
X476069Y1110102D01*
X475888Y1110109D01*
X475707Y1110120D01*
X475526Y1110135D01*
X475346Y1110155D01*
X475166Y1110179D01*
X474987Y1110207D01*
X474809Y1110240D01*
X474632Y1110277D01*
X474455Y1110318D01*
X474280Y1110363D01*
X474105Y1110413D01*
X473932Y1110467D01*
X473761Y1110525D01*
X473590Y1110587D01*
X473422Y1110654D01*
X473255Y1110724D01*
X473089Y1110798D01*
X472926Y1110877D01*
X472765Y1110959D01*
X472605Y1111045D01*
X472448Y1111135D01*
X472293Y1111229D01*
X472140Y1111326D01*
X471990Y1111428D01*
X471842Y1111532D01*
X471696Y1111641D01*
X471554Y1111752D01*
X471414Y1111868D01*
X471277Y1111986D01*
X471142Y1112108D01*
X471011Y1112233D01*
X470883Y1112361D01*
X470758Y1112492D01*
X470636Y1112627D01*
X470518Y1112764D01*
X470402Y1112904D01*
X470291Y1113046D01*
X470182Y1113192D01*
X470078Y1113340D01*
X469976Y1113490D01*
X469879Y1113643D01*
X469785Y1113798D01*
X469695Y1113955D01*
X469609Y1114115D01*
X469527Y1114276D01*
X469448Y1114439D01*
X469374Y1114605D01*
X469304Y1114772D01*
X469237Y1114940D01*
X469175Y1115111D01*
X469117Y1115282D01*
X469063Y1115455D01*
X469013Y1115630D01*
X468968Y1115805D01*
X468927Y1115982D01*
X468890Y1116159D01*
X468857Y1116337D01*
X468829Y1116516D01*
X468805Y1116696D01*
X468785Y1116876D01*
X468770Y1117057D01*
X468759Y1117238D01*
X468752Y1117419D01*
X468750Y1117600D01*
D15*
X476250Y25400D03*
D16*
X476250Y32900D02*
X476069Y32898D01*
X475888Y32891D01*
X475707Y32880D01*
X475526Y32865D01*
X475346Y32845D01*
X475166Y32821D01*
X474987Y32793D01*
X474809Y32760D01*
X474632Y32723D01*
X474455Y32682D01*
X474280Y32637D01*
X474105Y32587D01*
X473932Y32533D01*
X473761Y32475D01*
X473590Y32413D01*
X473422Y32346D01*
X473255Y32276D01*
X473089Y32202D01*
X472926Y32123D01*
X472765Y32041D01*
X472605Y31955D01*
X472448Y31865D01*
X472293Y31771D01*
X472140Y31674D01*
X471990Y31572D01*
X471842Y31468D01*
X471696Y31359D01*
X471554Y31248D01*
X471414Y31132D01*
X471277Y31014D01*
X471142Y30892D01*
X471011Y30767D01*
X470883Y30639D01*
X470758Y30508D01*
X470636Y30373D01*
X470518Y30236D01*
X470402Y30096D01*
X470291Y29954D01*
X470182Y29808D01*
X470078Y29660D01*
X469976Y29510D01*
X469879Y29357D01*
X469785Y29202D01*
X469695Y29045D01*
X469609Y28885D01*
X469527Y28724D01*
X469448Y28561D01*
X469374Y28395D01*
X469304Y28228D01*
X469237Y28060D01*
X469175Y27889D01*
X469117Y27718D01*
X469063Y27545D01*
X469013Y27370D01*
X468968Y27195D01*
X468927Y27018D01*
X468890Y26841D01*
X468857Y26663D01*
X468829Y26484D01*
X468805Y26304D01*
X468785Y26124D01*
X468770Y25943D01*
X468759Y25762D01*
X468752Y25581D01*
X468750Y25400D01*
X476250Y32900D02*
X476431Y32898D01*
X476612Y32891D01*
X476793Y32880D01*
X476974Y32865D01*
X477154Y32845D01*
X477334Y32821D01*
X477513Y32793D01*
X477691Y32760D01*
X477868Y32723D01*
X478045Y32682D01*
X478220Y32637D01*
X478395Y32587D01*
X478568Y32533D01*
X478739Y32475D01*
X478910Y32413D01*
X479078Y32346D01*
X479245Y32276D01*
X479411Y32202D01*
X479574Y32123D01*
X479735Y32041D01*
X479895Y31955D01*
X480052Y31865D01*
X480207Y31771D01*
X480360Y31674D01*
X480510Y31572D01*
X480658Y31468D01*
X480804Y31359D01*
X480946Y31248D01*
X481086Y31132D01*
X481223Y31014D01*
X481358Y30892D01*
X481489Y30767D01*
X481617Y30639D01*
X481742Y30508D01*
X481864Y30373D01*
X481982Y30236D01*
X482098Y30096D01*
X482209Y29954D01*
X482318Y29808D01*
X482422Y29660D01*
X482524Y29510D01*
X482621Y29357D01*
X482715Y29202D01*
X482805Y29045D01*
X482891Y28885D01*
X482973Y28724D01*
X483052Y28561D01*
X483126Y28395D01*
X483196Y28228D01*
X483263Y28060D01*
X483325Y27889D01*
X483383Y27718D01*
X483437Y27545D01*
X483487Y27370D01*
X483532Y27195D01*
X483573Y27018D01*
X483610Y26841D01*
X483643Y26663D01*
X483671Y26484D01*
X483695Y26304D01*
X483715Y26124D01*
X483730Y25943D01*
X483741Y25762D01*
X483748Y25581D01*
X483750Y25400D01*
X483748Y25219D01*
X483741Y25038D01*
X483730Y24857D01*
X483715Y24676D01*
X483695Y24496D01*
X483671Y24316D01*
X483643Y24137D01*
X483610Y23959D01*
X483573Y23782D01*
X483532Y23605D01*
X483487Y23430D01*
X483437Y23255D01*
X483383Y23082D01*
X483325Y22911D01*
X483263Y22740D01*
X483196Y22572D01*
X483126Y22405D01*
X483052Y22239D01*
X482973Y22076D01*
X482891Y21915D01*
X482805Y21755D01*
X482715Y21598D01*
X482621Y21443D01*
X482524Y21290D01*
X482422Y21140D01*
X482318Y20992D01*
X482209Y20846D01*
X482098Y20704D01*
X481982Y20564D01*
X481864Y20427D01*
X481742Y20292D01*
X481617Y20161D01*
X481489Y20033D01*
X481358Y19908D01*
X481223Y19786D01*
X481086Y19668D01*
X480946Y19552D01*
X480804Y19441D01*
X480658Y19332D01*
X480510Y19228D01*
X480360Y19126D01*
X480207Y19029D01*
X480052Y18935D01*
X479895Y18845D01*
X479735Y18759D01*
X479574Y18677D01*
X479411Y18598D01*
X479245Y18524D01*
X479078Y18454D01*
X478910Y18387D01*
X478739Y18325D01*
X478568Y18267D01*
X478395Y18213D01*
X478220Y18163D01*
X478045Y18118D01*
X477868Y18077D01*
X477691Y18040D01*
X477513Y18007D01*
X477334Y17979D01*
X477154Y17955D01*
X476974Y17935D01*
X476793Y17920D01*
X476612Y17909D01*
X476431Y17902D01*
X476250Y17900D01*
X476069Y17902D01*
X475888Y17909D01*
X475707Y17920D01*
X475526Y17935D01*
X475346Y17955D01*
X475166Y17979D01*
X474987Y18007D01*
X474809Y18040D01*
X474632Y18077D01*
X474455Y18118D01*
X474280Y18163D01*
X474105Y18213D01*
X473932Y18267D01*
X473761Y18325D01*
X473590Y18387D01*
X473422Y18454D01*
X473255Y18524D01*
X473089Y18598D01*
X472926Y18677D01*
X472765Y18759D01*
X472605Y18845D01*
X472448Y18935D01*
X472293Y19029D01*
X472140Y19126D01*
X471990Y19228D01*
X471842Y19332D01*
X471696Y19441D01*
X471554Y19552D01*
X471414Y19668D01*
X471277Y19786D01*
X471142Y19908D01*
X471011Y20033D01*
X470883Y20161D01*
X470758Y20292D01*
X470636Y20427D01*
X470518Y20564D01*
X470402Y20704D01*
X470291Y20846D01*
X470182Y20992D01*
X470078Y21140D01*
X469976Y21290D01*
X469879Y21443D01*
X469785Y21598D01*
X469695Y21755D01*
X469609Y21915D01*
X469527Y22076D01*
X469448Y22239D01*
X469374Y22405D01*
X469304Y22572D01*
X469237Y22740D01*
X469175Y22911D01*
X469117Y23082D01*
X469063Y23255D01*
X469013Y23430D01*
X468968Y23605D01*
X468927Y23782D01*
X468890Y23959D01*
X468857Y24137D01*
X468829Y24316D01*
X468805Y24496D01*
X468785Y24676D01*
X468770Y24857D01*
X468759Y25038D01*
X468752Y25219D01*
X468750Y25400D01*
D15*
X25400Y1117600D03*
D16*
X25400Y1125100D02*
X25219Y1125098D01*
X25038Y1125091D01*
X24857Y1125080D01*
X24676Y1125065D01*
X24496Y1125045D01*
X24316Y1125021D01*
X24137Y1124993D01*
X23959Y1124960D01*
X23782Y1124923D01*
X23605Y1124882D01*
X23430Y1124837D01*
X23255Y1124787D01*
X23082Y1124733D01*
X22911Y1124675D01*
X22740Y1124613D01*
X22572Y1124546D01*
X22405Y1124476D01*
X22239Y1124402D01*
X22076Y1124323D01*
X21915Y1124241D01*
X21755Y1124155D01*
X21598Y1124065D01*
X21443Y1123971D01*
X21290Y1123874D01*
X21140Y1123772D01*
X20992Y1123668D01*
X20846Y1123559D01*
X20704Y1123448D01*
X20564Y1123332D01*
X20427Y1123214D01*
X20292Y1123092D01*
X20161Y1122967D01*
X20033Y1122839D01*
X19908Y1122708D01*
X19786Y1122573D01*
X19668Y1122436D01*
X19552Y1122296D01*
X19441Y1122154D01*
X19332Y1122008D01*
X19228Y1121860D01*
X19126Y1121710D01*
X19029Y1121557D01*
X18935Y1121402D01*
X18845Y1121245D01*
X18759Y1121085D01*
X18677Y1120924D01*
X18598Y1120761D01*
X18524Y1120595D01*
X18454Y1120428D01*
X18387Y1120260D01*
X18325Y1120089D01*
X18267Y1119918D01*
X18213Y1119745D01*
X18163Y1119570D01*
X18118Y1119395D01*
X18077Y1119218D01*
X18040Y1119041D01*
X18007Y1118863D01*
X17979Y1118684D01*
X17955Y1118504D01*
X17935Y1118324D01*
X17920Y1118143D01*
X17909Y1117962D01*
X17902Y1117781D01*
X17900Y1117600D01*
X25400Y1125100D02*
X25581Y1125098D01*
X25762Y1125091D01*
X25943Y1125080D01*
X26124Y1125065D01*
X26304Y1125045D01*
X26484Y1125021D01*
X26663Y1124993D01*
X26841Y1124960D01*
X27018Y1124923D01*
X27195Y1124882D01*
X27370Y1124837D01*
X27545Y1124787D01*
X27718Y1124733D01*
X27889Y1124675D01*
X28060Y1124613D01*
X28228Y1124546D01*
X28395Y1124476D01*
X28561Y1124402D01*
X28724Y1124323D01*
X28885Y1124241D01*
X29045Y1124155D01*
X29202Y1124065D01*
X29357Y1123971D01*
X29510Y1123874D01*
X29660Y1123772D01*
X29808Y1123668D01*
X29954Y1123559D01*
X30096Y1123448D01*
X30236Y1123332D01*
X30373Y1123214D01*
X30508Y1123092D01*
X30639Y1122967D01*
X30767Y1122839D01*
X30892Y1122708D01*
X31014Y1122573D01*
X31132Y1122436D01*
X31248Y1122296D01*
X31359Y1122154D01*
X31468Y1122008D01*
X31572Y1121860D01*
X31674Y1121710D01*
X31771Y1121557D01*
X31865Y1121402D01*
X31955Y1121245D01*
X32041Y1121085D01*
X32123Y1120924D01*
X32202Y1120761D01*
X32276Y1120595D01*
X32346Y1120428D01*
X32413Y1120260D01*
X32475Y1120089D01*
X32533Y1119918D01*
X32587Y1119745D01*
X32637Y1119570D01*
X32682Y1119395D01*
X32723Y1119218D01*
X32760Y1119041D01*
X32793Y1118863D01*
X32821Y1118684D01*
X32845Y1118504D01*
X32865Y1118324D01*
X32880Y1118143D01*
X32891Y1117962D01*
X32898Y1117781D01*
X32900Y1117600D01*
X32898Y1117419D01*
X32891Y1117238D01*
X32880Y1117057D01*
X32865Y1116876D01*
X32845Y1116696D01*
X32821Y1116516D01*
X32793Y1116337D01*
X32760Y1116159D01*
X32723Y1115982D01*
X32682Y1115805D01*
X32637Y1115630D01*
X32587Y1115455D01*
X32533Y1115282D01*
X32475Y1115111D01*
X32413Y1114940D01*
X32346Y1114772D01*
X32276Y1114605D01*
X32202Y1114439D01*
X32123Y1114276D01*
X32041Y1114115D01*
X31955Y1113955D01*
X31865Y1113798D01*
X31771Y1113643D01*
X31674Y1113490D01*
X31572Y1113340D01*
X31468Y1113192D01*
X31359Y1113046D01*
X31248Y1112904D01*
X31132Y1112764D01*
X31014Y1112627D01*
X30892Y1112492D01*
X30767Y1112361D01*
X30639Y1112233D01*
X30508Y1112108D01*
X30373Y1111986D01*
X30236Y1111868D01*
X30096Y1111752D01*
X29954Y1111641D01*
X29808Y1111532D01*
X29660Y1111428D01*
X29510Y1111326D01*
X29357Y1111229D01*
X29202Y1111135D01*
X29045Y1111045D01*
X28885Y1110959D01*
X28724Y1110877D01*
X28561Y1110798D01*
X28395Y1110724D01*
X28228Y1110654D01*
X28060Y1110587D01*
X27889Y1110525D01*
X27718Y1110467D01*
X27545Y1110413D01*
X27370Y1110363D01*
X27195Y1110318D01*
X27018Y1110277D01*
X26841Y1110240D01*
X26663Y1110207D01*
X26484Y1110179D01*
X26304Y1110155D01*
X26124Y1110135D01*
X25943Y1110120D01*
X25762Y1110109D01*
X25581Y1110102D01*
X25400Y1110100D01*
X25219Y1110102D01*
X25038Y1110109D01*
X24857Y1110120D01*
X24676Y1110135D01*
X24496Y1110155D01*
X24316Y1110179D01*
X24137Y1110207D01*
X23959Y1110240D01*
X23782Y1110277D01*
X23605Y1110318D01*
X23430Y1110363D01*
X23255Y1110413D01*
X23082Y1110467D01*
X22911Y1110525D01*
X22740Y1110587D01*
X22572Y1110654D01*
X22405Y1110724D01*
X22239Y1110798D01*
X22076Y1110877D01*
X21915Y1110959D01*
X21755Y1111045D01*
X21598Y1111135D01*
X21443Y1111229D01*
X21290Y1111326D01*
X21140Y1111428D01*
X20992Y1111532D01*
X20846Y1111641D01*
X20704Y1111752D01*
X20564Y1111868D01*
X20427Y1111986D01*
X20292Y1112108D01*
X20161Y1112233D01*
X20033Y1112361D01*
X19908Y1112492D01*
X19786Y1112627D01*
X19668Y1112764D01*
X19552Y1112904D01*
X19441Y1113046D01*
X19332Y1113192D01*
X19228Y1113340D01*
X19126Y1113490D01*
X19029Y1113643D01*
X18935Y1113798D01*
X18845Y1113955D01*
X18759Y1114115D01*
X18677Y1114276D01*
X18598Y1114439D01*
X18524Y1114605D01*
X18454Y1114772D01*
X18387Y1114940D01*
X18325Y1115111D01*
X18267Y1115282D01*
X18213Y1115455D01*
X18163Y1115630D01*
X18118Y1115805D01*
X18077Y1115982D01*
X18040Y1116159D01*
X18007Y1116337D01*
X17979Y1116516D01*
X17955Y1116696D01*
X17935Y1116876D01*
X17920Y1117057D01*
X17909Y1117238D01*
X17902Y1117419D01*
X17900Y1117600D01*
D17*
X96650Y800775D03*
X96650Y795775D03*
X96650Y790775D03*
X96650Y785775D03*
X96650Y780775D03*
X96650Y775775D03*
X96650Y770775D03*
X96650Y765775D03*
X96650Y760775D03*
X96650Y755775D03*
X96650Y805775D03*
X96650Y810775D03*
X96650Y815775D03*
X96650Y820775D03*
X96650Y825775D03*
X96650Y830775D03*
X96650Y835775D03*
X96650Y840775D03*
X96650Y845775D03*
D18*
X87150Y875775D03*
X87150Y730775D03*
X38150Y724775D03*
X38150Y881775D03*
D17*
X96650Y603925D03*
X96650Y598925D03*
X96650Y593925D03*
X96650Y588925D03*
X96650Y583925D03*
X96650Y578925D03*
X96650Y573925D03*
X96650Y568925D03*
X96650Y563925D03*
X96650Y558925D03*
X96650Y608925D03*
X96650Y613925D03*
X96650Y618925D03*
X96650Y623925D03*
X96650Y628925D03*
X96650Y633925D03*
X96650Y638925D03*
X96650Y643925D03*
X96650Y648925D03*
D18*
X87150Y678925D03*
X87150Y533925D03*
X38150Y527925D03*
X38150Y684925D03*
D17*
X96650Y403900D03*
X96650Y398900D03*
X96650Y393900D03*
X96650Y388900D03*
X96650Y383900D03*
X96650Y378900D03*
X96650Y373900D03*
X96650Y368900D03*
X96650Y363900D03*
X96650Y358900D03*
X96650Y408900D03*
X96650Y413900D03*
X96650Y418900D03*
X96650Y423900D03*
X96650Y428900D03*
X96650Y433900D03*
X96650Y438900D03*
X96650Y443900D03*
X96650Y448900D03*
D18*
X87150Y478900D03*
X87150Y333900D03*
X38150Y327900D03*
X38150Y484900D03*
D17*
X96650Y99100D03*
X96650Y94100D03*
X96650Y89100D03*
X96650Y84100D03*
X96650Y79100D03*
X96650Y74100D03*
X96650Y69100D03*
X96650Y64100D03*
X96650Y59100D03*
X96650Y54100D03*
X96650Y104100D03*
X96650Y109100D03*
X96650Y114100D03*
X96650Y119100D03*
X96650Y124100D03*
X96650Y129100D03*
X96650Y134100D03*
X96650Y139100D03*
X96650Y144100D03*
D18*
X87150Y174100D03*
X87150Y29100D03*
X38150Y23100D03*
X38150Y180100D03*
D19*
X1155700Y990000D03*
X1155700Y1042000D03*
X1143000Y990000D03*
X1168400Y990000D03*
X1181100Y990000D03*
X1143000Y1042000D03*
X1168400Y1042000D03*
X1181100Y1042000D03*
D20*
X277800Y1050925D03*
D21*
X206000Y1073725D03*
X206000Y1028125D03*
D22*
X1181354Y1092200D02*
X1193546Y1092200D01*
X1257554Y1092200D02*
X1269746Y1092200D01*
D23*
X406400Y76200D03*
X76200Y266700D03*
X406400Y1066800D03*
X76200Y939800D03*
X1435100Y1079500D03*
X1016000Y1079500D03*
D24*
X245308Y428025D03*
X245308Y423025D03*
X245308Y418025D03*
X245308Y413025D03*
X245308Y408025D03*
X245308Y403025D03*
X245308Y398025D03*
X245308Y393025D03*
X245308Y388025D03*
X245308Y383025D03*
X245308Y378025D03*
X245308Y373025D03*
X245308Y368025D03*
X245308Y363025D03*
X245308Y358025D03*
X245308Y353025D03*
D25*
X264125Y334208D03*
X269125Y334208D03*
X274125Y334208D03*
X279125Y334208D03*
X284125Y334208D03*
X289125Y334208D03*
X294125Y334208D03*
X299125Y334208D03*
X304125Y334208D03*
X309125Y334208D03*
X314125Y334208D03*
X319125Y334208D03*
X324125Y334208D03*
X329125Y334208D03*
X334125Y334208D03*
X339125Y334208D03*
D24*
X357942Y353025D03*
X357942Y358025D03*
X357942Y363025D03*
X357942Y368025D03*
X357942Y373025D03*
X357942Y378025D03*
X357942Y383025D03*
X357942Y388025D03*
X357942Y393025D03*
X357942Y398025D03*
X357942Y403025D03*
X357942Y408025D03*
X357942Y413025D03*
X357942Y418025D03*
X357942Y423025D03*
X357942Y428025D03*
D25*
X339125Y446842D03*
X334125Y446842D03*
X329125Y446842D03*
X324125Y446842D03*
X319125Y446842D03*
X314125Y446842D03*
X309125Y446842D03*
X304125Y446842D03*
X299125Y446842D03*
X294125Y446842D03*
X289125Y446842D03*
X284125Y446842D03*
X279125Y446842D03*
X274125Y446842D03*
X269125Y446842D03*
X264125Y446842D03*
D26*
X114300Y450850D03*
X257175Y447675D03*
X114300Y650875D03*
X339725Y460375D03*
X114300Y847725D03*
X342900Y356561D03*
X114300Y146050D03*
X327025Y304800D03*
X114300Y432254D03*
X225425Y431800D03*
X79375Y428625D03*
X231928Y422428D03*
X114300Y632279D03*
X329184Y461772D03*
X79375Y628650D03*
X323850Y431800D03*
X79375Y825500D03*
X342900Y374650D03*
X114300Y829129D03*
X339725Y365125D03*
X130175Y123825D03*
X339725Y311150D03*
X114300Y120650D03*
X328907Y316207D03*
X120650Y133350D03*
X114300Y104775D03*
X114300Y88900D03*
X114300Y76200D03*
X114300Y60325D03*
X79353Y409553D03*
X79375Y393700D03*
X79153Y378047D03*
X79078Y364828D03*
X79375Y437643D03*
X79353Y609578D03*
X79375Y593725D03*
X79153Y578072D03*
X79078Y564853D03*
X79375Y637668D03*
X79353Y806428D03*
X79375Y790575D03*
X79153Y774922D03*
X79078Y761703D03*
X79375Y834518D03*
X203200Y1114425D03*
X203200Y1127125D03*
X222250Y1089025D03*
X222250Y1108075D03*
X212725Y1060450D03*
X193675Y1060450D03*
X184150Y1079500D03*
X171450Y1079500D03*
X1108075Y1047750D03*
X1120775Y1047750D03*
X1130300Y1031875D03*
X63500Y1054100D03*
X63500Y1069975D03*
X73025Y1079500D03*
X88900Y1079500D03*
X98425Y1069975D03*
X98425Y1054100D03*
X98425Y1038225D03*
X88900Y1028700D03*
X73025Y1028700D03*
X63500Y1038225D03*
X292100Y431800D03*
X260350Y390525D03*
X260350Y358775D03*
X288925Y349250D03*
X317500Y349250D03*
X342900Y400050D03*
X260350Y415925D03*
X200025Y352425D03*
X358775Y450850D03*
X241300Y1108075D03*
X266700Y1089025D03*
X279400Y1089025D03*
X292100Y1089025D03*
X304800Y1089025D03*
X317500Y1089025D03*
X317500Y1076325D03*
X317500Y1063625D03*
X317500Y1050925D03*
X317500Y1038225D03*
X317500Y1025525D03*
X317500Y1012825D03*
X304800Y1012825D03*
X292100Y1012825D03*
X279400Y1012825D03*
X266700Y1012825D03*
X254000Y1012825D03*
X241300Y1012825D03*
X241300Y1025525D03*
X241300Y1038225D03*
X241300Y1050925D03*
X241300Y1063625D03*
X241300Y1076325D03*
X260350Y1114425D03*
X260350Y1127125D03*
X254000Y1089025D03*
X241300Y1089025D03*
X1050925Y1006475D03*
X1165225Y1006475D03*
X1279525Y1006475D03*
X1120775Y990600D03*
X1108075Y990600D03*
X1130300Y1000125D03*
X279400Y431800D03*
X260612Y403025D03*
X260350Y371475D03*
X276225Y349250D03*
X304800Y349250D03*
X342900Y387350D03*
X307975Y431800D03*
X342900Y419100D03*
X231775Y352425D03*
X450850Y247650D03*
X1225550Y1022350D03*
X441325Y231775D03*
X1231900Y1012825D03*
X460081Y263231D03*
X1219200Y1031875D03*
X120650Y114300D03*
X79375Y419100D03*
X79375Y619125D03*
X79375Y815975D03*
X1079500Y1044575D03*
X1193800Y1044575D03*
X1308100Y1044575D03*
X123825Y142875D03*
X114300Y441325D03*
X114300Y641350D03*
X114300Y838200D03*
X212725Y1041400D03*
X193675Y1041400D03*
X184150Y1022350D03*
X171450Y1022350D03*
X127000Y1076325D03*
X127000Y1060450D03*
X127000Y1044575D03*
X127000Y1028700D03*
X142875Y1028700D03*
X158750Y1028700D03*
X158750Y1044575D03*
X155575Y1076325D03*
X231775Y438150D03*
X345821Y452628D03*
X336550Y431800D03*
X320675Y384175D03*
X320675Y365125D03*
M02*
