G04 EAGLE Gerber RS-274X export*
G75*
%MOMM*%
%FSLAX34Y34*%
%LPD*%
%INSoldermask Bottom*%
%IPPOS*%
%AMOC8*
5,1,8,0,0,1.08239X$1,22.5*%
G01*
%ADD10R,0.803200X0.903200*%
%ADD11R,0.903200X0.803200*%
%ADD12C,2.203200*%
%ADD13C,2.153200*%
%ADD14R,1.703200X1.503200*%
%ADD15R,1.503200X1.703200*%
%ADD16C,1.422400*%
%ADD17R,1.603200X1.803200*%
%ADD18C,6.654800*%
%ADD19C,0.959600*%


D10*
X280750Y441325D03*
X290750Y441325D03*
D11*
X250825Y401875D03*
X250825Y391875D03*
X250825Y370125D03*
X250825Y360125D03*
D10*
X277575Y339725D03*
X287575Y339725D03*
X309325Y339725D03*
X319325Y339725D03*
X347425Y441325D03*
X357425Y441325D03*
D12*
X142125Y1044100D02*
X142125Y1064100D01*
X81125Y1064100D02*
X81125Y1044100D01*
X101125Y1006100D02*
X121125Y1006100D01*
D13*
X87150Y875775D03*
X87150Y730775D03*
X38150Y724775D03*
X38150Y881775D03*
X87150Y678925D03*
X87150Y533925D03*
X38150Y527925D03*
X38150Y684925D03*
X87150Y478900D03*
X87150Y333900D03*
X38150Y327900D03*
X38150Y484900D03*
X87150Y174100D03*
X87150Y29100D03*
X38150Y23100D03*
X38150Y180100D03*
D10*
X210900Y352425D03*
X220900Y352425D03*
D14*
X1292225Y1025500D03*
X1292225Y1006500D03*
D11*
X241300Y426800D03*
X241300Y436800D03*
D10*
X332025Y374650D03*
X322025Y374650D03*
X325200Y441325D03*
X335200Y441325D03*
X319325Y320675D03*
X309325Y320675D03*
X319325Y330200D03*
X309325Y330200D03*
D15*
X1143025Y1092200D03*
X1162025Y1092200D03*
D14*
X1063625Y1025500D03*
X1063625Y1006500D03*
X1177925Y1025500D03*
X1177925Y1006500D03*
D16*
X1181354Y1092200D02*
X1193546Y1092200D01*
X1257554Y1092200D02*
X1269746Y1092200D01*
D17*
X1362350Y1058000D03*
X1362350Y974000D03*
X1339850Y974000D03*
X1317350Y974000D03*
X1317350Y1058000D03*
X1248050Y1058000D03*
X1248050Y974000D03*
X1225550Y974000D03*
X1203050Y974000D03*
X1203050Y1058000D03*
X1133750Y1058000D03*
X1133750Y974000D03*
X1111250Y974000D03*
X1088750Y974000D03*
X1088750Y1058000D03*
D18*
X406400Y76200D03*
X76200Y266700D03*
X406400Y1066800D03*
X76200Y939800D03*
X1435100Y1079500D03*
X1016000Y1079500D03*
D11*
X352425Y388700D03*
X352425Y398700D03*
D19*
X114300Y450850D03*
X257175Y447675D03*
X114300Y650875D03*
X339725Y460375D03*
X114300Y847725D03*
X342900Y356561D03*
X114300Y146050D03*
X327025Y304800D03*
X114300Y432254D03*
X225425Y431800D03*
X79375Y428625D03*
X231928Y422428D03*
X114300Y632279D03*
X329184Y461772D03*
X79375Y628650D03*
X323850Y431800D03*
X79375Y825500D03*
X342900Y374650D03*
X114300Y829129D03*
X339725Y365125D03*
X130175Y123825D03*
X339725Y311150D03*
X114300Y120650D03*
X328907Y316207D03*
X120650Y133350D03*
X114300Y104775D03*
X114300Y88900D03*
X114300Y76200D03*
X114300Y60325D03*
X79353Y409553D03*
X79375Y393700D03*
X79153Y378047D03*
X79078Y364828D03*
X79375Y437643D03*
X79353Y609578D03*
X79375Y593725D03*
X79153Y578072D03*
X79078Y564853D03*
X79375Y637668D03*
X79353Y806428D03*
X79375Y790575D03*
X79153Y774922D03*
X79078Y761703D03*
X79375Y834518D03*
X203200Y1114425D03*
X203200Y1127125D03*
X222250Y1089025D03*
X222250Y1108075D03*
X212725Y1060450D03*
X193675Y1060450D03*
X184150Y1079500D03*
X171450Y1079500D03*
X1108075Y1047750D03*
X1120775Y1047750D03*
X1130300Y1031875D03*
X63500Y1054100D03*
X63500Y1069975D03*
X73025Y1079500D03*
X88900Y1079500D03*
X98425Y1069975D03*
X98425Y1054100D03*
X98425Y1038225D03*
X88900Y1028700D03*
X73025Y1028700D03*
X63500Y1038225D03*
X292100Y431800D03*
X260350Y390525D03*
X260350Y358775D03*
X288925Y349250D03*
X317500Y349250D03*
X342900Y400050D03*
X260350Y415925D03*
X200025Y352425D03*
X358775Y450850D03*
X241300Y1108075D03*
X266700Y1089025D03*
X279400Y1089025D03*
X292100Y1089025D03*
X304800Y1089025D03*
X317500Y1089025D03*
X317500Y1076325D03*
X317500Y1063625D03*
X317500Y1050925D03*
X317500Y1038225D03*
X317500Y1025525D03*
X317500Y1012825D03*
X304800Y1012825D03*
X292100Y1012825D03*
X279400Y1012825D03*
X266700Y1012825D03*
X254000Y1012825D03*
X241300Y1012825D03*
X241300Y1025525D03*
X241300Y1038225D03*
X241300Y1050925D03*
X241300Y1063625D03*
X241300Y1076325D03*
X260350Y1114425D03*
X260350Y1127125D03*
X254000Y1089025D03*
X241300Y1089025D03*
X1050925Y1006475D03*
X1165225Y1006475D03*
X1279525Y1006475D03*
X1120775Y990600D03*
X1108075Y990600D03*
X1130300Y1000125D03*
X279400Y431800D03*
X260612Y403025D03*
X260350Y371475D03*
X276225Y349250D03*
X304800Y349250D03*
X342900Y387350D03*
X307975Y431800D03*
X342900Y419100D03*
X231775Y352425D03*
X450850Y247650D03*
X1225550Y1022350D03*
X441325Y231775D03*
X1231900Y1012825D03*
X460081Y263231D03*
X1219200Y1031875D03*
X120650Y114300D03*
X79375Y419100D03*
X79375Y619125D03*
X79375Y815975D03*
X1079500Y1044575D03*
X1193800Y1044575D03*
X1308100Y1044575D03*
X123825Y142875D03*
X114300Y441325D03*
X114300Y641350D03*
X114300Y838200D03*
X212725Y1041400D03*
X193675Y1041400D03*
X184150Y1022350D03*
X171450Y1022350D03*
X127000Y1076325D03*
X127000Y1060450D03*
X127000Y1044575D03*
X127000Y1028700D03*
X142875Y1028700D03*
X158750Y1028700D03*
X158750Y1044575D03*
X155575Y1076325D03*
X231775Y438150D03*
X345821Y452628D03*
X336550Y431800D03*
X320675Y384175D03*
X320675Y365125D03*
M02*
