G04 EAGLE Gerber RS-274X export*
G75*
%MOMM*%
%FSLAX34Y34*%
%LPD*%
%INSolderpaste Bottom*%
%IPPOS*%
%AMOC8*
5,1,8,0,0,1.08239X$1,22.5*%
G01*
%ADD10R,0.600000X0.700000*%
%ADD11R,0.700000X0.600000*%
%ADD12R,1.500000X1.300000*%
%ADD13R,1.300000X1.500000*%
%ADD14R,1.400000X1.600000*%


D10*
X280750Y441325D03*
X290750Y441325D03*
D11*
X250825Y401875D03*
X250825Y391875D03*
X250825Y370125D03*
X250825Y360125D03*
D10*
X277575Y339725D03*
X287575Y339725D03*
X309325Y339725D03*
X319325Y339725D03*
X347425Y441325D03*
X357425Y441325D03*
X210900Y352425D03*
X220900Y352425D03*
D12*
X1292225Y1025500D03*
X1292225Y1006500D03*
D11*
X241300Y426800D03*
X241300Y436800D03*
D10*
X332025Y374650D03*
X322025Y374650D03*
X325200Y441325D03*
X335200Y441325D03*
X319325Y320675D03*
X309325Y320675D03*
X319325Y330200D03*
X309325Y330200D03*
D13*
X1143025Y1092200D03*
X1162025Y1092200D03*
D12*
X1063625Y1025500D03*
X1063625Y1006500D03*
X1177925Y1025500D03*
X1177925Y1006500D03*
D14*
X1362350Y1058000D03*
X1362350Y974000D03*
X1339850Y974000D03*
X1317350Y974000D03*
X1317350Y1058000D03*
X1248050Y1058000D03*
X1248050Y974000D03*
X1225550Y974000D03*
X1203050Y974000D03*
X1203050Y1058000D03*
X1133750Y1058000D03*
X1133750Y974000D03*
X1111250Y974000D03*
X1088750Y974000D03*
X1088750Y1058000D03*
D11*
X352425Y388700D03*
X352425Y398700D03*
M02*
