M48
;GenerationSoftware,Autodesk,EAGLE,9.6.2*%
;CreationDate,2021-05-07T08:59:28Z*%
FMAT,2
ICI,OFF
METRIC,TZ,000.000
T6C0.350
T5C0.813
T4C1.000
T3C1.300
T2C3.000
%
G90
M71
T2
X101600Y107950
X143510Y107950
X7620Y93980
X40640Y106680
X7620Y26670
X40640Y7620
T3
X3815Y88177
X8715Y87577
X8715Y73078
X3815Y72478
X8715Y67893
X8715Y53392
X3815Y52792
X3815Y68493
X8715Y47890
X3815Y32790
X3815Y48490
X8715Y17410
X8715Y2910
X3815Y2310
X8715Y33390
X3815Y18010
T4
X11112Y100610
X14212Y105410
X8112Y105410
T5
X126365Y109220
X118745Y109220
T6
X112077Y99060
X110807Y99060
X113030Y100012
X27940Y43180
X26061Y40303
X26035Y37148
X27622Y34925
X30480Y34925
X34290Y38735
X30797Y43180
X34290Y41910
X23177Y35243
X45085Y24765
X122555Y102235
X26670Y101282
X44132Y23177
X127952Y100647
X116522Y100647
X105092Y100647
X24130Y108902
X25400Y108902
X26035Y112712
X26035Y111442
X24130Y107632
X24130Y106362
X24130Y105092
X24130Y103822
X24130Y102552
X24130Y101282
X25400Y101282
X27940Y101282
X19368Y104140
X32067Y36513
X32067Y38418
X33655Y43180
X34582Y45263
X23177Y43815
X15557Y107632
X15875Y104457
X15875Y102870
X14287Y102870
X12700Y102870
X12700Y104457
X12700Y106045
X12700Y107632
X17145Y102235
X18415Y102235
X123190Y101282
X21273Y104140
X11430Y83820
X11430Y64135
X11430Y44132
X12382Y14287
X130810Y104457
X119380Y104457
X107950Y104457
X7937Y81598
X7937Y61912
X7937Y41910
X12065Y11430
X121920Y103187
X46008Y26323
X7937Y43764
X32891Y31621
X12065Y13335
X11430Y10478
X11430Y8890
X11430Y7620
X11430Y6032
X7935Y40955
X7937Y39370
X7915Y37805
X7908Y36483
X11430Y12065
X7935Y60958
X7937Y59372
X7915Y57807
X7908Y56485
X7937Y63767
X7935Y80643
X7937Y79058
X7915Y77492
X7908Y76170
X7937Y83452
X23193Y42243
X25717Y44767
X11430Y65087
X33973Y46037
X11430Y84773
X34290Y35656
X11430Y14605
X32702Y30480
X11430Y43225
X22542Y43180
X7937Y42863
X20320Y111442
X11430Y63228
X32918Y46177
X7937Y62865
X32385Y43180
X7937Y82550
X34290Y37465
X11430Y82913
X33973Y36513
X13017Y12382
X33973Y31115
X29210Y108902
X26035Y35878
X28892Y34925
X31750Y34925
X34290Y40005
X26035Y41593
X20003Y35243
X35878Y45085
X24130Y110807
X26670Y108902
X27940Y108902
X26035Y39053
X30480Y108902
X31750Y108902
X31750Y107632
X31750Y106362
X31750Y105092
X31750Y103822
X31750Y102552
X31750Y101282
X30480Y101282
X29210Y101282
X6350Y105410
X20320Y112712
X22225Y108902
X22225Y110807
X21273Y106045
X19368Y106045
X18415Y107950
X17145Y107950
X110807Y104775
X112077Y104775
X113030Y103187
X11430Y45085
X6350Y106997
X7302Y107950
X8890Y107950
X9843Y106997
X9843Y105410
X9843Y103822
X8890Y102870
X7302Y102870
X6350Y103822
X29210Y43180
M30